G04 EAGLE Gerber RS-274X export*
G75*
%MOMM*%
%FSLAX34Y34*%
%LPD*%
%IN*%
%IPPOS*%
%AMOC8*
5,1,8,0,0,1.08239X$1,22.5*%
G01*
%ADD10C,0.254000*%


D10*
X0Y0D02*
X660400Y0D01*
X660400Y25400D01*
X685800Y50800D01*
X685800Y377825D01*
X660400Y403225D01*
X660400Y517525D01*
X644525Y533400D01*
X0Y533400D01*
X0Y444500D01*
X92075Y444500D01*
X92075Y317500D01*
X0Y317500D01*
X0Y127000D01*
X123825Y127000D01*
X123825Y38100D01*
X0Y38100D01*
X0Y0D01*
X168400Y507476D02*
X168332Y506431D01*
X168195Y505392D01*
X167990Y504365D01*
X167719Y503353D01*
X167383Y502361D01*
X166982Y501393D01*
X166518Y500454D01*
X165995Y499546D01*
X165413Y498675D01*
X164775Y497844D01*
X164084Y497057D01*
X163343Y496316D01*
X162556Y495625D01*
X161725Y494988D01*
X160854Y494406D01*
X159946Y493882D01*
X159007Y493418D01*
X158039Y493017D01*
X157047Y492681D01*
X156035Y492410D01*
X155008Y492205D01*
X153969Y492069D01*
X152924Y492000D01*
X151876Y492000D01*
X150831Y492069D01*
X149792Y492205D01*
X148765Y492410D01*
X147753Y492681D01*
X146761Y493017D01*
X145793Y493418D01*
X144854Y493882D01*
X143946Y494406D01*
X143075Y494988D01*
X142244Y495625D01*
X141457Y496316D01*
X140716Y497057D01*
X140025Y497844D01*
X139388Y498675D01*
X138806Y499546D01*
X138282Y500454D01*
X137818Y501393D01*
X137417Y502361D01*
X137081Y503353D01*
X136810Y504365D01*
X136605Y505392D01*
X136469Y506431D01*
X136400Y507476D01*
X136400Y508524D01*
X136469Y509569D01*
X136605Y510608D01*
X136810Y511635D01*
X137081Y512647D01*
X137417Y513639D01*
X137818Y514607D01*
X138282Y515546D01*
X138806Y516454D01*
X139388Y517325D01*
X140025Y518156D01*
X140716Y518943D01*
X141457Y519684D01*
X142244Y520375D01*
X143075Y521013D01*
X143946Y521595D01*
X144854Y522118D01*
X145793Y522582D01*
X146761Y522983D01*
X147753Y523319D01*
X148765Y523590D01*
X149792Y523795D01*
X150831Y523932D01*
X151876Y524000D01*
X152924Y524000D01*
X153969Y523932D01*
X155008Y523795D01*
X156035Y523590D01*
X157047Y523319D01*
X158039Y522983D01*
X159007Y522582D01*
X159946Y522118D01*
X160854Y521595D01*
X161725Y521013D01*
X162556Y520375D01*
X163343Y519684D01*
X164084Y518943D01*
X164775Y518156D01*
X165413Y517325D01*
X165995Y516454D01*
X166518Y515546D01*
X166982Y514607D01*
X167383Y513639D01*
X167719Y512647D01*
X167990Y511635D01*
X168195Y510608D01*
X168332Y509569D01*
X168400Y508524D01*
X168400Y507476D01*
X676400Y355076D02*
X676332Y354031D01*
X676195Y352992D01*
X675990Y351965D01*
X675719Y350953D01*
X675383Y349961D01*
X674982Y348993D01*
X674518Y348054D01*
X673995Y347146D01*
X673413Y346275D01*
X672775Y345444D01*
X672084Y344657D01*
X671343Y343916D01*
X670556Y343225D01*
X669725Y342588D01*
X668854Y342006D01*
X667946Y341482D01*
X667007Y341018D01*
X666039Y340617D01*
X665047Y340281D01*
X664035Y340010D01*
X663008Y339805D01*
X661969Y339669D01*
X660924Y339600D01*
X659876Y339600D01*
X658831Y339669D01*
X657792Y339805D01*
X656765Y340010D01*
X655753Y340281D01*
X654761Y340617D01*
X653793Y341018D01*
X652854Y341482D01*
X651946Y342006D01*
X651075Y342588D01*
X650244Y343225D01*
X649457Y343916D01*
X648716Y344657D01*
X648025Y345444D01*
X647388Y346275D01*
X646806Y347146D01*
X646282Y348054D01*
X645818Y348993D01*
X645417Y349961D01*
X645081Y350953D01*
X644810Y351965D01*
X644605Y352992D01*
X644469Y354031D01*
X644400Y355076D01*
X644400Y356124D01*
X644469Y357169D01*
X644605Y358208D01*
X644810Y359235D01*
X645081Y360247D01*
X645417Y361239D01*
X645818Y362207D01*
X646282Y363146D01*
X646806Y364054D01*
X647388Y364925D01*
X648025Y365756D01*
X648716Y366543D01*
X649457Y367284D01*
X650244Y367975D01*
X651075Y368613D01*
X651946Y369195D01*
X652854Y369718D01*
X653793Y370182D01*
X654761Y370583D01*
X655753Y370919D01*
X656765Y371190D01*
X657792Y371395D01*
X658831Y371532D01*
X659876Y371600D01*
X660924Y371600D01*
X661969Y371532D01*
X663008Y371395D01*
X664035Y371190D01*
X665047Y370919D01*
X666039Y370583D01*
X667007Y370182D01*
X667946Y369718D01*
X668854Y369195D01*
X669725Y368613D01*
X670556Y367975D01*
X671343Y367284D01*
X672084Y366543D01*
X672775Y365756D01*
X673413Y364925D01*
X673995Y364054D01*
X674518Y363146D01*
X674982Y362207D01*
X675383Y361239D01*
X675719Y360247D01*
X675990Y359235D01*
X676195Y358208D01*
X676332Y357169D01*
X676400Y356124D01*
X676400Y355076D01*
X155700Y24876D02*
X155632Y23831D01*
X155495Y22792D01*
X155290Y21765D01*
X155019Y20753D01*
X154683Y19761D01*
X154282Y18793D01*
X153818Y17854D01*
X153295Y16946D01*
X152713Y16075D01*
X152075Y15244D01*
X151384Y14457D01*
X150643Y13716D01*
X149856Y13025D01*
X149025Y12388D01*
X148154Y11806D01*
X147246Y11282D01*
X146307Y10818D01*
X145339Y10417D01*
X144347Y10081D01*
X143335Y9810D01*
X142308Y9605D01*
X141269Y9469D01*
X140224Y9400D01*
X139176Y9400D01*
X138131Y9469D01*
X137092Y9605D01*
X136065Y9810D01*
X135053Y10081D01*
X134061Y10417D01*
X133093Y10818D01*
X132154Y11282D01*
X131246Y11806D01*
X130375Y12388D01*
X129544Y13025D01*
X128757Y13716D01*
X128016Y14457D01*
X127325Y15244D01*
X126688Y16075D01*
X126106Y16946D01*
X125582Y17854D01*
X125118Y18793D01*
X124717Y19761D01*
X124381Y20753D01*
X124110Y21765D01*
X123905Y22792D01*
X123769Y23831D01*
X123700Y24876D01*
X123700Y25924D01*
X123769Y26969D01*
X123905Y28008D01*
X124110Y29035D01*
X124381Y30047D01*
X124717Y31039D01*
X125118Y32007D01*
X125582Y32946D01*
X126106Y33854D01*
X126688Y34725D01*
X127325Y35556D01*
X128016Y36343D01*
X128757Y37084D01*
X129544Y37775D01*
X130375Y38413D01*
X131246Y38995D01*
X132154Y39518D01*
X133093Y39982D01*
X134061Y40383D01*
X135053Y40719D01*
X136065Y40990D01*
X137092Y41195D01*
X138131Y41332D01*
X139176Y41400D01*
X140224Y41400D01*
X141269Y41332D01*
X142308Y41195D01*
X143335Y40990D01*
X144347Y40719D01*
X145339Y40383D01*
X146307Y39982D01*
X147246Y39518D01*
X148154Y38995D01*
X149025Y38413D01*
X149856Y37775D01*
X150643Y37084D01*
X151384Y36343D01*
X152075Y35556D01*
X152713Y34725D01*
X153295Y33854D01*
X153818Y32946D01*
X154282Y32007D01*
X154683Y31039D01*
X155019Y30047D01*
X155290Y29035D01*
X155495Y28008D01*
X155632Y26969D01*
X155700Y25924D01*
X155700Y24876D01*
X630091Y270325D02*
X629477Y270394D01*
X628875Y270532D01*
X628292Y270736D01*
X627735Y271004D01*
X627212Y271332D01*
X626729Y271718D01*
X626293Y272154D01*
X625907Y272637D01*
X625579Y273160D01*
X625311Y273717D01*
X625107Y274300D01*
X624969Y274902D01*
X624900Y275516D01*
X624900Y276134D01*
X624969Y276748D01*
X625107Y277350D01*
X625311Y277933D01*
X625579Y278490D01*
X625907Y279013D01*
X626293Y279496D01*
X626729Y279933D01*
X627212Y280318D01*
X627735Y280646D01*
X628292Y280914D01*
X628875Y281118D01*
X629477Y281256D01*
X630091Y281325D01*
X630709Y281325D01*
X631323Y281256D01*
X631925Y281118D01*
X632508Y280914D01*
X633065Y280646D01*
X633588Y280318D01*
X634071Y279933D01*
X634508Y279496D01*
X634893Y279013D01*
X635221Y278490D01*
X635489Y277933D01*
X635693Y277350D01*
X635831Y276748D01*
X635900Y276134D01*
X635900Y275516D01*
X635831Y274902D01*
X635693Y274300D01*
X635489Y273717D01*
X635221Y273160D01*
X634893Y272637D01*
X634508Y272154D01*
X634071Y271718D01*
X633588Y271332D01*
X633065Y271004D01*
X632508Y270736D01*
X631925Y270532D01*
X631323Y270394D01*
X630709Y270325D01*
X630091Y270325D01*
X630091Y220325D02*
X629477Y220394D01*
X628875Y220532D01*
X628292Y220736D01*
X627735Y221004D01*
X627212Y221332D01*
X626729Y221718D01*
X626293Y222154D01*
X625907Y222637D01*
X625579Y223160D01*
X625311Y223717D01*
X625107Y224300D01*
X624969Y224902D01*
X624900Y225516D01*
X624900Y226134D01*
X624969Y226748D01*
X625107Y227350D01*
X625311Y227933D01*
X625579Y228490D01*
X625907Y229013D01*
X626293Y229496D01*
X626729Y229933D01*
X627212Y230318D01*
X627735Y230646D01*
X628292Y230914D01*
X628875Y231118D01*
X629477Y231256D01*
X630091Y231325D01*
X630709Y231325D01*
X631323Y231256D01*
X631925Y231118D01*
X632508Y230914D01*
X633065Y230646D01*
X633588Y230318D01*
X634071Y229933D01*
X634508Y229496D01*
X634893Y229013D01*
X635221Y228490D01*
X635489Y227933D01*
X635693Y227350D01*
X635831Y226748D01*
X635900Y226134D01*
X635900Y225516D01*
X635831Y224902D01*
X635693Y224300D01*
X635489Y223717D01*
X635221Y223160D01*
X634893Y222637D01*
X634508Y222154D01*
X634071Y221718D01*
X633588Y221332D01*
X633065Y221004D01*
X632508Y220736D01*
X631925Y220532D01*
X631323Y220394D01*
X630709Y220325D01*
X630091Y220325D01*
M02*
