G04 EAGLE Gerber RS-274X export*
G75*
%MOMM*%
%FSLAX34Y34*%
%LPD*%
%INSoldermask Bottom*%
%IPPOS*%
%AMOC8*
5,1,8,0,0,1.08239X$1,22.5*%
G01*
%ADD10P,1.649562X8X22.500000*%
%ADD11P,1.649562X8X112.500000*%
%ADD12P,1.649562X8X292.500000*%
%ADD13P,1.649562X8X202.500000*%
%ADD14C,1.320800*%
%ADD15P,2.034460X8X22.500000*%
%ADD16C,3.403200*%
%ADD17C,2.153200*%
%ADD18C,1.303200*%
%ADD19C,1.993900*%


D10*
X571500Y352425D03*
X596900Y352425D03*
D11*
X520700Y431800D03*
X520700Y457200D03*
D12*
X520700Y393700D03*
X520700Y368300D03*
D13*
X647700Y317500D03*
X571500Y317500D03*
D11*
X558800Y381000D03*
X558800Y457200D03*
X596900Y381000D03*
X596900Y457200D03*
D13*
X355600Y393700D03*
X279400Y393700D03*
D14*
X304800Y431800D03*
X330200Y457200D03*
X355600Y431800D03*
D11*
X406400Y381000D03*
X406400Y457200D03*
X482600Y381000D03*
X482600Y457200D03*
D12*
X444500Y457200D03*
X444500Y381000D03*
D15*
X533400Y508000D03*
X508000Y25400D03*
X558800Y508000D03*
X584200Y508000D03*
X609600Y508000D03*
X635000Y508000D03*
X508000Y508000D03*
X482600Y508000D03*
X457200Y508000D03*
X416560Y508000D03*
X391160Y508000D03*
X365760Y508000D03*
X340360Y508000D03*
X314960Y508000D03*
X289560Y508000D03*
X264160Y508000D03*
X238760Y508000D03*
X533400Y25400D03*
X558800Y25400D03*
X584200Y25400D03*
X609600Y25400D03*
X635000Y25400D03*
X457200Y25400D03*
X431800Y25400D03*
X406400Y25400D03*
X381000Y25400D03*
X355600Y25400D03*
X330200Y25400D03*
D16*
X152400Y508000D03*
X660400Y355600D03*
X139700Y25400D03*
D17*
X582400Y285825D03*
X562400Y250825D03*
X545400Y283825D03*
X550400Y218825D03*
X535400Y250825D03*
D18*
X630400Y275825D03*
X630400Y225825D03*
D19*
X625104Y73825D02*
X607197Y73825D01*
X607197Y123825D02*
X625104Y123825D01*
X625104Y173825D02*
X607197Y173825D01*
M02*
