G04 EAGLE Gerber RS-274X export*
G75*
%MOMM*%
%FSLAX34Y34*%
%LPD*%
%INBottom Copper*%
%IPPOS*%
%AMOC8*
5,1,8,0,0,1.08239X$1,22.5*%
G01*
%ADD10C,2.540000*%
%ADD11P,2.749271X8X202.500000*%
%ADD12C,1.676400*%
%ADD13C,2.775000*%
%ADD14R,2.775000X2.775000*%
%ADD15C,1.508000*%
%ADD16P,1.429621X8X292.500000*%
%ADD17P,1.429621X8X22.500000*%
%ADD18P,1.429621X8X112.500000*%
%ADD19C,1.320800*%
%ADD20C,1.950000*%
%ADD21C,3.810000*%
%ADD22P,1.924489X8X202.500000*%
%ADD23C,1.778000*%
%ADD24C,1.790700*%
%ADD25C,0.889000*%

G36*
X54887Y10925D02*
X54887Y10925D01*
X54917Y10923D01*
X55186Y10945D01*
X55453Y10963D01*
X55481Y10969D01*
X55511Y10971D01*
X55774Y11028D01*
X56037Y11082D01*
X56065Y11092D01*
X56093Y11098D01*
X56346Y11190D01*
X56600Y11278D01*
X56626Y11291D01*
X56653Y11301D01*
X56891Y11426D01*
X57131Y11548D01*
X57155Y11564D01*
X57181Y11578D01*
X57400Y11733D01*
X57621Y11886D01*
X57643Y11906D01*
X57667Y11923D01*
X57864Y12107D01*
X58062Y12287D01*
X58081Y12310D01*
X58103Y12330D01*
X58273Y12538D01*
X58446Y12743D01*
X58461Y12768D01*
X58480Y12791D01*
X58620Y13019D01*
X58764Y13247D01*
X58777Y13274D01*
X58792Y13299D01*
X58900Y13543D01*
X59013Y13789D01*
X59021Y13817D01*
X59033Y13844D01*
X59108Y14102D01*
X59187Y14359D01*
X59191Y14388D01*
X59200Y14416D01*
X59239Y14682D01*
X59283Y14947D01*
X59283Y14976D01*
X59288Y15005D01*
X59292Y15274D01*
X59299Y15543D01*
X59296Y15572D01*
X59296Y15601D01*
X59264Y15868D01*
X59236Y16135D01*
X59229Y16164D01*
X59225Y16193D01*
X59158Y16453D01*
X59094Y16714D01*
X59083Y16741D01*
X59075Y16769D01*
X58973Y17019D01*
X58875Y17268D01*
X58861Y17294D01*
X58850Y17321D01*
X58716Y17554D01*
X58585Y17789D01*
X58567Y17812D01*
X58553Y17838D01*
X58390Y18049D01*
X58227Y18265D01*
X58207Y18287D01*
X58189Y18310D01*
X57999Y18498D01*
X57809Y18690D01*
X57786Y18708D01*
X57765Y18729D01*
X57695Y18779D01*
X57338Y19055D01*
X57168Y19154D01*
X57080Y19216D01*
X55347Y20216D01*
X50616Y24947D01*
X47271Y30742D01*
X45539Y37205D01*
X45539Y43895D01*
X47271Y50358D01*
X50616Y56152D01*
X55348Y60884D01*
X61142Y64229D01*
X67605Y65961D01*
X74295Y65961D01*
X80758Y64229D01*
X86552Y60884D01*
X91284Y56152D01*
X94629Y50358D01*
X96361Y43895D01*
X96361Y37205D01*
X94629Y30742D01*
X91284Y24947D01*
X86553Y20216D01*
X84820Y19216D01*
X84795Y19200D01*
X84769Y19186D01*
X84547Y19033D01*
X84325Y18884D01*
X84303Y18864D01*
X84279Y18848D01*
X84080Y18667D01*
X83878Y18489D01*
X83859Y18467D01*
X83838Y18447D01*
X83665Y18241D01*
X83489Y18038D01*
X83473Y18013D01*
X83454Y17990D01*
X83310Y17763D01*
X83164Y17538D01*
X83151Y17512D01*
X83136Y17487D01*
X83023Y17242D01*
X82908Y17000D01*
X82899Y16972D01*
X82887Y16945D01*
X82809Y16688D01*
X82727Y16432D01*
X82722Y16403D01*
X82713Y16375D01*
X82670Y16111D01*
X82623Y15845D01*
X82622Y15816D01*
X82617Y15787D01*
X82610Y15518D01*
X82599Y15250D01*
X82602Y15221D01*
X82601Y15191D01*
X82629Y14925D01*
X82655Y14657D01*
X82661Y14628D01*
X82664Y14599D01*
X82728Y14338D01*
X82789Y14076D01*
X82799Y14049D01*
X82806Y14020D01*
X82905Y13771D01*
X83000Y13519D01*
X83014Y13493D01*
X83025Y13466D01*
X83156Y13231D01*
X83284Y12995D01*
X83301Y12971D01*
X83315Y12945D01*
X83477Y12729D01*
X83635Y12513D01*
X83655Y12492D01*
X83673Y12468D01*
X83861Y12277D01*
X84047Y12083D01*
X84070Y12065D01*
X84091Y12044D01*
X84303Y11879D01*
X84514Y11712D01*
X84539Y11697D01*
X84562Y11679D01*
X84794Y11544D01*
X85025Y11406D01*
X85052Y11395D01*
X85078Y11380D01*
X85326Y11278D01*
X85573Y11172D01*
X85602Y11165D01*
X85629Y11153D01*
X85888Y11085D01*
X86148Y11014D01*
X86177Y11010D01*
X86205Y11002D01*
X86292Y10994D01*
X86738Y10933D01*
X86935Y10933D01*
X87042Y10923D01*
X429702Y10923D01*
X429885Y10935D01*
X430068Y10938D01*
X430182Y10955D01*
X430296Y10963D01*
X430476Y10999D01*
X430658Y11027D01*
X430768Y11059D01*
X430880Y11082D01*
X431054Y11142D01*
X431230Y11194D01*
X431335Y11240D01*
X431443Y11278D01*
X431607Y11361D01*
X431774Y11436D01*
X431872Y11496D01*
X431974Y11548D01*
X432125Y11652D01*
X432282Y11748D01*
X432371Y11821D01*
X432465Y11886D01*
X432601Y12009D01*
X432743Y12126D01*
X432821Y12210D01*
X432906Y12287D01*
X433024Y12428D01*
X433149Y12562D01*
X433215Y12655D01*
X433289Y12743D01*
X433387Y12899D01*
X433493Y13048D01*
X433546Y13150D01*
X433608Y13247D01*
X433684Y13414D01*
X433769Y13576D01*
X433808Y13684D01*
X433856Y13789D01*
X433910Y13964D01*
X433972Y14137D01*
X433997Y14249D01*
X434030Y14359D01*
X434060Y14540D01*
X434099Y14719D01*
X434108Y14833D01*
X434126Y14947D01*
X434131Y15130D01*
X434146Y15313D01*
X434139Y15428D01*
X434143Y15543D01*
X434123Y15725D01*
X434113Y15908D01*
X434091Y16021D01*
X434079Y16135D01*
X434035Y16313D01*
X434001Y16493D01*
X433964Y16602D01*
X433937Y16714D01*
X433870Y16884D01*
X433812Y17058D01*
X433761Y17162D01*
X433719Y17268D01*
X433629Y17428D01*
X433548Y17593D01*
X433498Y17663D01*
X433428Y17789D01*
X433071Y18265D01*
X433064Y18272D01*
X433061Y18277D01*
X429399Y22503D01*
X424599Y33013D01*
X422955Y44450D01*
X424599Y55887D01*
X429399Y66397D01*
X436966Y75130D01*
X446686Y81377D01*
X457773Y84632D01*
X469327Y84632D01*
X480414Y81377D01*
X490230Y75068D01*
X490374Y74988D01*
X490513Y74901D01*
X490635Y74845D01*
X490752Y74780D01*
X490905Y74721D01*
X491055Y74652D01*
X491183Y74613D01*
X491308Y74565D01*
X491468Y74526D01*
X491625Y74478D01*
X491757Y74457D01*
X491887Y74425D01*
X492051Y74409D01*
X492213Y74382D01*
X492347Y74379D01*
X492480Y74365D01*
X492644Y74370D01*
X492809Y74366D01*
X492942Y74380D01*
X493076Y74384D01*
X493238Y74412D01*
X493401Y74429D01*
X493531Y74461D01*
X493663Y74483D01*
X493820Y74532D01*
X493980Y74571D01*
X494104Y74620D01*
X494232Y74660D01*
X494382Y74729D01*
X494534Y74790D01*
X494651Y74855D01*
X494773Y74911D01*
X494911Y75000D01*
X495055Y75080D01*
X495162Y75161D01*
X495275Y75233D01*
X495400Y75339D01*
X495532Y75438D01*
X495627Y75532D01*
X495729Y75618D01*
X495839Y75740D01*
X495956Y75856D01*
X496038Y75962D01*
X496128Y76061D01*
X496220Y76197D01*
X496321Y76327D01*
X496388Y76443D01*
X496464Y76553D01*
X496537Y76700D01*
X496620Y76843D01*
X496671Y76966D01*
X496731Y77086D01*
X496784Y77242D01*
X496847Y77394D01*
X496881Y77523D01*
X496924Y77650D01*
X496956Y77811D01*
X496998Y77970D01*
X497007Y78067D01*
X497040Y78234D01*
X497073Y78762D01*
X497077Y78807D01*
X497077Y275717D01*
X497068Y275849D01*
X497069Y275980D01*
X497048Y276145D01*
X497037Y276312D01*
X497011Y276441D01*
X496994Y276571D01*
X496951Y276732D01*
X496918Y276895D01*
X496875Y277020D01*
X496841Y277147D01*
X496777Y277301D01*
X496722Y277458D01*
X496662Y277576D01*
X496612Y277697D01*
X496528Y277841D01*
X496452Y277990D01*
X496377Y278098D01*
X496311Y278212D01*
X496238Y278300D01*
X496114Y278480D01*
X495843Y278778D01*
X495776Y278860D01*
X353694Y420941D01*
X353694Y530225D01*
X353688Y530313D01*
X353691Y530401D01*
X353668Y530610D01*
X353654Y530820D01*
X353637Y530906D01*
X353627Y530993D01*
X353577Y531197D01*
X353535Y531404D01*
X353506Y531487D01*
X353485Y531572D01*
X353408Y531768D01*
X353339Y531966D01*
X353299Y532045D01*
X353267Y532126D01*
X353165Y532310D01*
X353069Y532498D01*
X353019Y532570D01*
X352977Y532647D01*
X352850Y532815D01*
X352731Y532988D01*
X352672Y533053D01*
X352619Y533124D01*
X352471Y533274D01*
X352330Y533429D01*
X352263Y533486D01*
X352201Y533548D01*
X352035Y533677D01*
X351874Y533812D01*
X351799Y533859D01*
X351730Y533913D01*
X351548Y534018D01*
X351370Y534131D01*
X351290Y534168D01*
X351214Y534212D01*
X351020Y534292D01*
X350828Y534380D01*
X350744Y534405D01*
X350663Y534439D01*
X350460Y534492D01*
X350258Y534553D01*
X350172Y534567D01*
X350087Y534590D01*
X349963Y534602D01*
X349670Y534649D01*
X349373Y534658D01*
X349250Y534669D01*
X338083Y534669D01*
X335049Y535926D01*
X327066Y543909D01*
X326967Y543995D01*
X326874Y544089D01*
X326743Y544191D01*
X326617Y544301D01*
X326507Y544373D01*
X326403Y544454D01*
X326259Y544538D01*
X326120Y544629D01*
X326002Y544687D01*
X325888Y544753D01*
X325734Y544816D01*
X325584Y544889D01*
X325458Y544930D01*
X325336Y544980D01*
X325176Y545022D01*
X325017Y545074D01*
X324887Y545097D01*
X324760Y545131D01*
X324647Y545142D01*
X324431Y545181D01*
X324029Y545200D01*
X323923Y545210D01*
X322711Y545210D01*
X321854Y546068D01*
X321755Y546154D01*
X321662Y546248D01*
X321530Y546350D01*
X321405Y546460D01*
X321295Y546532D01*
X321191Y546613D01*
X321047Y546697D01*
X320908Y546788D01*
X320789Y546846D01*
X320675Y546912D01*
X320521Y546975D01*
X320371Y547048D01*
X320246Y547088D01*
X320124Y547139D01*
X319963Y547181D01*
X319805Y547233D01*
X319675Y547256D01*
X319548Y547290D01*
X319435Y547301D01*
X319219Y547340D01*
X318817Y547359D01*
X318711Y547369D01*
X306764Y547369D01*
X306632Y547360D01*
X306501Y547361D01*
X306335Y547340D01*
X306169Y547329D01*
X306040Y547303D01*
X305909Y547286D01*
X305748Y547243D01*
X305585Y547210D01*
X305461Y547167D01*
X305333Y547133D01*
X305180Y547069D01*
X305023Y547014D01*
X304905Y546954D01*
X304783Y546904D01*
X304640Y546820D01*
X304491Y546744D01*
X304383Y546669D01*
X304269Y546603D01*
X304181Y546530D01*
X304001Y546406D01*
X303703Y546135D01*
X303621Y546068D01*
X302764Y545210D01*
X294136Y545210D01*
X288035Y551311D01*
X288035Y559939D01*
X294136Y566040D01*
X294206Y566040D01*
X294249Y566043D01*
X294293Y566041D01*
X294547Y566063D01*
X294800Y566080D01*
X294843Y566088D01*
X294887Y566092D01*
X295135Y566148D01*
X295384Y566199D01*
X295426Y566213D01*
X295468Y566223D01*
X295707Y566311D01*
X295947Y566395D01*
X295986Y566415D01*
X296027Y566430D01*
X296251Y566550D01*
X296478Y566665D01*
X296514Y566690D01*
X296553Y566710D01*
X296759Y566859D01*
X296969Y567003D01*
X297001Y567033D01*
X297037Y567058D01*
X297222Y567233D01*
X297410Y567404D01*
X297438Y567438D01*
X297470Y567468D01*
X297629Y567666D01*
X297793Y567860D01*
X297816Y567898D01*
X297844Y567932D01*
X297976Y568149D01*
X298112Y568364D01*
X298130Y568404D01*
X298153Y568442D01*
X298254Y568675D01*
X298360Y568906D01*
X298373Y568948D01*
X298390Y568988D01*
X298460Y569233D01*
X298534Y569476D01*
X298541Y569519D01*
X298553Y569561D01*
X298589Y569814D01*
X298630Y570064D01*
X298631Y570108D01*
X298637Y570151D01*
X298639Y570405D01*
X298646Y570660D01*
X298642Y570703D01*
X298642Y570747D01*
X298610Y570998D01*
X298583Y571252D01*
X298572Y571295D01*
X298567Y571338D01*
X298501Y571584D01*
X298441Y571831D01*
X298425Y571872D01*
X298413Y571914D01*
X298316Y572149D01*
X298223Y572385D01*
X298201Y572424D01*
X298184Y572464D01*
X298056Y572683D01*
X297932Y572906D01*
X297906Y572941D01*
X297883Y572979D01*
X297816Y573060D01*
X297575Y573382D01*
X297420Y573539D01*
X297348Y573627D01*
X288049Y582926D01*
X285101Y585874D01*
X283814Y588981D01*
X283804Y589123D01*
X283778Y589252D01*
X283761Y589383D01*
X283718Y589544D01*
X283685Y589707D01*
X283642Y589831D01*
X283608Y589959D01*
X283544Y590112D01*
X283489Y590270D01*
X283429Y590387D01*
X283379Y590509D01*
X283295Y590653D01*
X283219Y590801D01*
X283144Y590909D01*
X283078Y591023D01*
X283005Y591111D01*
X282881Y591291D01*
X282614Y591585D01*
X282610Y591589D01*
X282543Y591671D01*
X282509Y591700D01*
X282480Y591732D01*
X282285Y591896D01*
X282094Y592063D01*
X282057Y592087D01*
X282023Y592116D01*
X281808Y592252D01*
X281597Y592392D01*
X281557Y592411D01*
X281520Y592434D01*
X281289Y592541D01*
X281060Y592651D01*
X281018Y592665D01*
X280978Y592683D01*
X280736Y592757D01*
X280494Y592836D01*
X280450Y592844D01*
X280408Y592857D01*
X280158Y592898D01*
X279907Y592944D01*
X279863Y592946D01*
X279820Y592953D01*
X279566Y592960D01*
X279312Y592972D01*
X279268Y592968D01*
X279224Y592969D01*
X278971Y592942D01*
X278719Y592920D01*
X278676Y592910D01*
X278632Y592906D01*
X278385Y592845D01*
X278137Y592789D01*
X278096Y592774D01*
X278053Y592764D01*
X277817Y592671D01*
X277578Y592582D01*
X277539Y592561D01*
X277499Y592545D01*
X277277Y592421D01*
X277052Y592302D01*
X277017Y592276D01*
X276978Y592255D01*
X276774Y592102D01*
X276569Y591954D01*
X276537Y591924D01*
X276501Y591897D01*
X276320Y591719D01*
X276136Y591544D01*
X276108Y591510D01*
X276077Y591479D01*
X275921Y591279D01*
X275762Y591081D01*
X275739Y591043D01*
X275712Y591008D01*
X275584Y590788D01*
X275453Y590571D01*
X275435Y590531D01*
X275413Y590492D01*
X275316Y590257D01*
X275215Y590024D01*
X275203Y589982D01*
X275186Y589941D01*
X275122Y589696D01*
X275053Y589451D01*
X275046Y589407D01*
X275035Y589365D01*
X275025Y589259D01*
X274968Y588861D01*
X274966Y588642D01*
X274956Y588528D01*
X274956Y541836D01*
X274965Y541704D01*
X274964Y541572D01*
X274985Y541407D01*
X274996Y541241D01*
X275022Y541112D01*
X275039Y540981D01*
X275082Y540820D01*
X275115Y540657D01*
X275158Y540532D01*
X275192Y540405D01*
X275256Y540251D01*
X275311Y540094D01*
X275371Y539977D01*
X275421Y539855D01*
X275505Y539711D01*
X275581Y539563D01*
X275656Y539454D01*
X275722Y539341D01*
X275795Y539253D01*
X275919Y539072D01*
X276190Y538775D01*
X276257Y538693D01*
X283224Y531726D01*
X284481Y528692D01*
X284481Y490914D01*
X284484Y490870D01*
X284482Y490826D01*
X284504Y490573D01*
X284521Y490319D01*
X284529Y490276D01*
X284533Y490232D01*
X284589Y489984D01*
X284640Y489735D01*
X284654Y489694D01*
X284664Y489651D01*
X284752Y489412D01*
X284836Y489173D01*
X284856Y489133D01*
X284871Y489092D01*
X284991Y488868D01*
X285106Y488641D01*
X285131Y488605D01*
X285151Y488566D01*
X285300Y488360D01*
X285444Y488151D01*
X285474Y488118D01*
X285499Y488082D01*
X285674Y487898D01*
X285845Y487710D01*
X285879Y487681D01*
X285909Y487649D01*
X286107Y487490D01*
X286301Y487326D01*
X286339Y487303D01*
X286373Y487275D01*
X286590Y487144D01*
X286805Y487008D01*
X286845Y486989D01*
X286883Y486967D01*
X287116Y486865D01*
X287347Y486759D01*
X287389Y486746D01*
X287429Y486729D01*
X287674Y486659D01*
X287917Y486585D01*
X287960Y486578D01*
X288002Y486566D01*
X288254Y486530D01*
X288505Y486489D01*
X288549Y486488D01*
X288592Y486482D01*
X288846Y486480D01*
X289101Y486473D01*
X289144Y486478D01*
X289188Y486477D01*
X289440Y486509D01*
X289693Y486536D01*
X289736Y486547D01*
X289779Y486552D01*
X290025Y486618D01*
X290272Y486678D01*
X290313Y486695D01*
X290355Y486706D01*
X290590Y486804D01*
X290826Y486897D01*
X290865Y486918D01*
X290905Y486935D01*
X291125Y487063D01*
X291347Y487187D01*
X291382Y487214D01*
X291420Y487236D01*
X291501Y487303D01*
X291823Y487545D01*
X291980Y487699D01*
X292068Y487771D01*
X294006Y489709D01*
X294006Y479425D01*
X294006Y469141D01*
X292068Y471079D01*
X292035Y471108D01*
X292005Y471140D01*
X291810Y471304D01*
X291619Y471471D01*
X291582Y471495D01*
X291548Y471524D01*
X291334Y471660D01*
X291122Y471800D01*
X291082Y471819D01*
X291045Y471842D01*
X290814Y471948D01*
X290585Y472059D01*
X290543Y472072D01*
X290503Y472091D01*
X290261Y472165D01*
X290019Y472244D01*
X289975Y472252D01*
X289933Y472265D01*
X289683Y472305D01*
X289432Y472351D01*
X289388Y472354D01*
X289345Y472361D01*
X289091Y472368D01*
X288837Y472380D01*
X288793Y472376D01*
X288749Y472377D01*
X288496Y472350D01*
X288244Y472328D01*
X288201Y472318D01*
X288157Y472314D01*
X287910Y472253D01*
X287662Y472197D01*
X287621Y472182D01*
X287578Y472172D01*
X287342Y472079D01*
X287103Y471990D01*
X287064Y471969D01*
X287024Y471953D01*
X286801Y471829D01*
X286577Y471710D01*
X286542Y471684D01*
X286503Y471663D01*
X286299Y471510D01*
X286094Y471362D01*
X286062Y471332D01*
X286026Y471305D01*
X285845Y471127D01*
X285661Y470952D01*
X285633Y470918D01*
X285602Y470887D01*
X285446Y470686D01*
X285287Y470488D01*
X285264Y470451D01*
X285237Y470416D01*
X285109Y470196D01*
X284978Y469979D01*
X284960Y469938D01*
X284938Y469900D01*
X284842Y469666D01*
X284740Y469432D01*
X284728Y469390D01*
X284711Y469349D01*
X284647Y469104D01*
X284578Y468859D01*
X284571Y468815D01*
X284560Y468773D01*
X284550Y468667D01*
X284493Y468269D01*
X284491Y468050D01*
X284481Y467936D01*
X284481Y322493D01*
X284491Y322340D01*
X284491Y322186D01*
X284511Y322042D01*
X284521Y321898D01*
X284551Y321748D01*
X284572Y321595D01*
X284603Y321497D01*
X284640Y321314D01*
X284798Y320862D01*
X284819Y320792D01*
X286640Y316397D01*
X286640Y312253D01*
X285054Y308426D01*
X281972Y305343D01*
X281847Y305268D01*
X281759Y305197D01*
X281665Y305133D01*
X281648Y305118D01*
X281630Y305106D01*
X281510Y304997D01*
X281383Y304895D01*
X281305Y304812D01*
X281220Y304737D01*
X281205Y304720D01*
X281189Y304705D01*
X281085Y304581D01*
X280972Y304463D01*
X280906Y304371D01*
X280832Y304284D01*
X280820Y304265D01*
X280806Y304248D01*
X280719Y304112D01*
X280623Y303979D01*
X280570Y303879D01*
X280508Y303784D01*
X280499Y303763D01*
X280487Y303745D01*
X280420Y303598D01*
X280342Y303454D01*
X280303Y303347D01*
X280254Y303245D01*
X280247Y303223D01*
X280238Y303203D01*
X280191Y303049D01*
X280134Y302896D01*
X280109Y302785D01*
X280075Y302677D01*
X280071Y302654D01*
X280065Y302633D01*
X280039Y302474D01*
X280002Y302314D01*
X279992Y302202D01*
X279973Y302089D01*
X279972Y302066D01*
X279969Y302045D01*
X279964Y301884D01*
X279950Y301721D01*
X279955Y301607D01*
X279951Y301494D01*
X279953Y301471D01*
X279952Y301449D01*
X279969Y301289D01*
X279977Y301126D01*
X279997Y301014D01*
X280008Y300901D01*
X280013Y300878D01*
X280016Y300857D01*
X280054Y300700D01*
X280083Y300539D01*
X280118Y300431D01*
X280144Y300321D01*
X280152Y300299D01*
X280158Y300278D01*
X280217Y300128D01*
X280267Y299972D01*
X280316Y299870D01*
X280357Y299764D01*
X280368Y299744D01*
X280376Y299724D01*
X280455Y299582D01*
X280525Y299435D01*
X280588Y299340D01*
X280642Y299241D01*
X280656Y299223D01*
X280666Y299203D01*
X280764Y299073D01*
X280853Y298938D01*
X280928Y298852D01*
X280995Y298760D01*
X281011Y298744D01*
X281024Y298726D01*
X281138Y298611D01*
X281245Y298488D01*
X281330Y298413D01*
X281409Y298332D01*
X281426Y298318D01*
X281442Y298302D01*
X281570Y298202D01*
X281693Y298095D01*
X281765Y298050D01*
X281876Y297962D01*
X281895Y297951D01*
X281913Y297937D01*
X282152Y297798D01*
X282389Y297658D01*
X282399Y297654D01*
X282405Y297650D01*
X282417Y297645D01*
X282429Y297638D01*
X282684Y297533D01*
X282938Y297426D01*
X282947Y297423D01*
X282955Y297420D01*
X282968Y297416D01*
X282980Y297411D01*
X283247Y297341D01*
X283513Y297269D01*
X283522Y297268D01*
X283531Y297265D01*
X283543Y297264D01*
X283556Y297260D01*
X283607Y297255D01*
X283823Y297228D01*
X284103Y297190D01*
X284112Y297190D01*
X284122Y297189D01*
X284295Y297190D01*
X284393Y297181D01*
X296917Y297181D01*
X299951Y295924D01*
X314974Y280901D01*
X316231Y277867D01*
X316231Y189411D01*
X316240Y189279D01*
X316239Y189147D01*
X316260Y188982D01*
X316271Y188816D01*
X316297Y188687D01*
X316314Y188556D01*
X316357Y188395D01*
X316390Y188232D01*
X316433Y188107D01*
X316467Y187980D01*
X316531Y187826D01*
X316586Y187669D01*
X316646Y187552D01*
X316696Y187430D01*
X316780Y187286D01*
X316856Y187138D01*
X316931Y187029D01*
X316997Y186916D01*
X317070Y186828D01*
X317194Y186647D01*
X317465Y186350D01*
X317532Y186268D01*
X342993Y160807D01*
X343060Y160749D01*
X343120Y160685D01*
X343284Y160553D01*
X343442Y160415D01*
X343516Y160366D01*
X343584Y160311D01*
X343764Y160202D01*
X343939Y160086D01*
X344018Y160048D01*
X344094Y160002D01*
X344287Y159918D01*
X344476Y159827D01*
X344560Y159800D01*
X344640Y159765D01*
X344843Y159707D01*
X345042Y159642D01*
X345129Y159626D01*
X345214Y159602D01*
X345422Y159572D01*
X345628Y159534D01*
X345717Y159530D01*
X345804Y159518D01*
X346014Y159516D01*
X346224Y159506D01*
X346311Y159514D01*
X346400Y159513D01*
X346608Y159540D01*
X346817Y159558D01*
X346903Y159577D01*
X346991Y159588D01*
X347183Y159640D01*
X356739Y159640D01*
X362840Y153539D01*
X362840Y144911D01*
X356739Y138810D01*
X348111Y138810D01*
X347254Y139668D01*
X347155Y139754D01*
X347062Y139848D01*
X346930Y139950D01*
X346805Y140060D01*
X346695Y140132D01*
X346591Y140213D01*
X346447Y140297D01*
X346308Y140388D01*
X346189Y140446D01*
X346075Y140512D01*
X345921Y140575D01*
X345771Y140648D01*
X345646Y140688D01*
X345524Y140739D01*
X345363Y140781D01*
X345205Y140833D01*
X345075Y140856D01*
X344948Y140890D01*
X344835Y140901D01*
X344619Y140940D01*
X344217Y140959D01*
X344111Y140969D01*
X341258Y140969D01*
X338224Y142226D01*
X305857Y174593D01*
X305758Y174679D01*
X305665Y174773D01*
X305534Y174875D01*
X305408Y174985D01*
X305298Y175057D01*
X305194Y175138D01*
X305050Y175222D01*
X304911Y175313D01*
X304793Y175371D01*
X304679Y175437D01*
X304525Y175500D01*
X304375Y175573D01*
X304249Y175614D01*
X304127Y175664D01*
X303967Y175706D01*
X303808Y175758D01*
X303678Y175781D01*
X303551Y175815D01*
X303438Y175826D01*
X303222Y175865D01*
X302820Y175884D01*
X302714Y175894D01*
X284539Y175894D01*
X284407Y175885D01*
X284276Y175886D01*
X284110Y175865D01*
X283944Y175854D01*
X283815Y175828D01*
X283684Y175811D01*
X283524Y175768D01*
X283360Y175735D01*
X283236Y175692D01*
X283109Y175658D01*
X282955Y175594D01*
X282798Y175539D01*
X282680Y175479D01*
X282558Y175429D01*
X282415Y175345D01*
X282266Y175269D01*
X282158Y175194D01*
X282044Y175128D01*
X281956Y175055D01*
X281776Y174931D01*
X281478Y174660D01*
X281396Y174593D01*
X280539Y173735D01*
X271911Y173735D01*
X265810Y179836D01*
X265810Y188464D01*
X271911Y194565D01*
X280539Y194565D01*
X281396Y193707D01*
X281495Y193621D01*
X281588Y193527D01*
X281720Y193425D01*
X281845Y193315D01*
X281955Y193243D01*
X282059Y193162D01*
X282203Y193078D01*
X282342Y192987D01*
X282461Y192929D01*
X282575Y192863D01*
X282729Y192800D01*
X282879Y192727D01*
X283004Y192686D01*
X283126Y192636D01*
X283287Y192594D01*
X283445Y192542D01*
X283575Y192519D01*
X283702Y192485D01*
X283815Y192474D01*
X284031Y192435D01*
X284433Y192416D01*
X284539Y192406D01*
X295275Y192406D01*
X295363Y192412D01*
X295451Y192409D01*
X295660Y192432D01*
X295870Y192446D01*
X295956Y192463D01*
X296043Y192473D01*
X296247Y192523D01*
X296454Y192565D01*
X296537Y192594D01*
X296622Y192615D01*
X296818Y192692D01*
X297016Y192761D01*
X297095Y192801D01*
X297176Y192833D01*
X297360Y192935D01*
X297548Y193031D01*
X297620Y193081D01*
X297697Y193123D01*
X297865Y193250D01*
X298038Y193369D01*
X298103Y193428D01*
X298174Y193481D01*
X298324Y193629D01*
X298479Y193770D01*
X298536Y193837D01*
X298598Y193899D01*
X298727Y194065D01*
X298862Y194226D01*
X298909Y194301D01*
X298963Y194370D01*
X299068Y194552D01*
X299181Y194730D01*
X299218Y194810D01*
X299262Y194886D01*
X299342Y195080D01*
X299430Y195272D01*
X299455Y195356D01*
X299489Y195437D01*
X299542Y195640D01*
X299603Y195842D01*
X299617Y195928D01*
X299640Y196013D01*
X299652Y196137D01*
X299699Y196430D01*
X299708Y196727D01*
X299719Y196850D01*
X299719Y270964D01*
X299710Y271096D01*
X299711Y271228D01*
X299690Y271393D01*
X299679Y271559D01*
X299653Y271688D01*
X299636Y271819D01*
X299593Y271980D01*
X299560Y272143D01*
X299517Y272268D01*
X299483Y272395D01*
X299419Y272549D01*
X299364Y272706D01*
X299304Y272823D01*
X299254Y272945D01*
X299170Y273089D01*
X299094Y273237D01*
X299019Y273346D01*
X298953Y273459D01*
X298880Y273547D01*
X298756Y273728D01*
X298485Y274025D01*
X298418Y274107D01*
X293157Y279368D01*
X293058Y279454D01*
X292965Y279548D01*
X292834Y279650D01*
X292708Y279760D01*
X292598Y279832D01*
X292494Y279913D01*
X292350Y279997D01*
X292211Y280088D01*
X292093Y280146D01*
X291979Y280212D01*
X291825Y280275D01*
X291675Y280348D01*
X291549Y280389D01*
X291427Y280439D01*
X291267Y280481D01*
X291108Y280533D01*
X290978Y280556D01*
X290851Y280590D01*
X290738Y280601D01*
X290522Y280640D01*
X290120Y280659D01*
X290014Y280669D01*
X284393Y280669D01*
X284371Y280668D01*
X284349Y280669D01*
X284074Y280648D01*
X283798Y280629D01*
X283777Y280625D01*
X283755Y280623D01*
X283485Y280565D01*
X283214Y280510D01*
X283193Y280503D01*
X283172Y280498D01*
X282912Y280405D01*
X282652Y280314D01*
X282632Y280304D01*
X282611Y280297D01*
X282367Y280170D01*
X282120Y280044D01*
X282102Y280032D01*
X282083Y280022D01*
X281858Y279863D01*
X281630Y279706D01*
X281613Y279691D01*
X281595Y279678D01*
X281394Y279492D01*
X281189Y279305D01*
X281175Y279288D01*
X281159Y279273D01*
X280983Y279060D01*
X280806Y278849D01*
X280794Y278830D01*
X280780Y278813D01*
X280636Y278580D01*
X280487Y278345D01*
X280478Y278325D01*
X280466Y278306D01*
X280354Y278055D01*
X280238Y277803D01*
X280232Y277782D01*
X280223Y277762D01*
X280144Y277495D01*
X280064Y277233D01*
X280061Y277212D01*
X280055Y277190D01*
X280013Y276917D01*
X279968Y276645D01*
X279968Y276623D01*
X279965Y276601D01*
X279960Y276325D01*
X279952Y276049D01*
X279954Y276028D01*
X279954Y276006D01*
X279986Y275731D01*
X280015Y275457D01*
X280021Y275436D01*
X280023Y275414D01*
X280092Y275147D01*
X280158Y274878D01*
X280166Y274858D01*
X280171Y274836D01*
X280275Y274580D01*
X280376Y274324D01*
X280386Y274305D01*
X280395Y274284D01*
X280532Y274045D01*
X280666Y273803D01*
X280680Y273785D01*
X280690Y273767D01*
X280857Y273549D01*
X281024Y273327D01*
X281039Y273311D01*
X281053Y273293D01*
X281248Y273099D01*
X281442Y272902D01*
X281459Y272888D01*
X281475Y272873D01*
X281695Y272706D01*
X281913Y272537D01*
X281932Y272526D01*
X281950Y272513D01*
X281985Y272494D01*
X285054Y269424D01*
X286640Y265597D01*
X286640Y261453D01*
X285054Y257626D01*
X281973Y254545D01*
X281875Y254475D01*
X281665Y254333D01*
X281632Y254304D01*
X281595Y254278D01*
X281409Y254106D01*
X281220Y253937D01*
X281191Y253903D01*
X281159Y253873D01*
X280998Y253678D01*
X280832Y253484D01*
X280808Y253447D01*
X280780Y253413D01*
X280647Y253198D01*
X280508Y252984D01*
X280489Y252944D01*
X280466Y252906D01*
X280363Y252675D01*
X280254Y252445D01*
X280241Y252403D01*
X280223Y252362D01*
X280151Y252119D01*
X280075Y251877D01*
X280067Y251833D01*
X280055Y251790D01*
X280016Y251540D01*
X279973Y251289D01*
X279971Y251245D01*
X279965Y251201D01*
X279960Y250948D01*
X279951Y250694D01*
X279955Y250650D01*
X279954Y250606D01*
X279984Y250353D01*
X280008Y250101D01*
X280018Y250058D01*
X280023Y250014D01*
X280086Y249768D01*
X280144Y249521D01*
X280160Y249479D01*
X280171Y249436D01*
X280267Y249201D01*
X280357Y248964D01*
X280378Y248925D01*
X280395Y248884D01*
X280521Y248663D01*
X280642Y248441D01*
X280669Y248405D01*
X280690Y248367D01*
X280845Y248165D01*
X280995Y247960D01*
X281026Y247929D01*
X281053Y247893D01*
X281233Y247714D01*
X281409Y247532D01*
X281443Y247504D01*
X281475Y247473D01*
X281678Y247319D01*
X281876Y247162D01*
X281914Y247139D01*
X281950Y247113D01*
X281985Y247094D01*
X285054Y244024D01*
X286640Y240197D01*
X286640Y236053D01*
X285054Y232226D01*
X282124Y229296D01*
X278297Y227710D01*
X274153Y227710D01*
X270326Y229296D01*
X267396Y232226D01*
X265810Y236053D01*
X265810Y240197D01*
X267396Y244024D01*
X270482Y247111D01*
X270557Y247163D01*
X270786Y247317D01*
X270802Y247332D01*
X270820Y247344D01*
X271025Y247530D01*
X271231Y247714D01*
X271245Y247730D01*
X271261Y247745D01*
X271439Y247956D01*
X271618Y248166D01*
X271630Y248185D01*
X271644Y248202D01*
X271792Y248435D01*
X271942Y248667D01*
X271951Y248686D01*
X271963Y248705D01*
X272079Y248957D01*
X272196Y249206D01*
X272203Y249227D01*
X272212Y249247D01*
X272292Y249511D01*
X272375Y249774D01*
X272379Y249796D01*
X272386Y249817D01*
X272430Y250089D01*
X272477Y250361D01*
X272478Y250383D01*
X272482Y250405D01*
X272489Y250680D01*
X272499Y250957D01*
X272497Y250979D01*
X272498Y251001D01*
X272469Y251275D01*
X272442Y251550D01*
X272437Y251571D01*
X272435Y251593D01*
X272369Y251861D01*
X272306Y252130D01*
X272298Y252151D01*
X272292Y252172D01*
X272192Y252427D01*
X272093Y252687D01*
X272082Y252706D01*
X272074Y252726D01*
X271939Y252968D01*
X271807Y253210D01*
X271795Y253227D01*
X271784Y253247D01*
X271617Y253469D01*
X271455Y253690D01*
X271439Y253706D01*
X271426Y253724D01*
X271232Y253920D01*
X271041Y254119D01*
X271024Y254133D01*
X271008Y254148D01*
X270790Y254317D01*
X270573Y254488D01*
X270554Y254500D01*
X270537Y254513D01*
X270298Y254652D01*
X270061Y254792D01*
X270040Y254801D01*
X270021Y254812D01*
X269766Y254917D01*
X269512Y255024D01*
X269490Y255030D01*
X269470Y255039D01*
X269204Y255109D01*
X268937Y255181D01*
X268915Y255184D01*
X268894Y255190D01*
X268821Y255197D01*
X268346Y255260D01*
X268160Y255259D01*
X268057Y255269D01*
X209550Y255269D01*
X209462Y255263D01*
X209374Y255266D01*
X209165Y255243D01*
X208955Y255229D01*
X208869Y255212D01*
X208782Y255202D01*
X208578Y255152D01*
X208371Y255110D01*
X208288Y255081D01*
X208203Y255060D01*
X208007Y254983D01*
X207809Y254914D01*
X207730Y254874D01*
X207649Y254842D01*
X207465Y254740D01*
X207277Y254644D01*
X207205Y254594D01*
X207128Y254552D01*
X206960Y254425D01*
X206787Y254306D01*
X206722Y254247D01*
X206651Y254194D01*
X206501Y254046D01*
X206346Y253905D01*
X206289Y253838D01*
X206227Y253776D01*
X206098Y253610D01*
X205963Y253449D01*
X205916Y253374D01*
X205862Y253305D01*
X205757Y253123D01*
X205644Y252945D01*
X205607Y252865D01*
X205563Y252789D01*
X205483Y252595D01*
X205395Y252403D01*
X205370Y252319D01*
X205336Y252238D01*
X205283Y252035D01*
X205222Y251833D01*
X205208Y251747D01*
X205185Y251662D01*
X205173Y251538D01*
X205126Y251245D01*
X205117Y250948D01*
X205106Y250825D01*
X205106Y230564D01*
X205115Y230432D01*
X205114Y230301D01*
X205135Y230135D01*
X205146Y229969D01*
X205172Y229840D01*
X205189Y229709D01*
X205232Y229549D01*
X205265Y229385D01*
X205308Y229261D01*
X205342Y229134D01*
X205406Y228980D01*
X205461Y228823D01*
X205521Y228705D01*
X205571Y228583D01*
X205655Y228440D01*
X205731Y228291D01*
X205806Y228183D01*
X205872Y228069D01*
X205945Y227981D01*
X206069Y227801D01*
X206340Y227503D01*
X206407Y227421D01*
X207265Y226564D01*
X207265Y217936D01*
X201164Y211835D01*
X192536Y211835D01*
X186435Y217936D01*
X186435Y226564D01*
X187293Y227421D01*
X187379Y227520D01*
X187473Y227613D01*
X187575Y227745D01*
X187685Y227870D01*
X187757Y227980D01*
X187838Y228084D01*
X187922Y228228D01*
X188013Y228367D01*
X188071Y228486D01*
X188137Y228600D01*
X188200Y228754D01*
X188273Y228904D01*
X188314Y229029D01*
X188364Y229151D01*
X188406Y229312D01*
X188458Y229470D01*
X188481Y229600D01*
X188515Y229727D01*
X188526Y229840D01*
X188565Y230056D01*
X188584Y230458D01*
X188594Y230564D01*
X188594Y255089D01*
X188585Y255221D01*
X188586Y255353D01*
X188565Y255518D01*
X188554Y255684D01*
X188528Y255813D01*
X188511Y255944D01*
X188468Y256105D01*
X188435Y256268D01*
X188392Y256393D01*
X188358Y256520D01*
X188294Y256674D01*
X188239Y256831D01*
X188179Y256948D01*
X188129Y257070D01*
X188045Y257214D01*
X187969Y257362D01*
X187894Y257471D01*
X187828Y257584D01*
X187755Y257672D01*
X187631Y257853D01*
X187360Y258150D01*
X187293Y258232D01*
X170602Y274923D01*
X170503Y275009D01*
X170410Y275103D01*
X170279Y275205D01*
X170153Y275315D01*
X170043Y275387D01*
X169939Y275468D01*
X169795Y275552D01*
X169656Y275643D01*
X169538Y275701D01*
X169424Y275767D01*
X169270Y275830D01*
X169120Y275903D01*
X168994Y275944D01*
X168872Y275994D01*
X168712Y276036D01*
X168553Y276088D01*
X168423Y276111D01*
X168296Y276145D01*
X168183Y276156D01*
X167967Y276195D01*
X167565Y276214D01*
X167459Y276224D01*
X165749Y276224D01*
X161081Y278158D01*
X158718Y280521D01*
X158652Y280579D01*
X158591Y280643D01*
X158427Y280775D01*
X158269Y280913D01*
X158195Y280962D01*
X158127Y281017D01*
X157947Y281126D01*
X157772Y281242D01*
X157693Y281280D01*
X157617Y281326D01*
X157424Y281410D01*
X157235Y281501D01*
X157152Y281528D01*
X157071Y281563D01*
X156869Y281621D01*
X156669Y281686D01*
X156582Y281702D01*
X156498Y281726D01*
X156289Y281756D01*
X156082Y281794D01*
X155995Y281798D01*
X155908Y281810D01*
X155697Y281812D01*
X155487Y281822D01*
X155400Y281814D01*
X155312Y281815D01*
X155103Y281788D01*
X154894Y281770D01*
X154808Y281751D01*
X154721Y281740D01*
X154517Y281685D01*
X154312Y281639D01*
X154230Y281609D01*
X154145Y281586D01*
X153951Y281505D01*
X153753Y281432D01*
X153676Y281391D01*
X153595Y281357D01*
X153414Y281251D01*
X153227Y281152D01*
X153156Y281101D01*
X153080Y281056D01*
X152985Y280977D01*
X152744Y280804D01*
X152528Y280600D01*
X152432Y280521D01*
X148136Y276224D01*
X137614Y276224D01*
X130174Y283664D01*
X130174Y294186D01*
X130843Y294854D01*
X130929Y294953D01*
X131023Y295046D01*
X131125Y295177D01*
X131235Y295303D01*
X131307Y295413D01*
X131388Y295517D01*
X131472Y295661D01*
X131563Y295800D01*
X131621Y295918D01*
X131687Y296033D01*
X131750Y296187D01*
X131823Y296337D01*
X131863Y296462D01*
X131914Y296584D01*
X131956Y296744D01*
X132008Y296903D01*
X132031Y297033D01*
X132065Y297160D01*
X132076Y297273D01*
X132115Y297489D01*
X132134Y297891D01*
X132144Y297997D01*
X132144Y334465D01*
X132141Y334508D01*
X132143Y334552D01*
X132121Y334806D01*
X132104Y335059D01*
X132096Y335102D01*
X132092Y335146D01*
X132036Y335394D01*
X131985Y335643D01*
X131971Y335685D01*
X131961Y335727D01*
X131873Y335966D01*
X131789Y336206D01*
X131769Y336245D01*
X131754Y336286D01*
X131634Y336510D01*
X131519Y336737D01*
X131494Y336773D01*
X131474Y336812D01*
X131325Y337018D01*
X131181Y337228D01*
X131151Y337260D01*
X131126Y337296D01*
X130951Y337480D01*
X130780Y337669D01*
X130746Y337697D01*
X130716Y337729D01*
X130518Y337888D01*
X130324Y338052D01*
X130286Y338075D01*
X130252Y338103D01*
X130035Y338235D01*
X129820Y338371D01*
X129780Y338389D01*
X129742Y338412D01*
X129509Y338513D01*
X129278Y338619D01*
X129236Y338632D01*
X129196Y338649D01*
X128951Y338719D01*
X128708Y338793D01*
X128665Y338800D01*
X128623Y338812D01*
X128371Y338848D01*
X128120Y338889D01*
X128076Y338890D01*
X128033Y338896D01*
X127779Y338898D01*
X127524Y338905D01*
X127481Y338901D01*
X127437Y338901D01*
X127185Y338869D01*
X126932Y338842D01*
X126889Y338831D01*
X126846Y338826D01*
X126600Y338760D01*
X126353Y338700D01*
X126312Y338684D01*
X126270Y338672D01*
X126035Y338575D01*
X125799Y338482D01*
X125760Y338460D01*
X125720Y338443D01*
X125501Y338315D01*
X125278Y338191D01*
X125243Y338165D01*
X125205Y338142D01*
X125124Y338075D01*
X124802Y337834D01*
X124645Y337679D01*
X124557Y337607D01*
X119276Y332326D01*
X116242Y331069D01*
X77740Y331069D01*
X77608Y331060D01*
X77477Y331061D01*
X77312Y331040D01*
X77145Y331029D01*
X77016Y331003D01*
X76886Y330986D01*
X76725Y330943D01*
X76561Y330910D01*
X76437Y330867D01*
X76310Y330833D01*
X76156Y330769D01*
X75999Y330714D01*
X75881Y330654D01*
X75760Y330604D01*
X75616Y330520D01*
X75467Y330444D01*
X75359Y330369D01*
X75245Y330303D01*
X75157Y330230D01*
X74977Y330106D01*
X74679Y329835D01*
X74597Y329768D01*
X73334Y328504D01*
X68642Y326561D01*
X45658Y326561D01*
X40966Y328504D01*
X37375Y332095D01*
X35432Y336786D01*
X35432Y341864D01*
X37375Y346555D01*
X40966Y350146D01*
X45658Y352089D01*
X68642Y352089D01*
X73334Y350146D01*
X74597Y348882D01*
X74697Y348796D01*
X74789Y348702D01*
X74921Y348600D01*
X75046Y348490D01*
X75156Y348418D01*
X75260Y348337D01*
X75404Y348253D01*
X75543Y348162D01*
X75662Y348104D01*
X75776Y348038D01*
X75930Y347975D01*
X76080Y347902D01*
X76205Y347861D01*
X76327Y347811D01*
X76488Y347769D01*
X76646Y347717D01*
X76776Y347694D01*
X76903Y347660D01*
X77017Y347649D01*
X77233Y347610D01*
X77634Y347591D01*
X77740Y347581D01*
X109339Y347581D01*
X109471Y347590D01*
X109603Y347589D01*
X109768Y347610D01*
X109934Y347621D01*
X110063Y347647D01*
X110194Y347664D01*
X110355Y347707D01*
X110518Y347740D01*
X110643Y347783D01*
X110770Y347817D01*
X110924Y347881D01*
X111081Y347936D01*
X111198Y347996D01*
X111320Y348046D01*
X111464Y348130D01*
X111612Y348206D01*
X111721Y348281D01*
X111834Y348347D01*
X111922Y348420D01*
X112103Y348544D01*
X112400Y348815D01*
X112482Y348882D01*
X130843Y367243D01*
X130929Y367342D01*
X131023Y367435D01*
X131125Y367566D01*
X131235Y367692D01*
X131307Y367802D01*
X131388Y367906D01*
X131472Y368050D01*
X131563Y368189D01*
X131621Y368307D01*
X131687Y368421D01*
X131750Y368575D01*
X131823Y368725D01*
X131864Y368851D01*
X131914Y368972D01*
X131956Y369133D01*
X132008Y369292D01*
X132031Y369421D01*
X132065Y369549D01*
X132076Y369662D01*
X132115Y369878D01*
X132134Y370280D01*
X132144Y370385D01*
X132144Y376512D01*
X132135Y376644D01*
X132136Y376775D01*
X132115Y376941D01*
X132104Y377107D01*
X132078Y377236D01*
X132061Y377367D01*
X132018Y377527D01*
X131985Y377691D01*
X131942Y377815D01*
X131908Y377942D01*
X131844Y378096D01*
X131789Y378253D01*
X131729Y378371D01*
X131679Y378492D01*
X131595Y378636D01*
X131519Y378785D01*
X131444Y378893D01*
X131378Y379007D01*
X131305Y379095D01*
X131181Y379275D01*
X130910Y379573D01*
X130843Y379655D01*
X128904Y381593D01*
X126839Y386578D01*
X126839Y391972D01*
X128904Y396957D01*
X132718Y400771D01*
X137703Y402836D01*
X139932Y402836D01*
X139976Y402839D01*
X140020Y402837D01*
X140273Y402859D01*
X140527Y402876D01*
X140570Y402884D01*
X140614Y402888D01*
X140862Y402944D01*
X141111Y402995D01*
X141152Y403009D01*
X141195Y403019D01*
X141434Y403107D01*
X141673Y403191D01*
X141713Y403211D01*
X141754Y403226D01*
X141978Y403346D01*
X142205Y403461D01*
X142241Y403486D01*
X142280Y403506D01*
X142486Y403655D01*
X142695Y403799D01*
X142728Y403829D01*
X142764Y403854D01*
X142948Y404029D01*
X143136Y404200D01*
X143164Y404234D01*
X143196Y404264D01*
X143356Y404462D01*
X143519Y404656D01*
X143543Y404694D01*
X143571Y404728D01*
X143702Y404945D01*
X143838Y405160D01*
X143857Y405200D01*
X143879Y405238D01*
X143981Y405471D01*
X144087Y405702D01*
X144100Y405744D01*
X144117Y405784D01*
X144186Y406029D01*
X144260Y406272D01*
X144268Y406315D01*
X144280Y406357D01*
X144316Y406609D01*
X144356Y406860D01*
X144358Y406904D01*
X144364Y406947D01*
X144366Y407201D01*
X144373Y407456D01*
X144368Y407499D01*
X144369Y407543D01*
X144337Y407795D01*
X144310Y408048D01*
X144299Y408091D01*
X144293Y408134D01*
X144228Y408380D01*
X144167Y408627D01*
X144151Y408668D01*
X144140Y408710D01*
X144042Y408945D01*
X143949Y409181D01*
X143928Y409220D01*
X143911Y409260D01*
X143783Y409479D01*
X143659Y409702D01*
X143632Y409737D01*
X143610Y409775D01*
X143543Y409856D01*
X143301Y410178D01*
X143147Y410335D01*
X143075Y410423D01*
X140043Y413455D01*
X139977Y413512D01*
X139916Y413576D01*
X139752Y413709D01*
X139594Y413847D01*
X139521Y413895D01*
X139452Y413951D01*
X139272Y414059D01*
X139097Y414176D01*
X139018Y414214D01*
X138942Y414259D01*
X138750Y414343D01*
X138560Y414435D01*
X138476Y414462D01*
X138396Y414497D01*
X138194Y414554D01*
X137994Y414620D01*
X137907Y414636D01*
X137823Y414660D01*
X137614Y414689D01*
X137407Y414727D01*
X137320Y414731D01*
X137233Y414744D01*
X137022Y414746D01*
X136812Y414755D01*
X136725Y414748D01*
X136637Y414749D01*
X136428Y414722D01*
X136218Y414704D01*
X136133Y414685D01*
X136046Y414673D01*
X135842Y414619D01*
X135637Y414573D01*
X135555Y414543D01*
X135470Y414520D01*
X135276Y414439D01*
X135078Y414366D01*
X135001Y414325D01*
X134920Y414291D01*
X134738Y414185D01*
X134552Y414086D01*
X134481Y414034D01*
X134405Y413990D01*
X134310Y413911D01*
X134069Y413738D01*
X133853Y413533D01*
X133757Y413455D01*
X131082Y410779D01*
X126097Y408714D01*
X120703Y408714D01*
X115718Y410779D01*
X111904Y414593D01*
X109839Y419578D01*
X109839Y424972D01*
X111904Y429957D01*
X115718Y433771D01*
X120703Y435836D01*
X123932Y435836D01*
X123976Y435839D01*
X124020Y435837D01*
X124273Y435859D01*
X124527Y435876D01*
X124570Y435884D01*
X124614Y435888D01*
X124862Y435944D01*
X125111Y435995D01*
X125152Y436009D01*
X125195Y436019D01*
X125434Y436107D01*
X125673Y436191D01*
X125713Y436211D01*
X125754Y436226D01*
X125978Y436346D01*
X126205Y436461D01*
X126241Y436486D01*
X126280Y436506D01*
X126486Y436655D01*
X126695Y436799D01*
X126728Y436829D01*
X126764Y436854D01*
X126948Y437029D01*
X127136Y437200D01*
X127164Y437234D01*
X127196Y437264D01*
X127356Y437462D01*
X127519Y437656D01*
X127543Y437694D01*
X127571Y437728D01*
X127702Y437945D01*
X127838Y438160D01*
X127857Y438200D01*
X127879Y438238D01*
X127981Y438471D01*
X128087Y438702D01*
X128100Y438744D01*
X128117Y438784D01*
X128186Y439029D01*
X128260Y439272D01*
X128268Y439315D01*
X128280Y439357D01*
X128316Y439609D01*
X128356Y439860D01*
X128358Y439904D01*
X128364Y439947D01*
X128366Y440201D01*
X128373Y440456D01*
X128368Y440499D01*
X128369Y440543D01*
X128337Y440795D01*
X128310Y441048D01*
X128299Y441091D01*
X128293Y441134D01*
X128228Y441380D01*
X128167Y441627D01*
X128151Y441668D01*
X128140Y441710D01*
X128042Y441945D01*
X127949Y442181D01*
X127928Y442220D01*
X127911Y442260D01*
X127783Y442479D01*
X127659Y442702D01*
X127632Y442737D01*
X127610Y442775D01*
X127543Y442856D01*
X127301Y443178D01*
X127147Y443335D01*
X127075Y443423D01*
X123904Y446593D01*
X121839Y451578D01*
X121839Y456972D01*
X123904Y461957D01*
X127718Y465771D01*
X132703Y467836D01*
X138097Y467836D01*
X143082Y465771D01*
X146896Y461957D01*
X148961Y456972D01*
X148961Y451578D01*
X146896Y446593D01*
X143725Y443423D01*
X143697Y443390D01*
X143664Y443360D01*
X143500Y443165D01*
X143333Y442974D01*
X143309Y442937D01*
X143281Y442903D01*
X143145Y442689D01*
X143004Y442477D01*
X142985Y442437D01*
X142962Y442400D01*
X142856Y442169D01*
X142745Y441940D01*
X142732Y441898D01*
X142713Y441858D01*
X142639Y441615D01*
X142560Y441374D01*
X142552Y441330D01*
X142540Y441288D01*
X142499Y441038D01*
X142453Y440787D01*
X142451Y440743D01*
X142444Y440700D01*
X142437Y440446D01*
X142424Y440192D01*
X142428Y440148D01*
X142427Y440104D01*
X142454Y439851D01*
X142476Y439599D01*
X142486Y439556D01*
X142490Y439512D01*
X142551Y439265D01*
X142607Y439017D01*
X142622Y438976D01*
X142633Y438933D01*
X142725Y438697D01*
X142814Y438458D01*
X142835Y438419D01*
X142851Y438379D01*
X142975Y438156D01*
X143094Y437932D01*
X143120Y437897D01*
X143141Y437858D01*
X143295Y437654D01*
X143442Y437449D01*
X143472Y437417D01*
X143499Y437381D01*
X143677Y437200D01*
X143852Y437016D01*
X143886Y436988D01*
X143917Y436957D01*
X144118Y436801D01*
X144316Y436642D01*
X144353Y436619D01*
X144388Y436592D01*
X144608Y436464D01*
X144825Y436333D01*
X144866Y436315D01*
X144904Y436293D01*
X145139Y436197D01*
X145372Y436095D01*
X145414Y436083D01*
X145455Y436066D01*
X145700Y436002D01*
X145945Y435933D01*
X145989Y435926D01*
X146031Y435915D01*
X146137Y435905D01*
X146535Y435848D01*
X146755Y435846D01*
X146868Y435836D01*
X153097Y435836D01*
X158082Y433771D01*
X161896Y429957D01*
X163961Y424972D01*
X163961Y419578D01*
X161896Y414593D01*
X158082Y410779D01*
X153097Y408714D01*
X150868Y408714D01*
X150824Y408711D01*
X150780Y408713D01*
X150527Y408691D01*
X150273Y408674D01*
X150230Y408666D01*
X150186Y408662D01*
X149938Y408606D01*
X149689Y408555D01*
X149648Y408541D01*
X149605Y408531D01*
X149366Y408443D01*
X149127Y408359D01*
X149087Y408339D01*
X149046Y408324D01*
X148822Y408204D01*
X148595Y408089D01*
X148559Y408064D01*
X148520Y408044D01*
X148314Y407895D01*
X148105Y407751D01*
X148072Y407721D01*
X148036Y407696D01*
X147852Y407521D01*
X147664Y407350D01*
X147636Y407316D01*
X147604Y407286D01*
X147444Y407088D01*
X147281Y406894D01*
X147257Y406856D01*
X147229Y406822D01*
X147098Y406605D01*
X146962Y406390D01*
X146943Y406350D01*
X146921Y406312D01*
X146819Y406079D01*
X146713Y405848D01*
X146701Y405806D01*
X146683Y405766D01*
X146613Y405521D01*
X146540Y405278D01*
X146532Y405235D01*
X146520Y405193D01*
X146484Y404941D01*
X146444Y404690D01*
X146442Y404646D01*
X146436Y404603D01*
X146434Y404349D01*
X146427Y404094D01*
X146432Y404051D01*
X146431Y404007D01*
X146463Y403755D01*
X146490Y403502D01*
X146501Y403459D01*
X146507Y403416D01*
X146572Y403170D01*
X146633Y402923D01*
X146649Y402882D01*
X146660Y402840D01*
X146758Y402605D01*
X146851Y402369D01*
X146872Y402330D01*
X146889Y402290D01*
X147017Y402071D01*
X147141Y401848D01*
X147168Y401813D01*
X147190Y401775D01*
X147257Y401694D01*
X147499Y401372D01*
X147653Y401215D01*
X147725Y401127D01*
X151896Y396957D01*
X153961Y391972D01*
X153961Y386578D01*
X151896Y381593D01*
X149957Y379655D01*
X149871Y379556D01*
X149777Y379463D01*
X149675Y379331D01*
X149565Y379206D01*
X149493Y379096D01*
X149412Y378992D01*
X149328Y378848D01*
X149237Y378709D01*
X149179Y378590D01*
X149113Y378476D01*
X149050Y378322D01*
X148977Y378172D01*
X148937Y378047D01*
X148886Y377925D01*
X148844Y377764D01*
X148792Y377606D01*
X148769Y377476D01*
X148735Y377349D01*
X148724Y377236D01*
X148685Y377020D01*
X148666Y376618D01*
X148656Y376512D01*
X148656Y302947D01*
X148665Y302815D01*
X148664Y302683D01*
X148685Y302518D01*
X148696Y302352D01*
X148722Y302223D01*
X148739Y302092D01*
X148782Y301931D01*
X148815Y301768D01*
X148858Y301644D01*
X148892Y301516D01*
X148956Y301363D01*
X149011Y301205D01*
X149071Y301088D01*
X149121Y300966D01*
X149205Y300822D01*
X149281Y300674D01*
X149356Y300566D01*
X149422Y300452D01*
X149495Y300364D01*
X149619Y300183D01*
X149890Y299886D01*
X149957Y299804D01*
X152432Y297329D01*
X152499Y297271D01*
X152559Y297207D01*
X152723Y297075D01*
X152881Y296937D01*
X152954Y296888D01*
X153023Y296833D01*
X153203Y296724D01*
X153378Y296608D01*
X153457Y296570D01*
X153533Y296524D01*
X153726Y296441D01*
X153915Y296349D01*
X153999Y296322D01*
X154079Y296287D01*
X154281Y296229D01*
X154481Y296164D01*
X154568Y296148D01*
X154652Y296124D01*
X154861Y296094D01*
X155068Y296056D01*
X155155Y296052D01*
X155242Y296040D01*
X155453Y296038D01*
X155663Y296028D01*
X155750Y296036D01*
X155838Y296035D01*
X156047Y296062D01*
X156256Y296080D01*
X156342Y296099D01*
X156429Y296110D01*
X156633Y296165D01*
X156838Y296211D01*
X156920Y296241D01*
X157005Y296264D01*
X157199Y296345D01*
X157397Y296418D01*
X157474Y296459D01*
X157555Y296493D01*
X157737Y296599D01*
X157923Y296698D01*
X157994Y296749D01*
X158070Y296794D01*
X158165Y296873D01*
X158406Y297046D01*
X158622Y297250D01*
X158718Y297329D01*
X161081Y299692D01*
X165749Y301626D01*
X170801Y301626D01*
X175469Y299692D01*
X179042Y296119D01*
X180976Y291451D01*
X180976Y289741D01*
X180985Y289609D01*
X180984Y289477D01*
X181005Y289312D01*
X181016Y289146D01*
X181042Y289017D01*
X181059Y288886D01*
X181102Y288725D01*
X181135Y288562D01*
X181178Y288437D01*
X181212Y288310D01*
X181276Y288156D01*
X181331Y287999D01*
X181391Y287882D01*
X181441Y287760D01*
X181525Y287616D01*
X181601Y287468D01*
X181676Y287359D01*
X181742Y287246D01*
X181815Y287158D01*
X181939Y286977D01*
X182210Y286680D01*
X182277Y286598D01*
X195793Y273082D01*
X195892Y272996D01*
X195985Y272902D01*
X196116Y272800D01*
X196242Y272690D01*
X196352Y272618D01*
X196456Y272537D01*
X196600Y272453D01*
X196739Y272362D01*
X196857Y272304D01*
X196971Y272238D01*
X197125Y272175D01*
X197275Y272102D01*
X197401Y272061D01*
X197523Y272011D01*
X197683Y271969D01*
X197842Y271917D01*
X197972Y271894D01*
X198099Y271860D01*
X198212Y271849D01*
X198428Y271810D01*
X198830Y271791D01*
X198936Y271781D01*
X268057Y271781D01*
X268070Y271782D01*
X268083Y271781D01*
X268093Y271781D01*
X268102Y271781D01*
X268375Y271802D01*
X268652Y271821D01*
X268664Y271823D01*
X268678Y271824D01*
X268687Y271826D01*
X268696Y271827D01*
X268964Y271884D01*
X269236Y271940D01*
X269248Y271944D01*
X269261Y271947D01*
X269268Y271950D01*
X269278Y271952D01*
X269538Y272045D01*
X269798Y272136D01*
X269818Y272146D01*
X269839Y272154D01*
X269965Y272219D01*
X270045Y272250D01*
X270185Y272332D01*
X270330Y272406D01*
X270348Y272418D01*
X270368Y272429D01*
X270461Y272494D01*
X270559Y272552D01*
X270687Y272652D01*
X270820Y272744D01*
X270837Y272759D01*
X270855Y272772D01*
X270938Y272849D01*
X271028Y272919D01*
X271141Y273036D01*
X271261Y273145D01*
X271275Y273162D01*
X271292Y273177D01*
X271364Y273265D01*
X271443Y273346D01*
X271540Y273477D01*
X271644Y273601D01*
X271656Y273620D01*
X271670Y273637D01*
X271730Y273734D01*
X271798Y273825D01*
X271877Y273968D01*
X271963Y274105D01*
X271972Y274125D01*
X271984Y274144D01*
X272031Y274248D01*
X272085Y274347D01*
X272144Y274500D01*
X272212Y274647D01*
X272218Y274668D01*
X272227Y274688D01*
X272259Y274797D01*
X272300Y274903D01*
X272338Y275062D01*
X272385Y275217D01*
X272389Y275238D01*
X272395Y275260D01*
X272413Y275372D01*
X272439Y275483D01*
X272455Y275645D01*
X272481Y275805D01*
X272482Y275827D01*
X272485Y275849D01*
X272487Y275963D01*
X272499Y276076D01*
X272493Y276239D01*
X272498Y276401D01*
X272496Y276422D01*
X272496Y276445D01*
X272483Y276558D01*
X272479Y276671D01*
X272452Y276833D01*
X272434Y276993D01*
X272429Y277014D01*
X272427Y277037D01*
X272398Y277147D01*
X272380Y277259D01*
X272331Y277415D01*
X272292Y277572D01*
X272284Y277592D01*
X272279Y277614D01*
X272236Y277720D01*
X272202Y277828D01*
X272133Y277976D01*
X272074Y278126D01*
X272064Y278145D01*
X272055Y278166D01*
X271999Y278265D01*
X271951Y278368D01*
X271862Y278506D01*
X271784Y278647D01*
X271771Y278664D01*
X271759Y278684D01*
X271690Y278774D01*
X271629Y278870D01*
X271523Y278994D01*
X271426Y279123D01*
X271411Y279139D01*
X271397Y279157D01*
X271317Y279237D01*
X271243Y279324D01*
X271121Y279433D01*
X271008Y279548D01*
X270991Y279562D01*
X270975Y279578D01*
X270884Y279646D01*
X270800Y279722D01*
X270664Y279814D01*
X270537Y279913D01*
X270518Y279924D01*
X270500Y279938D01*
X270465Y279956D01*
X267396Y283026D01*
X265810Y286853D01*
X265810Y290997D01*
X267396Y294824D01*
X270477Y297905D01*
X270575Y297975D01*
X270786Y298117D01*
X270819Y298146D01*
X270855Y298172D01*
X271041Y298345D01*
X271231Y298514D01*
X271259Y298547D01*
X271292Y298577D01*
X271453Y298773D01*
X271618Y298966D01*
X271642Y299003D01*
X271670Y299037D01*
X271804Y299253D01*
X271942Y299467D01*
X271961Y299506D01*
X271984Y299544D01*
X272088Y299776D01*
X272196Y300006D01*
X272209Y300048D01*
X272227Y300088D01*
X272299Y300332D01*
X272375Y300574D01*
X272383Y300617D01*
X272395Y300660D01*
X272434Y300911D01*
X272477Y301161D01*
X272479Y301205D01*
X272485Y301249D01*
X272490Y301502D01*
X272499Y301757D01*
X272495Y301801D01*
X272496Y301845D01*
X272466Y302097D01*
X272442Y302350D01*
X272432Y302393D01*
X272427Y302437D01*
X272364Y302683D01*
X272306Y302930D01*
X272290Y302971D01*
X272279Y303014D01*
X272183Y303250D01*
X272093Y303487D01*
X272072Y303525D01*
X272055Y303566D01*
X271929Y303787D01*
X271807Y304010D01*
X271781Y304045D01*
X271759Y304084D01*
X271605Y304286D01*
X271455Y304490D01*
X271424Y304522D01*
X271397Y304557D01*
X271217Y304736D01*
X271041Y304919D01*
X271006Y304946D01*
X270975Y304978D01*
X270773Y305131D01*
X270573Y305288D01*
X270535Y305311D01*
X270500Y305338D01*
X270465Y305356D01*
X267396Y308426D01*
X265810Y312253D01*
X265810Y316397D01*
X267631Y320792D01*
X267680Y320938D01*
X267739Y321080D01*
X267775Y321220D01*
X267822Y321357D01*
X267851Y321507D01*
X267890Y321656D01*
X267900Y321759D01*
X267935Y321942D01*
X267962Y322420D01*
X267969Y322493D01*
X267969Y521789D01*
X267960Y521921D01*
X267961Y522053D01*
X267940Y522218D01*
X267929Y522384D01*
X267903Y522513D01*
X267886Y522644D01*
X267843Y522805D01*
X267810Y522968D01*
X267767Y523093D01*
X267733Y523220D01*
X267669Y523374D01*
X267614Y523531D01*
X267554Y523648D01*
X267504Y523770D01*
X267420Y523914D01*
X267344Y524062D01*
X267269Y524171D01*
X267203Y524284D01*
X267130Y524372D01*
X267006Y524553D01*
X266735Y524850D01*
X266668Y524932D01*
X259701Y531899D01*
X258444Y534933D01*
X258444Y588528D01*
X258435Y588660D01*
X258436Y588792D01*
X258415Y588957D01*
X258404Y589123D01*
X258378Y589252D01*
X258361Y589383D01*
X258318Y589544D01*
X258285Y589707D01*
X258242Y589831D01*
X258208Y589959D01*
X258144Y590112D01*
X258089Y590270D01*
X258029Y590387D01*
X257979Y590509D01*
X257895Y590652D01*
X257819Y590801D01*
X257744Y590910D01*
X257678Y591023D01*
X257606Y591111D01*
X257481Y591292D01*
X257210Y591589D01*
X257143Y591671D01*
X253999Y594814D01*
X253999Y605336D01*
X261439Y612776D01*
X271961Y612776D01*
X276257Y608479D01*
X276324Y608421D01*
X276384Y608357D01*
X276548Y608225D01*
X276706Y608087D01*
X276780Y608038D01*
X276848Y607983D01*
X277028Y607874D01*
X277203Y607758D01*
X277282Y607720D01*
X277358Y607674D01*
X277551Y607590D01*
X277740Y607499D01*
X277823Y607472D01*
X277904Y607437D01*
X278106Y607379D01*
X278306Y607314D01*
X278393Y607298D01*
X278477Y607274D01*
X278685Y607244D01*
X278892Y607206D01*
X278980Y607202D01*
X279067Y607190D01*
X279278Y607188D01*
X279488Y607178D01*
X279575Y607186D01*
X279663Y607185D01*
X279872Y607212D01*
X280081Y607230D01*
X280167Y607249D01*
X280254Y607260D01*
X280458Y607315D01*
X280663Y607361D01*
X280745Y607391D01*
X280830Y607414D01*
X281025Y607495D01*
X281222Y607568D01*
X281299Y607609D01*
X281380Y607643D01*
X281562Y607749D01*
X281748Y607848D01*
X281819Y607899D01*
X281895Y607944D01*
X281990Y608023D01*
X282231Y608196D01*
X282447Y608400D01*
X282543Y608479D01*
X284906Y610842D01*
X289574Y612776D01*
X294626Y612776D01*
X299294Y610842D01*
X302867Y607269D01*
X304801Y602601D01*
X304801Y597549D01*
X303587Y594618D01*
X303552Y594514D01*
X303508Y594414D01*
X303456Y594232D01*
X303396Y594054D01*
X303375Y593946D01*
X303345Y593840D01*
X303319Y593653D01*
X303283Y593469D01*
X303277Y593359D01*
X303261Y593250D01*
X303260Y593062D01*
X303249Y592874D01*
X303257Y592764D01*
X303256Y592654D01*
X303280Y592468D01*
X303295Y592280D01*
X303318Y592172D01*
X303332Y592063D01*
X303380Y591881D01*
X303420Y591697D01*
X303457Y591593D01*
X303485Y591487D01*
X303557Y591314D01*
X303621Y591136D01*
X303672Y591039D01*
X303714Y590937D01*
X303809Y590775D01*
X303896Y590607D01*
X303960Y590518D01*
X304015Y590423D01*
X304092Y590329D01*
X304240Y590120D01*
X304474Y589868D01*
X304550Y589775D01*
X326984Y567341D01*
X327083Y567255D01*
X327176Y567161D01*
X327307Y567059D01*
X327433Y566949D01*
X327543Y566877D01*
X327647Y566796D01*
X327791Y566712D01*
X327930Y566621D01*
X328048Y566563D01*
X328162Y566497D01*
X328316Y566434D01*
X328466Y566361D01*
X328592Y566320D01*
X328714Y566270D01*
X328874Y566228D01*
X329033Y566176D01*
X329163Y566153D01*
X329290Y566119D01*
X329403Y566108D01*
X329619Y566069D01*
X330021Y566050D01*
X330127Y566040D01*
X331339Y566040D01*
X337440Y559939D01*
X337440Y558727D01*
X337449Y558595D01*
X337448Y558463D01*
X337469Y558298D01*
X337480Y558132D01*
X337506Y558003D01*
X337523Y557872D01*
X337566Y557711D01*
X337599Y557548D01*
X337642Y557423D01*
X337676Y557296D01*
X337740Y557142D01*
X337795Y556985D01*
X337855Y556868D01*
X337905Y556746D01*
X337989Y556602D01*
X338065Y556454D01*
X338140Y556345D01*
X338206Y556232D01*
X338279Y556144D01*
X338403Y555963D01*
X338674Y555666D01*
X338741Y555584D01*
X341843Y552482D01*
X341942Y552396D01*
X342035Y552302D01*
X342166Y552200D01*
X342292Y552090D01*
X342402Y552018D01*
X342506Y551937D01*
X342650Y551853D01*
X342789Y551762D01*
X342907Y551704D01*
X343021Y551638D01*
X343175Y551575D01*
X343325Y551502D01*
X343451Y551461D01*
X343573Y551411D01*
X343733Y551369D01*
X343892Y551317D01*
X344022Y551294D01*
X344149Y551260D01*
X344262Y551249D01*
X344478Y551210D01*
X344880Y551191D01*
X344986Y551181D01*
X349250Y551181D01*
X349338Y551187D01*
X349426Y551184D01*
X349635Y551207D01*
X349845Y551221D01*
X349931Y551238D01*
X350018Y551248D01*
X350222Y551298D01*
X350429Y551340D01*
X350512Y551369D01*
X350597Y551390D01*
X350793Y551467D01*
X350991Y551536D01*
X351070Y551576D01*
X351151Y551608D01*
X351335Y551710D01*
X351523Y551806D01*
X351595Y551856D01*
X351672Y551898D01*
X351840Y552025D01*
X352013Y552144D01*
X352078Y552203D01*
X352149Y552256D01*
X352299Y552404D01*
X352454Y552545D01*
X352511Y552612D01*
X352573Y552674D01*
X352702Y552840D01*
X352837Y553001D01*
X352884Y553076D01*
X352938Y553145D01*
X353043Y553327D01*
X353156Y553505D01*
X353193Y553585D01*
X353237Y553661D01*
X353317Y553855D01*
X353405Y554047D01*
X353430Y554131D01*
X353464Y554212D01*
X353517Y554415D01*
X353578Y554617D01*
X353592Y554703D01*
X353615Y554788D01*
X353627Y554912D01*
X353674Y555205D01*
X353683Y555502D01*
X353694Y555625D01*
X353694Y619125D01*
X353685Y619257D01*
X353686Y619388D01*
X353665Y619553D01*
X353654Y619720D01*
X353628Y619849D01*
X353611Y619979D01*
X353568Y620140D01*
X353535Y620304D01*
X353492Y620428D01*
X353458Y620555D01*
X353394Y620709D01*
X353339Y620866D01*
X353279Y620984D01*
X353229Y621105D01*
X353145Y621249D01*
X353069Y621398D01*
X352994Y621506D01*
X352928Y621620D01*
X352855Y621708D01*
X352731Y621888D01*
X352460Y622186D01*
X352393Y622268D01*
X241268Y733393D01*
X241168Y733479D01*
X241076Y733573D01*
X240944Y733675D01*
X240819Y733785D01*
X240709Y733857D01*
X240605Y733938D01*
X240461Y734022D01*
X240322Y734113D01*
X240203Y734171D01*
X240089Y734237D01*
X239935Y734300D01*
X239785Y734373D01*
X239660Y734414D01*
X239538Y734464D01*
X239377Y734506D01*
X239219Y734558D01*
X239089Y734581D01*
X238962Y734615D01*
X238848Y734626D01*
X238632Y734665D01*
X238231Y734684D01*
X238125Y734694D01*
X217099Y734694D01*
X217048Y734691D01*
X216997Y734693D01*
X216751Y734671D01*
X216505Y734654D01*
X216455Y734644D01*
X216403Y734639D01*
X216162Y734584D01*
X215921Y734535D01*
X215872Y734518D01*
X215822Y734507D01*
X215591Y734420D01*
X215358Y734339D01*
X215312Y734316D01*
X215264Y734298D01*
X215047Y734181D01*
X214827Y734069D01*
X214784Y734040D01*
X214739Y734016D01*
X214540Y733871D01*
X214336Y733731D01*
X214298Y733696D01*
X214257Y733666D01*
X214078Y733496D01*
X213895Y733330D01*
X213862Y733290D01*
X213825Y733255D01*
X213671Y733063D01*
X213512Y732874D01*
X213484Y732830D01*
X213452Y732790D01*
X213325Y732579D01*
X213193Y732370D01*
X213172Y732323D01*
X213145Y732279D01*
X213047Y732052D01*
X212945Y731828D01*
X212930Y731779D01*
X212909Y731732D01*
X212843Y731494D01*
X212771Y731258D01*
X212763Y731208D01*
X212749Y731158D01*
X212715Y730914D01*
X212675Y730670D01*
X212673Y730619D01*
X212666Y730568D01*
X212665Y730321D01*
X212658Y730074D01*
X212664Y730024D01*
X212664Y729972D01*
X212696Y729728D01*
X212722Y729482D01*
X212734Y729432D01*
X212741Y729381D01*
X212805Y729143D01*
X212864Y728903D01*
X212883Y728855D01*
X212896Y728806D01*
X212992Y728578D01*
X213082Y728349D01*
X213107Y728304D01*
X213127Y728257D01*
X213187Y728162D01*
X213373Y727828D01*
X213512Y727643D01*
X213573Y727545D01*
X213687Y727397D01*
X214846Y725389D01*
X215733Y723247D01*
X216021Y722174D01*
X199130Y722174D01*
X199043Y722168D01*
X198955Y722171D01*
X198745Y722148D01*
X198536Y722134D01*
X198450Y722117D01*
X198362Y722107D01*
X198158Y722057D01*
X197952Y722015D01*
X197869Y721986D01*
X197783Y721965D01*
X197588Y721888D01*
X197389Y721819D01*
X197311Y721779D01*
X197229Y721747D01*
X197045Y721645D01*
X196858Y721549D01*
X196785Y721499D01*
X196708Y721457D01*
X196540Y721330D01*
X196367Y721211D01*
X196302Y721152D01*
X196232Y721099D01*
X196082Y720951D01*
X195926Y720810D01*
X195870Y720743D01*
X195807Y720681D01*
X195789Y720658D01*
X195721Y720591D01*
X195566Y720450D01*
X195509Y720382D01*
X195447Y720321D01*
X195318Y720154D01*
X195183Y719993D01*
X195136Y719919D01*
X195082Y719850D01*
X194977Y719668D01*
X194864Y719490D01*
X194827Y719410D01*
X194783Y719334D01*
X194703Y719139D01*
X194615Y718948D01*
X194590Y718864D01*
X194556Y718783D01*
X194503Y718579D01*
X194442Y718378D01*
X194427Y718292D01*
X194405Y718206D01*
X194393Y718083D01*
X194346Y717790D01*
X194337Y717493D01*
X194326Y717370D01*
X194326Y700220D01*
X194298Y700236D01*
X194263Y700262D01*
X194169Y700312D01*
X193823Y700517D01*
X193621Y700603D01*
X193521Y700656D01*
X191111Y701654D01*
X189103Y702813D01*
X187264Y704225D01*
X185625Y705864D01*
X184213Y707703D01*
X183506Y708929D01*
X183465Y708990D01*
X183430Y709054D01*
X183299Y709237D01*
X183174Y709424D01*
X183125Y709479D01*
X183082Y709538D01*
X182928Y709701D01*
X182779Y709870D01*
X182723Y709918D01*
X182673Y709971D01*
X182497Y710113D01*
X182327Y710259D01*
X182266Y710299D01*
X182209Y710345D01*
X182016Y710462D01*
X181828Y710585D01*
X181762Y710616D01*
X181699Y710654D01*
X181493Y710744D01*
X181290Y710840D01*
X181220Y710863D01*
X181153Y710892D01*
X180936Y710953D01*
X180722Y711022D01*
X180650Y711034D01*
X180579Y711054D01*
X180356Y711086D01*
X180135Y711125D01*
X180062Y711128D01*
X179990Y711139D01*
X179765Y711140D01*
X179540Y711150D01*
X179467Y711143D01*
X179394Y711143D01*
X179171Y711115D01*
X178946Y711094D01*
X178875Y711077D01*
X178802Y711068D01*
X178585Y711010D01*
X178366Y710959D01*
X178297Y710934D01*
X178227Y710915D01*
X178019Y710828D01*
X177809Y710749D01*
X177744Y710714D01*
X177676Y710685D01*
X177482Y710572D01*
X177284Y710465D01*
X177225Y710422D01*
X177162Y710385D01*
X177068Y710307D01*
X176803Y710114D01*
X176609Y709927D01*
X176514Y709849D01*
X162333Y695668D01*
X162261Y695586D01*
X162182Y695509D01*
X162065Y695362D01*
X161941Y695220D01*
X161880Y695128D01*
X161812Y695042D01*
X161716Y694880D01*
X161612Y694722D01*
X161565Y694624D01*
X161509Y694529D01*
X161435Y694356D01*
X161353Y694186D01*
X161319Y694081D01*
X161276Y693980D01*
X161227Y693799D01*
X161168Y693619D01*
X161148Y693511D01*
X161119Y693405D01*
X161095Y693219D01*
X161061Y693033D01*
X161055Y692923D01*
X161041Y692815D01*
X161041Y692626D01*
X161032Y692438D01*
X161042Y692329D01*
X161042Y692219D01*
X161068Y692032D01*
X161084Y691844D01*
X161108Y691737D01*
X161123Y691628D01*
X161159Y691513D01*
X161215Y691263D01*
X161335Y690940D01*
X161370Y690825D01*
X161489Y690537D01*
X161636Y689800D01*
X161636Y680174D01*
X144130Y680174D01*
X144043Y680168D01*
X143955Y680171D01*
X143745Y680148D01*
X143536Y680134D01*
X143450Y680117D01*
X143362Y680107D01*
X143158Y680057D01*
X142952Y680015D01*
X142869Y679986D01*
X142783Y679965D01*
X142588Y679888D01*
X142389Y679819D01*
X142311Y679779D01*
X142229Y679747D01*
X142045Y679645D01*
X141858Y679549D01*
X141785Y679499D01*
X141708Y679457D01*
X141540Y679330D01*
X141367Y679211D01*
X141302Y679152D01*
X141232Y679099D01*
X141082Y678951D01*
X140926Y678810D01*
X140870Y678743D01*
X140807Y678681D01*
X140789Y678658D01*
X140721Y678591D01*
X140566Y678450D01*
X140509Y678382D01*
X140447Y678321D01*
X140318Y678154D01*
X140183Y677993D01*
X140136Y677919D01*
X140082Y677850D01*
X139977Y677668D01*
X139864Y677490D01*
X139827Y677410D01*
X139783Y677334D01*
X139703Y677139D01*
X139615Y676948D01*
X139590Y676864D01*
X139556Y676783D01*
X139503Y676579D01*
X139442Y676378D01*
X139427Y676292D01*
X139405Y676206D01*
X139393Y676083D01*
X139346Y675790D01*
X139337Y675493D01*
X139326Y675370D01*
X139326Y657864D01*
X130175Y657864D01*
X130087Y657858D01*
X129999Y657861D01*
X129790Y657838D01*
X129580Y657824D01*
X129494Y657807D01*
X129407Y657797D01*
X129203Y657747D01*
X128997Y657705D01*
X128913Y657676D01*
X128828Y657655D01*
X128632Y657578D01*
X128434Y657509D01*
X128355Y657469D01*
X128274Y657437D01*
X128090Y657335D01*
X127902Y657239D01*
X127830Y657189D01*
X127753Y657147D01*
X127585Y657020D01*
X127412Y656901D01*
X127347Y656842D01*
X127277Y656789D01*
X127127Y656641D01*
X126971Y656500D01*
X126914Y656433D01*
X126852Y656371D01*
X126723Y656205D01*
X126588Y656044D01*
X126541Y655969D01*
X126487Y655900D01*
X126382Y655718D01*
X126269Y655540D01*
X126232Y655460D01*
X126188Y655384D01*
X126108Y655190D01*
X126020Y654998D01*
X125995Y654914D01*
X125961Y654833D01*
X125908Y654630D01*
X125847Y654428D01*
X125833Y654342D01*
X125810Y654257D01*
X125798Y654133D01*
X125751Y653840D01*
X125742Y653543D01*
X125731Y653420D01*
X125731Y631825D01*
X125740Y631693D01*
X125739Y631562D01*
X125760Y631397D01*
X125771Y631230D01*
X125797Y631101D01*
X125814Y630971D01*
X125857Y630810D01*
X125890Y630647D01*
X125933Y630522D01*
X125967Y630395D01*
X126031Y630241D01*
X126086Y630084D01*
X126146Y629966D01*
X126196Y629845D01*
X126280Y629701D01*
X126356Y629552D01*
X126431Y629444D01*
X126497Y629330D01*
X126570Y629242D01*
X126694Y629062D01*
X126965Y628764D01*
X127032Y628682D01*
X176531Y579184D01*
X176531Y565943D01*
X176534Y565892D01*
X176532Y565841D01*
X176554Y565594D01*
X176571Y565349D01*
X176581Y565298D01*
X176586Y565247D01*
X176641Y565006D01*
X176690Y564765D01*
X176707Y564716D01*
X176718Y564666D01*
X176805Y564435D01*
X176886Y564202D01*
X176909Y564156D01*
X176927Y564108D01*
X177044Y563891D01*
X177156Y563670D01*
X177185Y563628D01*
X177209Y563583D01*
X177354Y563383D01*
X177494Y563180D01*
X177529Y563142D01*
X177559Y563100D01*
X177729Y562922D01*
X177895Y562739D01*
X177935Y562706D01*
X177970Y562669D01*
X178162Y562515D01*
X178352Y562356D01*
X178395Y562328D01*
X178435Y562296D01*
X178646Y562169D01*
X178855Y562037D01*
X178902Y562016D01*
X178946Y561989D01*
X179172Y561891D01*
X179397Y561789D01*
X179446Y561774D01*
X179493Y561753D01*
X179731Y561687D01*
X179967Y561615D01*
X180017Y561607D01*
X180067Y561593D01*
X180312Y561558D01*
X180555Y561519D01*
X180606Y561517D01*
X180657Y561510D01*
X180904Y561509D01*
X181151Y561502D01*
X181201Y561508D01*
X181253Y561508D01*
X181498Y561539D01*
X181743Y561566D01*
X181793Y561578D01*
X181844Y561585D01*
X182082Y561649D01*
X182322Y561708D01*
X182370Y561727D01*
X182419Y561740D01*
X182647Y561836D01*
X182876Y561926D01*
X182921Y561951D01*
X182969Y561971D01*
X183064Y562031D01*
X183397Y562217D01*
X183582Y562356D01*
X183681Y562417D01*
X184482Y563033D01*
X186357Y564115D01*
X188356Y564943D01*
X189231Y565177D01*
X189231Y549275D01*
X189231Y533373D01*
X188356Y533607D01*
X186357Y534435D01*
X184482Y535517D01*
X183681Y536133D01*
X183638Y536161D01*
X183599Y536194D01*
X183390Y536326D01*
X183185Y536463D01*
X183138Y536485D01*
X183095Y536513D01*
X182870Y536616D01*
X182649Y536724D01*
X182600Y536740D01*
X182553Y536761D01*
X182317Y536833D01*
X182083Y536911D01*
X182032Y536920D01*
X181983Y536935D01*
X181740Y536975D01*
X181497Y537020D01*
X181446Y537023D01*
X181395Y537031D01*
X181149Y537038D01*
X180902Y537051D01*
X180851Y537046D01*
X180799Y537048D01*
X180554Y537021D01*
X180308Y537001D01*
X180258Y536990D01*
X180207Y536984D01*
X179967Y536925D01*
X179726Y536872D01*
X179678Y536854D01*
X179628Y536842D01*
X179398Y536752D01*
X179167Y536667D01*
X179121Y536643D01*
X179074Y536624D01*
X178858Y536503D01*
X178640Y536388D01*
X178598Y536359D01*
X178553Y536333D01*
X178355Y536185D01*
X178155Y536042D01*
X178118Y536007D01*
X178077Y535976D01*
X177901Y535803D01*
X177721Y535634D01*
X177688Y535594D01*
X177652Y535558D01*
X177501Y535363D01*
X177345Y535171D01*
X177318Y535127D01*
X177287Y535087D01*
X177163Y534873D01*
X177035Y534662D01*
X177014Y534615D01*
X176988Y534571D01*
X176894Y534343D01*
X176795Y534117D01*
X176781Y534067D01*
X176761Y534020D01*
X176699Y533781D01*
X176631Y533544D01*
X176623Y533493D01*
X176610Y533443D01*
X176600Y533331D01*
X176544Y532954D01*
X176542Y532723D01*
X176531Y532607D01*
X176531Y513016D01*
X166434Y502919D01*
X15367Y502919D01*
X15279Y502913D01*
X15191Y502916D01*
X14982Y502893D01*
X14772Y502879D01*
X14686Y502862D01*
X14599Y502852D01*
X14395Y502802D01*
X14188Y502760D01*
X14105Y502731D01*
X14020Y502710D01*
X13824Y502633D01*
X13626Y502564D01*
X13547Y502524D01*
X13466Y502492D01*
X13282Y502389D01*
X13094Y502294D01*
X13022Y502244D01*
X12945Y502201D01*
X12777Y502075D01*
X12604Y501956D01*
X12539Y501897D01*
X12468Y501844D01*
X12318Y501696D01*
X12163Y501555D01*
X12106Y501488D01*
X12044Y501426D01*
X11915Y501260D01*
X11780Y501098D01*
X11733Y501024D01*
X11679Y500955D01*
X11574Y500773D01*
X11461Y500595D01*
X11424Y500515D01*
X11380Y500439D01*
X11300Y500245D01*
X11212Y500053D01*
X11187Y499969D01*
X11153Y499888D01*
X11100Y499684D01*
X11039Y499483D01*
X11025Y499397D01*
X11002Y499312D01*
X10990Y499188D01*
X10943Y498895D01*
X10934Y498598D01*
X10923Y498475D01*
X10923Y243907D01*
X10934Y243743D01*
X10935Y243578D01*
X10954Y243446D01*
X10963Y243312D01*
X10996Y243151D01*
X11019Y242988D01*
X11055Y242859D01*
X11082Y242728D01*
X11136Y242573D01*
X11181Y242415D01*
X11234Y242292D01*
X11278Y242165D01*
X11352Y242019D01*
X11418Y241868D01*
X11487Y241753D01*
X11548Y241634D01*
X11641Y241499D01*
X11726Y241358D01*
X11810Y241254D01*
X11886Y241143D01*
X11997Y241022D01*
X12100Y240894D01*
X12197Y240802D01*
X12287Y240703D01*
X12413Y240597D01*
X12532Y240484D01*
X12641Y240406D01*
X12743Y240319D01*
X12882Y240231D01*
X13016Y240135D01*
X13134Y240072D01*
X13247Y240001D01*
X13396Y239932D01*
X13541Y239855D01*
X13667Y239808D01*
X13789Y239752D01*
X13946Y239704D01*
X14100Y239647D01*
X14231Y239617D01*
X14359Y239578D01*
X14521Y239552D01*
X14681Y239516D01*
X14815Y239504D01*
X14947Y239482D01*
X15111Y239478D01*
X15275Y239463D01*
X15409Y239469D01*
X15543Y239466D01*
X15706Y239483D01*
X15870Y239491D01*
X16002Y239515D01*
X16135Y239529D01*
X16295Y239568D01*
X16456Y239598D01*
X16584Y239639D01*
X16714Y239671D01*
X16867Y239732D01*
X17023Y239782D01*
X17110Y239827D01*
X17268Y239890D01*
X17730Y240147D01*
X17770Y240168D01*
X27586Y246477D01*
X38673Y249732D01*
X50227Y249732D01*
X61314Y246477D01*
X71034Y240230D01*
X78601Y231497D01*
X83401Y220987D01*
X85045Y209550D01*
X83401Y198113D01*
X78601Y187603D01*
X71034Y178870D01*
X61314Y172623D01*
X50227Y169368D01*
X38673Y169368D01*
X27586Y172623D01*
X17770Y178932D01*
X17626Y179012D01*
X17487Y179099D01*
X17365Y179155D01*
X17248Y179220D01*
X17095Y179279D01*
X16945Y179348D01*
X16817Y179387D01*
X16692Y179435D01*
X16532Y179474D01*
X16375Y179522D01*
X16243Y179543D01*
X16113Y179575D01*
X15949Y179591D01*
X15787Y179618D01*
X15653Y179621D01*
X15520Y179635D01*
X15356Y179630D01*
X15191Y179634D01*
X15058Y179620D01*
X14924Y179616D01*
X14762Y179588D01*
X14599Y179571D01*
X14469Y179539D01*
X14337Y179517D01*
X14180Y179468D01*
X14020Y179429D01*
X13896Y179380D01*
X13768Y179340D01*
X13618Y179271D01*
X13466Y179210D01*
X13349Y179145D01*
X13227Y179089D01*
X13089Y179000D01*
X12945Y178920D01*
X12838Y178839D01*
X12725Y178767D01*
X12600Y178661D01*
X12468Y178562D01*
X12373Y178468D01*
X12271Y178382D01*
X12161Y178260D01*
X12044Y178144D01*
X11962Y178038D01*
X11872Y177939D01*
X11780Y177803D01*
X11679Y177673D01*
X11612Y177557D01*
X11536Y177447D01*
X11463Y177300D01*
X11380Y177157D01*
X11329Y177034D01*
X11269Y176914D01*
X11216Y176758D01*
X11153Y176606D01*
X11119Y176477D01*
X11076Y176350D01*
X11044Y176189D01*
X11002Y176030D01*
X10993Y175933D01*
X10960Y175766D01*
X10927Y175238D01*
X10923Y175193D01*
X10923Y15367D01*
X10929Y15279D01*
X10926Y15191D01*
X10949Y14982D01*
X10963Y14772D01*
X10980Y14686D01*
X10990Y14599D01*
X11040Y14395D01*
X11082Y14188D01*
X11111Y14105D01*
X11132Y14020D01*
X11209Y13824D01*
X11278Y13626D01*
X11318Y13547D01*
X11350Y13466D01*
X11452Y13282D01*
X11548Y13094D01*
X11598Y13022D01*
X11640Y12945D01*
X11767Y12777D01*
X11886Y12604D01*
X11945Y12539D01*
X11998Y12468D01*
X12146Y12318D01*
X12287Y12163D01*
X12354Y12106D01*
X12416Y12044D01*
X12582Y11915D01*
X12743Y11780D01*
X12818Y11733D01*
X12887Y11679D01*
X13069Y11574D01*
X13247Y11461D01*
X13327Y11424D01*
X13403Y11380D01*
X13597Y11300D01*
X13789Y11212D01*
X13873Y11187D01*
X13954Y11153D01*
X14157Y11100D01*
X14359Y11039D01*
X14445Y11025D01*
X14530Y11002D01*
X14654Y10990D01*
X14947Y10943D01*
X15244Y10934D01*
X15367Y10923D01*
X54858Y10923D01*
X54887Y10925D01*
G37*
G36*
X371908Y506747D02*
X371908Y506747D01*
X372148Y506757D01*
X372205Y506767D01*
X372263Y506771D01*
X372498Y506819D01*
X372735Y506861D01*
X372790Y506878D01*
X372847Y506890D01*
X373074Y506969D01*
X373303Y507042D01*
X373355Y507067D01*
X373410Y507086D01*
X373624Y507195D01*
X373841Y507298D01*
X373889Y507330D01*
X373941Y507356D01*
X374139Y507492D01*
X374340Y507624D01*
X374384Y507661D01*
X374432Y507694D01*
X374609Y507856D01*
X374791Y508013D01*
X374830Y508056D01*
X374872Y508095D01*
X375027Y508279D01*
X375186Y508459D01*
X375218Y508507D01*
X375256Y508552D01*
X375384Y508755D01*
X375518Y508954D01*
X375543Y509006D01*
X375574Y509055D01*
X375675Y509274D01*
X375781Y509489D01*
X375799Y509544D01*
X375823Y509597D01*
X375893Y509826D01*
X375969Y510055D01*
X375980Y510112D01*
X375997Y510167D01*
X376035Y510404D01*
X376080Y510640D01*
X376083Y510698D01*
X376093Y510755D01*
X376099Y510995D01*
X376112Y511235D01*
X376108Y511293D01*
X376109Y511351D01*
X376084Y511590D01*
X376064Y511829D01*
X376052Y511886D01*
X376046Y511943D01*
X375988Y512176D01*
X375937Y512411D01*
X375920Y512454D01*
X375904Y512522D01*
X375685Y513076D01*
X375683Y513081D01*
X393700Y513081D01*
X411724Y513081D01*
X411677Y512972D01*
X411577Y512753D01*
X411560Y512698D01*
X411538Y512645D01*
X411473Y512413D01*
X411403Y512183D01*
X411394Y512127D01*
X411379Y512071D01*
X411346Y511832D01*
X411307Y511595D01*
X411306Y511537D01*
X411298Y511480D01*
X411298Y511240D01*
X411291Y510999D01*
X411297Y510942D01*
X411297Y510884D01*
X411329Y510646D01*
X411354Y510407D01*
X411368Y510351D01*
X411376Y510294D01*
X411439Y510062D01*
X411496Y509828D01*
X411518Y509774D01*
X411533Y509719D01*
X411627Y509497D01*
X411715Y509274D01*
X411743Y509223D01*
X411765Y509170D01*
X411888Y508964D01*
X412005Y508753D01*
X412040Y508707D01*
X412069Y508657D01*
X412218Y508469D01*
X412363Y508277D01*
X412403Y508235D01*
X412439Y508190D01*
X412612Y508023D01*
X412781Y507852D01*
X412826Y507816D01*
X412868Y507776D01*
X413062Y507634D01*
X413252Y507487D01*
X413302Y507458D01*
X413348Y507424D01*
X413559Y507309D01*
X413768Y507188D01*
X413821Y507166D01*
X413872Y507139D01*
X414097Y507053D01*
X414319Y506961D01*
X414374Y506947D01*
X414429Y506926D01*
X414663Y506871D01*
X414895Y506810D01*
X414941Y506806D01*
X415009Y506790D01*
X415602Y506733D01*
X415680Y506736D01*
X415732Y506731D01*
X482600Y506731D01*
X482732Y506740D01*
X482863Y506739D01*
X483028Y506760D01*
X483195Y506771D01*
X483324Y506797D01*
X483454Y506814D01*
X483615Y506857D01*
X483779Y506890D01*
X483903Y506933D01*
X484030Y506967D01*
X484184Y507031D01*
X484341Y507086D01*
X484459Y507146D01*
X484580Y507196D01*
X484724Y507280D01*
X484873Y507356D01*
X484981Y507431D01*
X485095Y507497D01*
X485183Y507570D01*
X485363Y507694D01*
X485661Y507965D01*
X485743Y508032D01*
X495776Y518065D01*
X495862Y518165D01*
X495956Y518257D01*
X496058Y518389D01*
X496168Y518514D01*
X496240Y518624D01*
X496321Y518728D01*
X496405Y518873D01*
X496496Y519011D01*
X496554Y519130D01*
X496620Y519244D01*
X496683Y519398D01*
X496756Y519548D01*
X496797Y519673D01*
X496847Y519795D01*
X496889Y519956D01*
X496941Y520114D01*
X496964Y520244D01*
X496998Y520371D01*
X497009Y520485D01*
X497048Y520701D01*
X497067Y521102D01*
X497077Y521208D01*
X497077Y721293D01*
X497066Y721457D01*
X497065Y721622D01*
X497046Y721754D01*
X497037Y721888D01*
X497004Y722049D01*
X496981Y722212D01*
X496945Y722341D01*
X496918Y722472D01*
X496864Y722627D01*
X496819Y722785D01*
X496766Y722908D01*
X496722Y723035D01*
X496648Y723181D01*
X496582Y723332D01*
X496513Y723447D01*
X496452Y723566D01*
X496359Y723701D01*
X496274Y723842D01*
X496190Y723946D01*
X496114Y724057D01*
X496003Y724178D01*
X495900Y724306D01*
X495803Y724398D01*
X495713Y724497D01*
X495587Y724603D01*
X495468Y724716D01*
X495359Y724794D01*
X495257Y724881D01*
X495118Y724969D01*
X494984Y725065D01*
X494866Y725128D01*
X494753Y725199D01*
X494604Y725268D01*
X494459Y725345D01*
X494333Y725392D01*
X494211Y725448D01*
X494054Y725496D01*
X493900Y725553D01*
X493769Y725583D01*
X493641Y725622D01*
X493479Y725648D01*
X493319Y725684D01*
X493185Y725696D01*
X493053Y725718D01*
X492889Y725722D01*
X492725Y725737D01*
X492591Y725731D01*
X492457Y725734D01*
X492294Y725717D01*
X492130Y725709D01*
X491998Y725685D01*
X491865Y725671D01*
X491705Y725632D01*
X491544Y725602D01*
X491416Y725561D01*
X491286Y725529D01*
X491133Y725468D01*
X490977Y725418D01*
X490890Y725373D01*
X490732Y725310D01*
X490270Y725053D01*
X490230Y725032D01*
X480414Y718723D01*
X469327Y715468D01*
X457773Y715468D01*
X446686Y718723D01*
X436966Y724970D01*
X429399Y733703D01*
X424599Y744213D01*
X422955Y755650D01*
X424599Y767087D01*
X429399Y777597D01*
X433061Y781823D01*
X433171Y781969D01*
X433289Y782110D01*
X433351Y782207D01*
X433420Y782298D01*
X433510Y782458D01*
X433608Y782613D01*
X433656Y782718D01*
X433712Y782817D01*
X433780Y782988D01*
X433856Y783155D01*
X433890Y783264D01*
X433932Y783371D01*
X433977Y783549D01*
X434030Y783725D01*
X434049Y783838D01*
X434076Y783949D01*
X434097Y784132D01*
X434126Y784313D01*
X434129Y784428D01*
X434142Y784542D01*
X434138Y784725D01*
X434143Y784909D01*
X434130Y785023D01*
X434128Y785138D01*
X434099Y785319D01*
X434079Y785501D01*
X434052Y785613D01*
X434034Y785726D01*
X433981Y785902D01*
X433937Y786080D01*
X433895Y786187D01*
X433862Y786297D01*
X433786Y786464D01*
X433719Y786634D01*
X433663Y786735D01*
X433615Y786839D01*
X433518Y786994D01*
X433428Y787155D01*
X433359Y787247D01*
X433298Y787344D01*
X433181Y787484D01*
X433071Y787632D01*
X432990Y787713D01*
X432917Y787802D01*
X432782Y787925D01*
X432653Y788056D01*
X432562Y788127D01*
X432477Y788204D01*
X432327Y788309D01*
X432182Y788421D01*
X432082Y788479D01*
X431988Y788544D01*
X431825Y788628D01*
X431666Y788720D01*
X431560Y788764D01*
X431457Y788816D01*
X431284Y788877D01*
X431115Y788947D01*
X431004Y788976D01*
X430895Y789014D01*
X430716Y789051D01*
X430538Y789098D01*
X430453Y789106D01*
X430312Y789135D01*
X429718Y789177D01*
X429708Y789177D01*
X429702Y789177D01*
X263369Y789177D01*
X263362Y789177D01*
X263354Y789177D01*
X263062Y789157D01*
X262775Y789137D01*
X262768Y789136D01*
X262760Y789135D01*
X262474Y789076D01*
X262191Y789018D01*
X262184Y789016D01*
X262176Y789014D01*
X261901Y788917D01*
X261628Y788822D01*
X261622Y788819D01*
X261614Y788816D01*
X261353Y788682D01*
X261097Y788552D01*
X261091Y788548D01*
X261084Y788544D01*
X260843Y788377D01*
X260606Y788214D01*
X260601Y788209D01*
X260594Y788204D01*
X260378Y788006D01*
X260354Y787984D01*
X260293Y788046D01*
X260287Y788051D01*
X260282Y788056D01*
X260052Y788234D01*
X259823Y788413D01*
X259816Y788416D01*
X259810Y788421D01*
X259561Y788566D01*
X259308Y788713D01*
X259301Y788716D01*
X259295Y788720D01*
X259027Y788830D01*
X258758Y788942D01*
X258751Y788944D01*
X258744Y788947D01*
X258465Y789020D01*
X258182Y789095D01*
X258174Y789096D01*
X258167Y789098D01*
X258136Y789101D01*
X257591Y789170D01*
X257460Y789165D01*
X257331Y789177D01*
X107950Y789177D01*
X107862Y789171D01*
X107774Y789174D01*
X107565Y789151D01*
X107355Y789137D01*
X107269Y789120D01*
X107182Y789110D01*
X106978Y789060D01*
X106772Y789018D01*
X106688Y788989D01*
X106603Y788968D01*
X106407Y788891D01*
X106209Y788822D01*
X106130Y788782D01*
X106049Y788750D01*
X105904Y788669D01*
X87922Y788669D01*
X87892Y788667D01*
X87863Y788669D01*
X87594Y788647D01*
X87327Y788629D01*
X87298Y788623D01*
X87269Y788621D01*
X87006Y788564D01*
X86743Y788510D01*
X86715Y788500D01*
X86687Y788494D01*
X86434Y788402D01*
X86180Y788314D01*
X86154Y788301D01*
X86127Y788291D01*
X85888Y788166D01*
X85649Y788044D01*
X85625Y788028D01*
X85599Y788014D01*
X85380Y787859D01*
X85158Y787706D01*
X85137Y787686D01*
X85113Y787669D01*
X84917Y787486D01*
X84718Y787305D01*
X84699Y787282D01*
X84677Y787262D01*
X84508Y787055D01*
X84334Y786849D01*
X84319Y786824D01*
X84300Y786801D01*
X84160Y786573D01*
X84016Y786345D01*
X84003Y786318D01*
X83988Y786293D01*
X83879Y786048D01*
X83767Y785803D01*
X83759Y785775D01*
X83747Y785749D01*
X83671Y785490D01*
X83593Y785233D01*
X83589Y785204D01*
X83580Y785176D01*
X83540Y784910D01*
X83497Y784645D01*
X83496Y784616D01*
X83492Y784587D01*
X83488Y784318D01*
X83481Y784049D01*
X83484Y784020D01*
X83483Y783991D01*
X83516Y783724D01*
X83544Y783457D01*
X83551Y783428D01*
X83555Y783399D01*
X83622Y783139D01*
X83686Y782878D01*
X83697Y782851D01*
X83704Y782823D01*
X83806Y782573D01*
X83905Y782324D01*
X83919Y782298D01*
X83930Y782271D01*
X84064Y782038D01*
X84195Y781803D01*
X84213Y781780D01*
X84227Y781754D01*
X84391Y781543D01*
X84553Y781327D01*
X84573Y781306D01*
X84591Y781282D01*
X84782Y781094D01*
X84971Y780902D01*
X84994Y780884D01*
X85015Y780863D01*
X85086Y780813D01*
X85442Y780537D01*
X85612Y780438D01*
X85699Y780376D01*
X86552Y779884D01*
X91284Y775152D01*
X94629Y769358D01*
X96361Y762895D01*
X96361Y756205D01*
X94629Y749742D01*
X91284Y743948D01*
X86552Y739216D01*
X80758Y735871D01*
X74295Y734139D01*
X67605Y734139D01*
X61142Y735871D01*
X55348Y739216D01*
X50616Y743948D01*
X47271Y749742D01*
X45539Y756205D01*
X45539Y762895D01*
X47271Y769358D01*
X50616Y775152D01*
X55348Y779884D01*
X56201Y780376D01*
X56225Y780392D01*
X56251Y780406D01*
X56473Y780559D01*
X56696Y780708D01*
X56718Y780728D01*
X56742Y780744D01*
X56941Y780925D01*
X57142Y781103D01*
X57161Y781125D01*
X57182Y781145D01*
X57356Y781352D01*
X57531Y781554D01*
X57547Y781579D01*
X57566Y781602D01*
X57710Y781829D01*
X57856Y782054D01*
X57869Y782080D01*
X57884Y782105D01*
X57996Y782348D01*
X58112Y782592D01*
X58121Y782620D01*
X58133Y782647D01*
X58211Y782902D01*
X58293Y783160D01*
X58298Y783189D01*
X58307Y783217D01*
X58350Y783481D01*
X58397Y783747D01*
X58398Y783776D01*
X58403Y783805D01*
X58410Y784073D01*
X58421Y784342D01*
X58418Y784371D01*
X58419Y784401D01*
X58391Y784668D01*
X58366Y784935D01*
X58359Y784964D01*
X58356Y784993D01*
X58292Y785254D01*
X58231Y785516D01*
X58221Y785543D01*
X58214Y785572D01*
X58115Y785822D01*
X58020Y786073D01*
X58006Y786099D01*
X57995Y786126D01*
X57864Y786361D01*
X57736Y786597D01*
X57719Y786621D01*
X57705Y786647D01*
X57543Y786863D01*
X57385Y787079D01*
X57365Y787100D01*
X57347Y787124D01*
X57158Y787316D01*
X56973Y787509D01*
X56950Y787527D01*
X56929Y787548D01*
X56717Y787713D01*
X56507Y787880D01*
X56481Y787895D01*
X56458Y787913D01*
X56225Y788048D01*
X55995Y788186D01*
X55968Y788197D01*
X55942Y788212D01*
X55694Y788314D01*
X55447Y788420D01*
X55418Y788427D01*
X55391Y788439D01*
X55131Y788507D01*
X54872Y788578D01*
X54843Y788582D01*
X54815Y788590D01*
X54728Y788598D01*
X54282Y788659D01*
X54085Y788659D01*
X53978Y788669D01*
X15875Y788669D01*
X15787Y788663D01*
X15699Y788666D01*
X15490Y788643D01*
X15280Y788629D01*
X15194Y788612D01*
X15107Y788602D01*
X14903Y788552D01*
X14697Y788510D01*
X14613Y788481D01*
X14528Y788460D01*
X14332Y788383D01*
X14134Y788314D01*
X14055Y788274D01*
X13974Y788242D01*
X13790Y788140D01*
X13602Y788044D01*
X13530Y787994D01*
X13453Y787952D01*
X13285Y787825D01*
X13112Y787706D01*
X13047Y787647D01*
X12977Y787594D01*
X12827Y787446D01*
X12671Y787305D01*
X12614Y787238D01*
X12552Y787176D01*
X12423Y787010D01*
X12288Y786849D01*
X12241Y786774D01*
X12187Y786705D01*
X12082Y786523D01*
X11969Y786345D01*
X11932Y786265D01*
X11888Y786189D01*
X11808Y785995D01*
X11720Y785803D01*
X11695Y785719D01*
X11661Y785638D01*
X11608Y785435D01*
X11547Y785233D01*
X11533Y785147D01*
X11510Y785062D01*
X11498Y784938D01*
X11451Y784645D01*
X11442Y784348D01*
X11431Y784225D01*
X11431Y625233D01*
X11442Y625069D01*
X11443Y624905D01*
X11462Y624772D01*
X11471Y624638D01*
X11504Y624478D01*
X11527Y624315D01*
X11563Y624186D01*
X11590Y624055D01*
X11644Y623899D01*
X11689Y623741D01*
X11742Y623618D01*
X11786Y623492D01*
X11860Y623345D01*
X11926Y623195D01*
X11995Y623080D01*
X12056Y622960D01*
X12149Y622825D01*
X12234Y622685D01*
X12318Y622580D01*
X12394Y622470D01*
X12505Y622348D01*
X12608Y622220D01*
X12705Y622128D01*
X12795Y622029D01*
X12921Y621923D01*
X13040Y621810D01*
X13149Y621732D01*
X13252Y621646D01*
X13390Y621558D01*
X13524Y621462D01*
X13642Y621399D01*
X13755Y621327D01*
X13904Y621259D01*
X14049Y621181D01*
X14175Y621134D01*
X14297Y621079D01*
X14454Y621031D01*
X14608Y620973D01*
X14739Y620944D01*
X14867Y620905D01*
X15029Y620878D01*
X15189Y620842D01*
X15323Y620830D01*
X15455Y620809D01*
X15619Y620804D01*
X15783Y620790D01*
X15917Y620796D01*
X16051Y620792D01*
X16214Y620810D01*
X16378Y620817D01*
X16510Y620841D01*
X16643Y620856D01*
X16803Y620895D01*
X16964Y620924D01*
X17092Y620966D01*
X17222Y620998D01*
X17375Y621058D01*
X17531Y621109D01*
X17618Y621154D01*
X17776Y621216D01*
X18238Y621474D01*
X18278Y621494D01*
X27586Y627477D01*
X38673Y630732D01*
X50227Y630732D01*
X61314Y627477D01*
X71034Y621230D01*
X78601Y612497D01*
X83401Y601987D01*
X85045Y590550D01*
X83401Y579113D01*
X78601Y568603D01*
X71034Y559870D01*
X61314Y553623D01*
X50227Y550368D01*
X38673Y550368D01*
X27586Y553623D01*
X18278Y559606D01*
X18134Y559685D01*
X17995Y559773D01*
X17873Y559829D01*
X17756Y559894D01*
X17603Y559953D01*
X17453Y560021D01*
X17325Y560061D01*
X17200Y560109D01*
X17040Y560147D01*
X16883Y560195D01*
X16751Y560217D01*
X16621Y560248D01*
X16457Y560265D01*
X16295Y560291D01*
X16161Y560295D01*
X16028Y560309D01*
X15864Y560303D01*
X15699Y560308D01*
X15566Y560293D01*
X15432Y560289D01*
X15270Y560262D01*
X15107Y560244D01*
X14977Y560212D01*
X14845Y560190D01*
X14688Y560141D01*
X14528Y560102D01*
X14404Y560053D01*
X14276Y560013D01*
X14126Y559944D01*
X13974Y559884D01*
X13857Y559819D01*
X13735Y559762D01*
X13597Y559674D01*
X13453Y559593D01*
X13346Y559513D01*
X13233Y559441D01*
X13108Y559335D01*
X12977Y559236D01*
X12881Y559142D01*
X12779Y559055D01*
X12669Y558933D01*
X12552Y558818D01*
X12470Y558712D01*
X12380Y558612D01*
X12288Y558477D01*
X12187Y558347D01*
X12120Y558231D01*
X12044Y558120D01*
X11971Y557973D01*
X11888Y557831D01*
X11837Y557707D01*
X11777Y557587D01*
X11724Y557432D01*
X11661Y557280D01*
X11627Y557151D01*
X11584Y557024D01*
X11552Y556862D01*
X11510Y556703D01*
X11501Y556606D01*
X11468Y556439D01*
X11435Y555911D01*
X11431Y555867D01*
X11431Y520700D01*
X11437Y520612D01*
X11434Y520524D01*
X11457Y520315D01*
X11471Y520105D01*
X11488Y520019D01*
X11498Y519932D01*
X11548Y519728D01*
X11590Y519522D01*
X11619Y519438D01*
X11640Y519353D01*
X11717Y519157D01*
X11786Y518959D01*
X11826Y518880D01*
X11858Y518799D01*
X11961Y518615D01*
X12056Y518427D01*
X12106Y518355D01*
X12149Y518278D01*
X12275Y518110D01*
X12394Y517937D01*
X12453Y517872D01*
X12506Y517802D01*
X12654Y517652D01*
X12795Y517496D01*
X12862Y517439D01*
X12924Y517377D01*
X13090Y517248D01*
X13252Y517113D01*
X13326Y517066D01*
X13395Y517012D01*
X13577Y516907D01*
X13755Y516794D01*
X13835Y516757D01*
X13911Y516713D01*
X14105Y516633D01*
X14297Y516545D01*
X14381Y516520D01*
X14462Y516486D01*
X14666Y516433D01*
X14867Y516372D01*
X14953Y516358D01*
X15038Y516335D01*
X15162Y516323D01*
X15455Y516276D01*
X15752Y516267D01*
X15875Y516256D01*
X130175Y516256D01*
X130307Y516265D01*
X130438Y516264D01*
X130603Y516285D01*
X130770Y516296D01*
X130899Y516322D01*
X131029Y516339D01*
X131190Y516382D01*
X131354Y516415D01*
X131478Y516458D01*
X131605Y516492D01*
X131759Y516556D01*
X131916Y516611D01*
X132034Y516671D01*
X132155Y516721D01*
X132299Y516805D01*
X132448Y516881D01*
X132556Y516956D01*
X132670Y517022D01*
X132758Y517095D01*
X132938Y517219D01*
X133236Y517490D01*
X133318Y517557D01*
X140938Y525177D01*
X140966Y525211D01*
X140999Y525240D01*
X141162Y525435D01*
X141330Y525626D01*
X141354Y525663D01*
X141382Y525697D01*
X141519Y525912D01*
X141658Y526123D01*
X141677Y526163D01*
X141701Y526200D01*
X141807Y526431D01*
X141918Y526660D01*
X141931Y526702D01*
X141950Y526742D01*
X142023Y526984D01*
X142103Y527226D01*
X142111Y527270D01*
X142123Y527312D01*
X142164Y527562D01*
X142210Y527813D01*
X142212Y527857D01*
X142219Y527900D01*
X142226Y528154D01*
X142238Y528408D01*
X142235Y528452D01*
X142236Y528496D01*
X142209Y528749D01*
X142187Y529001D01*
X142177Y529044D01*
X142172Y529088D01*
X142112Y529335D01*
X142056Y529583D01*
X142041Y529624D01*
X142030Y529667D01*
X141937Y529903D01*
X141849Y530142D01*
X141828Y530181D01*
X141812Y530221D01*
X141688Y530443D01*
X141569Y530668D01*
X141543Y530703D01*
X141522Y530742D01*
X141369Y530946D01*
X141221Y531151D01*
X141190Y531183D01*
X141164Y531219D01*
X140985Y531400D01*
X140811Y531584D01*
X140777Y531612D01*
X140746Y531643D01*
X140545Y531799D01*
X140347Y531958D01*
X140309Y531981D01*
X140275Y532008D01*
X140055Y532136D01*
X139837Y532267D01*
X139797Y532285D01*
X139759Y532307D01*
X139524Y532404D01*
X139291Y532505D01*
X139249Y532517D01*
X139208Y532534D01*
X138963Y532598D01*
X138718Y532667D01*
X138674Y532674D01*
X138632Y532685D01*
X138526Y532695D01*
X138128Y532752D01*
X137908Y532754D01*
X137795Y532764D01*
X136036Y532764D01*
X126364Y542436D01*
X126364Y544831D01*
X142875Y544831D01*
X142962Y544836D01*
X143050Y544834D01*
X143260Y544856D01*
X143469Y544871D01*
X143555Y544888D01*
X143643Y544897D01*
X143847Y544948D01*
X144053Y544990D01*
X144136Y545019D01*
X144222Y545040D01*
X144417Y545117D01*
X144616Y545186D01*
X144694Y545226D01*
X144776Y545258D01*
X144960Y545360D01*
X145147Y545456D01*
X145220Y545505D01*
X145296Y545548D01*
X145465Y545675D01*
X145638Y545794D01*
X145703Y545853D01*
X145773Y545906D01*
X145923Y546054D01*
X146079Y546195D01*
X146136Y546263D01*
X146198Y546324D01*
X146327Y546491D01*
X146462Y546652D01*
X146509Y546726D01*
X146563Y546796D01*
X146669Y546977D01*
X146781Y547155D01*
X146818Y547235D01*
X146862Y547311D01*
X146942Y547506D01*
X147030Y547697D01*
X147055Y547781D01*
X147089Y547862D01*
X147142Y548066D01*
X147203Y548267D01*
X147218Y548354D01*
X147240Y548439D01*
X147252Y548562D01*
X147299Y548855D01*
X147308Y549152D01*
X147319Y549275D01*
X147319Y567123D01*
X147349Y567150D01*
X147377Y567184D01*
X147409Y567214D01*
X147569Y567412D01*
X147732Y567606D01*
X147756Y567644D01*
X147783Y567678D01*
X147915Y567895D01*
X148051Y568110D01*
X148069Y568150D01*
X148092Y568188D01*
X148193Y568420D01*
X148300Y568652D01*
X148312Y568694D01*
X148330Y568734D01*
X148399Y568979D01*
X148473Y569222D01*
X148480Y569265D01*
X148492Y569307D01*
X148529Y569560D01*
X148569Y569810D01*
X148571Y569854D01*
X148577Y569897D01*
X148579Y570151D01*
X148586Y570406D01*
X148581Y570449D01*
X148581Y570493D01*
X148549Y570745D01*
X148522Y570998D01*
X148512Y571041D01*
X148506Y571084D01*
X148441Y571330D01*
X148380Y571577D01*
X148364Y571618D01*
X148353Y571660D01*
X148255Y571895D01*
X148162Y572131D01*
X148141Y572170D01*
X148124Y572210D01*
X147995Y572430D01*
X147872Y572652D01*
X147845Y572687D01*
X147823Y572725D01*
X147755Y572807D01*
X147514Y573128D01*
X147360Y573285D01*
X147288Y573373D01*
X106044Y614616D01*
X106044Y696659D01*
X112966Y703581D01*
X123942Y703581D01*
X124008Y703585D01*
X124074Y703583D01*
X124306Y703605D01*
X124537Y703621D01*
X124601Y703634D01*
X124667Y703640D01*
X124893Y703694D01*
X125121Y703740D01*
X125183Y703762D01*
X125247Y703777D01*
X125464Y703860D01*
X125683Y703936D01*
X125742Y703966D01*
X125804Y703989D01*
X126007Y704100D01*
X126215Y704206D01*
X126269Y704243D01*
X126327Y704275D01*
X126514Y704412D01*
X126705Y704544D01*
X126754Y704589D01*
X126807Y704628D01*
X126974Y704789D01*
X127146Y704945D01*
X127189Y704996D01*
X127236Y705041D01*
X127380Y705224D01*
X127529Y705402D01*
X127565Y705457D01*
X127606Y705509D01*
X127724Y705709D01*
X127848Y705905D01*
X127876Y705965D01*
X127909Y706022D01*
X128000Y706236D01*
X128097Y706447D01*
X128116Y706510D01*
X128142Y706571D01*
X128203Y706795D01*
X128270Y707017D01*
X128281Y707082D01*
X128298Y707145D01*
X128329Y707376D01*
X128366Y707605D01*
X128368Y707671D01*
X128377Y707736D01*
X128376Y707968D01*
X128383Y708201D01*
X128376Y708266D01*
X128376Y708332D01*
X128344Y708562D01*
X128319Y708793D01*
X128304Y708857D01*
X128295Y708923D01*
X128259Y709038D01*
X128177Y709372D01*
X128084Y709610D01*
X128048Y709726D01*
X127167Y711853D01*
X126879Y712926D01*
X143770Y712926D01*
X143857Y712932D01*
X143945Y712929D01*
X144155Y712952D01*
X144364Y712966D01*
X144450Y712983D01*
X144538Y712993D01*
X144742Y713043D01*
X144948Y713085D01*
X145031Y713114D01*
X145117Y713135D01*
X145312Y713212D01*
X145511Y713281D01*
X145589Y713321D01*
X145671Y713353D01*
X145855Y713455D01*
X146042Y713551D01*
X146115Y713601D01*
X146192Y713643D01*
X146360Y713770D01*
X146533Y713889D01*
X146598Y713948D01*
X146668Y714001D01*
X146818Y714149D01*
X146974Y714290D01*
X147030Y714357D01*
X147093Y714419D01*
X147111Y714443D01*
X147179Y714509D01*
X147334Y714650D01*
X147391Y714718D01*
X147453Y714779D01*
X147582Y714946D01*
X147717Y715107D01*
X147764Y715181D01*
X147818Y715250D01*
X147923Y715432D01*
X148036Y715610D01*
X148073Y715690D01*
X148117Y715766D01*
X148197Y715961D01*
X148285Y716152D01*
X148310Y716236D01*
X148344Y716317D01*
X148397Y716521D01*
X148458Y716722D01*
X148472Y716808D01*
X148495Y716894D01*
X148507Y717017D01*
X148554Y717310D01*
X148563Y717607D01*
X148574Y717730D01*
X148574Y754926D01*
X161021Y754926D01*
X160733Y753853D01*
X159846Y751711D01*
X158687Y749703D01*
X158017Y748831D01*
X157989Y748788D01*
X157956Y748749D01*
X157823Y748540D01*
X157687Y748335D01*
X157664Y748288D01*
X157637Y748245D01*
X157534Y748020D01*
X157426Y747799D01*
X157410Y747750D01*
X157388Y747703D01*
X157316Y747468D01*
X157239Y747233D01*
X157229Y747182D01*
X157215Y747133D01*
X157175Y746890D01*
X157129Y746647D01*
X157127Y746596D01*
X157119Y746545D01*
X157112Y746298D01*
X157099Y746052D01*
X157103Y746001D01*
X157102Y745949D01*
X157128Y745704D01*
X157149Y745458D01*
X157160Y745408D01*
X157165Y745357D01*
X157224Y745117D01*
X157278Y744876D01*
X157295Y744828D01*
X157308Y744778D01*
X157398Y744549D01*
X157483Y744317D01*
X157507Y744271D01*
X157526Y744224D01*
X157646Y744008D01*
X157762Y743790D01*
X157791Y743748D01*
X157816Y743703D01*
X157965Y743505D01*
X158108Y743305D01*
X158143Y743268D01*
X158174Y743227D01*
X158347Y743050D01*
X158516Y742871D01*
X158556Y742838D01*
X158592Y742802D01*
X158787Y742651D01*
X158979Y742495D01*
X159022Y742468D01*
X159063Y742437D01*
X159277Y742313D01*
X159487Y742185D01*
X159534Y742164D01*
X159579Y742138D01*
X159807Y742044D01*
X160033Y741945D01*
X160082Y741931D01*
X160130Y741911D01*
X160369Y741849D01*
X160606Y741781D01*
X160657Y741773D01*
X160706Y741760D01*
X160819Y741750D01*
X161196Y741694D01*
X161427Y741692D01*
X161543Y741681D01*
X181357Y741681D01*
X181408Y741684D01*
X181460Y741682D01*
X181706Y741704D01*
X181952Y741721D01*
X182002Y741731D01*
X182053Y741736D01*
X182294Y741791D01*
X182536Y741840D01*
X182584Y741857D01*
X182634Y741868D01*
X182866Y741955D01*
X183098Y742036D01*
X183144Y742059D01*
X183192Y742077D01*
X183410Y742194D01*
X183630Y742306D01*
X183672Y742335D01*
X183717Y742359D01*
X183917Y742504D01*
X184120Y742644D01*
X184158Y742679D01*
X184200Y742709D01*
X184378Y742879D01*
X184561Y743045D01*
X184594Y743085D01*
X184631Y743120D01*
X184785Y743312D01*
X184944Y743502D01*
X184972Y743545D01*
X185004Y743585D01*
X185131Y743796D01*
X185263Y744005D01*
X185285Y744052D01*
X185311Y744096D01*
X185409Y744322D01*
X185512Y744547D01*
X185527Y744596D01*
X185547Y744643D01*
X185614Y744881D01*
X185685Y745117D01*
X185694Y745167D01*
X185708Y745217D01*
X185742Y745462D01*
X185781Y745705D01*
X185783Y745756D01*
X185790Y745807D01*
X185791Y746054D01*
X185798Y746301D01*
X185792Y746352D01*
X185793Y746403D01*
X185761Y746648D01*
X185735Y746893D01*
X185722Y746943D01*
X185716Y746994D01*
X185651Y747232D01*
X185592Y747472D01*
X185574Y747520D01*
X185560Y747569D01*
X185465Y747797D01*
X185374Y748026D01*
X185349Y748071D01*
X185329Y748119D01*
X185270Y748214D01*
X185084Y748547D01*
X184945Y748732D01*
X184883Y748831D01*
X184213Y749703D01*
X183054Y751711D01*
X182167Y753853D01*
X181879Y754926D01*
X198770Y754926D01*
X198857Y754932D01*
X198945Y754929D01*
X199015Y754937D01*
X199130Y754926D01*
X216021Y754926D01*
X215733Y753853D01*
X214846Y751711D01*
X213687Y749703D01*
X213017Y748831D01*
X212989Y748788D01*
X212956Y748749D01*
X212823Y748540D01*
X212687Y748335D01*
X212664Y748288D01*
X212637Y748245D01*
X212534Y748020D01*
X212426Y747799D01*
X212410Y747750D01*
X212388Y747703D01*
X212316Y747468D01*
X212239Y747233D01*
X212229Y747182D01*
X212215Y747133D01*
X212175Y746890D01*
X212129Y746647D01*
X212127Y746596D01*
X212119Y746545D01*
X212112Y746298D01*
X212099Y746052D01*
X212103Y746001D01*
X212102Y745949D01*
X212128Y745704D01*
X212149Y745458D01*
X212160Y745408D01*
X212165Y745357D01*
X212224Y745117D01*
X212278Y744876D01*
X212295Y744828D01*
X212308Y744778D01*
X212398Y744549D01*
X212483Y744317D01*
X212507Y744271D01*
X212526Y744224D01*
X212646Y744008D01*
X212762Y743790D01*
X212791Y743748D01*
X212816Y743703D01*
X212965Y743505D01*
X213108Y743305D01*
X213143Y743268D01*
X213174Y743227D01*
X213347Y743050D01*
X213516Y742871D01*
X213556Y742838D01*
X213592Y742802D01*
X213787Y742651D01*
X213979Y742495D01*
X214022Y742468D01*
X214063Y742437D01*
X214277Y742313D01*
X214487Y742185D01*
X214534Y742164D01*
X214579Y742138D01*
X214807Y742044D01*
X215033Y741945D01*
X215082Y741931D01*
X215130Y741911D01*
X215369Y741849D01*
X215606Y741781D01*
X215657Y741773D01*
X215706Y741760D01*
X215819Y741750D01*
X216196Y741694D01*
X216427Y741692D01*
X216543Y741681D01*
X264859Y741681D01*
X443231Y563309D01*
X443231Y544766D01*
X426784Y528319D01*
X415732Y528319D01*
X415492Y528303D01*
X415252Y528293D01*
X415195Y528283D01*
X415137Y528279D01*
X414902Y528231D01*
X414665Y528189D01*
X414610Y528172D01*
X414553Y528160D01*
X414326Y528081D01*
X414097Y528008D01*
X414045Y527983D01*
X413990Y527964D01*
X413776Y527855D01*
X413559Y527752D01*
X413511Y527721D01*
X413459Y527694D01*
X413261Y527558D01*
X413060Y527427D01*
X413016Y527389D01*
X412968Y527356D01*
X412790Y527194D01*
X412609Y527037D01*
X412571Y526994D01*
X412528Y526955D01*
X412373Y526770D01*
X412214Y526591D01*
X412182Y526543D01*
X412144Y526499D01*
X412016Y526295D01*
X411882Y526096D01*
X411857Y526044D01*
X411826Y525995D01*
X411725Y525776D01*
X411620Y525561D01*
X411601Y525506D01*
X411577Y525453D01*
X411507Y525224D01*
X411431Y524996D01*
X411420Y524939D01*
X411403Y524883D01*
X411365Y524646D01*
X411320Y524410D01*
X411317Y524352D01*
X411307Y524295D01*
X411301Y524055D01*
X411288Y523815D01*
X411292Y523757D01*
X411291Y523699D01*
X411316Y523461D01*
X411336Y523221D01*
X411348Y523164D01*
X411354Y523107D01*
X411412Y522873D01*
X411463Y522639D01*
X411480Y522596D01*
X411496Y522528D01*
X411715Y521974D01*
X411717Y521969D01*
X393700Y521969D01*
X375676Y521969D01*
X375723Y522078D01*
X375823Y522297D01*
X375840Y522352D01*
X375863Y522405D01*
X375927Y522637D01*
X375997Y522867D01*
X376006Y522924D01*
X376021Y522980D01*
X376054Y523218D01*
X376093Y523455D01*
X376094Y523513D01*
X376102Y523570D01*
X376103Y523811D01*
X376109Y524051D01*
X376103Y524108D01*
X376103Y524166D01*
X376071Y524404D01*
X376046Y524643D01*
X376032Y524699D01*
X376024Y524757D01*
X375961Y524988D01*
X375904Y525222D01*
X375882Y525276D01*
X375867Y525332D01*
X375773Y525553D01*
X375685Y525776D01*
X375657Y525827D01*
X375635Y525880D01*
X375512Y526087D01*
X375395Y526297D01*
X375360Y526343D01*
X375331Y526393D01*
X375182Y526581D01*
X375037Y526774D01*
X374997Y526815D01*
X374961Y526860D01*
X374788Y527027D01*
X374619Y527198D01*
X374573Y527234D01*
X374532Y527274D01*
X374338Y527416D01*
X374148Y527563D01*
X374098Y527592D01*
X374051Y527626D01*
X373841Y527741D01*
X373632Y527862D01*
X373579Y527884D01*
X373528Y527911D01*
X373304Y527997D01*
X373081Y528089D01*
X373026Y528103D01*
X372971Y528124D01*
X372737Y528179D01*
X372505Y528240D01*
X372459Y528244D01*
X372391Y528260D01*
X371798Y528317D01*
X371719Y528314D01*
X371668Y528319D01*
X365125Y528319D01*
X365037Y528313D01*
X364949Y528316D01*
X364740Y528293D01*
X364530Y528279D01*
X364444Y528262D01*
X364357Y528252D01*
X364153Y528202D01*
X363947Y528160D01*
X363863Y528131D01*
X363778Y528110D01*
X363582Y528033D01*
X363384Y527964D01*
X363305Y527924D01*
X363224Y527892D01*
X363040Y527790D01*
X362852Y527694D01*
X362780Y527644D01*
X362703Y527602D01*
X362535Y527475D01*
X362362Y527356D01*
X362297Y527297D01*
X362227Y527244D01*
X362077Y527096D01*
X361921Y526955D01*
X361864Y526888D01*
X361802Y526826D01*
X361673Y526660D01*
X361538Y526499D01*
X361491Y526424D01*
X361437Y526355D01*
X361332Y526173D01*
X361219Y525995D01*
X361182Y525915D01*
X361138Y525839D01*
X361058Y525645D01*
X360970Y525453D01*
X360945Y525369D01*
X360911Y525288D01*
X360858Y525085D01*
X360797Y524883D01*
X360783Y524797D01*
X360760Y524712D01*
X360748Y524588D01*
X360701Y524295D01*
X360692Y523998D01*
X360681Y523875D01*
X360681Y511175D01*
X360687Y511087D01*
X360684Y510999D01*
X360707Y510790D01*
X360721Y510580D01*
X360738Y510494D01*
X360748Y510407D01*
X360798Y510203D01*
X360840Y509997D01*
X360869Y509913D01*
X360890Y509828D01*
X360967Y509632D01*
X361036Y509434D01*
X361076Y509355D01*
X361108Y509274D01*
X361211Y509090D01*
X361306Y508902D01*
X361356Y508830D01*
X361399Y508753D01*
X361525Y508585D01*
X361644Y508412D01*
X361703Y508347D01*
X361756Y508277D01*
X361904Y508127D01*
X362045Y507971D01*
X362112Y507914D01*
X362174Y507852D01*
X362340Y507723D01*
X362502Y507588D01*
X362576Y507541D01*
X362645Y507487D01*
X362827Y507382D01*
X363005Y507269D01*
X363085Y507232D01*
X363161Y507188D01*
X363355Y507108D01*
X363547Y507020D01*
X363631Y506995D01*
X363712Y506961D01*
X363916Y506908D01*
X364117Y506847D01*
X364203Y506833D01*
X364288Y506810D01*
X364412Y506798D01*
X364705Y506751D01*
X365002Y506742D01*
X365125Y506731D01*
X371668Y506731D01*
X371908Y506747D01*
G37*
%LPC*%
G36*
X195432Y22864D02*
X195432Y22864D01*
X188932Y25557D01*
X183957Y30532D01*
X181264Y37032D01*
X181264Y44068D01*
X183957Y50568D01*
X188932Y55543D01*
X193521Y57444D01*
X193560Y57464D01*
X193602Y57478D01*
X193827Y57596D01*
X194055Y57709D01*
X194091Y57733D01*
X194130Y57753D01*
X194338Y57900D01*
X194549Y58042D01*
X194582Y58071D01*
X194618Y58097D01*
X194804Y58270D01*
X194994Y58439D01*
X195022Y58472D01*
X195054Y58502D01*
X195216Y58699D01*
X195381Y58891D01*
X195405Y58928D01*
X195433Y58962D01*
X195567Y59178D01*
X195705Y59392D01*
X195724Y59431D01*
X195747Y59469D01*
X195850Y59700D01*
X195959Y59931D01*
X195972Y59973D01*
X195990Y60013D01*
X196062Y60256D01*
X196138Y60499D01*
X196146Y60542D01*
X196158Y60585D01*
X196197Y60836D01*
X196240Y61086D01*
X196242Y61130D01*
X196248Y61174D01*
X196253Y61428D01*
X196262Y61682D01*
X196258Y61725D01*
X196259Y61769D01*
X196229Y62022D01*
X196205Y62275D01*
X196195Y62318D01*
X196190Y62361D01*
X196127Y62608D01*
X196068Y62855D01*
X196053Y62896D01*
X196042Y62939D01*
X195946Y63175D01*
X195856Y63412D01*
X195835Y63450D01*
X195818Y63491D01*
X195692Y63712D01*
X195570Y63935D01*
X195544Y63970D01*
X195522Y64008D01*
X195368Y64211D01*
X195218Y64415D01*
X195187Y64447D01*
X195160Y64482D01*
X194980Y64661D01*
X194804Y64844D01*
X194769Y64871D01*
X194738Y64902D01*
X194535Y65056D01*
X194336Y65213D01*
X194298Y65236D01*
X194263Y65262D01*
X194169Y65312D01*
X193823Y65517D01*
X193621Y65603D01*
X193521Y65656D01*
X188932Y67557D01*
X183957Y72532D01*
X181264Y79032D01*
X181264Y86068D01*
X183957Y92568D01*
X188932Y97543D01*
X193521Y99444D01*
X193560Y99464D01*
X193602Y99478D01*
X193827Y99596D01*
X194055Y99709D01*
X194091Y99733D01*
X194130Y99753D01*
X194338Y99900D01*
X194549Y100042D01*
X194582Y100071D01*
X194618Y100097D01*
X194804Y100270D01*
X194994Y100439D01*
X195022Y100472D01*
X195054Y100502D01*
X195216Y100699D01*
X195381Y100891D01*
X195405Y100928D01*
X195433Y100962D01*
X195567Y101178D01*
X195705Y101392D01*
X195724Y101431D01*
X195747Y101469D01*
X195850Y101700D01*
X195959Y101931D01*
X195972Y101973D01*
X195990Y102013D01*
X196062Y102256D01*
X196138Y102499D01*
X196146Y102542D01*
X196158Y102585D01*
X196197Y102836D01*
X196240Y103086D01*
X196242Y103130D01*
X196248Y103174D01*
X196253Y103428D01*
X196262Y103682D01*
X196258Y103725D01*
X196259Y103769D01*
X196229Y104021D01*
X196205Y104275D01*
X196195Y104318D01*
X196190Y104361D01*
X196127Y104608D01*
X196068Y104855D01*
X196053Y104896D01*
X196042Y104939D01*
X195946Y105175D01*
X195856Y105412D01*
X195835Y105450D01*
X195818Y105491D01*
X195692Y105712D01*
X195570Y105935D01*
X195544Y105970D01*
X195522Y106008D01*
X195368Y106211D01*
X195218Y106415D01*
X195187Y106447D01*
X195160Y106482D01*
X194980Y106661D01*
X194804Y106844D01*
X194769Y106871D01*
X194738Y106902D01*
X194535Y107056D01*
X194336Y107213D01*
X194298Y107236D01*
X194263Y107262D01*
X194169Y107312D01*
X193823Y107517D01*
X193621Y107603D01*
X193521Y107656D01*
X188932Y109557D01*
X183957Y114532D01*
X181264Y121032D01*
X181264Y128068D01*
X183957Y134568D01*
X188932Y139543D01*
X195432Y142236D01*
X202468Y142236D01*
X208968Y139543D01*
X213943Y134568D01*
X216636Y128068D01*
X216636Y121032D01*
X213943Y114532D01*
X208968Y109557D01*
X204379Y107656D01*
X204340Y107636D01*
X204298Y107622D01*
X204073Y107505D01*
X203845Y107392D01*
X203809Y107367D01*
X203770Y107347D01*
X203562Y107200D01*
X203351Y107058D01*
X203318Y107029D01*
X203283Y107003D01*
X203096Y106831D01*
X202906Y106661D01*
X202878Y106628D01*
X202846Y106598D01*
X202685Y106402D01*
X202519Y106209D01*
X202495Y106172D01*
X202467Y106138D01*
X202333Y105922D01*
X202195Y105708D01*
X202176Y105669D01*
X202153Y105631D01*
X202049Y105399D01*
X201941Y105169D01*
X201928Y105127D01*
X201910Y105087D01*
X201838Y104844D01*
X201762Y104601D01*
X201754Y104558D01*
X201742Y104516D01*
X201703Y104264D01*
X201660Y104014D01*
X201658Y103970D01*
X201652Y103926D01*
X201647Y103672D01*
X201638Y103418D01*
X201642Y103375D01*
X201641Y103331D01*
X201671Y103078D01*
X201695Y102825D01*
X201705Y102782D01*
X201710Y102739D01*
X201773Y102493D01*
X201832Y102245D01*
X201847Y102204D01*
X201858Y102161D01*
X201954Y101926D01*
X202044Y101688D01*
X202065Y101650D01*
X202082Y101609D01*
X202208Y101389D01*
X202330Y101165D01*
X202356Y101130D01*
X202378Y101092D01*
X202532Y100890D01*
X202682Y100685D01*
X202713Y100653D01*
X202740Y100618D01*
X202920Y100439D01*
X203096Y100256D01*
X203131Y100229D01*
X203162Y100198D01*
X203365Y100044D01*
X203564Y99887D01*
X203602Y99864D01*
X203637Y99838D01*
X203730Y99788D01*
X204077Y99583D01*
X204279Y99497D01*
X204379Y99444D01*
X208968Y97543D01*
X213943Y92568D01*
X216636Y86068D01*
X216636Y79032D01*
X213943Y72532D01*
X208968Y67557D01*
X204379Y65656D01*
X204340Y65636D01*
X204298Y65622D01*
X204073Y65505D01*
X203845Y65392D01*
X203809Y65367D01*
X203770Y65347D01*
X203562Y65200D01*
X203351Y65058D01*
X203318Y65029D01*
X203283Y65003D01*
X203096Y64831D01*
X202906Y64661D01*
X202878Y64628D01*
X202846Y64598D01*
X202685Y64402D01*
X202519Y64209D01*
X202495Y64172D01*
X202467Y64138D01*
X202333Y63922D01*
X202195Y63708D01*
X202176Y63669D01*
X202153Y63631D01*
X202049Y63399D01*
X201941Y63169D01*
X201928Y63127D01*
X201910Y63087D01*
X201838Y62844D01*
X201762Y62601D01*
X201754Y62558D01*
X201742Y62516D01*
X201703Y62264D01*
X201660Y62014D01*
X201658Y61970D01*
X201652Y61926D01*
X201647Y61672D01*
X201638Y61418D01*
X201642Y61375D01*
X201641Y61331D01*
X201671Y61077D01*
X201695Y60825D01*
X201705Y60782D01*
X201710Y60739D01*
X201773Y60493D01*
X201832Y60245D01*
X201847Y60204D01*
X201858Y60161D01*
X201954Y59926D01*
X202044Y59688D01*
X202065Y59650D01*
X202082Y59609D01*
X202208Y59389D01*
X202330Y59165D01*
X202356Y59130D01*
X202378Y59092D01*
X202532Y58890D01*
X202682Y58685D01*
X202713Y58653D01*
X202740Y58618D01*
X202920Y58439D01*
X203096Y58256D01*
X203131Y58229D01*
X203162Y58198D01*
X203365Y58044D01*
X203564Y57887D01*
X203602Y57864D01*
X203637Y57838D01*
X203730Y57788D01*
X204077Y57583D01*
X204279Y57497D01*
X204379Y57444D01*
X208968Y55543D01*
X213943Y50568D01*
X216636Y44068D01*
X216636Y37032D01*
X213943Y30532D01*
X208968Y25557D01*
X202468Y22864D01*
X195432Y22864D01*
G37*
%LPD*%
%LPC*%
G36*
X67605Y650139D02*
X67605Y650139D01*
X61142Y651871D01*
X55348Y655216D01*
X50616Y659948D01*
X47271Y665742D01*
X45539Y672205D01*
X45539Y678895D01*
X47271Y685358D01*
X50616Y691152D01*
X55348Y695884D01*
X61142Y699229D01*
X67605Y700961D01*
X74295Y700961D01*
X80758Y699229D01*
X86552Y695884D01*
X91284Y691152D01*
X94629Y685358D01*
X96361Y678895D01*
X96361Y672205D01*
X94629Y665742D01*
X91284Y659948D01*
X86552Y655216D01*
X80758Y651871D01*
X74295Y650139D01*
X67605Y650139D01*
G37*
%LPD*%
%LPC*%
G36*
X67605Y99139D02*
X67605Y99139D01*
X61142Y100871D01*
X55348Y104216D01*
X50616Y108948D01*
X47271Y114742D01*
X45539Y121205D01*
X45539Y127895D01*
X47271Y134358D01*
X50616Y140152D01*
X55348Y144884D01*
X61142Y148229D01*
X67605Y149961D01*
X74295Y149961D01*
X80758Y148229D01*
X86552Y144884D01*
X91284Y140152D01*
X94629Y134358D01*
X96361Y127895D01*
X96361Y121205D01*
X94629Y114742D01*
X91284Y108948D01*
X86552Y104216D01*
X80758Y100871D01*
X74295Y99139D01*
X67605Y99139D01*
G37*
%LPD*%
%LPC*%
G36*
X430060Y621664D02*
X430060Y621664D01*
X424246Y623222D01*
X419033Y626232D01*
X414777Y630488D01*
X411767Y635701D01*
X410209Y641515D01*
X410209Y647535D01*
X411767Y653349D01*
X414777Y658562D01*
X419033Y662818D01*
X424246Y665828D01*
X430060Y667386D01*
X436080Y667386D01*
X441894Y665828D01*
X447107Y662818D01*
X451363Y658562D01*
X454373Y653349D01*
X455931Y647535D01*
X455931Y641515D01*
X454373Y635701D01*
X451363Y630488D01*
X447107Y626232D01*
X441894Y623222D01*
X436080Y621664D01*
X430060Y621664D01*
G37*
%LPD*%
%LPC*%
G36*
X350353Y227710D02*
X350353Y227710D01*
X346526Y229296D01*
X343596Y232226D01*
X342010Y236053D01*
X342010Y240197D01*
X343596Y244024D01*
X346677Y247105D01*
X346775Y247175D01*
X346986Y247317D01*
X347019Y247346D01*
X347055Y247372D01*
X347241Y247545D01*
X347431Y247714D01*
X347459Y247747D01*
X347492Y247777D01*
X347653Y247973D01*
X347818Y248166D01*
X347842Y248203D01*
X347870Y248237D01*
X348004Y248453D01*
X348142Y248667D01*
X348161Y248706D01*
X348184Y248744D01*
X348288Y248976D01*
X348396Y249206D01*
X348409Y249248D01*
X348427Y249288D01*
X348499Y249532D01*
X348575Y249774D01*
X348583Y249817D01*
X348595Y249860D01*
X348634Y250111D01*
X348677Y250361D01*
X348679Y250405D01*
X348685Y250449D01*
X348690Y250703D01*
X348699Y250957D01*
X348695Y251001D01*
X348696Y251045D01*
X348666Y251297D01*
X348642Y251550D01*
X348632Y251593D01*
X348627Y251637D01*
X348564Y251883D01*
X348506Y252130D01*
X348490Y252171D01*
X348479Y252214D01*
X348383Y252450D01*
X348293Y252687D01*
X348272Y252725D01*
X348255Y252766D01*
X348129Y252987D01*
X348007Y253210D01*
X347981Y253245D01*
X347959Y253284D01*
X347805Y253486D01*
X347655Y253690D01*
X347624Y253722D01*
X347597Y253757D01*
X347417Y253936D01*
X347241Y254119D01*
X347206Y254146D01*
X347175Y254178D01*
X346973Y254331D01*
X346773Y254488D01*
X346735Y254511D01*
X346700Y254538D01*
X346665Y254556D01*
X343596Y257626D01*
X342010Y261453D01*
X342010Y265597D01*
X343831Y269992D01*
X343880Y270138D01*
X343939Y270280D01*
X343975Y270420D01*
X344022Y270557D01*
X344051Y270708D01*
X344090Y270856D01*
X344100Y270959D01*
X344135Y271142D01*
X344162Y271620D01*
X344169Y271693D01*
X344169Y280757D01*
X344159Y280910D01*
X344159Y281064D01*
X344139Y281208D01*
X344129Y281352D01*
X344099Y281502D01*
X344078Y281655D01*
X344047Y281753D01*
X344010Y281936D01*
X343852Y282388D01*
X343831Y282458D01*
X342010Y286853D01*
X342010Y290997D01*
X343596Y294824D01*
X346579Y297807D01*
X346726Y297880D01*
X346823Y297946D01*
X346925Y298003D01*
X347070Y298112D01*
X347220Y298214D01*
X347308Y298292D01*
X347401Y298362D01*
X347529Y298490D01*
X347665Y298611D01*
X347741Y298699D01*
X347824Y298782D01*
X347935Y298925D01*
X348053Y299063D01*
X348116Y299161D01*
X348188Y299254D01*
X348278Y299411D01*
X348376Y299563D01*
X348426Y299669D01*
X348485Y299771D01*
X348553Y299939D01*
X348630Y300103D01*
X348665Y300214D01*
X348710Y300322D01*
X348755Y300498D01*
X348810Y300671D01*
X348830Y300786D01*
X348859Y300899D01*
X348881Y301079D01*
X348912Y301258D01*
X348916Y301375D01*
X348930Y301491D01*
X348927Y301672D01*
X348934Y301854D01*
X348923Y301970D01*
X348921Y302087D01*
X348894Y302266D01*
X348877Y302447D01*
X348850Y302560D01*
X348832Y302676D01*
X348782Y302850D01*
X348740Y303027D01*
X348698Y303136D01*
X348666Y303248D01*
X348592Y303414D01*
X348527Y303583D01*
X348471Y303686D01*
X348424Y303793D01*
X348329Y303948D01*
X348242Y304107D01*
X348173Y304201D01*
X348112Y304301D01*
X347996Y304441D01*
X347889Y304587D01*
X347808Y304671D01*
X347734Y304762D01*
X347645Y304840D01*
X347476Y305016D01*
X347192Y305240D01*
X347104Y305318D01*
X345640Y306381D01*
X344481Y307540D01*
X343518Y308866D01*
X343001Y309881D01*
X352425Y309881D01*
X361849Y309881D01*
X361332Y308866D01*
X360369Y307540D01*
X359210Y306381D01*
X357746Y305318D01*
X357656Y305243D01*
X357561Y305175D01*
X357428Y305052D01*
X357288Y304936D01*
X357209Y304850D01*
X357124Y304770D01*
X357008Y304630D01*
X356886Y304496D01*
X356819Y304400D01*
X356745Y304310D01*
X356650Y304156D01*
X356546Y304007D01*
X356493Y303903D01*
X356431Y303803D01*
X356357Y303638D01*
X356275Y303476D01*
X356236Y303366D01*
X356188Y303259D01*
X356137Y303085D01*
X356077Y302914D01*
X356053Y302799D01*
X356020Y302687D01*
X355993Y302508D01*
X355956Y302331D01*
X355948Y302214D01*
X355930Y302098D01*
X355927Y301917D01*
X355914Y301736D01*
X355922Y301619D01*
X355919Y301502D01*
X355941Y301322D01*
X355952Y301141D01*
X355975Y301027D01*
X355989Y300911D01*
X356034Y300734D01*
X356069Y300557D01*
X356108Y300447D01*
X356137Y300333D01*
X356205Y300165D01*
X356264Y299994D01*
X356316Y299889D01*
X356360Y299781D01*
X356450Y299623D01*
X356532Y299461D01*
X356598Y299365D01*
X356656Y299264D01*
X356766Y299120D01*
X356869Y298970D01*
X356947Y298883D01*
X357018Y298790D01*
X357147Y298662D01*
X357268Y298528D01*
X357358Y298452D01*
X357441Y298370D01*
X357585Y298260D01*
X357724Y298143D01*
X357822Y298080D01*
X357915Y298010D01*
X358020Y297954D01*
X358226Y297823D01*
X358282Y297797D01*
X361254Y294824D01*
X362840Y290997D01*
X362840Y286853D01*
X361019Y282458D01*
X360970Y282312D01*
X360911Y282170D01*
X360875Y282030D01*
X360828Y281893D01*
X360799Y281743D01*
X360760Y281594D01*
X360750Y281490D01*
X360715Y281308D01*
X360688Y280830D01*
X360681Y280757D01*
X360681Y271693D01*
X360691Y271540D01*
X360691Y271386D01*
X360711Y271243D01*
X360721Y271098D01*
X360751Y270948D01*
X360772Y270795D01*
X360803Y270697D01*
X360840Y270514D01*
X360998Y270062D01*
X361019Y269992D01*
X362840Y265597D01*
X362840Y261453D01*
X361254Y257626D01*
X358173Y254545D01*
X358075Y254475D01*
X357865Y254333D01*
X357832Y254304D01*
X357795Y254278D01*
X357609Y254106D01*
X357420Y253937D01*
X357391Y253903D01*
X357359Y253873D01*
X357198Y253678D01*
X357032Y253484D01*
X357008Y253447D01*
X356980Y253413D01*
X356847Y253198D01*
X356708Y252984D01*
X356689Y252944D01*
X356666Y252906D01*
X356563Y252675D01*
X356454Y252445D01*
X356441Y252403D01*
X356423Y252362D01*
X356351Y252119D01*
X356275Y251877D01*
X356267Y251833D01*
X356255Y251790D01*
X356216Y251540D01*
X356173Y251289D01*
X356171Y251245D01*
X356165Y251201D01*
X356160Y250948D01*
X356151Y250694D01*
X356155Y250650D01*
X356154Y250606D01*
X356184Y250353D01*
X356208Y250101D01*
X356218Y250058D01*
X356223Y250014D01*
X356286Y249768D01*
X356344Y249521D01*
X356360Y249479D01*
X356371Y249436D01*
X356467Y249201D01*
X356557Y248964D01*
X356578Y248925D01*
X356595Y248884D01*
X356721Y248663D01*
X356842Y248441D01*
X356869Y248405D01*
X356890Y248367D01*
X357045Y248165D01*
X357195Y247960D01*
X357226Y247929D01*
X357253Y247893D01*
X357433Y247714D01*
X357609Y247532D01*
X357643Y247504D01*
X357675Y247473D01*
X357878Y247319D01*
X358076Y247162D01*
X358114Y247139D01*
X358150Y247113D01*
X358185Y247094D01*
X361254Y244024D01*
X362840Y240197D01*
X362840Y236053D01*
X361254Y232226D01*
X358324Y229296D01*
X354497Y227710D01*
X350353Y227710D01*
G37*
%LPD*%
%LPC*%
G36*
X45658Y276561D02*
X45658Y276561D01*
X40966Y278504D01*
X37375Y282095D01*
X35432Y286786D01*
X35432Y291864D01*
X37375Y296555D01*
X40966Y300146D01*
X45658Y302089D01*
X68642Y302089D01*
X73334Y300146D01*
X76925Y296555D01*
X78868Y291864D01*
X78868Y286786D01*
X76925Y282095D01*
X73334Y278504D01*
X68642Y276561D01*
X45658Y276561D01*
G37*
%LPD*%
%LPC*%
G36*
X52285Y381614D02*
X52285Y381614D01*
X46529Y383998D01*
X42123Y388404D01*
X39739Y394160D01*
X39739Y400390D01*
X42123Y406146D01*
X46529Y410552D01*
X52285Y412936D01*
X58515Y412936D01*
X64271Y410552D01*
X68677Y406146D01*
X71061Y400390D01*
X71061Y394160D01*
X68677Y388404D01*
X64271Y383998D01*
X58515Y381614D01*
X52285Y381614D01*
G37*
%LPD*%
%LPC*%
G36*
X52285Y431614D02*
X52285Y431614D01*
X46529Y433998D01*
X42123Y438404D01*
X39739Y444160D01*
X39739Y450390D01*
X42123Y456146D01*
X46529Y460552D01*
X52285Y462936D01*
X58515Y462936D01*
X64271Y460552D01*
X68677Y456146D01*
X71061Y450390D01*
X71061Y444160D01*
X68677Y438404D01*
X64271Y433998D01*
X58515Y431614D01*
X52285Y431614D01*
G37*
%LPD*%
%LPC*%
G36*
X100703Y373714D02*
X100703Y373714D01*
X95718Y375779D01*
X91904Y379593D01*
X89839Y384578D01*
X89839Y389972D01*
X91904Y394957D01*
X95718Y398771D01*
X100703Y400836D01*
X106097Y400836D01*
X111082Y398771D01*
X114896Y394957D01*
X116961Y389972D01*
X116961Y384578D01*
X114896Y379593D01*
X111082Y375779D01*
X106097Y373714D01*
X100703Y373714D01*
G37*
%LPD*%
%LPC*%
G36*
X322711Y469010D02*
X322711Y469010D01*
X315880Y475841D01*
X315814Y475899D01*
X315753Y475963D01*
X315590Y476095D01*
X315431Y476233D01*
X315358Y476282D01*
X315290Y476337D01*
X315110Y476446D01*
X314934Y476562D01*
X314855Y476600D01*
X314780Y476646D01*
X314587Y476730D01*
X314398Y476821D01*
X314314Y476849D01*
X314233Y476884D01*
X314031Y476941D01*
X313831Y477006D01*
X313745Y477022D01*
X313660Y477046D01*
X313452Y477076D01*
X313245Y477114D01*
X313157Y477118D01*
X313070Y477131D01*
X312860Y477132D01*
X312650Y477142D01*
X312562Y477134D01*
X312474Y477135D01*
X312266Y477109D01*
X312056Y477090D01*
X311970Y477071D01*
X311883Y477060D01*
X311680Y477006D01*
X311475Y476960D01*
X311392Y476929D01*
X311307Y476907D01*
X311113Y476826D01*
X310916Y476752D01*
X310839Y476711D01*
X310757Y476677D01*
X310575Y476571D01*
X310390Y476472D01*
X310319Y476421D01*
X310243Y476377D01*
X310147Y476298D01*
X309906Y476124D01*
X309691Y475920D01*
X309595Y475841D01*
X302894Y469141D01*
X302894Y479425D01*
X302894Y489709D01*
X309595Y483009D01*
X309661Y482951D01*
X309722Y482887D01*
X309885Y482755D01*
X310044Y482617D01*
X310117Y482568D01*
X310185Y482513D01*
X310366Y482404D01*
X310541Y482288D01*
X310620Y482250D01*
X310695Y482204D01*
X310888Y482120D01*
X311077Y482029D01*
X311161Y482001D01*
X311242Y481966D01*
X311444Y481909D01*
X311644Y481844D01*
X311730Y481828D01*
X311815Y481804D01*
X312023Y481774D01*
X312230Y481736D01*
X312318Y481732D01*
X312405Y481719D01*
X312615Y481718D01*
X312825Y481708D01*
X312913Y481716D01*
X313001Y481715D01*
X313209Y481741D01*
X313419Y481760D01*
X313505Y481779D01*
X313592Y481790D01*
X313795Y481844D01*
X314000Y481890D01*
X314083Y481921D01*
X314168Y481943D01*
X314362Y482024D01*
X314559Y482098D01*
X314637Y482139D01*
X314718Y482173D01*
X314899Y482279D01*
X315085Y482378D01*
X315157Y482429D01*
X315232Y482473D01*
X315328Y482552D01*
X315569Y482726D01*
X315785Y482930D01*
X315880Y483009D01*
X322711Y489840D01*
X331339Y489840D01*
X337440Y483739D01*
X337440Y475111D01*
X331339Y469010D01*
X322711Y469010D01*
G37*
%LPD*%
%LPC*%
G36*
X116336Y211835D02*
X116336Y211835D01*
X110235Y217936D01*
X110235Y226564D01*
X116336Y232665D01*
X124964Y232665D01*
X131065Y226564D01*
X131065Y217936D01*
X124964Y211835D01*
X116336Y211835D01*
G37*
%LPD*%
%LPC*%
G36*
X271911Y138810D02*
X271911Y138810D01*
X265810Y144911D01*
X265810Y153539D01*
X271911Y159640D01*
X280539Y159640D01*
X286640Y153539D01*
X286640Y144911D01*
X280539Y138810D01*
X271911Y138810D01*
G37*
%LPD*%
%LPC*%
G36*
X148574Y45174D02*
X148574Y45174D01*
X148574Y77926D01*
X161021Y77926D01*
X160733Y76853D01*
X159846Y74711D01*
X158687Y72703D01*
X157275Y70864D01*
X155636Y69225D01*
X153797Y67813D01*
X151572Y66529D01*
X151548Y66513D01*
X151521Y66499D01*
X151300Y66347D01*
X151077Y66197D01*
X151055Y66177D01*
X151031Y66161D01*
X150832Y65980D01*
X150631Y65802D01*
X150612Y65780D01*
X150590Y65760D01*
X150417Y65554D01*
X150242Y65351D01*
X150226Y65326D01*
X150207Y65303D01*
X150063Y65077D01*
X149916Y64851D01*
X149904Y64825D01*
X149888Y64800D01*
X149776Y64555D01*
X149661Y64313D01*
X149652Y64285D01*
X149640Y64258D01*
X149561Y64002D01*
X149479Y63745D01*
X149474Y63716D01*
X149466Y63688D01*
X149423Y63424D01*
X149376Y63158D01*
X149374Y63129D01*
X149370Y63100D01*
X149362Y62832D01*
X149351Y62563D01*
X149354Y62534D01*
X149353Y62504D01*
X149382Y62238D01*
X149407Y61970D01*
X149414Y61941D01*
X149417Y61912D01*
X149481Y61651D01*
X149541Y61389D01*
X149552Y61362D01*
X149559Y61333D01*
X149657Y61083D01*
X149752Y60832D01*
X149766Y60806D01*
X149777Y60779D01*
X149909Y60542D01*
X150036Y60308D01*
X150053Y60284D01*
X150068Y60258D01*
X150231Y60040D01*
X150387Y59826D01*
X150407Y59805D01*
X150425Y59781D01*
X150615Y59589D01*
X150800Y59396D01*
X150822Y59378D01*
X150843Y59357D01*
X151056Y59192D01*
X151266Y59025D01*
X151291Y59010D01*
X151314Y58992D01*
X151548Y58857D01*
X151778Y58719D01*
X151805Y58708D01*
X151830Y58693D01*
X152078Y58591D01*
X152326Y58485D01*
X152354Y58477D01*
X152381Y58466D01*
X152640Y58398D01*
X152900Y58327D01*
X152929Y58323D01*
X152957Y58315D01*
X153044Y58307D01*
X153491Y58246D01*
X153687Y58246D01*
X153794Y58236D01*
X158200Y58236D01*
X158937Y58089D01*
X159630Y57802D01*
X160254Y57385D01*
X160785Y56854D01*
X161202Y56230D01*
X161489Y55537D01*
X161636Y54800D01*
X161636Y45174D01*
X148574Y45174D01*
G37*
%LPD*%
%LPC*%
G36*
X126264Y45174D02*
X126264Y45174D01*
X126264Y54800D01*
X126411Y55537D01*
X126698Y56230D01*
X127115Y56854D01*
X127646Y57385D01*
X128270Y57802D01*
X128963Y58089D01*
X129700Y58236D01*
X134106Y58236D01*
X134135Y58238D01*
X134165Y58236D01*
X134433Y58258D01*
X134701Y58276D01*
X134729Y58282D01*
X134759Y58284D01*
X135021Y58341D01*
X135284Y58395D01*
X135312Y58404D01*
X135341Y58411D01*
X135594Y58503D01*
X135847Y58591D01*
X135873Y58604D01*
X135901Y58614D01*
X136139Y58739D01*
X136379Y58861D01*
X136403Y58877D01*
X136429Y58891D01*
X136648Y59046D01*
X136869Y59199D01*
X136891Y59219D01*
X136915Y59236D01*
X137111Y59419D01*
X137310Y59600D01*
X137329Y59623D01*
X137350Y59643D01*
X137521Y59851D01*
X137693Y60056D01*
X137709Y60081D01*
X137727Y60104D01*
X137868Y60333D01*
X138012Y60560D01*
X138024Y60587D01*
X138040Y60612D01*
X138148Y60857D01*
X138260Y61102D01*
X138269Y61130D01*
X138281Y61157D01*
X138356Y61416D01*
X138434Y61672D01*
X138439Y61700D01*
X138447Y61729D01*
X138487Y61996D01*
X138530Y62260D01*
X138531Y62289D01*
X138535Y62318D01*
X138539Y62587D01*
X138547Y62856D01*
X138544Y62885D01*
X138544Y62914D01*
X138512Y63182D01*
X138483Y63448D01*
X138476Y63477D01*
X138473Y63506D01*
X138405Y63766D01*
X138341Y64027D01*
X138330Y64054D01*
X138323Y64083D01*
X138221Y64332D01*
X138123Y64581D01*
X138109Y64607D01*
X138098Y64634D01*
X137964Y64867D01*
X137832Y65102D01*
X137815Y65125D01*
X137800Y65151D01*
X137637Y65363D01*
X137475Y65578D01*
X137454Y65599D01*
X137436Y65623D01*
X137245Y65812D01*
X137057Y66003D01*
X137034Y66021D01*
X137013Y66042D01*
X136942Y66092D01*
X136586Y66368D01*
X136415Y66467D01*
X136328Y66529D01*
X134103Y67813D01*
X132264Y69225D01*
X130625Y70864D01*
X129213Y72703D01*
X128054Y74711D01*
X127167Y76853D01*
X126879Y77926D01*
X139326Y77926D01*
X139326Y45174D01*
X126264Y45174D01*
G37*
%LPD*%
%LPC*%
G36*
X148574Y22864D02*
X148574Y22864D01*
X148574Y35926D01*
X161636Y35926D01*
X161636Y26300D01*
X161489Y25563D01*
X161202Y24870D01*
X160785Y24246D01*
X160254Y23715D01*
X159630Y23298D01*
X158937Y23011D01*
X158200Y22864D01*
X148574Y22864D01*
G37*
%LPD*%
%LPC*%
G36*
X148574Y657864D02*
X148574Y657864D01*
X148574Y670926D01*
X161636Y670926D01*
X161636Y661300D01*
X161489Y660563D01*
X161202Y659870D01*
X160785Y659246D01*
X160254Y658715D01*
X159630Y658298D01*
X158937Y658011D01*
X158200Y657864D01*
X148574Y657864D01*
G37*
%LPD*%
%LPC*%
G36*
X129700Y22864D02*
X129700Y22864D01*
X128963Y23011D01*
X128270Y23298D01*
X127646Y23715D01*
X127115Y24246D01*
X126698Y24870D01*
X126411Y25563D01*
X126264Y26300D01*
X126264Y35926D01*
X139326Y35926D01*
X139326Y22864D01*
X129700Y22864D01*
G37*
%LPD*%
%LPC*%
G36*
X260350Y772794D02*
X260350Y772794D01*
X248994Y772794D01*
X249391Y773754D01*
X250190Y775138D01*
X251163Y776406D01*
X252294Y777537D01*
X253562Y778510D01*
X254946Y779309D01*
X256422Y779920D01*
X258013Y780347D01*
X258205Y780386D01*
X258494Y780444D01*
X258502Y780446D01*
X258509Y780448D01*
X258780Y780542D01*
X259058Y780638D01*
X259065Y780642D01*
X259072Y780644D01*
X259331Y780776D01*
X259590Y780906D01*
X259596Y780910D01*
X259603Y780914D01*
X259843Y781079D01*
X260082Y781243D01*
X260088Y781248D01*
X260094Y781252D01*
X260308Y781447D01*
X260347Y781482D01*
X260418Y781410D01*
X260425Y781405D01*
X260430Y781400D01*
X260657Y781225D01*
X260890Y781045D01*
X260896Y781041D01*
X260902Y781036D01*
X261152Y780893D01*
X261405Y780746D01*
X261412Y780743D01*
X261419Y780740D01*
X261691Y780629D01*
X261956Y780519D01*
X261964Y780517D01*
X261971Y780515D01*
X262002Y780507D01*
X262533Y780368D01*
X262647Y780357D01*
X264278Y779920D01*
X265754Y779309D01*
X267138Y778510D01*
X268406Y777537D01*
X269537Y776406D01*
X270510Y775138D01*
X271309Y773754D01*
X271706Y772794D01*
X260350Y772794D01*
X260350Y772794D01*
G37*
%LPD*%
%LPC*%
G36*
X148574Y87174D02*
X148574Y87174D01*
X148574Y99880D01*
X148602Y99864D01*
X148637Y99838D01*
X148731Y99788D01*
X149077Y99583D01*
X149279Y99497D01*
X149379Y99444D01*
X151789Y98446D01*
X153797Y97287D01*
X155636Y95875D01*
X157275Y94236D01*
X158687Y92397D01*
X159846Y90389D01*
X160733Y88247D01*
X161021Y87174D01*
X148574Y87174D01*
G37*
%LPD*%
%LPC*%
G36*
X203574Y680174D02*
X203574Y680174D01*
X203574Y692880D01*
X203602Y692864D01*
X203637Y692838D01*
X203730Y692788D01*
X204077Y692583D01*
X204279Y692497D01*
X204379Y692444D01*
X206789Y691446D01*
X208797Y690287D01*
X210636Y688875D01*
X212275Y687236D01*
X213687Y685397D01*
X214846Y683389D01*
X215733Y681247D01*
X216021Y680174D01*
X203574Y680174D01*
G37*
%LPD*%
%LPC*%
G36*
X139298Y107236D02*
X139298Y107236D01*
X139263Y107262D01*
X139169Y107312D01*
X138823Y107517D01*
X138621Y107603D01*
X138521Y107656D01*
X136111Y108654D01*
X134103Y109813D01*
X132264Y111225D01*
X130625Y112864D01*
X129213Y114703D01*
X128054Y116711D01*
X127167Y118853D01*
X126879Y119926D01*
X139326Y119926D01*
X139326Y107220D01*
X139298Y107236D01*
G37*
%LPD*%
%LPC*%
G36*
X139298Y742236D02*
X139298Y742236D01*
X139263Y742262D01*
X139169Y742312D01*
X138823Y742517D01*
X138621Y742603D01*
X138521Y742656D01*
X136111Y743654D01*
X134103Y744813D01*
X132264Y746225D01*
X130625Y747864D01*
X129883Y748830D01*
X129883Y748831D01*
X129576Y749231D01*
X129213Y749703D01*
X128054Y751711D01*
X127167Y753853D01*
X126879Y754926D01*
X139326Y754926D01*
X139326Y742220D01*
X139298Y742236D01*
G37*
%LPD*%
%LPC*%
G36*
X126879Y87174D02*
X126879Y87174D01*
X127167Y88247D01*
X128054Y90389D01*
X129213Y92397D01*
X130625Y94236D01*
X132264Y95875D01*
X134103Y97287D01*
X136111Y98446D01*
X138521Y99444D01*
X138560Y99464D01*
X138602Y99478D01*
X138827Y99596D01*
X139055Y99709D01*
X139091Y99733D01*
X139130Y99753D01*
X139326Y99891D01*
X139326Y87174D01*
X126879Y87174D01*
G37*
%LPD*%
%LPC*%
G36*
X126879Y722174D02*
X126879Y722174D01*
X127167Y723247D01*
X128054Y725389D01*
X129213Y727397D01*
X130625Y729236D01*
X132264Y730875D01*
X134103Y732287D01*
X136111Y733446D01*
X138521Y734444D01*
X138560Y734464D01*
X138602Y734478D01*
X138827Y734596D01*
X139055Y734709D01*
X139091Y734733D01*
X139130Y734753D01*
X139326Y734891D01*
X139326Y722174D01*
X126879Y722174D01*
G37*
%LPD*%
%LPC*%
G36*
X181879Y680174D02*
X181879Y680174D01*
X182167Y681247D01*
X183054Y683389D01*
X184213Y685397D01*
X185625Y687236D01*
X187264Y688875D01*
X189103Y690287D01*
X191111Y691446D01*
X193521Y692444D01*
X193560Y692464D01*
X193602Y692478D01*
X193828Y692596D01*
X194055Y692709D01*
X194091Y692733D01*
X194130Y692753D01*
X194326Y692891D01*
X194326Y680174D01*
X181879Y680174D01*
G37*
%LPD*%
%LPC*%
G36*
X203574Y712926D02*
X203574Y712926D01*
X216021Y712926D01*
X215733Y711853D01*
X214846Y709711D01*
X213687Y707703D01*
X212275Y705864D01*
X210636Y704225D01*
X208797Y702813D01*
X206789Y701654D01*
X204379Y700656D01*
X204340Y700636D01*
X204298Y700622D01*
X204074Y700505D01*
X203845Y700392D01*
X203809Y700367D01*
X203770Y700347D01*
X203574Y700209D01*
X203574Y712926D01*
G37*
%LPD*%
%LPC*%
G36*
X148574Y119926D02*
X148574Y119926D01*
X161021Y119926D01*
X160733Y118853D01*
X159846Y116711D01*
X158687Y114703D01*
X157275Y112864D01*
X155636Y111225D01*
X153797Y109813D01*
X151789Y108654D01*
X149379Y107656D01*
X149340Y107636D01*
X149298Y107622D01*
X149073Y107504D01*
X148845Y107392D01*
X148809Y107367D01*
X148770Y107347D01*
X148574Y107209D01*
X148574Y119926D01*
G37*
%LPD*%
%LPC*%
G36*
X148574Y129174D02*
X148574Y129174D01*
X148574Y141621D01*
X149647Y141333D01*
X151789Y140446D01*
X153797Y139287D01*
X155636Y137875D01*
X157275Y136236D01*
X158687Y134397D01*
X159846Y132389D01*
X160733Y130247D01*
X161021Y129174D01*
X148574Y129174D01*
G37*
%LPD*%
%LPC*%
G36*
X203574Y764174D02*
X203574Y764174D01*
X203574Y776621D01*
X204647Y776333D01*
X206789Y775446D01*
X208797Y774287D01*
X210636Y772875D01*
X212275Y771236D01*
X213687Y769397D01*
X214846Y767389D01*
X215733Y765247D01*
X216021Y764174D01*
X203574Y764174D01*
G37*
%LPD*%
%LPC*%
G36*
X148574Y764174D02*
X148574Y764174D01*
X148574Y776621D01*
X149647Y776333D01*
X151789Y775446D01*
X153797Y774287D01*
X155088Y773296D01*
X155636Y772875D01*
X157275Y771236D01*
X158687Y769397D01*
X159846Y767389D01*
X160733Y765247D01*
X161021Y764174D01*
X148574Y764174D01*
G37*
%LPD*%
%LPC*%
G36*
X126879Y764174D02*
X126879Y764174D01*
X127167Y765247D01*
X128054Y767389D01*
X129213Y769397D01*
X130625Y771236D01*
X132264Y772875D01*
X134103Y774287D01*
X136111Y775446D01*
X138253Y776333D01*
X139326Y776621D01*
X139326Y764174D01*
X126879Y764174D01*
G37*
%LPD*%
%LPC*%
G36*
X203574Y670926D02*
X203574Y670926D01*
X216021Y670926D01*
X215733Y669853D01*
X214846Y667711D01*
X213687Y665703D01*
X212275Y663864D01*
X210636Y662225D01*
X208797Y660813D01*
X206789Y659654D01*
X204647Y658767D01*
X203574Y658479D01*
X203574Y670926D01*
G37*
%LPD*%
%LPC*%
G36*
X126879Y129174D02*
X126879Y129174D01*
X127167Y130247D01*
X128054Y132389D01*
X129213Y134397D01*
X130625Y136236D01*
X132264Y137875D01*
X134103Y139287D01*
X136111Y140446D01*
X138253Y141333D01*
X139326Y141621D01*
X139326Y129174D01*
X126879Y129174D01*
G37*
%LPD*%
%LPC*%
G36*
X181879Y764174D02*
X181879Y764174D01*
X182167Y765247D01*
X183054Y767389D01*
X184213Y769397D01*
X185625Y771236D01*
X187264Y772875D01*
X189103Y774287D01*
X191111Y775446D01*
X193253Y776333D01*
X194326Y776621D01*
X194326Y764174D01*
X181879Y764174D01*
G37*
%LPD*%
%LPC*%
G36*
X193253Y658767D02*
X193253Y658767D01*
X191111Y659654D01*
X189103Y660813D01*
X187264Y662225D01*
X185625Y663864D01*
X184213Y665703D01*
X183054Y667711D01*
X182167Y669853D01*
X181879Y670926D01*
X194326Y670926D01*
X194326Y658479D01*
X193253Y658767D01*
G37*
%LPD*%
%LPC*%
G36*
X126364Y553719D02*
X126364Y553719D01*
X126364Y556114D01*
X136036Y565786D01*
X138431Y565786D01*
X138431Y553719D01*
X126364Y553719D01*
G37*
%LPD*%
%LPC*%
G36*
X198119Y553719D02*
X198119Y553719D01*
X198119Y565177D01*
X198994Y564943D01*
X200993Y564115D01*
X202867Y563033D01*
X204585Y561715D01*
X206115Y560185D01*
X207433Y558467D01*
X208515Y556593D01*
X209343Y554594D01*
X209577Y553719D01*
X198119Y553719D01*
G37*
%LPD*%
%LPC*%
G36*
X198119Y544831D02*
X198119Y544831D01*
X209577Y544831D01*
X209343Y543956D01*
X208515Y541957D01*
X207433Y540083D01*
X206115Y538365D01*
X204585Y536835D01*
X202867Y535517D01*
X200993Y534435D01*
X198994Y533607D01*
X198119Y533373D01*
X198119Y544831D01*
G37*
%LPD*%
%LPC*%
G36*
X264794Y671194D02*
X264794Y671194D01*
X264794Y678106D01*
X265754Y677709D01*
X267138Y676910D01*
X268406Y675937D01*
X269537Y674806D01*
X270510Y673538D01*
X271309Y672154D01*
X271706Y671194D01*
X264794Y671194D01*
G37*
%LPD*%
%LPC*%
G36*
X264794Y763906D02*
X264794Y763906D01*
X271706Y763906D01*
X271309Y762946D01*
X270510Y761562D01*
X269537Y760294D01*
X268406Y759163D01*
X267138Y758190D01*
X265754Y757391D01*
X264794Y756994D01*
X264794Y763906D01*
G37*
%LPD*%
%LPC*%
G36*
X264794Y662306D02*
X264794Y662306D01*
X271706Y662306D01*
X271309Y661346D01*
X270510Y659962D01*
X269537Y658694D01*
X268406Y657563D01*
X267138Y656590D01*
X265754Y655791D01*
X264794Y655394D01*
X264794Y662306D01*
G37*
%LPD*%
%LPC*%
G36*
X248994Y671194D02*
X248994Y671194D01*
X249391Y672154D01*
X250190Y673538D01*
X251163Y674806D01*
X252294Y675937D01*
X253562Y676910D01*
X254946Y677709D01*
X255906Y678106D01*
X255906Y671194D01*
X248994Y671194D01*
G37*
%LPD*%
%LPC*%
G36*
X254946Y757391D02*
X254946Y757391D01*
X253562Y758190D01*
X252294Y759163D01*
X251163Y760294D01*
X250190Y761562D01*
X249391Y762946D01*
X248994Y763906D01*
X255906Y763906D01*
X255906Y756994D01*
X254946Y757391D01*
G37*
%LPD*%
%LPC*%
G36*
X254946Y655791D02*
X254946Y655791D01*
X253562Y656590D01*
X252294Y657563D01*
X251163Y658694D01*
X250190Y659962D01*
X249391Y661346D01*
X248994Y662306D01*
X255906Y662306D01*
X255906Y655394D01*
X254946Y655791D01*
G37*
%LPD*%
%LPC*%
G36*
X356869Y188594D02*
X356869Y188594D01*
X356869Y194434D01*
X362709Y188594D01*
X356869Y188594D01*
G37*
%LPD*%
%LPC*%
G36*
X342141Y188594D02*
X342141Y188594D01*
X347981Y194434D01*
X347981Y188594D01*
X342141Y188594D01*
G37*
%LPD*%
%LPC*%
G36*
X356869Y179706D02*
X356869Y179706D01*
X362709Y179706D01*
X356869Y173866D01*
X356869Y179706D01*
G37*
%LPD*%
%LPC*%
G36*
X342141Y179706D02*
X342141Y179706D01*
X347981Y179706D01*
X347981Y173866D01*
X342141Y179706D01*
G37*
%LPD*%
%LPC*%
G36*
X356869Y318769D02*
X356869Y318769D01*
X356869Y323749D01*
X357884Y323232D01*
X359210Y322269D01*
X360369Y321110D01*
X361332Y319784D01*
X361849Y318769D01*
X356869Y318769D01*
G37*
%LPD*%
%LPC*%
G36*
X343001Y318769D02*
X343001Y318769D01*
X343518Y319784D01*
X344481Y321110D01*
X345640Y322269D01*
X346966Y323232D01*
X347981Y323749D01*
X347981Y318769D01*
X343001Y318769D01*
G37*
%LPD*%
D10*
X193675Y549275D03*
D11*
X142875Y549275D03*
D12*
X260350Y768350D03*
X260350Y666750D03*
D13*
X198950Y124550D03*
X198950Y82550D03*
X198950Y40550D03*
X143950Y124550D03*
X143950Y82550D03*
D14*
X143950Y40550D03*
D13*
X198950Y759550D03*
X198950Y717550D03*
X198950Y675550D03*
X143950Y759550D03*
X143950Y717550D03*
D14*
X143950Y675550D03*
D15*
X386160Y542925D02*
X401240Y542925D01*
X401240Y517525D02*
X386160Y517525D01*
X386160Y492125D02*
X401240Y492125D01*
D16*
X298450Y555625D03*
X298450Y479425D03*
D17*
X120650Y222250D03*
X196850Y222250D03*
X276225Y184150D03*
X352425Y184150D03*
X276225Y149225D03*
X352425Y149225D03*
D18*
X327025Y479425D03*
X327025Y555625D03*
D19*
X276225Y314325D03*
X276225Y288925D03*
X352425Y288925D03*
X352425Y314325D03*
X276225Y263525D03*
X276225Y238125D03*
X352425Y263525D03*
X352425Y238125D03*
D20*
X103400Y387275D03*
X123400Y422275D03*
X140400Y389275D03*
X135400Y454275D03*
X150400Y422275D03*
D21*
X433070Y390525D03*
X433070Y644525D03*
D22*
X266700Y600075D03*
D23*
X292100Y600075D03*
D22*
X142875Y288925D03*
D23*
X168275Y288925D03*
D24*
X66104Y339325D02*
X48197Y339325D01*
X48197Y289325D02*
X66104Y289325D01*
D25*
X168275Y288925D02*
X193675Y263525D01*
X276225Y263525D01*
X196850Y260350D02*
X196850Y222250D01*
X196850Y260350D02*
X193675Y263525D01*
X342900Y149225D02*
X352425Y149225D01*
X307975Y184150D02*
X276225Y184150D01*
X307975Y184150D02*
X342900Y149225D01*
X307975Y184150D02*
X307975Y276225D01*
X295275Y288925D01*
X276225Y288925D01*
X276225Y314325D02*
X276225Y527050D01*
X266700Y536575D01*
X266700Y600075D01*
X339725Y542925D02*
X393700Y542925D01*
X339725Y542925D02*
X327025Y555625D01*
X292100Y590550D01*
X292100Y600075D01*
X298450Y555625D02*
X327025Y555625D01*
X140400Y389275D02*
X140400Y365125D01*
X140400Y291400D01*
X142875Y288925D01*
X114600Y339325D02*
X57150Y339325D01*
X114600Y339325D02*
X140400Y365125D01*
X352425Y288925D02*
X352425Y263525D01*
M02*
