G04 EAGLE Gerber RS-274X export*
G75*
%MOMM*%
%FSLAX34Y34*%
%LPD*%
%INSoldermask Bottom*%
%IPPOS*%
%AMOC8*
5,1,8,0,0,1.08239X$1,22.5*%
G01*
%ADD10C,2.743200*%
%ADD11P,2.969212X8X202.500000*%
%ADD12C,1.879600*%
%ADD13C,2.978200*%
%ADD14R,2.978200X2.978200*%
%ADD15C,3.253200*%
%ADD16C,1.711200*%
%ADD17P,1.649562X8X292.500000*%
%ADD18P,1.649562X8X22.500000*%
%ADD19P,1.649562X8X112.500000*%
%ADD20C,1.524000*%
%ADD21C,3.203200*%
%ADD22C,2.153200*%
%ADD23C,1.303200*%
%ADD24C,4.013200*%
%ADD25P,2.144431X8X202.500000*%
%ADD26C,1.981200*%
%ADD27C,1.993900*%


D10*
X193675Y549275D03*
D11*
X142875Y549275D03*
D12*
X260350Y768350D03*
X260350Y666750D03*
D13*
X198950Y124550D03*
X198950Y82550D03*
X198950Y40550D03*
X143950Y124550D03*
X143950Y82550D03*
D14*
X143950Y40550D03*
D15*
X70950Y124550D03*
X70950Y40550D03*
D13*
X198950Y759550D03*
X198950Y717550D03*
X198950Y675550D03*
X143950Y759550D03*
X143950Y717550D03*
D14*
X143950Y675550D03*
D15*
X70950Y759550D03*
X70950Y675550D03*
D16*
X386160Y542925D02*
X401240Y542925D01*
X401240Y517525D02*
X386160Y517525D01*
X386160Y492125D02*
X401240Y492125D01*
D17*
X298450Y555625D03*
X298450Y479425D03*
D18*
X120650Y222250D03*
X196850Y222250D03*
X276225Y184150D03*
X352425Y184150D03*
X276225Y149225D03*
X352425Y149225D03*
D19*
X327025Y479425D03*
X327025Y555625D03*
D20*
X276225Y314325D03*
X276225Y288925D03*
X352425Y288925D03*
X352425Y314325D03*
X276225Y263525D03*
X276225Y238125D03*
X352425Y263525D03*
X352425Y238125D03*
D21*
X463550Y44450D03*
X463550Y755650D03*
X44450Y590550D03*
X44450Y209550D03*
D22*
X103400Y387275D03*
X123400Y422275D03*
X140400Y389275D03*
X135400Y454275D03*
X150400Y422275D03*
D23*
X55400Y397275D03*
X55400Y447275D03*
D24*
X433070Y390525D03*
X433070Y644525D03*
D25*
X266700Y600075D03*
D26*
X292100Y600075D03*
D25*
X142875Y288925D03*
D26*
X168275Y288925D03*
D27*
X66104Y339325D02*
X48197Y339325D01*
X48197Y289325D02*
X66104Y289325D01*
M02*
