M48
;GenerationSoftware,Autodesk,EAGLE,9.6.1*%
;CreationDate,2021-03-18T21:40:23Z*%
FMAT,2
ICI,OFF
METRIC,TZ,000.000
T11C0.813
T10C1.000
T9C1.016
T8C1.100
T7C1.118
T6C1.194
T5C1.300
T4C1.850
T3C2.540
T2C3.000
T1C3.050
%
G90
M71
T1
X7095Y12455
X7095Y4055
X7095Y75955
X7095Y67555
T2
X46355Y4445
X46355Y75565
X4445Y59055
X4445Y20955
T3
X43307Y39053
X43307Y64452
T4
X19895Y12455
X19895Y8255
X19895Y4055
X14395Y12455
X14395Y8255
X14395Y4055
X19895Y75955
X19895Y71755
X19895Y67555
X14395Y75955
X14395Y71755
X14395Y67555
T5
X12340Y42228
X10340Y38728
X15040Y42228
X13540Y45427
X14040Y38928
T6
X5715Y33933
X5715Y28932
T7
X26035Y66675
X26035Y76835
T8
X5540Y39728
X5540Y44727
T9
X19368Y54927
X14287Y54927
T10
X39370Y49212
X39370Y51752
X39370Y54292
T11
X19685Y22225
X27622Y18415
X35243Y18415
X27622Y14922
X35243Y14922
X32702Y47942
X32702Y55562
X27622Y31432
X27622Y28892
X35243Y28892
X35243Y31432
X27622Y26352
X27622Y23812
X29845Y55562
X35243Y23812
X29845Y47942
X26670Y60007
X29210Y60007
X14287Y28892
X16828Y28892
X12065Y22225
X35243Y26352
M30