M48
;GenerationSoftware,Autodesk,EAGLE,9.6.1*%
;CreationDate,2020-04-26T20:48:09Z*%
FMAT,2
ICI,OFF
METRIC,TZ,000.000
T7C0.610
T6C0.813
T5C1.000
T4C1.100
T3C1.194
T2C1.300
T1C3.200
%
G90
M71
T1
X-5715Y50800
X45085Y35560
X-6985Y2540
T2
X32585Y25082
X34085Y21882
X33585Y28382
X35285Y25082
X37285Y28582
T3
X40660Y17383
X40660Y12382
X40660Y7382
T4
X42085Y27582
X42085Y22582
T5
X8001Y50800
X5461Y50800
X2921Y50800
X13081Y50800
X32385Y2540
X34925Y2540
X40005Y2540
X42545Y2540
X24765Y2540
X22225Y2540
X19685Y2540
X17145Y2540
X14605Y2540
X12065Y2540
X40005Y50800
X32385Y50800
X29845Y2540
X34925Y50800
X37465Y50800
X37465Y2540
X42545Y50800
X29845Y50800
X27305Y50800
X24765Y50800
X20701Y50800
X18161Y50800
X15621Y50800
X10541Y50800
T6
X36195Y35243
X38735Y35243
X31115Y43180
X31115Y39370
X31115Y36830
X43815Y31750
X36195Y31750
X34925Y38100
X34925Y45720
X38735Y38100
X38735Y45720
X14605Y39370
X6985Y39370
X27305Y38100
X31115Y45720
X23495Y45720
X27305Y45720
X19685Y45720
X19685Y38100
X23495Y38100
T7
X14605Y43180
X12065Y45720
X9525Y43180
M30