G04 EAGLE Gerber RS-274X export*
G75*
%MOMM*%
%FSLAX34Y34*%
%LPD*%
%IN*%
%IPPOS*%
%AMOC8*
5,1,8,0,0,1.08239X$1,22.5*%
G01*
%ADD10C,0.152400*%
%ADD11C,0.000000*%
%ADD12C,0.254000*%


D10*
X0Y533400D02*
X0Y444500D01*
X92075Y444500D01*
X92075Y317500D01*
X0Y317500D01*
X0Y127000D01*
X123825Y127000D01*
X123825Y38100D01*
X0Y38100D01*
X0Y0D01*
X660400Y0D01*
X660400Y25400D01*
X685800Y50800D01*
X685800Y377825D01*
X660400Y403225D01*
X660400Y517525D01*
X644525Y533400D01*
X0Y533400D01*
D11*
X136400Y508000D02*
X136405Y508393D01*
X136419Y508785D01*
X136443Y509177D01*
X136477Y509568D01*
X136520Y509959D01*
X136573Y510348D01*
X136636Y510735D01*
X136707Y511121D01*
X136789Y511506D01*
X136879Y511888D01*
X136980Y512267D01*
X137089Y512645D01*
X137208Y513019D01*
X137335Y513390D01*
X137472Y513758D01*
X137618Y514123D01*
X137773Y514484D01*
X137936Y514841D01*
X138108Y515194D01*
X138289Y515542D01*
X138479Y515886D01*
X138676Y516226D01*
X138882Y516560D01*
X139096Y516889D01*
X139319Y517213D01*
X139549Y517531D01*
X139786Y517844D01*
X140032Y518150D01*
X140285Y518451D01*
X140545Y518745D01*
X140812Y519033D01*
X141086Y519314D01*
X141367Y519588D01*
X141655Y519855D01*
X141949Y520115D01*
X142250Y520368D01*
X142556Y520614D01*
X142869Y520851D01*
X143187Y521081D01*
X143511Y521304D01*
X143840Y521518D01*
X144174Y521724D01*
X144514Y521921D01*
X144858Y522111D01*
X145206Y522292D01*
X145559Y522464D01*
X145916Y522627D01*
X146277Y522782D01*
X146642Y522928D01*
X147010Y523065D01*
X147381Y523192D01*
X147755Y523311D01*
X148133Y523420D01*
X148512Y523521D01*
X148894Y523611D01*
X149279Y523693D01*
X149665Y523764D01*
X150052Y523827D01*
X150441Y523880D01*
X150832Y523923D01*
X151223Y523957D01*
X151615Y523981D01*
X152007Y523995D01*
X152400Y524000D01*
X152793Y523995D01*
X153185Y523981D01*
X153577Y523957D01*
X153968Y523923D01*
X154359Y523880D01*
X154748Y523827D01*
X155135Y523764D01*
X155521Y523693D01*
X155906Y523611D01*
X156288Y523521D01*
X156667Y523420D01*
X157045Y523311D01*
X157419Y523192D01*
X157790Y523065D01*
X158158Y522928D01*
X158523Y522782D01*
X158884Y522627D01*
X159241Y522464D01*
X159594Y522292D01*
X159942Y522111D01*
X160286Y521921D01*
X160626Y521724D01*
X160960Y521518D01*
X161289Y521304D01*
X161613Y521081D01*
X161931Y520851D01*
X162244Y520614D01*
X162550Y520368D01*
X162851Y520115D01*
X163145Y519855D01*
X163433Y519588D01*
X163714Y519314D01*
X163988Y519033D01*
X164255Y518745D01*
X164515Y518451D01*
X164768Y518150D01*
X165014Y517844D01*
X165251Y517531D01*
X165481Y517213D01*
X165704Y516889D01*
X165918Y516560D01*
X166124Y516226D01*
X166321Y515886D01*
X166511Y515542D01*
X166692Y515194D01*
X166864Y514841D01*
X167027Y514484D01*
X167182Y514123D01*
X167328Y513758D01*
X167465Y513390D01*
X167592Y513019D01*
X167711Y512645D01*
X167820Y512267D01*
X167921Y511888D01*
X168011Y511506D01*
X168093Y511121D01*
X168164Y510735D01*
X168227Y510348D01*
X168280Y509959D01*
X168323Y509568D01*
X168357Y509177D01*
X168381Y508785D01*
X168395Y508393D01*
X168400Y508000D01*
X168395Y507607D01*
X168381Y507215D01*
X168357Y506823D01*
X168323Y506432D01*
X168280Y506041D01*
X168227Y505652D01*
X168164Y505265D01*
X168093Y504879D01*
X168011Y504494D01*
X167921Y504112D01*
X167820Y503733D01*
X167711Y503355D01*
X167592Y502981D01*
X167465Y502610D01*
X167328Y502242D01*
X167182Y501877D01*
X167027Y501516D01*
X166864Y501159D01*
X166692Y500806D01*
X166511Y500458D01*
X166321Y500114D01*
X166124Y499774D01*
X165918Y499440D01*
X165704Y499111D01*
X165481Y498787D01*
X165251Y498469D01*
X165014Y498156D01*
X164768Y497850D01*
X164515Y497549D01*
X164255Y497255D01*
X163988Y496967D01*
X163714Y496686D01*
X163433Y496412D01*
X163145Y496145D01*
X162851Y495885D01*
X162550Y495632D01*
X162244Y495386D01*
X161931Y495149D01*
X161613Y494919D01*
X161289Y494696D01*
X160960Y494482D01*
X160626Y494276D01*
X160286Y494079D01*
X159942Y493889D01*
X159594Y493708D01*
X159241Y493536D01*
X158884Y493373D01*
X158523Y493218D01*
X158158Y493072D01*
X157790Y492935D01*
X157419Y492808D01*
X157045Y492689D01*
X156667Y492580D01*
X156288Y492479D01*
X155906Y492389D01*
X155521Y492307D01*
X155135Y492236D01*
X154748Y492173D01*
X154359Y492120D01*
X153968Y492077D01*
X153577Y492043D01*
X153185Y492019D01*
X152793Y492005D01*
X152400Y492000D01*
X152007Y492005D01*
X151615Y492019D01*
X151223Y492043D01*
X150832Y492077D01*
X150441Y492120D01*
X150052Y492173D01*
X149665Y492236D01*
X149279Y492307D01*
X148894Y492389D01*
X148512Y492479D01*
X148133Y492580D01*
X147755Y492689D01*
X147381Y492808D01*
X147010Y492935D01*
X146642Y493072D01*
X146277Y493218D01*
X145916Y493373D01*
X145559Y493536D01*
X145206Y493708D01*
X144858Y493889D01*
X144514Y494079D01*
X144174Y494276D01*
X143840Y494482D01*
X143511Y494696D01*
X143187Y494919D01*
X142869Y495149D01*
X142556Y495386D01*
X142250Y495632D01*
X141949Y495885D01*
X141655Y496145D01*
X141367Y496412D01*
X141086Y496686D01*
X140812Y496967D01*
X140545Y497255D01*
X140285Y497549D01*
X140032Y497850D01*
X139786Y498156D01*
X139549Y498469D01*
X139319Y498787D01*
X139096Y499111D01*
X138882Y499440D01*
X138676Y499774D01*
X138479Y500114D01*
X138289Y500458D01*
X138108Y500806D01*
X137936Y501159D01*
X137773Y501516D01*
X137618Y501877D01*
X137472Y502242D01*
X137335Y502610D01*
X137208Y502981D01*
X137089Y503355D01*
X136980Y503733D01*
X136879Y504112D01*
X136789Y504494D01*
X136707Y504879D01*
X136636Y505265D01*
X136573Y505652D01*
X136520Y506041D01*
X136477Y506432D01*
X136443Y506823D01*
X136419Y507215D01*
X136405Y507607D01*
X136400Y508000D01*
X644400Y355600D02*
X644405Y355993D01*
X644419Y356385D01*
X644443Y356777D01*
X644477Y357168D01*
X644520Y357559D01*
X644573Y357948D01*
X644636Y358335D01*
X644707Y358721D01*
X644789Y359106D01*
X644879Y359488D01*
X644980Y359867D01*
X645089Y360245D01*
X645208Y360619D01*
X645335Y360990D01*
X645472Y361358D01*
X645618Y361723D01*
X645773Y362084D01*
X645936Y362441D01*
X646108Y362794D01*
X646289Y363142D01*
X646479Y363486D01*
X646676Y363826D01*
X646882Y364160D01*
X647096Y364489D01*
X647319Y364813D01*
X647549Y365131D01*
X647786Y365444D01*
X648032Y365750D01*
X648285Y366051D01*
X648545Y366345D01*
X648812Y366633D01*
X649086Y366914D01*
X649367Y367188D01*
X649655Y367455D01*
X649949Y367715D01*
X650250Y367968D01*
X650556Y368214D01*
X650869Y368451D01*
X651187Y368681D01*
X651511Y368904D01*
X651840Y369118D01*
X652174Y369324D01*
X652514Y369521D01*
X652858Y369711D01*
X653206Y369892D01*
X653559Y370064D01*
X653916Y370227D01*
X654277Y370382D01*
X654642Y370528D01*
X655010Y370665D01*
X655381Y370792D01*
X655755Y370911D01*
X656133Y371020D01*
X656512Y371121D01*
X656894Y371211D01*
X657279Y371293D01*
X657665Y371364D01*
X658052Y371427D01*
X658441Y371480D01*
X658832Y371523D01*
X659223Y371557D01*
X659615Y371581D01*
X660007Y371595D01*
X660400Y371600D01*
X660793Y371595D01*
X661185Y371581D01*
X661577Y371557D01*
X661968Y371523D01*
X662359Y371480D01*
X662748Y371427D01*
X663135Y371364D01*
X663521Y371293D01*
X663906Y371211D01*
X664288Y371121D01*
X664667Y371020D01*
X665045Y370911D01*
X665419Y370792D01*
X665790Y370665D01*
X666158Y370528D01*
X666523Y370382D01*
X666884Y370227D01*
X667241Y370064D01*
X667594Y369892D01*
X667942Y369711D01*
X668286Y369521D01*
X668626Y369324D01*
X668960Y369118D01*
X669289Y368904D01*
X669613Y368681D01*
X669931Y368451D01*
X670244Y368214D01*
X670550Y367968D01*
X670851Y367715D01*
X671145Y367455D01*
X671433Y367188D01*
X671714Y366914D01*
X671988Y366633D01*
X672255Y366345D01*
X672515Y366051D01*
X672768Y365750D01*
X673014Y365444D01*
X673251Y365131D01*
X673481Y364813D01*
X673704Y364489D01*
X673918Y364160D01*
X674124Y363826D01*
X674321Y363486D01*
X674511Y363142D01*
X674692Y362794D01*
X674864Y362441D01*
X675027Y362084D01*
X675182Y361723D01*
X675328Y361358D01*
X675465Y360990D01*
X675592Y360619D01*
X675711Y360245D01*
X675820Y359867D01*
X675921Y359488D01*
X676011Y359106D01*
X676093Y358721D01*
X676164Y358335D01*
X676227Y357948D01*
X676280Y357559D01*
X676323Y357168D01*
X676357Y356777D01*
X676381Y356385D01*
X676395Y355993D01*
X676400Y355600D01*
X676395Y355207D01*
X676381Y354815D01*
X676357Y354423D01*
X676323Y354032D01*
X676280Y353641D01*
X676227Y353252D01*
X676164Y352865D01*
X676093Y352479D01*
X676011Y352094D01*
X675921Y351712D01*
X675820Y351333D01*
X675711Y350955D01*
X675592Y350581D01*
X675465Y350210D01*
X675328Y349842D01*
X675182Y349477D01*
X675027Y349116D01*
X674864Y348759D01*
X674692Y348406D01*
X674511Y348058D01*
X674321Y347714D01*
X674124Y347374D01*
X673918Y347040D01*
X673704Y346711D01*
X673481Y346387D01*
X673251Y346069D01*
X673014Y345756D01*
X672768Y345450D01*
X672515Y345149D01*
X672255Y344855D01*
X671988Y344567D01*
X671714Y344286D01*
X671433Y344012D01*
X671145Y343745D01*
X670851Y343485D01*
X670550Y343232D01*
X670244Y342986D01*
X669931Y342749D01*
X669613Y342519D01*
X669289Y342296D01*
X668960Y342082D01*
X668626Y341876D01*
X668286Y341679D01*
X667942Y341489D01*
X667594Y341308D01*
X667241Y341136D01*
X666884Y340973D01*
X666523Y340818D01*
X666158Y340672D01*
X665790Y340535D01*
X665419Y340408D01*
X665045Y340289D01*
X664667Y340180D01*
X664288Y340079D01*
X663906Y339989D01*
X663521Y339907D01*
X663135Y339836D01*
X662748Y339773D01*
X662359Y339720D01*
X661968Y339677D01*
X661577Y339643D01*
X661185Y339619D01*
X660793Y339605D01*
X660400Y339600D01*
X660007Y339605D01*
X659615Y339619D01*
X659223Y339643D01*
X658832Y339677D01*
X658441Y339720D01*
X658052Y339773D01*
X657665Y339836D01*
X657279Y339907D01*
X656894Y339989D01*
X656512Y340079D01*
X656133Y340180D01*
X655755Y340289D01*
X655381Y340408D01*
X655010Y340535D01*
X654642Y340672D01*
X654277Y340818D01*
X653916Y340973D01*
X653559Y341136D01*
X653206Y341308D01*
X652858Y341489D01*
X652514Y341679D01*
X652174Y341876D01*
X651840Y342082D01*
X651511Y342296D01*
X651187Y342519D01*
X650869Y342749D01*
X650556Y342986D01*
X650250Y343232D01*
X649949Y343485D01*
X649655Y343745D01*
X649367Y344012D01*
X649086Y344286D01*
X648812Y344567D01*
X648545Y344855D01*
X648285Y345149D01*
X648032Y345450D01*
X647786Y345756D01*
X647549Y346069D01*
X647319Y346387D01*
X647096Y346711D01*
X646882Y347040D01*
X646676Y347374D01*
X646479Y347714D01*
X646289Y348058D01*
X646108Y348406D01*
X645936Y348759D01*
X645773Y349116D01*
X645618Y349477D01*
X645472Y349842D01*
X645335Y350210D01*
X645208Y350581D01*
X645089Y350955D01*
X644980Y351333D01*
X644879Y351712D01*
X644789Y352094D01*
X644707Y352479D01*
X644636Y352865D01*
X644573Y353252D01*
X644520Y353641D01*
X644477Y354032D01*
X644443Y354423D01*
X644419Y354815D01*
X644405Y355207D01*
X644400Y355600D01*
X123700Y25400D02*
X123705Y25793D01*
X123719Y26185D01*
X123743Y26577D01*
X123777Y26968D01*
X123820Y27359D01*
X123873Y27748D01*
X123936Y28135D01*
X124007Y28521D01*
X124089Y28906D01*
X124179Y29288D01*
X124280Y29667D01*
X124389Y30045D01*
X124508Y30419D01*
X124635Y30790D01*
X124772Y31158D01*
X124918Y31523D01*
X125073Y31884D01*
X125236Y32241D01*
X125408Y32594D01*
X125589Y32942D01*
X125779Y33286D01*
X125976Y33626D01*
X126182Y33960D01*
X126396Y34289D01*
X126619Y34613D01*
X126849Y34931D01*
X127086Y35244D01*
X127332Y35550D01*
X127585Y35851D01*
X127845Y36145D01*
X128112Y36433D01*
X128386Y36714D01*
X128667Y36988D01*
X128955Y37255D01*
X129249Y37515D01*
X129550Y37768D01*
X129856Y38014D01*
X130169Y38251D01*
X130487Y38481D01*
X130811Y38704D01*
X131140Y38918D01*
X131474Y39124D01*
X131814Y39321D01*
X132158Y39511D01*
X132506Y39692D01*
X132859Y39864D01*
X133216Y40027D01*
X133577Y40182D01*
X133942Y40328D01*
X134310Y40465D01*
X134681Y40592D01*
X135055Y40711D01*
X135433Y40820D01*
X135812Y40921D01*
X136194Y41011D01*
X136579Y41093D01*
X136965Y41164D01*
X137352Y41227D01*
X137741Y41280D01*
X138132Y41323D01*
X138523Y41357D01*
X138915Y41381D01*
X139307Y41395D01*
X139700Y41400D01*
X140093Y41395D01*
X140485Y41381D01*
X140877Y41357D01*
X141268Y41323D01*
X141659Y41280D01*
X142048Y41227D01*
X142435Y41164D01*
X142821Y41093D01*
X143206Y41011D01*
X143588Y40921D01*
X143967Y40820D01*
X144345Y40711D01*
X144719Y40592D01*
X145090Y40465D01*
X145458Y40328D01*
X145823Y40182D01*
X146184Y40027D01*
X146541Y39864D01*
X146894Y39692D01*
X147242Y39511D01*
X147586Y39321D01*
X147926Y39124D01*
X148260Y38918D01*
X148589Y38704D01*
X148913Y38481D01*
X149231Y38251D01*
X149544Y38014D01*
X149850Y37768D01*
X150151Y37515D01*
X150445Y37255D01*
X150733Y36988D01*
X151014Y36714D01*
X151288Y36433D01*
X151555Y36145D01*
X151815Y35851D01*
X152068Y35550D01*
X152314Y35244D01*
X152551Y34931D01*
X152781Y34613D01*
X153004Y34289D01*
X153218Y33960D01*
X153424Y33626D01*
X153621Y33286D01*
X153811Y32942D01*
X153992Y32594D01*
X154164Y32241D01*
X154327Y31884D01*
X154482Y31523D01*
X154628Y31158D01*
X154765Y30790D01*
X154892Y30419D01*
X155011Y30045D01*
X155120Y29667D01*
X155221Y29288D01*
X155311Y28906D01*
X155393Y28521D01*
X155464Y28135D01*
X155527Y27748D01*
X155580Y27359D01*
X155623Y26968D01*
X155657Y26577D01*
X155681Y26185D01*
X155695Y25793D01*
X155700Y25400D01*
X155695Y25007D01*
X155681Y24615D01*
X155657Y24223D01*
X155623Y23832D01*
X155580Y23441D01*
X155527Y23052D01*
X155464Y22665D01*
X155393Y22279D01*
X155311Y21894D01*
X155221Y21512D01*
X155120Y21133D01*
X155011Y20755D01*
X154892Y20381D01*
X154765Y20010D01*
X154628Y19642D01*
X154482Y19277D01*
X154327Y18916D01*
X154164Y18559D01*
X153992Y18206D01*
X153811Y17858D01*
X153621Y17514D01*
X153424Y17174D01*
X153218Y16840D01*
X153004Y16511D01*
X152781Y16187D01*
X152551Y15869D01*
X152314Y15556D01*
X152068Y15250D01*
X151815Y14949D01*
X151555Y14655D01*
X151288Y14367D01*
X151014Y14086D01*
X150733Y13812D01*
X150445Y13545D01*
X150151Y13285D01*
X149850Y13032D01*
X149544Y12786D01*
X149231Y12549D01*
X148913Y12319D01*
X148589Y12096D01*
X148260Y11882D01*
X147926Y11676D01*
X147586Y11479D01*
X147242Y11289D01*
X146894Y11108D01*
X146541Y10936D01*
X146184Y10773D01*
X145823Y10618D01*
X145458Y10472D01*
X145090Y10335D01*
X144719Y10208D01*
X144345Y10089D01*
X143967Y9980D01*
X143588Y9879D01*
X143206Y9789D01*
X142821Y9707D01*
X142435Y9636D01*
X142048Y9573D01*
X141659Y9520D01*
X141268Y9477D01*
X140877Y9443D01*
X140485Y9419D01*
X140093Y9405D01*
X139700Y9400D01*
X139307Y9405D01*
X138915Y9419D01*
X138523Y9443D01*
X138132Y9477D01*
X137741Y9520D01*
X137352Y9573D01*
X136965Y9636D01*
X136579Y9707D01*
X136194Y9789D01*
X135812Y9879D01*
X135433Y9980D01*
X135055Y10089D01*
X134681Y10208D01*
X134310Y10335D01*
X133942Y10472D01*
X133577Y10618D01*
X133216Y10773D01*
X132859Y10936D01*
X132506Y11108D01*
X132158Y11289D01*
X131814Y11479D01*
X131474Y11676D01*
X131140Y11882D01*
X130811Y12096D01*
X130487Y12319D01*
X130169Y12549D01*
X129856Y12786D01*
X129550Y13032D01*
X129249Y13285D01*
X128955Y13545D01*
X128667Y13812D01*
X128386Y14086D01*
X128112Y14367D01*
X127845Y14655D01*
X127585Y14949D01*
X127332Y15250D01*
X127086Y15556D01*
X126849Y15869D01*
X126619Y16187D01*
X126396Y16511D01*
X126182Y16840D01*
X125976Y17174D01*
X125779Y17514D01*
X125589Y17858D01*
X125408Y18206D01*
X125236Y18559D01*
X125073Y18916D01*
X124918Y19277D01*
X124772Y19642D01*
X124635Y20010D01*
X124508Y20381D01*
X124389Y20755D01*
X124280Y21133D01*
X124179Y21512D01*
X124089Y21894D01*
X124007Y22279D01*
X123936Y22665D01*
X123873Y23052D01*
X123820Y23441D01*
X123777Y23832D01*
X123743Y24223D01*
X123719Y24615D01*
X123705Y25007D01*
X123700Y25400D01*
X624900Y275825D02*
X624902Y275973D01*
X624908Y276121D01*
X624918Y276269D01*
X624932Y276417D01*
X624950Y276564D01*
X624972Y276711D01*
X624998Y276857D01*
X625027Y277002D01*
X625061Y277147D01*
X625099Y277290D01*
X625140Y277433D01*
X625185Y277574D01*
X625235Y277714D01*
X625287Y277852D01*
X625344Y277990D01*
X625404Y278125D01*
X625468Y278259D01*
X625535Y278391D01*
X625606Y278521D01*
X625681Y278650D01*
X625759Y278776D01*
X625840Y278900D01*
X625924Y279022D01*
X626012Y279141D01*
X626103Y279258D01*
X626197Y279373D01*
X626295Y279485D01*
X626395Y279594D01*
X626498Y279701D01*
X626604Y279805D01*
X626712Y279906D01*
X626824Y280004D01*
X626938Y280099D01*
X627054Y280190D01*
X627173Y280279D01*
X627294Y280364D01*
X627418Y280446D01*
X627544Y280525D01*
X627671Y280600D01*
X627801Y280672D01*
X627933Y280741D01*
X628066Y280805D01*
X628201Y280866D01*
X628338Y280924D01*
X628476Y280978D01*
X628616Y281028D01*
X628757Y281074D01*
X628899Y281116D01*
X629042Y281155D01*
X629186Y281189D01*
X629332Y281220D01*
X629477Y281247D01*
X629624Y281270D01*
X629771Y281289D01*
X629919Y281304D01*
X630066Y281315D01*
X630215Y281322D01*
X630363Y281325D01*
X630511Y281324D01*
X630659Y281319D01*
X630807Y281310D01*
X630955Y281297D01*
X631103Y281280D01*
X631249Y281259D01*
X631396Y281234D01*
X631541Y281205D01*
X631686Y281173D01*
X631829Y281136D01*
X631972Y281096D01*
X632114Y281051D01*
X632254Y281003D01*
X632393Y280951D01*
X632530Y280896D01*
X632666Y280836D01*
X632801Y280773D01*
X632933Y280707D01*
X633064Y280637D01*
X633193Y280563D01*
X633319Y280486D01*
X633444Y280406D01*
X633566Y280322D01*
X633687Y280235D01*
X633804Y280145D01*
X633920Y280051D01*
X634032Y279955D01*
X634142Y279856D01*
X634250Y279753D01*
X634354Y279648D01*
X634456Y279540D01*
X634554Y279429D01*
X634650Y279316D01*
X634743Y279200D01*
X634832Y279082D01*
X634918Y278961D01*
X635001Y278838D01*
X635081Y278713D01*
X635157Y278586D01*
X635230Y278456D01*
X635299Y278325D01*
X635364Y278192D01*
X635427Y278058D01*
X635485Y277921D01*
X635540Y277783D01*
X635590Y277644D01*
X635638Y277503D01*
X635681Y277362D01*
X635721Y277219D01*
X635756Y277075D01*
X635788Y276930D01*
X635816Y276784D01*
X635840Y276638D01*
X635860Y276491D01*
X635876Y276343D01*
X635888Y276196D01*
X635896Y276047D01*
X635900Y275899D01*
X635900Y275751D01*
X635896Y275603D01*
X635888Y275454D01*
X635876Y275307D01*
X635860Y275159D01*
X635840Y275012D01*
X635816Y274866D01*
X635788Y274720D01*
X635756Y274575D01*
X635721Y274431D01*
X635681Y274288D01*
X635638Y274147D01*
X635590Y274006D01*
X635540Y273867D01*
X635485Y273729D01*
X635427Y273592D01*
X635364Y273458D01*
X635299Y273325D01*
X635230Y273194D01*
X635157Y273064D01*
X635081Y272937D01*
X635001Y272812D01*
X634918Y272689D01*
X634832Y272568D01*
X634743Y272450D01*
X634650Y272334D01*
X634554Y272221D01*
X634456Y272110D01*
X634354Y272002D01*
X634250Y271897D01*
X634142Y271794D01*
X634032Y271695D01*
X633920Y271599D01*
X633804Y271505D01*
X633687Y271415D01*
X633566Y271328D01*
X633444Y271244D01*
X633319Y271164D01*
X633193Y271087D01*
X633064Y271013D01*
X632933Y270943D01*
X632801Y270877D01*
X632666Y270814D01*
X632530Y270754D01*
X632393Y270699D01*
X632254Y270647D01*
X632114Y270599D01*
X631972Y270554D01*
X631829Y270514D01*
X631686Y270477D01*
X631541Y270445D01*
X631396Y270416D01*
X631249Y270391D01*
X631103Y270370D01*
X630955Y270353D01*
X630807Y270340D01*
X630659Y270331D01*
X630511Y270326D01*
X630363Y270325D01*
X630215Y270328D01*
X630066Y270335D01*
X629919Y270346D01*
X629771Y270361D01*
X629624Y270380D01*
X629477Y270403D01*
X629332Y270430D01*
X629186Y270461D01*
X629042Y270495D01*
X628899Y270534D01*
X628757Y270576D01*
X628616Y270622D01*
X628476Y270672D01*
X628338Y270726D01*
X628201Y270784D01*
X628066Y270845D01*
X627933Y270909D01*
X627801Y270978D01*
X627671Y271050D01*
X627544Y271125D01*
X627418Y271204D01*
X627294Y271286D01*
X627173Y271371D01*
X627054Y271460D01*
X626938Y271551D01*
X626824Y271646D01*
X626712Y271744D01*
X626604Y271845D01*
X626498Y271949D01*
X626395Y272056D01*
X626295Y272165D01*
X626197Y272277D01*
X626103Y272392D01*
X626012Y272509D01*
X625924Y272628D01*
X625840Y272750D01*
X625759Y272874D01*
X625681Y273000D01*
X625606Y273129D01*
X625535Y273259D01*
X625468Y273391D01*
X625404Y273525D01*
X625344Y273660D01*
X625287Y273798D01*
X625235Y273936D01*
X625185Y274076D01*
X625140Y274217D01*
X625099Y274360D01*
X625061Y274503D01*
X625027Y274648D01*
X624998Y274793D01*
X624972Y274939D01*
X624950Y275086D01*
X624932Y275233D01*
X624918Y275381D01*
X624908Y275529D01*
X624902Y275677D01*
X624900Y275825D01*
X624900Y225825D02*
X624902Y225973D01*
X624908Y226121D01*
X624918Y226269D01*
X624932Y226417D01*
X624950Y226564D01*
X624972Y226711D01*
X624998Y226857D01*
X625027Y227002D01*
X625061Y227147D01*
X625099Y227290D01*
X625140Y227433D01*
X625185Y227574D01*
X625235Y227714D01*
X625287Y227852D01*
X625344Y227990D01*
X625404Y228125D01*
X625468Y228259D01*
X625535Y228391D01*
X625606Y228521D01*
X625681Y228650D01*
X625759Y228776D01*
X625840Y228900D01*
X625924Y229022D01*
X626012Y229141D01*
X626103Y229258D01*
X626197Y229373D01*
X626295Y229485D01*
X626395Y229594D01*
X626498Y229701D01*
X626604Y229805D01*
X626712Y229906D01*
X626824Y230004D01*
X626938Y230099D01*
X627054Y230190D01*
X627173Y230279D01*
X627294Y230364D01*
X627418Y230446D01*
X627544Y230525D01*
X627671Y230600D01*
X627801Y230672D01*
X627933Y230741D01*
X628066Y230805D01*
X628201Y230866D01*
X628338Y230924D01*
X628476Y230978D01*
X628616Y231028D01*
X628757Y231074D01*
X628899Y231116D01*
X629042Y231155D01*
X629186Y231189D01*
X629332Y231220D01*
X629477Y231247D01*
X629624Y231270D01*
X629771Y231289D01*
X629919Y231304D01*
X630066Y231315D01*
X630215Y231322D01*
X630363Y231325D01*
X630511Y231324D01*
X630659Y231319D01*
X630807Y231310D01*
X630955Y231297D01*
X631103Y231280D01*
X631249Y231259D01*
X631396Y231234D01*
X631541Y231205D01*
X631686Y231173D01*
X631829Y231136D01*
X631972Y231096D01*
X632114Y231051D01*
X632254Y231003D01*
X632393Y230951D01*
X632530Y230896D01*
X632666Y230836D01*
X632801Y230773D01*
X632933Y230707D01*
X633064Y230637D01*
X633193Y230563D01*
X633319Y230486D01*
X633444Y230406D01*
X633566Y230322D01*
X633687Y230235D01*
X633804Y230145D01*
X633920Y230051D01*
X634032Y229955D01*
X634142Y229856D01*
X634250Y229753D01*
X634354Y229648D01*
X634456Y229540D01*
X634554Y229429D01*
X634650Y229316D01*
X634743Y229200D01*
X634832Y229082D01*
X634918Y228961D01*
X635001Y228838D01*
X635081Y228713D01*
X635157Y228586D01*
X635230Y228456D01*
X635299Y228325D01*
X635364Y228192D01*
X635427Y228058D01*
X635485Y227921D01*
X635540Y227783D01*
X635590Y227644D01*
X635638Y227503D01*
X635681Y227362D01*
X635721Y227219D01*
X635756Y227075D01*
X635788Y226930D01*
X635816Y226784D01*
X635840Y226638D01*
X635860Y226491D01*
X635876Y226343D01*
X635888Y226196D01*
X635896Y226047D01*
X635900Y225899D01*
X635900Y225751D01*
X635896Y225603D01*
X635888Y225454D01*
X635876Y225307D01*
X635860Y225159D01*
X635840Y225012D01*
X635816Y224866D01*
X635788Y224720D01*
X635756Y224575D01*
X635721Y224431D01*
X635681Y224288D01*
X635638Y224147D01*
X635590Y224006D01*
X635540Y223867D01*
X635485Y223729D01*
X635427Y223592D01*
X635364Y223458D01*
X635299Y223325D01*
X635230Y223194D01*
X635157Y223064D01*
X635081Y222937D01*
X635001Y222812D01*
X634918Y222689D01*
X634832Y222568D01*
X634743Y222450D01*
X634650Y222334D01*
X634554Y222221D01*
X634456Y222110D01*
X634354Y222002D01*
X634250Y221897D01*
X634142Y221794D01*
X634032Y221695D01*
X633920Y221599D01*
X633804Y221505D01*
X633687Y221415D01*
X633566Y221328D01*
X633444Y221244D01*
X633319Y221164D01*
X633193Y221087D01*
X633064Y221013D01*
X632933Y220943D01*
X632801Y220877D01*
X632666Y220814D01*
X632530Y220754D01*
X632393Y220699D01*
X632254Y220647D01*
X632114Y220599D01*
X631972Y220554D01*
X631829Y220514D01*
X631686Y220477D01*
X631541Y220445D01*
X631396Y220416D01*
X631249Y220391D01*
X631103Y220370D01*
X630955Y220353D01*
X630807Y220340D01*
X630659Y220331D01*
X630511Y220326D01*
X630363Y220325D01*
X630215Y220328D01*
X630066Y220335D01*
X629919Y220346D01*
X629771Y220361D01*
X629624Y220380D01*
X629477Y220403D01*
X629332Y220430D01*
X629186Y220461D01*
X629042Y220495D01*
X628899Y220534D01*
X628757Y220576D01*
X628616Y220622D01*
X628476Y220672D01*
X628338Y220726D01*
X628201Y220784D01*
X628066Y220845D01*
X627933Y220909D01*
X627801Y220978D01*
X627671Y221050D01*
X627544Y221125D01*
X627418Y221204D01*
X627294Y221286D01*
X627173Y221371D01*
X627054Y221460D01*
X626938Y221551D01*
X626824Y221646D01*
X626712Y221744D01*
X626604Y221845D01*
X626498Y221949D01*
X626395Y222056D01*
X626295Y222165D01*
X626197Y222277D01*
X626103Y222392D01*
X626012Y222509D01*
X625924Y222628D01*
X625840Y222750D01*
X625759Y222874D01*
X625681Y223000D01*
X625606Y223129D01*
X625535Y223259D01*
X625468Y223391D01*
X625404Y223525D01*
X625344Y223660D01*
X625287Y223798D01*
X625235Y223936D01*
X625185Y224076D01*
X625140Y224217D01*
X625099Y224360D01*
X625061Y224503D01*
X625027Y224648D01*
X624998Y224793D01*
X624972Y224939D01*
X624950Y225086D01*
X624932Y225233D01*
X624918Y225381D01*
X624908Y225529D01*
X624902Y225677D01*
X624900Y225825D01*
D12*
X0Y0D02*
X660400Y0D01*
X660400Y25400D01*
X685800Y50800D01*
X685800Y377825D01*
X660400Y403225D01*
X660400Y517525D01*
X644525Y533400D01*
X0Y533400D01*
X0Y444500D01*
X92075Y444500D01*
X92075Y317500D01*
X0Y317500D01*
X0Y127000D01*
X123825Y127000D01*
X123825Y38100D01*
X0Y38100D01*
X0Y0D01*
X168400Y507476D02*
X168332Y506431D01*
X168195Y505392D01*
X167990Y504365D01*
X167719Y503353D01*
X167383Y502361D01*
X166982Y501393D01*
X166518Y500454D01*
X165995Y499546D01*
X165413Y498675D01*
X164775Y497844D01*
X164084Y497057D01*
X163343Y496316D01*
X162556Y495625D01*
X161725Y494988D01*
X160854Y494406D01*
X159946Y493882D01*
X159007Y493418D01*
X158039Y493017D01*
X157047Y492681D01*
X156035Y492410D01*
X155008Y492205D01*
X153969Y492069D01*
X152924Y492000D01*
X151876Y492000D01*
X150831Y492069D01*
X149792Y492205D01*
X148765Y492410D01*
X147753Y492681D01*
X146761Y493017D01*
X145793Y493418D01*
X144854Y493882D01*
X143946Y494406D01*
X143075Y494988D01*
X142244Y495625D01*
X141457Y496316D01*
X140716Y497057D01*
X140025Y497844D01*
X139388Y498675D01*
X138806Y499546D01*
X138282Y500454D01*
X137818Y501393D01*
X137417Y502361D01*
X137081Y503353D01*
X136810Y504365D01*
X136605Y505392D01*
X136469Y506431D01*
X136400Y507476D01*
X136400Y508524D01*
X136469Y509569D01*
X136605Y510608D01*
X136810Y511635D01*
X137081Y512647D01*
X137417Y513639D01*
X137818Y514607D01*
X138282Y515546D01*
X138806Y516454D01*
X139388Y517325D01*
X140025Y518156D01*
X140716Y518943D01*
X141457Y519684D01*
X142244Y520375D01*
X143075Y521013D01*
X143946Y521595D01*
X144854Y522118D01*
X145793Y522582D01*
X146761Y522983D01*
X147753Y523319D01*
X148765Y523590D01*
X149792Y523795D01*
X150831Y523932D01*
X151876Y524000D01*
X152924Y524000D01*
X153969Y523932D01*
X155008Y523795D01*
X156035Y523590D01*
X157047Y523319D01*
X158039Y522983D01*
X159007Y522582D01*
X159946Y522118D01*
X160854Y521595D01*
X161725Y521013D01*
X162556Y520375D01*
X163343Y519684D01*
X164084Y518943D01*
X164775Y518156D01*
X165413Y517325D01*
X165995Y516454D01*
X166518Y515546D01*
X166982Y514607D01*
X167383Y513639D01*
X167719Y512647D01*
X167990Y511635D01*
X168195Y510608D01*
X168332Y509569D01*
X168400Y508524D01*
X168400Y507476D01*
X676400Y355076D02*
X676332Y354031D01*
X676195Y352992D01*
X675990Y351965D01*
X675719Y350953D01*
X675383Y349961D01*
X674982Y348993D01*
X674518Y348054D01*
X673995Y347146D01*
X673413Y346275D01*
X672775Y345444D01*
X672084Y344657D01*
X671343Y343916D01*
X670556Y343225D01*
X669725Y342588D01*
X668854Y342006D01*
X667946Y341482D01*
X667007Y341018D01*
X666039Y340617D01*
X665047Y340281D01*
X664035Y340010D01*
X663008Y339805D01*
X661969Y339669D01*
X660924Y339600D01*
X659876Y339600D01*
X658831Y339669D01*
X657792Y339805D01*
X656765Y340010D01*
X655753Y340281D01*
X654761Y340617D01*
X653793Y341018D01*
X652854Y341482D01*
X651946Y342006D01*
X651075Y342588D01*
X650244Y343225D01*
X649457Y343916D01*
X648716Y344657D01*
X648025Y345444D01*
X647388Y346275D01*
X646806Y347146D01*
X646282Y348054D01*
X645818Y348993D01*
X645417Y349961D01*
X645081Y350953D01*
X644810Y351965D01*
X644605Y352992D01*
X644469Y354031D01*
X644400Y355076D01*
X644400Y356124D01*
X644469Y357169D01*
X644605Y358208D01*
X644810Y359235D01*
X645081Y360247D01*
X645417Y361239D01*
X645818Y362207D01*
X646282Y363146D01*
X646806Y364054D01*
X647388Y364925D01*
X648025Y365756D01*
X648716Y366543D01*
X649457Y367284D01*
X650244Y367975D01*
X651075Y368613D01*
X651946Y369195D01*
X652854Y369718D01*
X653793Y370182D01*
X654761Y370583D01*
X655753Y370919D01*
X656765Y371190D01*
X657792Y371395D01*
X658831Y371532D01*
X659876Y371600D01*
X660924Y371600D01*
X661969Y371532D01*
X663008Y371395D01*
X664035Y371190D01*
X665047Y370919D01*
X666039Y370583D01*
X667007Y370182D01*
X667946Y369718D01*
X668854Y369195D01*
X669725Y368613D01*
X670556Y367975D01*
X671343Y367284D01*
X672084Y366543D01*
X672775Y365756D01*
X673413Y364925D01*
X673995Y364054D01*
X674518Y363146D01*
X674982Y362207D01*
X675383Y361239D01*
X675719Y360247D01*
X675990Y359235D01*
X676195Y358208D01*
X676332Y357169D01*
X676400Y356124D01*
X676400Y355076D01*
X155700Y24876D02*
X155632Y23831D01*
X155495Y22792D01*
X155290Y21765D01*
X155019Y20753D01*
X154683Y19761D01*
X154282Y18793D01*
X153818Y17854D01*
X153295Y16946D01*
X152713Y16075D01*
X152075Y15244D01*
X151384Y14457D01*
X150643Y13716D01*
X149856Y13025D01*
X149025Y12388D01*
X148154Y11806D01*
X147246Y11282D01*
X146307Y10818D01*
X145339Y10417D01*
X144347Y10081D01*
X143335Y9810D01*
X142308Y9605D01*
X141269Y9469D01*
X140224Y9400D01*
X139176Y9400D01*
X138131Y9469D01*
X137092Y9605D01*
X136065Y9810D01*
X135053Y10081D01*
X134061Y10417D01*
X133093Y10818D01*
X132154Y11282D01*
X131246Y11806D01*
X130375Y12388D01*
X129544Y13025D01*
X128757Y13716D01*
X128016Y14457D01*
X127325Y15244D01*
X126688Y16075D01*
X126106Y16946D01*
X125582Y17854D01*
X125118Y18793D01*
X124717Y19761D01*
X124381Y20753D01*
X124110Y21765D01*
X123905Y22792D01*
X123769Y23831D01*
X123700Y24876D01*
X123700Y25924D01*
X123769Y26969D01*
X123905Y28008D01*
X124110Y29035D01*
X124381Y30047D01*
X124717Y31039D01*
X125118Y32007D01*
X125582Y32946D01*
X126106Y33854D01*
X126688Y34725D01*
X127325Y35556D01*
X128016Y36343D01*
X128757Y37084D01*
X129544Y37775D01*
X130375Y38413D01*
X131246Y38995D01*
X132154Y39518D01*
X133093Y39982D01*
X134061Y40383D01*
X135053Y40719D01*
X136065Y40990D01*
X137092Y41195D01*
X138131Y41332D01*
X139176Y41400D01*
X140224Y41400D01*
X141269Y41332D01*
X142308Y41195D01*
X143335Y40990D01*
X144347Y40719D01*
X145339Y40383D01*
X146307Y39982D01*
X147246Y39518D01*
X148154Y38995D01*
X149025Y38413D01*
X149856Y37775D01*
X150643Y37084D01*
X151384Y36343D01*
X152075Y35556D01*
X152713Y34725D01*
X153295Y33854D01*
X153818Y32946D01*
X154282Y32007D01*
X154683Y31039D01*
X155019Y30047D01*
X155290Y29035D01*
X155495Y28008D01*
X155632Y26969D01*
X155700Y25924D01*
X155700Y24876D01*
X630091Y270325D02*
X629477Y270394D01*
X628875Y270532D01*
X628292Y270736D01*
X627735Y271004D01*
X627212Y271332D01*
X626729Y271718D01*
X626293Y272154D01*
X625907Y272637D01*
X625579Y273160D01*
X625311Y273717D01*
X625107Y274300D01*
X624969Y274902D01*
X624900Y275516D01*
X624900Y276134D01*
X624969Y276748D01*
X625107Y277350D01*
X625311Y277933D01*
X625579Y278490D01*
X625907Y279013D01*
X626293Y279496D01*
X626729Y279933D01*
X627212Y280318D01*
X627735Y280646D01*
X628292Y280914D01*
X628875Y281118D01*
X629477Y281256D01*
X630091Y281325D01*
X630709Y281325D01*
X631323Y281256D01*
X631925Y281118D01*
X632508Y280914D01*
X633065Y280646D01*
X633588Y280318D01*
X634071Y279933D01*
X634508Y279496D01*
X634893Y279013D01*
X635221Y278490D01*
X635489Y277933D01*
X635693Y277350D01*
X635831Y276748D01*
X635900Y276134D01*
X635900Y275516D01*
X635831Y274902D01*
X635693Y274300D01*
X635489Y273717D01*
X635221Y273160D01*
X634893Y272637D01*
X634508Y272154D01*
X634071Y271718D01*
X633588Y271332D01*
X633065Y271004D01*
X632508Y270736D01*
X631925Y270532D01*
X631323Y270394D01*
X630709Y270325D01*
X630091Y270325D01*
X630091Y220325D02*
X629477Y220394D01*
X628875Y220532D01*
X628292Y220736D01*
X627735Y221004D01*
X627212Y221332D01*
X626729Y221718D01*
X626293Y222154D01*
X625907Y222637D01*
X625579Y223160D01*
X625311Y223717D01*
X625107Y224300D01*
X624969Y224902D01*
X624900Y225516D01*
X624900Y226134D01*
X624969Y226748D01*
X625107Y227350D01*
X625311Y227933D01*
X625579Y228490D01*
X625907Y229013D01*
X626293Y229496D01*
X626729Y229933D01*
X627212Y230318D01*
X627735Y230646D01*
X628292Y230914D01*
X628875Y231118D01*
X629477Y231256D01*
X630091Y231325D01*
X630709Y231325D01*
X631323Y231256D01*
X631925Y231118D01*
X632508Y230914D01*
X633065Y230646D01*
X633588Y230318D01*
X634071Y229933D01*
X634508Y229496D01*
X634893Y229013D01*
X635221Y228490D01*
X635489Y227933D01*
X635693Y227350D01*
X635831Y226748D01*
X635900Y226134D01*
X635900Y225516D01*
X635831Y224902D01*
X635693Y224300D01*
X635489Y223717D01*
X635221Y223160D01*
X634893Y222637D01*
X634508Y222154D01*
X634071Y221718D01*
X633588Y221332D01*
X633065Y221004D01*
X632508Y220736D01*
X631925Y220532D01*
X631323Y220394D01*
X630709Y220325D01*
X630091Y220325D01*
M02*
