G04 EAGLE Gerber RS-274X export*
G75*
%MOMM*%
%FSLAX34Y34*%
%LPD*%
%INTop Copper*%
%IPPOS*%
%AMOC8*
5,1,8,0,0,1.08239X$1,22.5*%
G01*
%ADD10C,2.540000*%
%ADD11P,2.749271X8X202.500000*%
%ADD12C,1.676400*%
%ADD13C,2.775000*%
%ADD14R,2.775000X2.775000*%
%ADD15C,1.508000*%
%ADD16P,1.429621X8X292.500000*%
%ADD17P,1.429621X8X22.500000*%
%ADD18P,1.429621X8X112.500000*%
%ADD19C,1.320800*%
%ADD20C,1.950000*%
%ADD21C,3.810000*%
%ADD22P,1.924489X8X202.500000*%
%ADD23C,1.778000*%
%ADD24C,1.790700*%

G36*
X54008Y11433D02*
X54008Y11433D01*
X54037Y11431D01*
X54306Y11453D01*
X54573Y11471D01*
X54602Y11477D01*
X54631Y11479D01*
X54894Y11536D01*
X55157Y11590D01*
X55185Y11600D01*
X55213Y11606D01*
X55467Y11698D01*
X55720Y11786D01*
X55746Y11799D01*
X55773Y11809D01*
X56012Y11934D01*
X56251Y12056D01*
X56275Y12072D01*
X56301Y12086D01*
X56520Y12242D01*
X56742Y12394D01*
X56763Y12414D01*
X56787Y12431D01*
X56984Y12615D01*
X57182Y12795D01*
X57201Y12818D01*
X57223Y12838D01*
X57393Y13046D01*
X57566Y13252D01*
X57581Y13276D01*
X57600Y13299D01*
X57741Y13528D01*
X57884Y13755D01*
X57897Y13782D01*
X57912Y13807D01*
X58021Y14053D01*
X58133Y14297D01*
X58141Y14325D01*
X58153Y14352D01*
X58229Y14611D01*
X58307Y14867D01*
X58311Y14896D01*
X58320Y14924D01*
X58360Y15191D01*
X58403Y15455D01*
X58404Y15484D01*
X58408Y15513D01*
X58412Y15782D01*
X58419Y16051D01*
X58416Y16080D01*
X58417Y16109D01*
X58384Y16377D01*
X58356Y16643D01*
X58349Y16672D01*
X58345Y16701D01*
X58278Y16961D01*
X58214Y17222D01*
X58203Y17249D01*
X58196Y17278D01*
X58094Y17527D01*
X57995Y17776D01*
X57981Y17802D01*
X57970Y17829D01*
X57836Y18062D01*
X57705Y18297D01*
X57687Y18320D01*
X57673Y18346D01*
X57509Y18558D01*
X57347Y18774D01*
X57327Y18795D01*
X57309Y18818D01*
X57119Y19006D01*
X56929Y19198D01*
X56906Y19216D01*
X56885Y19237D01*
X56815Y19287D01*
X56458Y19563D01*
X56288Y19662D01*
X56200Y19724D01*
X55347Y20216D01*
X50616Y24948D01*
X47271Y30742D01*
X45539Y37205D01*
X45539Y43895D01*
X47271Y50358D01*
X50616Y56152D01*
X55348Y60884D01*
X61142Y64229D01*
X67605Y65961D01*
X74295Y65961D01*
X80758Y64229D01*
X86552Y60884D01*
X91284Y56152D01*
X94629Y50358D01*
X96361Y43895D01*
X96361Y37205D01*
X94629Y30742D01*
X91284Y24948D01*
X86553Y20216D01*
X85700Y19724D01*
X85675Y19708D01*
X85649Y19694D01*
X85427Y19541D01*
X85205Y19392D01*
X85183Y19373D01*
X85158Y19356D01*
X84959Y19175D01*
X84758Y18997D01*
X84739Y18975D01*
X84718Y18955D01*
X84544Y18748D01*
X84369Y18546D01*
X84353Y18521D01*
X84334Y18499D01*
X84190Y18271D01*
X84044Y18046D01*
X84031Y18020D01*
X84016Y17995D01*
X83903Y17750D01*
X83788Y17508D01*
X83779Y17480D01*
X83767Y17453D01*
X83689Y17197D01*
X83607Y16940D01*
X83602Y16911D01*
X83593Y16883D01*
X83550Y16618D01*
X83503Y16353D01*
X83502Y16324D01*
X83497Y16295D01*
X83490Y16026D01*
X83479Y15758D01*
X83482Y15729D01*
X83481Y15699D01*
X83509Y15433D01*
X83534Y15165D01*
X83541Y15136D01*
X83544Y15107D01*
X83608Y14847D01*
X83669Y14584D01*
X83679Y14557D01*
X83686Y14528D01*
X83785Y14278D01*
X83880Y14027D01*
X83894Y14001D01*
X83905Y13974D01*
X84036Y13739D01*
X84163Y13503D01*
X84181Y13479D01*
X84195Y13453D01*
X84357Y13238D01*
X84515Y13021D01*
X84535Y13000D01*
X84553Y12977D01*
X84742Y12785D01*
X84927Y12591D01*
X84950Y12573D01*
X84971Y12552D01*
X85183Y12387D01*
X85393Y12220D01*
X85419Y12205D01*
X85442Y12187D01*
X85675Y12052D01*
X85905Y11915D01*
X85932Y11903D01*
X85958Y11888D01*
X86206Y11786D01*
X86453Y11680D01*
X86482Y11672D01*
X86509Y11661D01*
X86767Y11594D01*
X87028Y11522D01*
X87057Y11518D01*
X87085Y11510D01*
X87172Y11502D01*
X87618Y11441D01*
X87815Y11441D01*
X87922Y11431D01*
X429262Y11431D01*
X429445Y11443D01*
X429628Y11446D01*
X429742Y11463D01*
X429856Y11471D01*
X430036Y11507D01*
X430217Y11535D01*
X430327Y11567D01*
X430440Y11590D01*
X430613Y11650D01*
X430789Y11702D01*
X430895Y11748D01*
X431003Y11786D01*
X431166Y11869D01*
X431334Y11944D01*
X431432Y12004D01*
X431534Y12056D01*
X431686Y12160D01*
X431841Y12256D01*
X431930Y12329D01*
X432025Y12394D01*
X432160Y12518D01*
X432302Y12634D01*
X432381Y12718D01*
X432466Y12795D01*
X432584Y12936D01*
X432709Y13070D01*
X432775Y13164D01*
X432849Y13252D01*
X432947Y13406D01*
X433053Y13556D01*
X433106Y13658D01*
X433168Y13755D01*
X433244Y13922D01*
X433329Y14084D01*
X433368Y14192D01*
X433416Y14297D01*
X433470Y14472D01*
X433532Y14645D01*
X433556Y14757D01*
X433590Y14867D01*
X433620Y15048D01*
X433658Y15227D01*
X433667Y15342D01*
X433686Y15455D01*
X433691Y15638D01*
X433706Y15821D01*
X433699Y15936D01*
X433702Y16051D01*
X433683Y16233D01*
X433673Y16416D01*
X433651Y16529D01*
X433639Y16643D01*
X433595Y16821D01*
X433561Y17001D01*
X433524Y17110D01*
X433497Y17222D01*
X433430Y17392D01*
X433371Y17567D01*
X433321Y17670D01*
X433279Y17776D01*
X433189Y17936D01*
X433108Y18101D01*
X433058Y18171D01*
X432988Y18297D01*
X432631Y18774D01*
X432624Y18780D01*
X432620Y18785D01*
X429399Y22503D01*
X424599Y33013D01*
X422955Y44450D01*
X424599Y55887D01*
X429399Y66397D01*
X436966Y75130D01*
X446686Y81377D01*
X457773Y84632D01*
X469327Y84632D01*
X480414Y81377D01*
X489722Y75394D01*
X489866Y75315D01*
X490005Y75227D01*
X490127Y75171D01*
X490244Y75106D01*
X490397Y75047D01*
X490547Y74979D01*
X490675Y74939D01*
X490800Y74891D01*
X490960Y74853D01*
X491117Y74805D01*
X491249Y74783D01*
X491379Y74752D01*
X491543Y74735D01*
X491705Y74709D01*
X491839Y74705D01*
X491972Y74691D01*
X492136Y74697D01*
X492301Y74692D01*
X492434Y74707D01*
X492568Y74711D01*
X492730Y74738D01*
X492893Y74756D01*
X493023Y74788D01*
X493155Y74810D01*
X493312Y74859D01*
X493472Y74898D01*
X493596Y74947D01*
X493724Y74987D01*
X493874Y75056D01*
X494026Y75116D01*
X494143Y75181D01*
X494265Y75238D01*
X494403Y75326D01*
X494547Y75407D01*
X494654Y75487D01*
X494767Y75559D01*
X494892Y75665D01*
X495024Y75764D01*
X495119Y75858D01*
X495221Y75945D01*
X495331Y76067D01*
X495448Y76182D01*
X495530Y76288D01*
X495620Y76388D01*
X495712Y76523D01*
X495813Y76653D01*
X495880Y76769D01*
X495956Y76880D01*
X496029Y77027D01*
X496112Y77169D01*
X496163Y77293D01*
X496223Y77413D01*
X496276Y77568D01*
X496339Y77720D01*
X496373Y77849D01*
X496416Y77976D01*
X496448Y78138D01*
X496490Y78297D01*
X496499Y78394D01*
X496532Y78561D01*
X496565Y79089D01*
X496569Y79133D01*
X496569Y720967D01*
X496558Y721131D01*
X496557Y721295D01*
X496538Y721428D01*
X496529Y721562D01*
X496496Y721722D01*
X496473Y721885D01*
X496437Y722014D01*
X496410Y722145D01*
X496356Y722301D01*
X496311Y722459D01*
X496258Y722582D01*
X496214Y722708D01*
X496140Y722855D01*
X496074Y723005D01*
X496005Y723120D01*
X495944Y723240D01*
X495851Y723375D01*
X495766Y723515D01*
X495682Y723620D01*
X495606Y723730D01*
X495495Y723852D01*
X495392Y723980D01*
X495295Y724072D01*
X495205Y724171D01*
X495079Y724277D01*
X494960Y724390D01*
X494851Y724468D01*
X494749Y724554D01*
X494610Y724642D01*
X494476Y724738D01*
X494358Y724801D01*
X494245Y724873D01*
X494096Y724941D01*
X493951Y725019D01*
X493825Y725066D01*
X493703Y725121D01*
X493546Y725169D01*
X493392Y725227D01*
X493261Y725256D01*
X493133Y725295D01*
X492971Y725322D01*
X492811Y725358D01*
X492678Y725370D01*
X492545Y725391D01*
X492381Y725396D01*
X492217Y725410D01*
X492083Y725404D01*
X491949Y725408D01*
X491786Y725390D01*
X491622Y725383D01*
X491490Y725359D01*
X491357Y725344D01*
X491197Y725305D01*
X491036Y725276D01*
X490908Y725234D01*
X490778Y725202D01*
X490625Y725142D01*
X490469Y725091D01*
X490382Y725046D01*
X490224Y724984D01*
X489762Y724726D01*
X489722Y724706D01*
X480414Y718723D01*
X469327Y715468D01*
X457773Y715468D01*
X446686Y718723D01*
X436966Y724970D01*
X429399Y733703D01*
X424599Y744213D01*
X422955Y755650D01*
X424599Y767087D01*
X429399Y777597D01*
X432620Y781315D01*
X432731Y781461D01*
X432849Y781602D01*
X432910Y781699D01*
X432980Y781790D01*
X433069Y781950D01*
X433168Y782105D01*
X433216Y782210D01*
X433272Y782309D01*
X433340Y782480D01*
X433416Y782647D01*
X433450Y782756D01*
X433492Y782863D01*
X433537Y783041D01*
X433590Y783217D01*
X433608Y783330D01*
X433636Y783441D01*
X433656Y783624D01*
X433686Y783805D01*
X433689Y783920D01*
X433702Y784034D01*
X433697Y784217D01*
X433702Y784401D01*
X433690Y784515D01*
X433687Y784630D01*
X433659Y784811D01*
X433639Y784993D01*
X433612Y785105D01*
X433594Y785218D01*
X433541Y785394D01*
X433497Y785572D01*
X433455Y785679D01*
X433422Y785789D01*
X433346Y785956D01*
X433279Y786126D01*
X433223Y786227D01*
X433175Y786331D01*
X433078Y786486D01*
X432988Y786647D01*
X432919Y786739D01*
X432858Y786836D01*
X432741Y786976D01*
X432631Y787124D01*
X432550Y787205D01*
X432477Y787294D01*
X432341Y787417D01*
X432213Y787548D01*
X432122Y787619D01*
X432037Y787696D01*
X431887Y787801D01*
X431741Y787913D01*
X431642Y787971D01*
X431548Y788036D01*
X431385Y788120D01*
X431226Y788212D01*
X431119Y788256D01*
X431017Y788308D01*
X430844Y788369D01*
X430675Y788439D01*
X430564Y788468D01*
X430455Y788506D01*
X430276Y788543D01*
X430098Y788590D01*
X430012Y788598D01*
X429872Y788627D01*
X429277Y788669D01*
X429268Y788669D01*
X429262Y788669D01*
X265499Y788669D01*
X265477Y788668D01*
X265455Y788669D01*
X265179Y788648D01*
X264904Y788629D01*
X264883Y788625D01*
X264861Y788623D01*
X264591Y788565D01*
X264320Y788510D01*
X264299Y788503D01*
X264278Y788498D01*
X264018Y788405D01*
X263758Y788314D01*
X263738Y788304D01*
X263717Y788297D01*
X263472Y788169D01*
X263226Y788044D01*
X263208Y788032D01*
X263189Y788022D01*
X262963Y787863D01*
X262736Y787706D01*
X262719Y787691D01*
X262701Y787678D01*
X262500Y787491D01*
X262295Y787305D01*
X262281Y787288D01*
X262265Y787273D01*
X262090Y787060D01*
X261912Y786849D01*
X261900Y786830D01*
X261886Y786813D01*
X261741Y786579D01*
X261593Y786345D01*
X261584Y786325D01*
X261572Y786306D01*
X261459Y786054D01*
X261344Y785803D01*
X261338Y785782D01*
X261329Y785762D01*
X261251Y785497D01*
X261171Y785233D01*
X261167Y785212D01*
X261161Y785191D01*
X261119Y784918D01*
X261075Y784645D01*
X261074Y784623D01*
X261071Y784601D01*
X261066Y784325D01*
X261058Y784049D01*
X261060Y784028D01*
X261060Y784006D01*
X261092Y783731D01*
X261122Y783457D01*
X261127Y783435D01*
X261129Y783414D01*
X261198Y783146D01*
X261264Y782878D01*
X261272Y782858D01*
X261277Y782836D01*
X261381Y782579D01*
X261482Y782324D01*
X261493Y782305D01*
X261501Y782284D01*
X261638Y782045D01*
X261772Y781803D01*
X261786Y781786D01*
X261797Y781767D01*
X261963Y781549D01*
X262130Y781327D01*
X262145Y781311D01*
X262159Y781293D01*
X262353Y781100D01*
X262548Y780902D01*
X262565Y780888D01*
X262581Y780873D01*
X262800Y780707D01*
X263019Y780537D01*
X263038Y780526D01*
X263056Y780513D01*
X263120Y780479D01*
X263535Y780238D01*
X263707Y780168D01*
X263798Y780119D01*
X267257Y778687D01*
X270687Y775257D01*
X272543Y770775D01*
X272543Y765925D01*
X270687Y761443D01*
X267257Y758013D01*
X262775Y756157D01*
X257925Y756157D01*
X253443Y758013D01*
X250013Y761443D01*
X248157Y765925D01*
X248157Y770775D01*
X250013Y775257D01*
X253443Y778687D01*
X256902Y780119D01*
X256922Y780129D01*
X256942Y780136D01*
X257188Y780261D01*
X257436Y780384D01*
X257454Y780396D01*
X257474Y780406D01*
X257702Y780563D01*
X257930Y780717D01*
X257946Y780732D01*
X257964Y780744D01*
X258169Y780930D01*
X258375Y781114D01*
X258389Y781130D01*
X258405Y781145D01*
X258583Y781357D01*
X258762Y781566D01*
X258774Y781585D01*
X258788Y781602D01*
X258937Y781836D01*
X259086Y782067D01*
X259095Y782086D01*
X259107Y782105D01*
X259223Y782357D01*
X259340Y782606D01*
X259347Y782627D01*
X259356Y782647D01*
X259436Y782909D01*
X259519Y783174D01*
X259523Y783196D01*
X259529Y783217D01*
X259574Y783489D01*
X259621Y783761D01*
X259622Y783783D01*
X259625Y783805D01*
X259633Y784080D01*
X259643Y784357D01*
X259641Y784379D01*
X259642Y784401D01*
X259613Y784674D01*
X259586Y784950D01*
X259581Y784971D01*
X259578Y784993D01*
X259513Y785261D01*
X259449Y785530D01*
X259442Y785550D01*
X259436Y785572D01*
X259335Y785829D01*
X259237Y786087D01*
X259226Y786106D01*
X259218Y786126D01*
X259083Y786368D01*
X258951Y786610D01*
X258938Y786627D01*
X258928Y786647D01*
X258761Y786869D01*
X258599Y787090D01*
X258583Y787106D01*
X258570Y787124D01*
X258376Y787321D01*
X258185Y787519D01*
X258167Y787533D01*
X258152Y787548D01*
X257935Y787717D01*
X257717Y787888D01*
X257698Y787900D01*
X257681Y787913D01*
X257443Y788051D01*
X257204Y788192D01*
X257184Y788201D01*
X257165Y788212D01*
X256910Y788317D01*
X256656Y788424D01*
X256634Y788430D01*
X256614Y788439D01*
X256347Y788509D01*
X256081Y788581D01*
X256059Y788584D01*
X256038Y788590D01*
X255965Y788597D01*
X255490Y788660D01*
X255304Y788659D01*
X255201Y788669D01*
X87922Y788669D01*
X87892Y788667D01*
X87863Y788669D01*
X87594Y788647D01*
X87327Y788629D01*
X87298Y788623D01*
X87269Y788621D01*
X87006Y788564D01*
X86743Y788510D01*
X86715Y788500D01*
X86687Y788494D01*
X86434Y788402D01*
X86180Y788314D01*
X86154Y788301D01*
X86127Y788291D01*
X85888Y788166D01*
X85649Y788044D01*
X85625Y788028D01*
X85599Y788014D01*
X85380Y787859D01*
X85158Y787706D01*
X85137Y787686D01*
X85113Y787669D01*
X84917Y787486D01*
X84718Y787305D01*
X84699Y787282D01*
X84677Y787262D01*
X84508Y787055D01*
X84334Y786849D01*
X84319Y786824D01*
X84300Y786801D01*
X84160Y786573D01*
X84016Y786345D01*
X84003Y786318D01*
X83988Y786293D01*
X83879Y786048D01*
X83767Y785803D01*
X83759Y785775D01*
X83747Y785749D01*
X83671Y785490D01*
X83593Y785233D01*
X83589Y785204D01*
X83580Y785176D01*
X83540Y784910D01*
X83497Y784645D01*
X83496Y784616D01*
X83492Y784587D01*
X83488Y784318D01*
X83481Y784049D01*
X83484Y784020D01*
X83483Y783991D01*
X83516Y783724D01*
X83544Y783457D01*
X83551Y783428D01*
X83555Y783399D01*
X83622Y783139D01*
X83686Y782878D01*
X83697Y782851D01*
X83704Y782823D01*
X83807Y782572D01*
X83905Y782324D01*
X83919Y782298D01*
X83930Y782271D01*
X84064Y782038D01*
X84195Y781803D01*
X84213Y781780D01*
X84227Y781754D01*
X84391Y781543D01*
X84553Y781327D01*
X84573Y781306D01*
X84591Y781282D01*
X84782Y781094D01*
X84971Y780902D01*
X84994Y780884D01*
X85015Y780863D01*
X85086Y780813D01*
X85442Y780537D01*
X85612Y780438D01*
X85699Y780376D01*
X86552Y779884D01*
X91284Y775152D01*
X94629Y769358D01*
X96361Y762895D01*
X96361Y756205D01*
X94629Y749742D01*
X91284Y743948D01*
X86552Y739216D01*
X80758Y735871D01*
X74295Y734139D01*
X67605Y734139D01*
X61142Y735871D01*
X55348Y739216D01*
X50616Y743948D01*
X47271Y749742D01*
X45539Y756205D01*
X45539Y762895D01*
X47271Y769358D01*
X50616Y775152D01*
X55348Y779884D01*
X56201Y780376D01*
X56225Y780392D01*
X56251Y780406D01*
X56473Y780559D01*
X56696Y780708D01*
X56718Y780728D01*
X56742Y780744D01*
X56941Y780925D01*
X57142Y781103D01*
X57161Y781125D01*
X57182Y781145D01*
X57356Y781352D01*
X57531Y781554D01*
X57547Y781579D01*
X57566Y781602D01*
X57710Y781829D01*
X57856Y782054D01*
X57869Y782080D01*
X57884Y782105D01*
X57996Y782349D01*
X58112Y782592D01*
X58121Y782620D01*
X58133Y782647D01*
X58211Y782902D01*
X58293Y783160D01*
X58298Y783189D01*
X58307Y783217D01*
X58350Y783481D01*
X58397Y783747D01*
X58398Y783776D01*
X58403Y783805D01*
X58410Y784073D01*
X58421Y784342D01*
X58418Y784371D01*
X58419Y784401D01*
X58391Y784668D01*
X58366Y784935D01*
X58359Y784964D01*
X58356Y784993D01*
X58292Y785254D01*
X58231Y785516D01*
X58221Y785543D01*
X58214Y785572D01*
X58115Y785822D01*
X58020Y786073D01*
X58006Y786099D01*
X57995Y786126D01*
X57864Y786361D01*
X57736Y786597D01*
X57719Y786621D01*
X57705Y786647D01*
X57543Y786863D01*
X57385Y787079D01*
X57365Y787100D01*
X57347Y787124D01*
X57158Y787316D01*
X56973Y787509D01*
X56950Y787527D01*
X56929Y787548D01*
X56717Y787713D01*
X56507Y787880D01*
X56481Y787895D01*
X56458Y787913D01*
X56225Y788048D01*
X55995Y788186D01*
X55968Y788197D01*
X55942Y788212D01*
X55694Y788314D01*
X55447Y788420D01*
X55418Y788427D01*
X55391Y788439D01*
X55131Y788507D01*
X54872Y788578D01*
X54843Y788582D01*
X54815Y788590D01*
X54728Y788598D01*
X54282Y788659D01*
X54085Y788659D01*
X53978Y788669D01*
X15875Y788669D01*
X15787Y788663D01*
X15699Y788666D01*
X15490Y788643D01*
X15280Y788629D01*
X15194Y788612D01*
X15107Y788602D01*
X14903Y788552D01*
X14697Y788510D01*
X14613Y788481D01*
X14528Y788460D01*
X14332Y788383D01*
X14134Y788314D01*
X14056Y788274D01*
X13974Y788242D01*
X13790Y788139D01*
X13602Y788044D01*
X13530Y787994D01*
X13453Y787952D01*
X13285Y787825D01*
X13112Y787706D01*
X13047Y787647D01*
X12977Y787594D01*
X12827Y787446D01*
X12671Y787305D01*
X12614Y787238D01*
X12552Y787176D01*
X12423Y787010D01*
X12288Y786849D01*
X12241Y786774D01*
X12187Y786705D01*
X12082Y786523D01*
X11969Y786345D01*
X11932Y786265D01*
X11888Y786189D01*
X11808Y785995D01*
X11720Y785803D01*
X11695Y785719D01*
X11661Y785638D01*
X11608Y785435D01*
X11547Y785233D01*
X11533Y785147D01*
X11510Y785062D01*
X11498Y784938D01*
X11451Y784645D01*
X11442Y784348D01*
X11431Y784225D01*
X11431Y625233D01*
X11442Y625069D01*
X11443Y624905D01*
X11462Y624772D01*
X11471Y624638D01*
X11504Y624478D01*
X11527Y624315D01*
X11563Y624186D01*
X11590Y624055D01*
X11644Y623899D01*
X11689Y623741D01*
X11742Y623618D01*
X11786Y623492D01*
X11860Y623345D01*
X11926Y623195D01*
X11995Y623080D01*
X12056Y622960D01*
X12149Y622825D01*
X12234Y622685D01*
X12318Y622580D01*
X12394Y622470D01*
X12505Y622348D01*
X12608Y622220D01*
X12705Y622128D01*
X12795Y622029D01*
X12921Y621923D01*
X13040Y621810D01*
X13149Y621732D01*
X13251Y621646D01*
X13390Y621558D01*
X13524Y621462D01*
X13642Y621399D01*
X13755Y621327D01*
X13904Y621259D01*
X14049Y621181D01*
X14175Y621134D01*
X14297Y621079D01*
X14454Y621031D01*
X14608Y620973D01*
X14739Y620944D01*
X14867Y620905D01*
X15029Y620878D01*
X15189Y620842D01*
X15322Y620830D01*
X15455Y620809D01*
X15619Y620804D01*
X15783Y620790D01*
X15917Y620796D01*
X16051Y620792D01*
X16214Y620810D01*
X16378Y620817D01*
X16510Y620841D01*
X16643Y620856D01*
X16803Y620895D01*
X16964Y620924D01*
X17092Y620966D01*
X17222Y620998D01*
X17375Y621058D01*
X17531Y621109D01*
X17618Y621154D01*
X17776Y621216D01*
X18238Y621474D01*
X18278Y621494D01*
X27586Y627477D01*
X38673Y630732D01*
X50227Y630732D01*
X61314Y627477D01*
X71034Y621230D01*
X78601Y612497D01*
X83401Y601987D01*
X85045Y590550D01*
X83401Y579113D01*
X78601Y568603D01*
X71034Y559870D01*
X61314Y553623D01*
X50227Y550368D01*
X38673Y550368D01*
X27586Y553623D01*
X18278Y559606D01*
X18134Y559685D01*
X17995Y559773D01*
X17873Y559829D01*
X17756Y559894D01*
X17603Y559953D01*
X17453Y560021D01*
X17325Y560061D01*
X17200Y560109D01*
X17040Y560147D01*
X16883Y560195D01*
X16751Y560217D01*
X16621Y560248D01*
X16457Y560265D01*
X16295Y560291D01*
X16161Y560295D01*
X16028Y560309D01*
X15864Y560303D01*
X15699Y560308D01*
X15566Y560293D01*
X15432Y560289D01*
X15270Y560262D01*
X15107Y560244D01*
X14977Y560212D01*
X14845Y560190D01*
X14688Y560141D01*
X14528Y560102D01*
X14404Y560053D01*
X14276Y560013D01*
X14126Y559944D01*
X13974Y559884D01*
X13857Y559819D01*
X13735Y559762D01*
X13597Y559674D01*
X13453Y559593D01*
X13346Y559513D01*
X13233Y559441D01*
X13108Y559335D01*
X12977Y559236D01*
X12881Y559142D01*
X12779Y559055D01*
X12669Y558933D01*
X12552Y558818D01*
X12470Y558712D01*
X12380Y558612D01*
X12288Y558477D01*
X12187Y558347D01*
X12120Y558231D01*
X12044Y558120D01*
X11971Y557973D01*
X11888Y557831D01*
X11837Y557707D01*
X11777Y557587D01*
X11724Y557432D01*
X11661Y557280D01*
X11627Y557151D01*
X11584Y557024D01*
X11552Y556862D01*
X11510Y556703D01*
X11501Y556606D01*
X11468Y556439D01*
X11435Y555911D01*
X11431Y555867D01*
X11431Y244233D01*
X11442Y244069D01*
X11443Y243905D01*
X11462Y243772D01*
X11471Y243638D01*
X11504Y243478D01*
X11527Y243315D01*
X11563Y243186D01*
X11590Y243055D01*
X11644Y242899D01*
X11689Y242741D01*
X11742Y242618D01*
X11786Y242492D01*
X11860Y242345D01*
X11926Y242195D01*
X11995Y242080D01*
X12056Y241960D01*
X12149Y241825D01*
X12234Y241685D01*
X12318Y241580D01*
X12394Y241470D01*
X12505Y241348D01*
X12608Y241220D01*
X12705Y241128D01*
X12795Y241029D01*
X12921Y240923D01*
X13040Y240810D01*
X13149Y240732D01*
X13252Y240646D01*
X13390Y240558D01*
X13524Y240462D01*
X13642Y240399D01*
X13755Y240327D01*
X13904Y240259D01*
X14049Y240181D01*
X14175Y240134D01*
X14297Y240079D01*
X14454Y240031D01*
X14608Y239973D01*
X14739Y239944D01*
X14867Y239905D01*
X15029Y239878D01*
X15189Y239842D01*
X15323Y239830D01*
X15455Y239809D01*
X15619Y239804D01*
X15783Y239790D01*
X15917Y239796D01*
X16051Y239792D01*
X16214Y239810D01*
X16378Y239817D01*
X16510Y239841D01*
X16643Y239856D01*
X16803Y239895D01*
X16964Y239924D01*
X17092Y239966D01*
X17222Y239998D01*
X17375Y240058D01*
X17531Y240109D01*
X17618Y240154D01*
X17776Y240216D01*
X18238Y240474D01*
X18278Y240494D01*
X27586Y246477D01*
X38673Y249732D01*
X50227Y249732D01*
X61314Y246477D01*
X71034Y240230D01*
X78601Y231497D01*
X83401Y220987D01*
X85045Y209550D01*
X83401Y198113D01*
X78601Y187603D01*
X71034Y178870D01*
X61314Y172623D01*
X50227Y169368D01*
X38673Y169368D01*
X27586Y172623D01*
X18278Y178606D01*
X18134Y178685D01*
X17995Y178773D01*
X17873Y178829D01*
X17756Y178894D01*
X17603Y178953D01*
X17453Y179021D01*
X17325Y179061D01*
X17200Y179109D01*
X17040Y179147D01*
X16883Y179195D01*
X16751Y179217D01*
X16621Y179248D01*
X16457Y179265D01*
X16295Y179291D01*
X16161Y179295D01*
X16028Y179309D01*
X15864Y179303D01*
X15699Y179308D01*
X15566Y179293D01*
X15432Y179289D01*
X15270Y179262D01*
X15107Y179244D01*
X14977Y179212D01*
X14845Y179190D01*
X14688Y179141D01*
X14528Y179102D01*
X14404Y179053D01*
X14276Y179013D01*
X14126Y178944D01*
X13974Y178884D01*
X13857Y178819D01*
X13735Y178762D01*
X13597Y178674D01*
X13453Y178593D01*
X13346Y178513D01*
X13233Y178441D01*
X13108Y178335D01*
X12977Y178236D01*
X12881Y178142D01*
X12779Y178055D01*
X12669Y177933D01*
X12552Y177818D01*
X12470Y177712D01*
X12380Y177612D01*
X12288Y177477D01*
X12187Y177347D01*
X12120Y177231D01*
X12044Y177120D01*
X11971Y176973D01*
X11888Y176831D01*
X11837Y176707D01*
X11777Y176587D01*
X11724Y176432D01*
X11661Y176280D01*
X11627Y176151D01*
X11584Y176024D01*
X11552Y175862D01*
X11510Y175703D01*
X11501Y175606D01*
X11468Y175439D01*
X11435Y174911D01*
X11431Y174867D01*
X11431Y15875D01*
X11437Y15787D01*
X11434Y15699D01*
X11457Y15490D01*
X11471Y15280D01*
X11488Y15194D01*
X11498Y15107D01*
X11548Y14903D01*
X11590Y14697D01*
X11619Y14613D01*
X11640Y14528D01*
X11717Y14332D01*
X11786Y14134D01*
X11826Y14055D01*
X11858Y13974D01*
X11961Y13790D01*
X12056Y13602D01*
X12106Y13530D01*
X12149Y13453D01*
X12275Y13285D01*
X12394Y13112D01*
X12453Y13047D01*
X12506Y12977D01*
X12654Y12827D01*
X12795Y12671D01*
X12862Y12614D01*
X12924Y12552D01*
X13090Y12423D01*
X13252Y12288D01*
X13326Y12241D01*
X13395Y12187D01*
X13577Y12082D01*
X13755Y11969D01*
X13835Y11932D01*
X13911Y11888D01*
X14105Y11808D01*
X14297Y11720D01*
X14381Y11695D01*
X14462Y11661D01*
X14666Y11608D01*
X14867Y11547D01*
X14953Y11533D01*
X15038Y11510D01*
X15162Y11498D01*
X15455Y11451D01*
X15752Y11442D01*
X15875Y11431D01*
X53978Y11431D01*
X54008Y11433D01*
G37*
%LPC*%
G36*
X129317Y657864D02*
X129317Y657864D01*
X127916Y658444D01*
X126844Y659516D01*
X126264Y660917D01*
X126264Y690183D01*
X126844Y691584D01*
X127916Y692656D01*
X129317Y693236D01*
X134092Y693236D01*
X134114Y693237D01*
X134136Y693236D01*
X134413Y693257D01*
X134687Y693276D01*
X134708Y693280D01*
X134730Y693282D01*
X135000Y693340D01*
X135271Y693395D01*
X135291Y693402D01*
X135313Y693407D01*
X135573Y693500D01*
X135833Y693591D01*
X135853Y693601D01*
X135874Y693608D01*
X136119Y693736D01*
X136365Y693861D01*
X136383Y693873D01*
X136402Y693883D01*
X136627Y694042D01*
X136855Y694199D01*
X136871Y694214D01*
X136889Y694227D01*
X137092Y694414D01*
X137296Y694600D01*
X137310Y694617D01*
X137326Y694632D01*
X137502Y694846D01*
X137679Y695056D01*
X137691Y695075D01*
X137705Y695092D01*
X137850Y695326D01*
X137998Y695560D01*
X138007Y695580D01*
X138019Y695599D01*
X138131Y695851D01*
X138247Y696102D01*
X138253Y696123D01*
X138262Y696143D01*
X138340Y696408D01*
X138420Y696672D01*
X138424Y696693D01*
X138430Y696714D01*
X138472Y696987D01*
X138516Y697260D01*
X138517Y697282D01*
X138520Y697304D01*
X138525Y697580D01*
X138533Y697856D01*
X138530Y697877D01*
X138531Y697899D01*
X138499Y698174D01*
X138469Y698448D01*
X138464Y698470D01*
X138462Y698491D01*
X138393Y698759D01*
X138327Y699027D01*
X138319Y699047D01*
X138314Y699069D01*
X138210Y699326D01*
X138109Y699581D01*
X138098Y699600D01*
X138090Y699621D01*
X137953Y699860D01*
X137819Y700102D01*
X137805Y700119D01*
X137794Y700138D01*
X137627Y700357D01*
X137461Y700578D01*
X137446Y700594D01*
X137432Y700612D01*
X137237Y700806D01*
X137043Y701003D01*
X137025Y701017D01*
X137010Y701032D01*
X136790Y701199D01*
X136572Y701368D01*
X136553Y701379D01*
X136535Y701392D01*
X136471Y701427D01*
X136056Y701667D01*
X135884Y701737D01*
X135793Y701786D01*
X133932Y702557D01*
X128957Y707532D01*
X126264Y714032D01*
X126264Y721068D01*
X128957Y727568D01*
X133932Y732543D01*
X138521Y734444D01*
X138560Y734464D01*
X138602Y734478D01*
X138828Y734596D01*
X139055Y734709D01*
X139091Y734733D01*
X139130Y734753D01*
X139338Y734900D01*
X139549Y735042D01*
X139582Y735071D01*
X139617Y735097D01*
X139803Y735269D01*
X139994Y735439D01*
X140022Y735472D01*
X140054Y735502D01*
X140216Y735698D01*
X140381Y735891D01*
X140405Y735928D01*
X140433Y735962D01*
X140567Y736178D01*
X140705Y736392D01*
X140724Y736431D01*
X140747Y736469D01*
X140851Y736701D01*
X140959Y736931D01*
X140972Y736973D01*
X140990Y737013D01*
X141062Y737257D01*
X141138Y737499D01*
X141146Y737542D01*
X141158Y737585D01*
X141197Y737836D01*
X141240Y738086D01*
X141242Y738130D01*
X141248Y738174D01*
X141253Y738428D01*
X141262Y738682D01*
X141258Y738725D01*
X141259Y738769D01*
X141229Y739022D01*
X141205Y739275D01*
X141195Y739318D01*
X141190Y739361D01*
X141127Y739607D01*
X141068Y739855D01*
X141053Y739896D01*
X141042Y739939D01*
X140946Y740175D01*
X140856Y740412D01*
X140835Y740450D01*
X140818Y740491D01*
X140692Y740712D01*
X140570Y740935D01*
X140544Y740970D01*
X140522Y741008D01*
X140368Y741211D01*
X140217Y741415D01*
X140187Y741447D01*
X140160Y741482D01*
X139980Y741661D01*
X139804Y741844D01*
X139769Y741871D01*
X139738Y741902D01*
X139536Y742056D01*
X139336Y742213D01*
X139298Y742236D01*
X139263Y742262D01*
X139170Y742312D01*
X138823Y742517D01*
X138621Y742603D01*
X138521Y742656D01*
X133932Y744557D01*
X128957Y749532D01*
X126264Y756032D01*
X126264Y763068D01*
X128957Y769568D01*
X133932Y774543D01*
X140432Y777236D01*
X147468Y777236D01*
X153968Y774543D01*
X158943Y769568D01*
X161636Y763068D01*
X161636Y756032D01*
X158943Y749532D01*
X153968Y744557D01*
X149379Y742656D01*
X149340Y742636D01*
X149298Y742622D01*
X149073Y742505D01*
X148845Y742392D01*
X148809Y742367D01*
X148770Y742347D01*
X148562Y742200D01*
X148351Y742058D01*
X148319Y742029D01*
X148283Y742003D01*
X148096Y741830D01*
X147907Y741661D01*
X147878Y741628D01*
X147846Y741598D01*
X147684Y741402D01*
X147519Y741209D01*
X147495Y741172D01*
X147467Y741138D01*
X147332Y740921D01*
X147195Y740708D01*
X147176Y740669D01*
X147153Y740631D01*
X147049Y740399D01*
X146941Y740169D01*
X146928Y740127D01*
X146910Y740087D01*
X146838Y739843D01*
X146762Y739601D01*
X146754Y739558D01*
X146742Y739516D01*
X146703Y739264D01*
X146660Y739014D01*
X146658Y738970D01*
X146652Y738926D01*
X146647Y738672D01*
X146638Y738418D01*
X146642Y738375D01*
X146641Y738331D01*
X146671Y738078D01*
X146695Y737825D01*
X146705Y737782D01*
X146710Y737739D01*
X146773Y737493D01*
X146832Y737245D01*
X146847Y737204D01*
X146858Y737161D01*
X146954Y736926D01*
X147044Y736688D01*
X147065Y736650D01*
X147082Y736609D01*
X147208Y736388D01*
X147330Y736165D01*
X147356Y736130D01*
X147378Y736092D01*
X147532Y735890D01*
X147682Y735685D01*
X147713Y735653D01*
X147740Y735618D01*
X147919Y735440D01*
X148096Y735256D01*
X148131Y735229D01*
X148162Y735198D01*
X148364Y735045D01*
X148564Y734887D01*
X148602Y734864D01*
X148637Y734838D01*
X148730Y734788D01*
X149077Y734583D01*
X149279Y734497D01*
X149379Y734444D01*
X153968Y732543D01*
X158943Y727568D01*
X161636Y721068D01*
X161636Y714032D01*
X158943Y707532D01*
X153968Y702557D01*
X152107Y701786D01*
X152087Y701776D01*
X152067Y701769D01*
X151821Y701644D01*
X151573Y701521D01*
X151555Y701509D01*
X151535Y701499D01*
X151307Y701342D01*
X151079Y701188D01*
X151063Y701173D01*
X151045Y701161D01*
X150840Y700975D01*
X150635Y700791D01*
X150620Y700775D01*
X150604Y700760D01*
X150427Y700549D01*
X150247Y700339D01*
X150235Y700320D01*
X150221Y700303D01*
X150073Y700070D01*
X149923Y699838D01*
X149914Y699819D01*
X149902Y699800D01*
X149787Y699548D01*
X149669Y699299D01*
X149663Y699278D01*
X149653Y699258D01*
X149573Y698996D01*
X149490Y698731D01*
X149486Y698709D01*
X149480Y698688D01*
X149435Y698416D01*
X149388Y698144D01*
X149387Y698122D01*
X149384Y698100D01*
X149376Y697825D01*
X149366Y697548D01*
X149368Y697526D01*
X149367Y697504D01*
X149396Y697231D01*
X149423Y696955D01*
X149428Y696934D01*
X149431Y696912D01*
X149497Y696643D01*
X149560Y696375D01*
X149567Y696355D01*
X149573Y696333D01*
X149674Y696076D01*
X149772Y695818D01*
X149783Y695799D01*
X149791Y695779D01*
X149926Y695537D01*
X150058Y695295D01*
X150071Y695278D01*
X150081Y695258D01*
X150248Y695036D01*
X150410Y694815D01*
X150426Y694799D01*
X150439Y694781D01*
X150634Y694584D01*
X150824Y694386D01*
X150841Y694373D01*
X150857Y694357D01*
X151077Y694187D01*
X151292Y694017D01*
X151311Y694005D01*
X151328Y693992D01*
X151567Y693853D01*
X151805Y693713D01*
X151825Y693704D01*
X151844Y693693D01*
X152099Y693588D01*
X152353Y693481D01*
X152375Y693475D01*
X152395Y693466D01*
X152662Y693396D01*
X152928Y693324D01*
X152950Y693321D01*
X152971Y693315D01*
X153044Y693308D01*
X153519Y693245D01*
X153705Y693246D01*
X153808Y693236D01*
X158583Y693236D01*
X159984Y692656D01*
X161056Y691584D01*
X161636Y690183D01*
X161636Y660917D01*
X161056Y659516D01*
X159984Y658444D01*
X158583Y657864D01*
X129317Y657864D01*
G37*
%LPD*%
%LPC*%
G36*
X129317Y22864D02*
X129317Y22864D01*
X127916Y23444D01*
X126844Y24516D01*
X126264Y25917D01*
X126264Y55183D01*
X126844Y56584D01*
X127916Y57656D01*
X129317Y58236D01*
X134092Y58236D01*
X134114Y58237D01*
X134136Y58236D01*
X134411Y58257D01*
X134687Y58276D01*
X134708Y58280D01*
X134730Y58282D01*
X134999Y58339D01*
X135271Y58395D01*
X135291Y58402D01*
X135313Y58407D01*
X135572Y58500D01*
X135833Y58591D01*
X135853Y58601D01*
X135874Y58608D01*
X136118Y58735D01*
X136365Y58861D01*
X136383Y58873D01*
X136402Y58883D01*
X136628Y59043D01*
X136855Y59199D01*
X136871Y59214D01*
X136890Y59227D01*
X137093Y59415D01*
X137296Y59600D01*
X137310Y59617D01*
X137326Y59632D01*
X137502Y59845D01*
X137679Y60056D01*
X137691Y60075D01*
X137705Y60092D01*
X137850Y60326D01*
X137998Y60560D01*
X138007Y60580D01*
X138019Y60599D01*
X138131Y60850D01*
X138247Y61102D01*
X138253Y61123D01*
X138262Y61143D01*
X138340Y61409D01*
X138420Y61672D01*
X138424Y61693D01*
X138430Y61714D01*
X138472Y61989D01*
X138516Y62260D01*
X138517Y62282D01*
X138520Y62304D01*
X138525Y62580D01*
X138533Y62856D01*
X138531Y62877D01*
X138531Y62899D01*
X138499Y63173D01*
X138469Y63448D01*
X138464Y63469D01*
X138462Y63491D01*
X138393Y63758D01*
X138327Y64027D01*
X138319Y64047D01*
X138314Y64069D01*
X138210Y64324D01*
X138109Y64581D01*
X138098Y64600D01*
X138090Y64621D01*
X137953Y64860D01*
X137819Y65102D01*
X137805Y65119D01*
X137794Y65138D01*
X137628Y65356D01*
X137461Y65578D01*
X137446Y65594D01*
X137432Y65612D01*
X137238Y65805D01*
X137043Y66003D01*
X137026Y66017D01*
X137010Y66032D01*
X136790Y66199D01*
X136572Y66368D01*
X136553Y66379D01*
X136535Y66392D01*
X136471Y66427D01*
X136056Y66667D01*
X135884Y66737D01*
X135793Y66786D01*
X133932Y67557D01*
X128957Y72532D01*
X126264Y79032D01*
X126264Y86068D01*
X128957Y92568D01*
X133932Y97543D01*
X138521Y99444D01*
X138560Y99464D01*
X138602Y99478D01*
X138827Y99596D01*
X139055Y99709D01*
X139091Y99733D01*
X139130Y99753D01*
X139338Y99900D01*
X139549Y100042D01*
X139582Y100071D01*
X139618Y100097D01*
X139804Y100270D01*
X139994Y100439D01*
X140022Y100472D01*
X140054Y100502D01*
X140216Y100699D01*
X140381Y100891D01*
X140405Y100928D01*
X140433Y100962D01*
X140567Y101178D01*
X140705Y101392D01*
X140724Y101431D01*
X140747Y101469D01*
X140850Y101700D01*
X140959Y101931D01*
X140972Y101973D01*
X140990Y102013D01*
X141062Y102256D01*
X141138Y102499D01*
X141146Y102542D01*
X141158Y102585D01*
X141197Y102836D01*
X141240Y103086D01*
X141242Y103130D01*
X141248Y103174D01*
X141253Y103428D01*
X141262Y103682D01*
X141258Y103725D01*
X141259Y103769D01*
X141229Y104022D01*
X141205Y104275D01*
X141195Y104318D01*
X141190Y104361D01*
X141127Y104608D01*
X141068Y104855D01*
X141053Y104896D01*
X141042Y104939D01*
X140946Y105175D01*
X140856Y105412D01*
X140835Y105450D01*
X140818Y105491D01*
X140692Y105712D01*
X140570Y105935D01*
X140544Y105970D01*
X140522Y106008D01*
X140368Y106211D01*
X140218Y106415D01*
X140187Y106447D01*
X140160Y106482D01*
X139980Y106661D01*
X139804Y106844D01*
X139769Y106871D01*
X139738Y106902D01*
X139535Y107056D01*
X139336Y107213D01*
X139298Y107236D01*
X139263Y107262D01*
X139169Y107312D01*
X138823Y107517D01*
X138621Y107603D01*
X138521Y107656D01*
X133932Y109557D01*
X128957Y114532D01*
X126264Y121032D01*
X126264Y128068D01*
X128957Y134568D01*
X133932Y139543D01*
X140432Y142236D01*
X147468Y142236D01*
X153968Y139543D01*
X158943Y134568D01*
X161636Y128068D01*
X161636Y121032D01*
X158943Y114532D01*
X153968Y109557D01*
X149379Y107656D01*
X149340Y107636D01*
X149298Y107622D01*
X149073Y107505D01*
X148845Y107392D01*
X148809Y107367D01*
X148770Y107347D01*
X148562Y107200D01*
X148351Y107058D01*
X148318Y107029D01*
X148283Y107003D01*
X148096Y106831D01*
X147906Y106661D01*
X147878Y106628D01*
X147846Y106598D01*
X147685Y106402D01*
X147519Y106209D01*
X147495Y106172D01*
X147467Y106138D01*
X147333Y105922D01*
X147195Y105708D01*
X147176Y105669D01*
X147153Y105631D01*
X147049Y105399D01*
X146941Y105169D01*
X146928Y105127D01*
X146910Y105087D01*
X146838Y104844D01*
X146762Y104601D01*
X146754Y104558D01*
X146742Y104516D01*
X146703Y104264D01*
X146660Y104014D01*
X146658Y103970D01*
X146652Y103926D01*
X146647Y103672D01*
X146638Y103418D01*
X146642Y103375D01*
X146641Y103331D01*
X146671Y103078D01*
X146695Y102825D01*
X146705Y102782D01*
X146710Y102739D01*
X146773Y102493D01*
X146832Y102245D01*
X146847Y102204D01*
X146858Y102161D01*
X146954Y101926D01*
X147044Y101688D01*
X147065Y101650D01*
X147082Y101609D01*
X147208Y101389D01*
X147330Y101165D01*
X147356Y101130D01*
X147378Y101092D01*
X147532Y100890D01*
X147682Y100685D01*
X147713Y100653D01*
X147740Y100618D01*
X147920Y100439D01*
X148096Y100256D01*
X148131Y100229D01*
X148162Y100198D01*
X148365Y100044D01*
X148564Y99887D01*
X148602Y99864D01*
X148637Y99838D01*
X148730Y99788D01*
X149077Y99583D01*
X149279Y99497D01*
X149379Y99444D01*
X153968Y97543D01*
X158943Y92568D01*
X161636Y86068D01*
X161636Y79032D01*
X158943Y72532D01*
X153968Y67557D01*
X152107Y66786D01*
X152087Y66776D01*
X152067Y66769D01*
X151820Y66644D01*
X151573Y66521D01*
X151555Y66509D01*
X151535Y66499D01*
X151308Y66342D01*
X151079Y66188D01*
X151063Y66173D01*
X151045Y66161D01*
X150841Y65975D01*
X150634Y65791D01*
X150620Y65775D01*
X150604Y65760D01*
X150426Y65548D01*
X150247Y65339D01*
X150235Y65320D01*
X150221Y65303D01*
X150073Y65070D01*
X149923Y64838D01*
X149914Y64819D01*
X149902Y64800D01*
X149787Y64550D01*
X149669Y64299D01*
X149662Y64278D01*
X149653Y64258D01*
X149574Y63997D01*
X149490Y63731D01*
X149486Y63709D01*
X149480Y63688D01*
X149435Y63414D01*
X149388Y63144D01*
X149387Y63122D01*
X149384Y63100D01*
X149376Y62825D01*
X149366Y62548D01*
X149368Y62526D01*
X149367Y62504D01*
X149396Y62231D01*
X149423Y61955D01*
X149428Y61934D01*
X149431Y61912D01*
X149496Y61644D01*
X149560Y61375D01*
X149567Y61354D01*
X149573Y61333D01*
X149673Y61078D01*
X149772Y60818D01*
X149783Y60799D01*
X149791Y60779D01*
X149925Y60538D01*
X150058Y60295D01*
X150071Y60278D01*
X150081Y60258D01*
X150248Y60036D01*
X150410Y59815D01*
X150426Y59799D01*
X150439Y59781D01*
X150633Y59585D01*
X150824Y59386D01*
X150842Y59372D01*
X150857Y59357D01*
X151076Y59187D01*
X151292Y59017D01*
X151311Y59005D01*
X151328Y58992D01*
X151569Y58853D01*
X151805Y58713D01*
X151825Y58704D01*
X151844Y58693D01*
X152099Y58588D01*
X152353Y58481D01*
X152375Y58475D01*
X152395Y58466D01*
X152662Y58396D01*
X152928Y58324D01*
X152950Y58321D01*
X152971Y58315D01*
X153044Y58308D01*
X153519Y58245D01*
X153705Y58246D01*
X153808Y58236D01*
X158583Y58236D01*
X159984Y57656D01*
X161056Y56584D01*
X161636Y55183D01*
X161636Y25917D01*
X161056Y24516D01*
X159984Y23444D01*
X158583Y22864D01*
X129317Y22864D01*
G37*
%LPD*%
%LPC*%
G36*
X195432Y657864D02*
X195432Y657864D01*
X188932Y660557D01*
X183957Y665532D01*
X181264Y672032D01*
X181264Y679068D01*
X183957Y685568D01*
X188932Y690543D01*
X193521Y692444D01*
X193560Y692464D01*
X193602Y692478D01*
X193828Y692596D01*
X194055Y692709D01*
X194091Y692733D01*
X194130Y692753D01*
X194338Y692900D01*
X194549Y693042D01*
X194582Y693071D01*
X194617Y693097D01*
X194803Y693269D01*
X194994Y693439D01*
X195022Y693472D01*
X195054Y693502D01*
X195216Y693698D01*
X195381Y693891D01*
X195405Y693928D01*
X195433Y693962D01*
X195567Y694178D01*
X195705Y694392D01*
X195724Y694431D01*
X195747Y694469D01*
X195851Y694701D01*
X195959Y694931D01*
X195972Y694973D01*
X195990Y695013D01*
X196062Y695257D01*
X196138Y695499D01*
X196146Y695542D01*
X196158Y695585D01*
X196197Y695836D01*
X196240Y696086D01*
X196242Y696130D01*
X196248Y696174D01*
X196253Y696428D01*
X196262Y696682D01*
X196258Y696725D01*
X196259Y696769D01*
X196229Y697022D01*
X196205Y697275D01*
X196195Y697318D01*
X196190Y697361D01*
X196127Y697607D01*
X196068Y697855D01*
X196053Y697896D01*
X196042Y697939D01*
X195946Y698175D01*
X195856Y698412D01*
X195835Y698450D01*
X195818Y698491D01*
X195692Y698711D01*
X195570Y698935D01*
X195544Y698970D01*
X195522Y699008D01*
X195368Y699211D01*
X195217Y699415D01*
X195187Y699447D01*
X195160Y699482D01*
X194980Y699661D01*
X194804Y699844D01*
X194769Y699871D01*
X194738Y699902D01*
X194536Y700056D01*
X194336Y700213D01*
X194298Y700236D01*
X194263Y700262D01*
X194170Y700312D01*
X193823Y700517D01*
X193621Y700603D01*
X193521Y700656D01*
X188932Y702557D01*
X183957Y707532D01*
X181264Y714032D01*
X181264Y721068D01*
X183957Y727568D01*
X188932Y732543D01*
X193521Y734444D01*
X193560Y734464D01*
X193602Y734478D01*
X193828Y734596D01*
X194055Y734709D01*
X194091Y734733D01*
X194130Y734753D01*
X194338Y734900D01*
X194549Y735042D01*
X194582Y735071D01*
X194617Y735097D01*
X194803Y735269D01*
X194994Y735439D01*
X195022Y735472D01*
X195054Y735502D01*
X195216Y735698D01*
X195381Y735891D01*
X195405Y735928D01*
X195433Y735962D01*
X195567Y736178D01*
X195705Y736392D01*
X195724Y736431D01*
X195747Y736469D01*
X195851Y736701D01*
X195959Y736931D01*
X195972Y736973D01*
X195990Y737013D01*
X196062Y737257D01*
X196138Y737499D01*
X196146Y737542D01*
X196158Y737585D01*
X196197Y737836D01*
X196240Y738086D01*
X196242Y738130D01*
X196248Y738174D01*
X196253Y738428D01*
X196262Y738682D01*
X196258Y738725D01*
X196259Y738769D01*
X196229Y739022D01*
X196205Y739275D01*
X196195Y739318D01*
X196190Y739361D01*
X196127Y739607D01*
X196068Y739855D01*
X196053Y739896D01*
X196042Y739939D01*
X195946Y740175D01*
X195856Y740412D01*
X195835Y740450D01*
X195818Y740491D01*
X195692Y740712D01*
X195570Y740935D01*
X195544Y740970D01*
X195522Y741008D01*
X195368Y741211D01*
X195217Y741415D01*
X195187Y741447D01*
X195160Y741482D01*
X194980Y741661D01*
X194804Y741844D01*
X194769Y741871D01*
X194738Y741902D01*
X194536Y742056D01*
X194336Y742213D01*
X194298Y742236D01*
X194263Y742262D01*
X194170Y742312D01*
X193823Y742517D01*
X193621Y742603D01*
X193521Y742656D01*
X188932Y744557D01*
X183957Y749532D01*
X181264Y756032D01*
X181264Y763068D01*
X183957Y769568D01*
X188932Y774543D01*
X195432Y777236D01*
X202468Y777236D01*
X208968Y774543D01*
X213943Y769568D01*
X216636Y763068D01*
X216636Y756032D01*
X213943Y749532D01*
X208968Y744557D01*
X204379Y742656D01*
X204340Y742636D01*
X204298Y742622D01*
X204073Y742505D01*
X203845Y742392D01*
X203809Y742367D01*
X203770Y742347D01*
X203562Y742200D01*
X203351Y742058D01*
X203319Y742029D01*
X203283Y742003D01*
X203096Y741830D01*
X202907Y741661D01*
X202878Y741628D01*
X202846Y741598D01*
X202684Y741402D01*
X202519Y741209D01*
X202495Y741172D01*
X202467Y741138D01*
X202332Y740921D01*
X202195Y740708D01*
X202176Y740669D01*
X202153Y740631D01*
X202049Y740399D01*
X201941Y740169D01*
X201928Y740127D01*
X201910Y740087D01*
X201838Y739843D01*
X201762Y739601D01*
X201754Y739558D01*
X201742Y739516D01*
X201703Y739264D01*
X201660Y739014D01*
X201658Y738970D01*
X201652Y738926D01*
X201647Y738672D01*
X201638Y738418D01*
X201642Y738375D01*
X201641Y738331D01*
X201671Y738078D01*
X201695Y737825D01*
X201705Y737782D01*
X201710Y737739D01*
X201773Y737493D01*
X201832Y737245D01*
X201847Y737204D01*
X201858Y737161D01*
X201954Y736926D01*
X202044Y736688D01*
X202065Y736650D01*
X202082Y736609D01*
X202208Y736388D01*
X202330Y736165D01*
X202356Y736130D01*
X202378Y736092D01*
X202532Y735890D01*
X202682Y735685D01*
X202713Y735653D01*
X202740Y735618D01*
X202919Y735440D01*
X203096Y735256D01*
X203131Y735229D01*
X203162Y735198D01*
X203364Y735045D01*
X203564Y734887D01*
X203602Y734864D01*
X203637Y734838D01*
X203730Y734788D01*
X204077Y734583D01*
X204279Y734497D01*
X204379Y734444D01*
X208968Y732543D01*
X213943Y727568D01*
X216636Y721068D01*
X216636Y714032D01*
X213943Y707532D01*
X208968Y702557D01*
X204379Y700656D01*
X204340Y700636D01*
X204298Y700622D01*
X204073Y700505D01*
X203845Y700392D01*
X203809Y700367D01*
X203770Y700347D01*
X203562Y700200D01*
X203351Y700058D01*
X203319Y700029D01*
X203283Y700003D01*
X203096Y699830D01*
X202907Y699661D01*
X202878Y699628D01*
X202846Y699598D01*
X202684Y699402D01*
X202519Y699209D01*
X202495Y699172D01*
X202467Y699138D01*
X202332Y698921D01*
X202195Y698708D01*
X202176Y698669D01*
X202153Y698631D01*
X202049Y698399D01*
X201941Y698169D01*
X201928Y698127D01*
X201910Y698087D01*
X201838Y697843D01*
X201762Y697601D01*
X201754Y697558D01*
X201742Y697516D01*
X201703Y697264D01*
X201660Y697014D01*
X201658Y696970D01*
X201652Y696926D01*
X201647Y696672D01*
X201638Y696418D01*
X201642Y696375D01*
X201641Y696331D01*
X201671Y696078D01*
X201695Y695825D01*
X201705Y695782D01*
X201710Y695739D01*
X201773Y695493D01*
X201832Y695245D01*
X201847Y695204D01*
X201858Y695161D01*
X201954Y694926D01*
X202044Y694688D01*
X202065Y694650D01*
X202082Y694609D01*
X202208Y694388D01*
X202330Y694165D01*
X202356Y694130D01*
X202378Y694092D01*
X202532Y693890D01*
X202682Y693685D01*
X202713Y693653D01*
X202740Y693618D01*
X202919Y693440D01*
X203096Y693256D01*
X203131Y693229D01*
X203162Y693198D01*
X203364Y693045D01*
X203564Y692887D01*
X203602Y692864D01*
X203637Y692838D01*
X203730Y692788D01*
X204077Y692583D01*
X204279Y692497D01*
X204379Y692444D01*
X208968Y690543D01*
X213943Y685568D01*
X216636Y679068D01*
X216636Y672032D01*
X213943Y665532D01*
X208968Y660557D01*
X202468Y657864D01*
X195432Y657864D01*
G37*
%LPD*%
%LPC*%
G36*
X137703Y375714D02*
X137703Y375714D01*
X132718Y377779D01*
X128904Y381593D01*
X126839Y386578D01*
X126839Y391972D01*
X128904Y396957D01*
X132718Y400771D01*
X137703Y402836D01*
X139932Y402836D01*
X139976Y402839D01*
X140020Y402837D01*
X140273Y402859D01*
X140527Y402876D01*
X140570Y402884D01*
X140614Y402888D01*
X140861Y402944D01*
X141111Y402995D01*
X141152Y403009D01*
X141195Y403019D01*
X141433Y403107D01*
X141673Y403191D01*
X141713Y403211D01*
X141754Y403226D01*
X141978Y403346D01*
X142205Y403461D01*
X142241Y403486D01*
X142280Y403506D01*
X142486Y403655D01*
X142695Y403799D01*
X142728Y403829D01*
X142764Y403854D01*
X142948Y404029D01*
X143136Y404200D01*
X143164Y404234D01*
X143196Y404264D01*
X143356Y404462D01*
X143519Y404656D01*
X143543Y404694D01*
X143571Y404728D01*
X143702Y404945D01*
X143838Y405160D01*
X143857Y405200D01*
X143879Y405238D01*
X143980Y405470D01*
X144087Y405702D01*
X144099Y405744D01*
X144117Y405784D01*
X144187Y406029D01*
X144260Y406272D01*
X144268Y406315D01*
X144280Y406357D01*
X144316Y406609D01*
X144356Y406860D01*
X144358Y406904D01*
X144364Y406947D01*
X144366Y407201D01*
X144373Y407456D01*
X144368Y407499D01*
X144369Y407543D01*
X144337Y407795D01*
X144310Y408048D01*
X144299Y408091D01*
X144293Y408134D01*
X144228Y408380D01*
X144167Y408627D01*
X144151Y408668D01*
X144140Y408710D01*
X144042Y408945D01*
X143949Y409181D01*
X143928Y409220D01*
X143911Y409260D01*
X143782Y409480D01*
X143659Y409702D01*
X143632Y409737D01*
X143610Y409775D01*
X143543Y409857D01*
X143301Y410178D01*
X143147Y410335D01*
X143075Y410423D01*
X140043Y413455D01*
X139976Y413513D01*
X139916Y413576D01*
X139752Y413708D01*
X139594Y413847D01*
X139521Y413895D01*
X139452Y413951D01*
X139272Y414060D01*
X139097Y414175D01*
X139018Y414214D01*
X138942Y414259D01*
X138750Y414343D01*
X138560Y414435D01*
X138476Y414462D01*
X138396Y414497D01*
X138194Y414554D01*
X137994Y414620D01*
X137907Y414636D01*
X137823Y414660D01*
X137614Y414689D01*
X137407Y414727D01*
X137320Y414731D01*
X137233Y414744D01*
X137022Y414746D01*
X136812Y414755D01*
X136725Y414748D01*
X136637Y414749D01*
X136428Y414722D01*
X136219Y414704D01*
X136133Y414685D01*
X136046Y414673D01*
X135842Y414619D01*
X135637Y414573D01*
X135555Y414543D01*
X135470Y414520D01*
X135275Y414439D01*
X135078Y414366D01*
X135001Y414325D01*
X134920Y414291D01*
X134738Y414184D01*
X134552Y414086D01*
X134481Y414034D01*
X134405Y413990D01*
X134310Y413911D01*
X134069Y413738D01*
X133853Y413534D01*
X133757Y413455D01*
X131082Y410779D01*
X126097Y408714D01*
X120703Y408714D01*
X115718Y410779D01*
X111904Y414593D01*
X109839Y419578D01*
X109839Y424972D01*
X111904Y429957D01*
X115718Y433771D01*
X120703Y435836D01*
X123932Y435836D01*
X123976Y435839D01*
X124020Y435837D01*
X124273Y435859D01*
X124527Y435876D01*
X124570Y435884D01*
X124614Y435888D01*
X124862Y435944D01*
X125111Y435995D01*
X125152Y436009D01*
X125195Y436019D01*
X125434Y436107D01*
X125673Y436191D01*
X125713Y436211D01*
X125754Y436226D01*
X125978Y436346D01*
X126205Y436461D01*
X126241Y436486D01*
X126280Y436506D01*
X126486Y436655D01*
X126695Y436799D01*
X126728Y436829D01*
X126764Y436854D01*
X126948Y437029D01*
X127136Y437200D01*
X127164Y437234D01*
X127196Y437264D01*
X127356Y437462D01*
X127519Y437656D01*
X127543Y437694D01*
X127571Y437728D01*
X127702Y437945D01*
X127838Y438160D01*
X127857Y438200D01*
X127879Y438238D01*
X127981Y438471D01*
X128087Y438702D01*
X128100Y438744D01*
X128117Y438784D01*
X128186Y439029D01*
X128260Y439272D01*
X128268Y439315D01*
X128280Y439357D01*
X128316Y439609D01*
X128356Y439860D01*
X128358Y439904D01*
X128364Y439947D01*
X128366Y440201D01*
X128373Y440456D01*
X128368Y440499D01*
X128369Y440543D01*
X128337Y440795D01*
X128310Y441048D01*
X128299Y441091D01*
X128293Y441134D01*
X128228Y441380D01*
X128167Y441627D01*
X128151Y441668D01*
X128140Y441710D01*
X128042Y441945D01*
X127949Y442181D01*
X127928Y442220D01*
X127911Y442260D01*
X127783Y442479D01*
X127659Y442702D01*
X127632Y442737D01*
X127610Y442775D01*
X127543Y442856D01*
X127301Y443178D01*
X127147Y443335D01*
X127075Y443423D01*
X123904Y446593D01*
X121839Y451578D01*
X121839Y456972D01*
X123904Y461957D01*
X127718Y465771D01*
X132703Y467836D01*
X138097Y467836D01*
X143082Y465771D01*
X146896Y461957D01*
X148961Y456972D01*
X148961Y451578D01*
X146896Y446593D01*
X143725Y443423D01*
X143697Y443390D01*
X143664Y443360D01*
X143500Y443165D01*
X143333Y442974D01*
X143309Y442937D01*
X143281Y442903D01*
X143145Y442689D01*
X143004Y442477D01*
X142985Y442437D01*
X142962Y442400D01*
X142856Y442169D01*
X142745Y441940D01*
X142732Y441898D01*
X142713Y441858D01*
X142639Y441615D01*
X142560Y441374D01*
X142552Y441330D01*
X142540Y441288D01*
X142499Y441038D01*
X142453Y440787D01*
X142451Y440743D01*
X142444Y440700D01*
X142437Y440446D01*
X142424Y440192D01*
X142428Y440148D01*
X142427Y440104D01*
X142454Y439851D01*
X142476Y439599D01*
X142486Y439556D01*
X142490Y439512D01*
X142551Y439265D01*
X142607Y439017D01*
X142622Y438976D01*
X142633Y438933D01*
X142725Y438697D01*
X142814Y438458D01*
X142835Y438419D01*
X142851Y438379D01*
X142975Y438156D01*
X143094Y437932D01*
X143120Y437897D01*
X143141Y437858D01*
X143295Y437654D01*
X143442Y437449D01*
X143472Y437417D01*
X143499Y437381D01*
X143677Y437200D01*
X143852Y437016D01*
X143886Y436988D01*
X143917Y436957D01*
X144118Y436801D01*
X144316Y436642D01*
X144353Y436619D01*
X144388Y436592D01*
X144608Y436464D01*
X144825Y436333D01*
X144866Y436315D01*
X144904Y436293D01*
X145139Y436197D01*
X145372Y436095D01*
X145414Y436083D01*
X145455Y436066D01*
X145700Y436002D01*
X145945Y435933D01*
X145989Y435926D01*
X146031Y435915D01*
X146137Y435905D01*
X146535Y435848D01*
X146755Y435846D01*
X146868Y435836D01*
X153097Y435836D01*
X158082Y433771D01*
X161896Y429957D01*
X163961Y424972D01*
X163961Y419578D01*
X161896Y414593D01*
X158082Y410779D01*
X153097Y408714D01*
X150868Y408714D01*
X150824Y408711D01*
X150780Y408713D01*
X150527Y408691D01*
X150273Y408674D01*
X150230Y408666D01*
X150186Y408662D01*
X149938Y408606D01*
X149689Y408555D01*
X149648Y408541D01*
X149605Y408531D01*
X149366Y408443D01*
X149127Y408359D01*
X149087Y408339D01*
X149046Y408324D01*
X148822Y408204D01*
X148595Y408089D01*
X148559Y408064D01*
X148520Y408044D01*
X148314Y407895D01*
X148105Y407751D01*
X148072Y407721D01*
X148036Y407696D01*
X147852Y407521D01*
X147664Y407350D01*
X147636Y407316D01*
X147604Y407286D01*
X147444Y407088D01*
X147281Y406894D01*
X147257Y406856D01*
X147229Y406822D01*
X147098Y406605D01*
X146962Y406390D01*
X146943Y406350D01*
X146921Y406312D01*
X146819Y406079D01*
X146713Y405848D01*
X146701Y405806D01*
X146683Y405766D01*
X146613Y405521D01*
X146540Y405278D01*
X146532Y405235D01*
X146520Y405193D01*
X146484Y404941D01*
X146444Y404690D01*
X146442Y404646D01*
X146436Y404603D01*
X146434Y404349D01*
X146427Y404094D01*
X146432Y404051D01*
X146431Y404007D01*
X146463Y403755D01*
X146490Y403502D01*
X146501Y403459D01*
X146507Y403416D01*
X146572Y403170D01*
X146633Y402923D01*
X146649Y402882D01*
X146660Y402840D01*
X146758Y402605D01*
X146851Y402369D01*
X146872Y402330D01*
X146889Y402290D01*
X147017Y402071D01*
X147141Y401848D01*
X147168Y401813D01*
X147190Y401775D01*
X147257Y401694D01*
X147499Y401372D01*
X147653Y401215D01*
X147725Y401127D01*
X151896Y396957D01*
X153961Y391972D01*
X153961Y386578D01*
X151896Y381593D01*
X148082Y377779D01*
X143097Y375714D01*
X137703Y375714D01*
G37*
%LPD*%
%LPC*%
G36*
X67605Y650139D02*
X67605Y650139D01*
X61142Y651871D01*
X55348Y655216D01*
X50616Y659948D01*
X47271Y665742D01*
X45539Y672205D01*
X45539Y678895D01*
X47271Y685358D01*
X50616Y691152D01*
X55348Y695884D01*
X61142Y699229D01*
X67605Y700961D01*
X74295Y700961D01*
X80758Y699229D01*
X86552Y695884D01*
X91284Y691152D01*
X94629Y685358D01*
X96361Y678895D01*
X96361Y672205D01*
X94629Y665742D01*
X91284Y659948D01*
X86552Y655216D01*
X80758Y651871D01*
X74295Y650139D01*
X67605Y650139D01*
G37*
%LPD*%
%LPC*%
G36*
X67605Y99139D02*
X67605Y99139D01*
X61142Y100871D01*
X55348Y104216D01*
X50616Y108948D01*
X47271Y114742D01*
X45539Y121205D01*
X45539Y127895D01*
X47271Y134358D01*
X50616Y140152D01*
X55348Y144884D01*
X61142Y148229D01*
X67605Y149961D01*
X74295Y149961D01*
X80758Y148229D01*
X86552Y144884D01*
X91284Y140152D01*
X94629Y134358D01*
X96361Y127895D01*
X96361Y121205D01*
X94629Y114742D01*
X91284Y108948D01*
X86552Y104216D01*
X80758Y100871D01*
X74295Y99139D01*
X67605Y99139D01*
G37*
%LPD*%
%LPC*%
G36*
X393700Y496569D02*
X393700Y496569D01*
X375685Y496569D01*
X376452Y498074D01*
X377502Y499519D01*
X378766Y500783D01*
X379238Y501126D01*
X379345Y501215D01*
X379457Y501296D01*
X379573Y501406D01*
X379696Y501508D01*
X379789Y501610D01*
X379890Y501706D01*
X379990Y501830D01*
X380098Y501948D01*
X380177Y502062D01*
X380264Y502170D01*
X380347Y502306D01*
X380438Y502437D01*
X380501Y502561D01*
X380573Y502679D01*
X380637Y502826D01*
X380709Y502968D01*
X380755Y503099D01*
X380811Y503226D01*
X380854Y503379D01*
X380907Y503530D01*
X380935Y503666D01*
X380973Y503799D01*
X380996Y503957D01*
X381028Y504113D01*
X381038Y504252D01*
X381058Y504389D01*
X381059Y504549D01*
X381070Y504708D01*
X381061Y504846D01*
X381062Y504985D01*
X381042Y505143D01*
X381032Y505302D01*
X381005Y505438D01*
X380987Y505576D01*
X380946Y505730D01*
X380915Y505887D01*
X380869Y506018D01*
X380834Y506152D01*
X380772Y506299D01*
X380720Y506450D01*
X380658Y506574D01*
X380604Y506702D01*
X380524Y506840D01*
X380452Y506982D01*
X380374Y507097D01*
X380304Y507217D01*
X380233Y507302D01*
X380115Y507474D01*
X380021Y507578D01*
X379974Y507641D01*
X379856Y507761D01*
X379831Y507789D01*
X379768Y507864D01*
X376537Y511095D01*
X374809Y515267D01*
X374809Y519783D01*
X376537Y523955D01*
X379665Y527082D01*
X379723Y527148D01*
X379787Y527209D01*
X379919Y527373D01*
X380057Y527531D01*
X380106Y527604D01*
X380161Y527673D01*
X380270Y527853D01*
X380386Y528028D01*
X380424Y528107D01*
X380470Y528183D01*
X380554Y528375D01*
X380645Y528565D01*
X380672Y528648D01*
X380707Y528729D01*
X380765Y528932D01*
X380830Y529131D01*
X380846Y529218D01*
X380870Y529302D01*
X380900Y529511D01*
X380938Y529717D01*
X380942Y529805D01*
X380954Y529892D01*
X380956Y530103D01*
X380966Y530313D01*
X380958Y530400D01*
X380959Y530488D01*
X380932Y530697D01*
X380914Y530906D01*
X380895Y530992D01*
X380884Y531079D01*
X380830Y531283D01*
X380784Y531488D01*
X380753Y531570D01*
X380730Y531655D01*
X380650Y531849D01*
X380576Y532047D01*
X380535Y532124D01*
X380501Y532205D01*
X380395Y532387D01*
X380296Y532573D01*
X380245Y532644D01*
X380200Y532720D01*
X380121Y532816D01*
X379948Y533056D01*
X379744Y533272D01*
X379665Y533368D01*
X376537Y536495D01*
X374809Y540667D01*
X374809Y545183D01*
X376537Y549355D01*
X379730Y552548D01*
X383902Y554276D01*
X403498Y554276D01*
X407670Y552548D01*
X410863Y549355D01*
X412591Y545183D01*
X412591Y540667D01*
X410863Y536495D01*
X407735Y533368D01*
X407677Y533301D01*
X407613Y533241D01*
X407481Y533077D01*
X407343Y532919D01*
X407294Y532845D01*
X407239Y532777D01*
X407130Y532597D01*
X407014Y532422D01*
X406976Y532343D01*
X406930Y532267D01*
X406846Y532074D01*
X406755Y531885D01*
X406728Y531801D01*
X406693Y531721D01*
X406635Y531519D01*
X406570Y531319D01*
X406554Y531232D01*
X406530Y531148D01*
X406500Y530939D01*
X406462Y530732D01*
X406458Y530645D01*
X406446Y530558D01*
X406444Y530347D01*
X406434Y530137D01*
X406442Y530050D01*
X406441Y529962D01*
X406468Y529753D01*
X406486Y529544D01*
X406505Y529458D01*
X406516Y529371D01*
X406570Y529167D01*
X406616Y528962D01*
X406647Y528880D01*
X406670Y528795D01*
X406751Y528601D01*
X406824Y528403D01*
X406865Y528326D01*
X406899Y528245D01*
X407005Y528063D01*
X407104Y527877D01*
X407155Y527806D01*
X407200Y527730D01*
X407278Y527635D01*
X407452Y527394D01*
X407656Y527178D01*
X407735Y527082D01*
X410863Y523955D01*
X412591Y519783D01*
X412591Y515267D01*
X410863Y511095D01*
X407632Y507864D01*
X407611Y507841D01*
X407591Y507822D01*
X407529Y507748D01*
X407442Y507662D01*
X407345Y507536D01*
X407239Y507416D01*
X407163Y507300D01*
X407078Y507190D01*
X406999Y507052D01*
X406911Y506918D01*
X406850Y506793D01*
X406781Y506673D01*
X406721Y506525D01*
X406652Y506382D01*
X406609Y506250D01*
X406556Y506121D01*
X406516Y505967D01*
X406467Y505815D01*
X406441Y505679D01*
X406407Y505545D01*
X406388Y505386D01*
X406359Y505229D01*
X406352Y505090D01*
X406336Y504953D01*
X406338Y504793D01*
X406331Y504634D01*
X406343Y504496D01*
X406345Y504357D01*
X406369Y504199D01*
X406382Y504040D01*
X406413Y503905D01*
X406433Y503768D01*
X406478Y503614D01*
X406513Y503459D01*
X406561Y503329D01*
X406600Y503196D01*
X406665Y503050D01*
X406720Y502900D01*
X406786Y502778D01*
X406842Y502651D01*
X406926Y502515D01*
X407001Y502374D01*
X407082Y502262D01*
X407154Y502143D01*
X407255Y502020D01*
X407349Y501890D01*
X407444Y501790D01*
X407532Y501682D01*
X407615Y501609D01*
X407758Y501457D01*
X408088Y501191D01*
X408162Y501126D01*
X408634Y500783D01*
X409898Y499519D01*
X410948Y498074D01*
X411715Y496569D01*
X393700Y496569D01*
X393700Y496569D01*
G37*
%LPD*%
%LPC*%
G36*
X430060Y621664D02*
X430060Y621664D01*
X424246Y623222D01*
X419033Y626232D01*
X414777Y630488D01*
X411767Y635701D01*
X410209Y641515D01*
X410209Y647535D01*
X411767Y653349D01*
X414777Y658562D01*
X419033Y662818D01*
X424246Y665828D01*
X430060Y667386D01*
X436080Y667386D01*
X441894Y665828D01*
X447107Y662818D01*
X451363Y658562D01*
X454373Y653349D01*
X455931Y647535D01*
X455931Y641515D01*
X454373Y635701D01*
X451363Y630488D01*
X447107Y626232D01*
X441894Y623222D01*
X436080Y621664D01*
X430060Y621664D01*
G37*
%LPD*%
%LPC*%
G36*
X430060Y367664D02*
X430060Y367664D01*
X424246Y369222D01*
X419033Y372232D01*
X414777Y376488D01*
X411767Y381701D01*
X410209Y387515D01*
X410209Y393535D01*
X411767Y399349D01*
X414777Y404562D01*
X419033Y408818D01*
X424246Y411828D01*
X430060Y413386D01*
X436080Y413386D01*
X441894Y411828D01*
X447107Y408818D01*
X451363Y404562D01*
X454373Y399349D01*
X455931Y393535D01*
X455931Y387515D01*
X454373Y381701D01*
X451363Y376488D01*
X447107Y372232D01*
X441894Y369222D01*
X436080Y367664D01*
X430060Y367664D01*
G37*
%LPD*%
%LPC*%
G36*
X276225Y242569D02*
X276225Y242569D01*
X266801Y242569D01*
X267318Y243584D01*
X268281Y244910D01*
X269440Y246069D01*
X270904Y247132D01*
X270994Y247207D01*
X271089Y247275D01*
X271222Y247398D01*
X271362Y247514D01*
X271440Y247600D01*
X271526Y247680D01*
X271641Y247820D01*
X271764Y247954D01*
X271830Y248050D01*
X271905Y248140D01*
X272000Y248294D01*
X272104Y248443D01*
X272157Y248547D01*
X272219Y248647D01*
X272293Y248812D01*
X272375Y248974D01*
X272414Y249084D01*
X272462Y249191D01*
X272513Y249365D01*
X272573Y249536D01*
X272597Y249650D01*
X272630Y249763D01*
X272657Y249942D01*
X272694Y250120D01*
X272702Y250236D01*
X272720Y250352D01*
X272723Y250533D01*
X272736Y250714D01*
X272728Y250831D01*
X272731Y250947D01*
X272709Y251128D01*
X272698Y251309D01*
X272675Y251423D01*
X272661Y251539D01*
X272616Y251715D01*
X272581Y251893D01*
X272542Y252003D01*
X272513Y252117D01*
X272445Y252285D01*
X272386Y252456D01*
X272334Y252561D01*
X272290Y252669D01*
X272200Y252827D01*
X272118Y252989D01*
X272052Y253085D01*
X271994Y253186D01*
X271884Y253330D01*
X271781Y253480D01*
X271703Y253567D01*
X271632Y253660D01*
X271503Y253788D01*
X271382Y253922D01*
X271292Y253998D01*
X271209Y254080D01*
X271065Y254190D01*
X270926Y254307D01*
X270828Y254370D01*
X270735Y254440D01*
X270630Y254496D01*
X270424Y254627D01*
X270368Y254653D01*
X267396Y257626D01*
X265810Y261453D01*
X265810Y265597D01*
X267396Y269424D01*
X270477Y272506D01*
X270576Y272575D01*
X270786Y272717D01*
X270819Y272746D01*
X270855Y272772D01*
X271041Y272945D01*
X271231Y273114D01*
X271259Y273147D01*
X271292Y273177D01*
X271452Y273372D01*
X271618Y273566D01*
X271642Y273603D01*
X271670Y273637D01*
X271804Y273853D01*
X271942Y274067D01*
X271961Y274107D01*
X271984Y274144D01*
X272087Y274375D01*
X272196Y274606D01*
X272209Y274648D01*
X272227Y274688D01*
X272299Y274932D01*
X272375Y275174D01*
X272383Y275217D01*
X272395Y275260D01*
X272434Y275511D01*
X272477Y275761D01*
X272479Y275805D01*
X272485Y275849D01*
X272490Y276103D01*
X272499Y276357D01*
X272495Y276401D01*
X272496Y276445D01*
X272466Y276697D01*
X272442Y276950D01*
X272432Y276993D01*
X272427Y277037D01*
X272364Y277283D01*
X272305Y277530D01*
X272290Y277571D01*
X272279Y277614D01*
X272183Y277850D01*
X272093Y278087D01*
X272072Y278125D01*
X272055Y278166D01*
X271929Y278387D01*
X271807Y278610D01*
X271781Y278646D01*
X271759Y278684D01*
X271606Y278884D01*
X271454Y279090D01*
X271424Y279122D01*
X271397Y279157D01*
X271217Y279336D01*
X271041Y279519D01*
X271006Y279546D01*
X270975Y279577D01*
X270773Y279731D01*
X270573Y279889D01*
X270535Y279911D01*
X270500Y279938D01*
X270465Y279956D01*
X267396Y283026D01*
X265810Y286853D01*
X265810Y290997D01*
X267396Y294824D01*
X270477Y297906D01*
X270576Y297975D01*
X270786Y298117D01*
X270819Y298146D01*
X270855Y298172D01*
X271041Y298345D01*
X271231Y298514D01*
X271259Y298547D01*
X271292Y298577D01*
X271452Y298772D01*
X271618Y298966D01*
X271642Y299003D01*
X271670Y299037D01*
X271804Y299253D01*
X271942Y299467D01*
X271961Y299507D01*
X271984Y299544D01*
X272087Y299775D01*
X272196Y300006D01*
X272209Y300048D01*
X272227Y300088D01*
X272299Y300332D01*
X272375Y300574D01*
X272383Y300617D01*
X272395Y300660D01*
X272434Y300911D01*
X272477Y301161D01*
X272479Y301205D01*
X272485Y301249D01*
X272490Y301503D01*
X272499Y301757D01*
X272495Y301801D01*
X272496Y301845D01*
X272466Y302097D01*
X272442Y302350D01*
X272432Y302393D01*
X272427Y302437D01*
X272364Y302683D01*
X272305Y302930D01*
X272290Y302971D01*
X272279Y303014D01*
X272183Y303250D01*
X272093Y303487D01*
X272072Y303525D01*
X272055Y303566D01*
X271929Y303787D01*
X271807Y304010D01*
X271781Y304046D01*
X271759Y304084D01*
X271606Y304284D01*
X271454Y304490D01*
X271424Y304522D01*
X271397Y304557D01*
X271217Y304736D01*
X271041Y304919D01*
X271006Y304946D01*
X270975Y304977D01*
X270773Y305131D01*
X270573Y305289D01*
X270535Y305311D01*
X270500Y305338D01*
X270465Y305356D01*
X267396Y308426D01*
X265810Y312253D01*
X265810Y316397D01*
X267396Y320224D01*
X270326Y323154D01*
X274153Y324740D01*
X278297Y324740D01*
X282124Y323154D01*
X285054Y320224D01*
X286640Y316397D01*
X286640Y312253D01*
X285054Y308426D01*
X281973Y305344D01*
X281875Y305275D01*
X281664Y305133D01*
X281632Y305104D01*
X281596Y305078D01*
X281409Y304905D01*
X281220Y304737D01*
X281191Y304703D01*
X281159Y304673D01*
X280997Y304477D01*
X280832Y304284D01*
X280808Y304247D01*
X280780Y304213D01*
X280646Y303997D01*
X280508Y303784D01*
X280489Y303744D01*
X280466Y303706D01*
X280362Y303474D01*
X280254Y303245D01*
X280241Y303203D01*
X280223Y303162D01*
X280151Y302919D01*
X280075Y302676D01*
X280067Y302633D01*
X280055Y302591D01*
X280016Y302339D01*
X279973Y302089D01*
X279971Y302045D01*
X279965Y302002D01*
X279960Y301747D01*
X279951Y301494D01*
X279955Y301450D01*
X279954Y301406D01*
X279984Y301153D01*
X280008Y300901D01*
X280018Y300857D01*
X280023Y300814D01*
X280086Y300568D01*
X280144Y300320D01*
X280160Y300279D01*
X280171Y300237D01*
X280266Y300001D01*
X280357Y299764D01*
X280378Y299725D01*
X280395Y299684D01*
X280521Y299464D01*
X280642Y299241D01*
X280669Y299205D01*
X280690Y299167D01*
X280845Y298965D01*
X280995Y298760D01*
X281026Y298729D01*
X281053Y298693D01*
X281233Y298514D01*
X281409Y298331D01*
X281444Y298304D01*
X281475Y298273D01*
X281677Y298119D01*
X281877Y297962D01*
X281914Y297939D01*
X281950Y297913D01*
X281985Y297894D01*
X285054Y294824D01*
X286640Y290997D01*
X286640Y286853D01*
X285054Y283026D01*
X281973Y279944D01*
X281875Y279875D01*
X281664Y279733D01*
X281632Y279704D01*
X281596Y279678D01*
X281409Y279505D01*
X281220Y279337D01*
X281191Y279303D01*
X281159Y279273D01*
X280997Y279077D01*
X280832Y278884D01*
X280808Y278847D01*
X280780Y278813D01*
X280646Y278597D01*
X280508Y278384D01*
X280489Y278344D01*
X280466Y278306D01*
X280362Y278074D01*
X280254Y277845D01*
X280241Y277803D01*
X280223Y277762D01*
X280151Y277519D01*
X280075Y277276D01*
X280067Y277233D01*
X280055Y277191D01*
X280016Y276939D01*
X279973Y276689D01*
X279971Y276645D01*
X279965Y276602D01*
X279960Y276347D01*
X279951Y276094D01*
X279955Y276050D01*
X279954Y276006D01*
X279984Y275753D01*
X280008Y275501D01*
X280018Y275457D01*
X280023Y275414D01*
X280086Y275168D01*
X280144Y274920D01*
X280160Y274879D01*
X280171Y274837D01*
X280266Y274601D01*
X280357Y274364D01*
X280378Y274325D01*
X280395Y274284D01*
X280521Y274064D01*
X280642Y273841D01*
X280669Y273805D01*
X280690Y273767D01*
X280845Y273565D01*
X280995Y273360D01*
X281026Y273329D01*
X281053Y273293D01*
X281233Y273114D01*
X281409Y272931D01*
X281444Y272904D01*
X281475Y272873D01*
X281677Y272719D01*
X281877Y272562D01*
X281914Y272539D01*
X281950Y272513D01*
X281985Y272494D01*
X285054Y269424D01*
X286640Y265597D01*
X286640Y261453D01*
X285054Y257626D01*
X282071Y254642D01*
X281923Y254569D01*
X281827Y254504D01*
X281725Y254447D01*
X281580Y254337D01*
X281430Y254236D01*
X281343Y254158D01*
X281249Y254088D01*
X281120Y253960D01*
X280985Y253839D01*
X280909Y253751D01*
X280826Y253668D01*
X280715Y253524D01*
X280597Y253387D01*
X280534Y253289D01*
X280462Y253196D01*
X280372Y253038D01*
X280273Y252886D01*
X280224Y252781D01*
X280165Y252679D01*
X280097Y252511D01*
X280020Y252347D01*
X279984Y252236D01*
X279940Y252128D01*
X279895Y251952D01*
X279840Y251779D01*
X279820Y251664D01*
X279791Y251551D01*
X279769Y251370D01*
X279738Y251192D01*
X279734Y251075D01*
X279720Y250959D01*
X279723Y250777D01*
X279716Y250596D01*
X279727Y250480D01*
X279729Y250363D01*
X279756Y250184D01*
X279774Y250003D01*
X279800Y249889D01*
X279818Y249774D01*
X279868Y249600D01*
X279910Y249423D01*
X279952Y249314D01*
X279984Y249202D01*
X280058Y249036D01*
X280123Y248866D01*
X280179Y248764D01*
X280226Y248657D01*
X280321Y248502D01*
X280408Y248343D01*
X280477Y248249D01*
X280538Y248149D01*
X280653Y248009D01*
X280761Y247863D01*
X280842Y247779D01*
X280916Y247688D01*
X281005Y247610D01*
X281175Y247434D01*
X281458Y247210D01*
X281546Y247132D01*
X283010Y246069D01*
X284169Y244910D01*
X285132Y243584D01*
X285649Y242569D01*
X276225Y242569D01*
X276225Y242569D01*
G37*
%LPD*%
%LPC*%
G36*
X352425Y242569D02*
X352425Y242569D01*
X343001Y242569D01*
X343518Y243584D01*
X344481Y244910D01*
X345640Y246069D01*
X347104Y247132D01*
X347194Y247207D01*
X347289Y247275D01*
X347422Y247398D01*
X347562Y247514D01*
X347641Y247600D01*
X347726Y247680D01*
X347842Y247820D01*
X347964Y247954D01*
X348031Y248050D01*
X348105Y248140D01*
X348200Y248294D01*
X348304Y248443D01*
X348357Y248547D01*
X348419Y248647D01*
X348493Y248812D01*
X348575Y248974D01*
X348614Y249084D01*
X348662Y249191D01*
X348713Y249365D01*
X348773Y249536D01*
X348797Y249651D01*
X348830Y249763D01*
X348857Y249942D01*
X348894Y250119D01*
X348902Y250236D01*
X348920Y250352D01*
X348923Y250533D01*
X348936Y250714D01*
X348928Y250831D01*
X348931Y250948D01*
X348909Y251128D01*
X348898Y251309D01*
X348875Y251423D01*
X348861Y251539D01*
X348816Y251716D01*
X348781Y251893D01*
X348742Y252003D01*
X348713Y252117D01*
X348645Y252285D01*
X348586Y252456D01*
X348534Y252561D01*
X348490Y252669D01*
X348400Y252826D01*
X348318Y252989D01*
X348252Y253085D01*
X348194Y253186D01*
X348084Y253330D01*
X347981Y253480D01*
X347903Y253567D01*
X347832Y253660D01*
X347703Y253788D01*
X347582Y253922D01*
X347492Y253998D01*
X347409Y254080D01*
X347265Y254190D01*
X347126Y254307D01*
X347028Y254370D01*
X346935Y254440D01*
X346830Y254496D01*
X346624Y254627D01*
X346568Y254653D01*
X343596Y257626D01*
X342010Y261453D01*
X342010Y265597D01*
X343596Y269424D01*
X346677Y272505D01*
X346775Y272575D01*
X346985Y272717D01*
X347018Y272746D01*
X347055Y272772D01*
X347241Y272944D01*
X347430Y273113D01*
X347459Y273147D01*
X347491Y273177D01*
X347652Y273372D01*
X347818Y273566D01*
X347842Y273603D01*
X347870Y273637D01*
X348003Y273852D01*
X348142Y274066D01*
X348161Y274106D01*
X348184Y274144D01*
X348287Y274375D01*
X348396Y274605D01*
X348409Y274647D01*
X348427Y274688D01*
X348499Y274931D01*
X348575Y275173D01*
X348583Y275217D01*
X348595Y275260D01*
X348634Y275510D01*
X348677Y275761D01*
X348679Y275805D01*
X348685Y275849D01*
X348690Y276102D01*
X348699Y276356D01*
X348695Y276400D01*
X348696Y276444D01*
X348666Y276697D01*
X348642Y276949D01*
X348632Y276992D01*
X348627Y277036D01*
X348564Y277282D01*
X348506Y277529D01*
X348490Y277571D01*
X348479Y277614D01*
X348383Y277849D01*
X348293Y278086D01*
X348272Y278125D01*
X348255Y278166D01*
X348129Y278387D01*
X348008Y278609D01*
X347981Y278645D01*
X347960Y278683D01*
X347805Y278885D01*
X347655Y279090D01*
X347624Y279121D01*
X347597Y279157D01*
X347417Y279336D01*
X347241Y279518D01*
X347207Y279546D01*
X347175Y279577D01*
X346972Y279731D01*
X346774Y279888D01*
X346736Y279911D01*
X346700Y279937D01*
X346665Y279956D01*
X343596Y283026D01*
X342010Y286853D01*
X342010Y290997D01*
X343596Y294824D01*
X346677Y297906D01*
X346775Y297975D01*
X346986Y298117D01*
X347018Y298146D01*
X347054Y298172D01*
X347241Y298345D01*
X347430Y298513D01*
X347459Y298547D01*
X347491Y298577D01*
X347653Y298773D01*
X347818Y298966D01*
X347842Y299003D01*
X347870Y299037D01*
X348004Y299253D01*
X348142Y299466D01*
X348161Y299506D01*
X348184Y299544D01*
X348288Y299776D01*
X348396Y300005D01*
X348409Y300047D01*
X348427Y300088D01*
X348499Y300331D01*
X348575Y300574D01*
X348583Y300617D01*
X348595Y300659D01*
X348634Y300911D01*
X348677Y301161D01*
X348679Y301205D01*
X348685Y301248D01*
X348690Y301503D01*
X348699Y301756D01*
X348695Y301800D01*
X348696Y301844D01*
X348667Y302096D01*
X348642Y302349D01*
X348632Y302393D01*
X348627Y302436D01*
X348564Y302682D01*
X348506Y302930D01*
X348490Y302971D01*
X348479Y303013D01*
X348384Y303249D01*
X348293Y303486D01*
X348272Y303525D01*
X348255Y303566D01*
X348129Y303786D01*
X348008Y304009D01*
X347981Y304045D01*
X347960Y304083D01*
X347805Y304285D01*
X347655Y304490D01*
X347624Y304521D01*
X347597Y304557D01*
X347417Y304736D01*
X347241Y304919D01*
X347206Y304946D01*
X347175Y304977D01*
X346973Y305131D01*
X346773Y305288D01*
X346736Y305311D01*
X346700Y305337D01*
X346665Y305356D01*
X343596Y308426D01*
X342010Y312253D01*
X342010Y316397D01*
X343596Y320224D01*
X346526Y323154D01*
X350353Y324740D01*
X354497Y324740D01*
X358324Y323154D01*
X361254Y320224D01*
X362840Y316397D01*
X362840Y312253D01*
X361254Y308426D01*
X358173Y305344D01*
X358074Y305275D01*
X357864Y305133D01*
X357831Y305104D01*
X357795Y305078D01*
X357609Y304905D01*
X357419Y304736D01*
X357391Y304703D01*
X357358Y304673D01*
X357197Y304477D01*
X357032Y304284D01*
X357008Y304247D01*
X356980Y304213D01*
X356846Y303997D01*
X356708Y303783D01*
X356689Y303743D01*
X356666Y303706D01*
X356563Y303475D01*
X356454Y303244D01*
X356441Y303202D01*
X356423Y303162D01*
X356351Y302918D01*
X356275Y302676D01*
X356267Y302633D01*
X356255Y302590D01*
X356216Y302339D01*
X356173Y302089D01*
X356171Y302045D01*
X356165Y302001D01*
X356160Y301747D01*
X356151Y301493D01*
X356155Y301449D01*
X356154Y301405D01*
X356184Y301153D01*
X356208Y300900D01*
X356218Y300857D01*
X356223Y300813D01*
X356286Y300567D01*
X356345Y300320D01*
X356360Y300279D01*
X356371Y300236D01*
X356467Y300000D01*
X356557Y299763D01*
X356578Y299725D01*
X356595Y299684D01*
X356721Y299463D01*
X356843Y299240D01*
X356869Y299204D01*
X356891Y299166D01*
X357045Y298965D01*
X357196Y298760D01*
X357226Y298728D01*
X357253Y298693D01*
X357433Y298513D01*
X357609Y298331D01*
X357644Y298304D01*
X357675Y298273D01*
X357877Y298119D01*
X358077Y297961D01*
X358115Y297939D01*
X358150Y297912D01*
X358185Y297894D01*
X361254Y294824D01*
X362840Y290997D01*
X362840Y286853D01*
X361254Y283026D01*
X358173Y279945D01*
X358075Y279875D01*
X357864Y279733D01*
X357831Y279704D01*
X357795Y279678D01*
X357609Y279505D01*
X357419Y279336D01*
X357391Y279303D01*
X357358Y279273D01*
X357197Y279077D01*
X357032Y278884D01*
X357008Y278847D01*
X356980Y278813D01*
X356846Y278597D01*
X356708Y278383D01*
X356689Y278344D01*
X356666Y278306D01*
X356562Y278074D01*
X356454Y277844D01*
X356441Y277802D01*
X356423Y277762D01*
X356351Y277518D01*
X356275Y277276D01*
X356267Y277233D01*
X356255Y277190D01*
X356216Y276939D01*
X356173Y276689D01*
X356171Y276645D01*
X356165Y276601D01*
X356160Y276347D01*
X356151Y276093D01*
X356155Y276049D01*
X356154Y276005D01*
X356184Y275752D01*
X356208Y275500D01*
X356218Y275457D01*
X356223Y275413D01*
X356286Y275167D01*
X356344Y274920D01*
X356360Y274879D01*
X356371Y274836D01*
X356467Y274600D01*
X356557Y274363D01*
X356578Y274325D01*
X356595Y274284D01*
X356721Y274063D01*
X356843Y273840D01*
X356869Y273805D01*
X356891Y273766D01*
X357045Y273564D01*
X357195Y273360D01*
X357226Y273328D01*
X357253Y273293D01*
X357433Y273114D01*
X357609Y272931D01*
X357644Y272904D01*
X357675Y272872D01*
X357877Y272719D01*
X358077Y272562D01*
X358115Y272539D01*
X358150Y272512D01*
X358185Y272494D01*
X361254Y269424D01*
X362840Y265597D01*
X362840Y261453D01*
X361254Y257626D01*
X358271Y254643D01*
X358124Y254570D01*
X358027Y254504D01*
X357925Y254447D01*
X357780Y254338D01*
X357630Y254236D01*
X357542Y254158D01*
X357449Y254088D01*
X357321Y253960D01*
X357185Y253839D01*
X357109Y253751D01*
X357026Y253668D01*
X356915Y253525D01*
X356797Y253387D01*
X356734Y253289D01*
X356662Y253196D01*
X356572Y253039D01*
X356474Y252887D01*
X356424Y252781D01*
X356365Y252679D01*
X356297Y252511D01*
X356220Y252347D01*
X356185Y252236D01*
X356140Y252128D01*
X356095Y251952D01*
X356040Y251779D01*
X356020Y251664D01*
X355991Y251551D01*
X355969Y251371D01*
X355938Y251192D01*
X355934Y251075D01*
X355920Y250959D01*
X355923Y250778D01*
X355916Y250596D01*
X355927Y250480D01*
X355929Y250363D01*
X355956Y250184D01*
X355973Y250003D01*
X356000Y249890D01*
X356018Y249774D01*
X356068Y249600D01*
X356110Y249423D01*
X356152Y249314D01*
X356184Y249202D01*
X356258Y249036D01*
X356323Y248867D01*
X356379Y248764D01*
X356426Y248657D01*
X356521Y248502D01*
X356608Y248343D01*
X356677Y248249D01*
X356738Y248149D01*
X356854Y248009D01*
X356961Y247863D01*
X357042Y247779D01*
X357116Y247688D01*
X357205Y247610D01*
X357374Y247434D01*
X357658Y247210D01*
X357746Y247132D01*
X359210Y246069D01*
X360369Y244910D01*
X361332Y243584D01*
X361849Y242569D01*
X352425Y242569D01*
X352425Y242569D01*
G37*
%LPD*%
%LPC*%
G36*
X261439Y587374D02*
X261439Y587374D01*
X253999Y594814D01*
X253999Y605336D01*
X261439Y612776D01*
X271961Y612776D01*
X276257Y608479D01*
X276324Y608421D01*
X276384Y608357D01*
X276548Y608225D01*
X276706Y608087D01*
X276780Y608038D01*
X276848Y607983D01*
X277028Y607874D01*
X277203Y607758D01*
X277282Y607720D01*
X277358Y607674D01*
X277551Y607590D01*
X277740Y607499D01*
X277823Y607472D01*
X277904Y607437D01*
X278106Y607379D01*
X278306Y607314D01*
X278393Y607298D01*
X278477Y607274D01*
X278685Y607244D01*
X278892Y607206D01*
X278980Y607202D01*
X279067Y607190D01*
X279278Y607188D01*
X279488Y607178D01*
X279575Y607186D01*
X279663Y607185D01*
X279872Y607212D01*
X280081Y607230D01*
X280167Y607249D01*
X280254Y607260D01*
X280458Y607315D01*
X280663Y607361D01*
X280745Y607391D01*
X280830Y607414D01*
X281025Y607495D01*
X281222Y607568D01*
X281299Y607609D01*
X281380Y607643D01*
X281562Y607749D01*
X281748Y607848D01*
X281819Y607899D01*
X281895Y607944D01*
X281990Y608023D01*
X282231Y608196D01*
X282447Y608400D01*
X282543Y608479D01*
X284906Y610842D01*
X289574Y612776D01*
X294626Y612776D01*
X299294Y610842D01*
X302867Y607269D01*
X304801Y602601D01*
X304801Y597549D01*
X302867Y592881D01*
X299294Y589308D01*
X294626Y587374D01*
X289574Y587374D01*
X284906Y589308D01*
X282543Y591671D01*
X282477Y591729D01*
X282416Y591793D01*
X282252Y591925D01*
X282094Y592063D01*
X282020Y592112D01*
X281952Y592167D01*
X281772Y592276D01*
X281597Y592392D01*
X281518Y592430D01*
X281442Y592476D01*
X281249Y592560D01*
X281060Y592651D01*
X280977Y592678D01*
X280896Y592713D01*
X280694Y592771D01*
X280494Y592836D01*
X280407Y592852D01*
X280323Y592876D01*
X280114Y592906D01*
X279907Y592944D01*
X279820Y592948D01*
X279733Y592960D01*
X279522Y592962D01*
X279312Y592972D01*
X279225Y592964D01*
X279137Y592965D01*
X278928Y592938D01*
X278719Y592920D01*
X278633Y592901D01*
X278546Y592890D01*
X278342Y592835D01*
X278137Y592789D01*
X278055Y592759D01*
X277970Y592736D01*
X277776Y592655D01*
X277578Y592582D01*
X277501Y592541D01*
X277420Y592507D01*
X277239Y592401D01*
X277052Y592302D01*
X276981Y592251D01*
X276905Y592206D01*
X276810Y592127D01*
X276569Y591954D01*
X276353Y591750D01*
X276257Y591671D01*
X271961Y587374D01*
X261439Y587374D01*
G37*
%LPD*%
%LPC*%
G36*
X137614Y276224D02*
X137614Y276224D01*
X130174Y283664D01*
X130174Y294186D01*
X137614Y301626D01*
X148136Y301626D01*
X152432Y297329D01*
X152499Y297271D01*
X152559Y297207D01*
X152723Y297075D01*
X152881Y296937D01*
X152955Y296888D01*
X153023Y296833D01*
X153203Y296724D01*
X153378Y296608D01*
X153457Y296570D01*
X153533Y296524D01*
X153726Y296440D01*
X153915Y296349D01*
X153998Y296322D01*
X154079Y296287D01*
X154281Y296229D01*
X154481Y296164D01*
X154568Y296148D01*
X154652Y296124D01*
X154860Y296094D01*
X155067Y296056D01*
X155155Y296052D01*
X155242Y296040D01*
X155453Y296038D01*
X155663Y296028D01*
X155750Y296036D01*
X155838Y296035D01*
X156047Y296062D01*
X156256Y296080D01*
X156342Y296099D01*
X156429Y296110D01*
X156633Y296165D01*
X156838Y296211D01*
X156920Y296241D01*
X157005Y296264D01*
X157200Y296345D01*
X157397Y296418D01*
X157474Y296459D01*
X157555Y296493D01*
X157737Y296599D01*
X157923Y296698D01*
X157994Y296749D01*
X158070Y296794D01*
X158165Y296873D01*
X158406Y297046D01*
X158622Y297250D01*
X158718Y297329D01*
X161081Y299692D01*
X165749Y301626D01*
X170801Y301626D01*
X175469Y299692D01*
X179042Y296119D01*
X180976Y291451D01*
X180976Y286399D01*
X179042Y281731D01*
X175469Y278158D01*
X170801Y276224D01*
X165749Y276224D01*
X161081Y278158D01*
X158718Y280521D01*
X158652Y280579D01*
X158591Y280643D01*
X158427Y280775D01*
X158269Y280913D01*
X158195Y280962D01*
X158127Y281017D01*
X157947Y281126D01*
X157772Y281242D01*
X157693Y281280D01*
X157617Y281326D01*
X157424Y281410D01*
X157235Y281501D01*
X157152Y281528D01*
X157071Y281563D01*
X156869Y281621D01*
X156669Y281686D01*
X156582Y281702D01*
X156498Y281726D01*
X156289Y281756D01*
X156082Y281794D01*
X155995Y281798D01*
X155908Y281810D01*
X155697Y281812D01*
X155487Y281822D01*
X155400Y281814D01*
X155312Y281815D01*
X155103Y281788D01*
X154894Y281770D01*
X154808Y281751D01*
X154721Y281740D01*
X154517Y281685D01*
X154312Y281639D01*
X154230Y281609D01*
X154145Y281586D01*
X153951Y281505D01*
X153753Y281432D01*
X153676Y281391D01*
X153595Y281357D01*
X153414Y281251D01*
X153227Y281152D01*
X153156Y281101D01*
X153080Y281056D01*
X152985Y280977D01*
X152744Y280804D01*
X152528Y280600D01*
X152432Y280521D01*
X148136Y276224D01*
X137614Y276224D01*
G37*
%LPD*%
%LPC*%
G36*
X45658Y326561D02*
X45658Y326561D01*
X40966Y328504D01*
X37375Y332095D01*
X35432Y336786D01*
X35432Y341864D01*
X37375Y346555D01*
X40966Y350146D01*
X45658Y352089D01*
X68642Y352089D01*
X73334Y350146D01*
X76925Y346555D01*
X78868Y341864D01*
X78868Y336786D01*
X76925Y332095D01*
X73334Y328504D01*
X68642Y326561D01*
X45658Y326561D01*
G37*
%LPD*%
%LPC*%
G36*
X136036Y532764D02*
X136036Y532764D01*
X126364Y542436D01*
X126364Y556114D01*
X136036Y565786D01*
X149714Y565786D01*
X159386Y556114D01*
X159386Y542436D01*
X149714Y532764D01*
X136036Y532764D01*
G37*
%LPD*%
%LPC*%
G36*
X190391Y532764D02*
X190391Y532764D01*
X184322Y535278D01*
X179678Y539922D01*
X177164Y545991D01*
X177164Y552559D01*
X179678Y558628D01*
X184322Y563272D01*
X190391Y565786D01*
X196959Y565786D01*
X203028Y563272D01*
X207672Y558628D01*
X210186Y552559D01*
X210186Y545991D01*
X207672Y539922D01*
X203028Y535278D01*
X196959Y532764D01*
X190391Y532764D01*
G37*
%LPD*%
%LPC*%
G36*
X52285Y431614D02*
X52285Y431614D01*
X46529Y433998D01*
X42123Y438404D01*
X39739Y444160D01*
X39739Y450390D01*
X42123Y456146D01*
X46529Y460552D01*
X52285Y462936D01*
X58515Y462936D01*
X64271Y460552D01*
X68677Y456146D01*
X71061Y450390D01*
X71061Y444160D01*
X68677Y438404D01*
X64271Y433998D01*
X58515Y431614D01*
X52285Y431614D01*
G37*
%LPD*%
%LPC*%
G36*
X52285Y381614D02*
X52285Y381614D01*
X46529Y383998D01*
X42123Y388404D01*
X39739Y394160D01*
X39739Y400390D01*
X42123Y406146D01*
X46529Y410552D01*
X52285Y412936D01*
X58515Y412936D01*
X64271Y410552D01*
X68677Y406146D01*
X71061Y400390D01*
X71061Y394160D01*
X68677Y388404D01*
X64271Y383998D01*
X58515Y381614D01*
X52285Y381614D01*
G37*
%LPD*%
%LPC*%
G36*
X294136Y545210D02*
X294136Y545210D01*
X288035Y551311D01*
X288035Y559939D01*
X294136Y566040D01*
X302764Y566040D01*
X309595Y559209D01*
X309661Y559151D01*
X309722Y559087D01*
X309885Y558955D01*
X310044Y558817D01*
X310117Y558768D01*
X310185Y558713D01*
X310365Y558604D01*
X310541Y558488D01*
X310620Y558450D01*
X310695Y558404D01*
X310888Y558320D01*
X311077Y558229D01*
X311161Y558201D01*
X311242Y558166D01*
X311444Y558109D01*
X311644Y558044D01*
X311730Y558028D01*
X311815Y558004D01*
X312023Y557974D01*
X312230Y557936D01*
X312318Y557932D01*
X312405Y557919D01*
X312615Y557918D01*
X312825Y557908D01*
X312913Y557916D01*
X313001Y557915D01*
X313209Y557941D01*
X313419Y557960D01*
X313505Y557979D01*
X313592Y557990D01*
X313795Y558044D01*
X314000Y558090D01*
X314083Y558121D01*
X314168Y558143D01*
X314362Y558224D01*
X314559Y558298D01*
X314636Y558339D01*
X314718Y558373D01*
X314900Y558479D01*
X315085Y558578D01*
X315156Y558629D01*
X315232Y558673D01*
X315328Y558752D01*
X315569Y558926D01*
X315784Y559130D01*
X315880Y559209D01*
X322711Y566040D01*
X331339Y566040D01*
X337440Y559939D01*
X337440Y551311D01*
X331339Y545210D01*
X322711Y545210D01*
X315880Y552041D01*
X315814Y552099D01*
X315753Y552163D01*
X315590Y552295D01*
X315431Y552433D01*
X315358Y552482D01*
X315290Y552537D01*
X315109Y552646D01*
X314934Y552762D01*
X314855Y552800D01*
X314780Y552846D01*
X314587Y552930D01*
X314398Y553021D01*
X314314Y553049D01*
X314233Y553084D01*
X314031Y553141D01*
X313831Y553206D01*
X313745Y553222D01*
X313660Y553246D01*
X313452Y553276D01*
X313245Y553314D01*
X313157Y553318D01*
X313070Y553331D01*
X312860Y553332D01*
X312650Y553342D01*
X312562Y553334D01*
X312474Y553335D01*
X312266Y553309D01*
X312056Y553290D01*
X311970Y553271D01*
X311883Y553260D01*
X311680Y553206D01*
X311475Y553160D01*
X311392Y553129D01*
X311307Y553107D01*
X311113Y553026D01*
X310916Y552952D01*
X310838Y552911D01*
X310757Y552877D01*
X310576Y552771D01*
X310390Y552672D01*
X310318Y552621D01*
X310243Y552577D01*
X310147Y552498D01*
X309906Y552324D01*
X309690Y552120D01*
X309595Y552041D01*
X302764Y545210D01*
X294136Y545210D01*
G37*
%LPD*%
%LPC*%
G36*
X294136Y469010D02*
X294136Y469010D01*
X288035Y475111D01*
X288035Y483739D01*
X294136Y489840D01*
X302764Y489840D01*
X309595Y483009D01*
X309661Y482951D01*
X309722Y482887D01*
X309885Y482755D01*
X310044Y482617D01*
X310117Y482568D01*
X310185Y482513D01*
X310365Y482404D01*
X310541Y482288D01*
X310620Y482250D01*
X310695Y482204D01*
X310888Y482120D01*
X311077Y482029D01*
X311161Y482001D01*
X311242Y481966D01*
X311444Y481909D01*
X311644Y481844D01*
X311730Y481828D01*
X311815Y481804D01*
X312023Y481774D01*
X312230Y481736D01*
X312318Y481732D01*
X312405Y481719D01*
X312615Y481718D01*
X312825Y481708D01*
X312913Y481716D01*
X313001Y481715D01*
X313209Y481741D01*
X313419Y481760D01*
X313505Y481779D01*
X313592Y481790D01*
X313795Y481844D01*
X314000Y481890D01*
X314083Y481921D01*
X314168Y481943D01*
X314362Y482024D01*
X314559Y482098D01*
X314636Y482139D01*
X314718Y482173D01*
X314900Y482279D01*
X315085Y482378D01*
X315156Y482429D01*
X315232Y482473D01*
X315328Y482552D01*
X315569Y482726D01*
X315784Y482930D01*
X315880Y483009D01*
X322581Y489709D01*
X322581Y479425D01*
X322581Y469141D01*
X315880Y475841D01*
X315814Y475899D01*
X315753Y475963D01*
X315590Y476095D01*
X315431Y476233D01*
X315358Y476282D01*
X315290Y476337D01*
X315109Y476446D01*
X314934Y476562D01*
X314855Y476600D01*
X314780Y476646D01*
X314587Y476730D01*
X314398Y476821D01*
X314314Y476849D01*
X314233Y476884D01*
X314031Y476941D01*
X313831Y477006D01*
X313745Y477022D01*
X313660Y477046D01*
X313452Y477076D01*
X313245Y477114D01*
X313157Y477118D01*
X313070Y477131D01*
X312860Y477132D01*
X312650Y477142D01*
X312562Y477134D01*
X312474Y477135D01*
X312266Y477109D01*
X312056Y477090D01*
X311970Y477071D01*
X311883Y477060D01*
X311680Y477006D01*
X311475Y476960D01*
X311392Y476929D01*
X311307Y476907D01*
X311113Y476826D01*
X310916Y476752D01*
X310838Y476711D01*
X310757Y476677D01*
X310576Y476571D01*
X310390Y476472D01*
X310318Y476421D01*
X310243Y476377D01*
X310147Y476298D01*
X309906Y476124D01*
X309690Y475920D01*
X309595Y475841D01*
X302764Y469010D01*
X294136Y469010D01*
G37*
%LPD*%
%LPC*%
G36*
X257925Y654557D02*
X257925Y654557D01*
X253443Y656413D01*
X250013Y659843D01*
X248157Y664325D01*
X248157Y669175D01*
X250013Y673657D01*
X253443Y677087D01*
X257925Y678943D01*
X262775Y678943D01*
X267257Y677087D01*
X270687Y673657D01*
X272543Y669175D01*
X272543Y664325D01*
X270687Y659843D01*
X267257Y656413D01*
X262775Y654557D01*
X257925Y654557D01*
G37*
%LPD*%
%LPC*%
G36*
X348111Y138810D02*
X348111Y138810D01*
X342010Y144911D01*
X342010Y153539D01*
X348111Y159640D01*
X356739Y159640D01*
X362840Y153539D01*
X362840Y144911D01*
X356739Y138810D01*
X348111Y138810D01*
G37*
%LPD*%
%LPC*%
G36*
X271911Y173735D02*
X271911Y173735D01*
X265810Y179836D01*
X265810Y188464D01*
X271911Y194565D01*
X280539Y194565D01*
X286640Y188464D01*
X286640Y179836D01*
X280539Y173735D01*
X271911Y173735D01*
G37*
%LPD*%
%LPC*%
G36*
X348111Y173735D02*
X348111Y173735D01*
X342010Y179836D01*
X342010Y188464D01*
X348111Y194565D01*
X356739Y194565D01*
X362840Y188464D01*
X362840Y179836D01*
X356739Y173735D01*
X348111Y173735D01*
G37*
%LPD*%
%LPC*%
G36*
X192536Y211835D02*
X192536Y211835D01*
X186435Y217936D01*
X186435Y226564D01*
X192536Y232665D01*
X201164Y232665D01*
X207265Y226564D01*
X207265Y217936D01*
X201164Y211835D01*
X192536Y211835D01*
G37*
%LPD*%
%LPC*%
G36*
X61594Y293769D02*
X61594Y293769D01*
X61594Y302089D01*
X66940Y302089D01*
X68599Y301871D01*
X70215Y301438D01*
X71761Y300797D01*
X73210Y299961D01*
X74538Y298942D01*
X75721Y297759D01*
X76739Y296432D01*
X77576Y294983D01*
X78078Y293769D01*
X61594Y293769D01*
G37*
%LPD*%
%LPC*%
G36*
X36222Y293769D02*
X36222Y293769D01*
X36724Y294983D01*
X37561Y296432D01*
X38579Y297759D01*
X39762Y298942D01*
X41090Y299961D01*
X42539Y300797D01*
X44085Y301438D01*
X45701Y301871D01*
X47360Y302089D01*
X52706Y302089D01*
X52706Y293769D01*
X36222Y293769D01*
G37*
%LPD*%
%LPC*%
G36*
X61594Y276561D02*
X61594Y276561D01*
X61594Y284881D01*
X78078Y284881D01*
X77576Y283667D01*
X76739Y282218D01*
X75721Y280891D01*
X74538Y279708D01*
X73210Y278689D01*
X71761Y277853D01*
X70215Y277212D01*
X68599Y276779D01*
X66940Y276561D01*
X61594Y276561D01*
G37*
%LPD*%
%LPC*%
G36*
X47360Y276561D02*
X47360Y276561D01*
X45701Y276779D01*
X44085Y277212D01*
X42539Y277853D01*
X41090Y278689D01*
X39762Y279708D01*
X38579Y280891D01*
X37561Y282218D01*
X36724Y283667D01*
X36222Y284881D01*
X52706Y284881D01*
X52706Y276561D01*
X47360Y276561D01*
G37*
%LPD*%
%LPC*%
G36*
X203574Y45174D02*
X203574Y45174D01*
X203574Y57880D01*
X203602Y57864D01*
X203637Y57838D01*
X203731Y57788D01*
X204077Y57583D01*
X204279Y57497D01*
X204379Y57444D01*
X206789Y56446D01*
X208797Y55287D01*
X210636Y53875D01*
X212275Y52236D01*
X213687Y50397D01*
X214846Y48389D01*
X215733Y46247D01*
X216021Y45174D01*
X203574Y45174D01*
G37*
%LPD*%
%LPC*%
G36*
X203574Y87174D02*
X203574Y87174D01*
X203574Y99880D01*
X203602Y99864D01*
X203637Y99838D01*
X203730Y99788D01*
X204077Y99583D01*
X204279Y99497D01*
X204379Y99444D01*
X206789Y98446D01*
X208797Y97287D01*
X210636Y95875D01*
X212275Y94236D01*
X213687Y92397D01*
X214846Y90389D01*
X215733Y88247D01*
X216021Y87174D01*
X203574Y87174D01*
G37*
%LPD*%
%LPC*%
G36*
X194298Y107236D02*
X194298Y107236D01*
X194263Y107262D01*
X194169Y107312D01*
X193823Y107517D01*
X193621Y107603D01*
X193521Y107656D01*
X191111Y108654D01*
X189103Y109813D01*
X187264Y111225D01*
X185625Y112864D01*
X184213Y114703D01*
X183054Y116711D01*
X182167Y118853D01*
X181879Y119926D01*
X194326Y119926D01*
X194326Y107220D01*
X194298Y107236D01*
G37*
%LPD*%
%LPC*%
G36*
X194298Y65236D02*
X194298Y65236D01*
X194263Y65262D01*
X194169Y65312D01*
X193823Y65517D01*
X193621Y65603D01*
X193521Y65656D01*
X191111Y66654D01*
X189103Y67813D01*
X187264Y69225D01*
X185625Y70864D01*
X184213Y72703D01*
X183054Y74711D01*
X182167Y76853D01*
X181879Y77926D01*
X194326Y77926D01*
X194326Y65220D01*
X194298Y65236D01*
G37*
%LPD*%
%LPC*%
G36*
X181879Y45174D02*
X181879Y45174D01*
X182167Y46247D01*
X183054Y48389D01*
X184213Y50397D01*
X185625Y52236D01*
X187264Y53875D01*
X189103Y55287D01*
X191111Y56446D01*
X193521Y57444D01*
X193560Y57464D01*
X193602Y57478D01*
X193827Y57596D01*
X194055Y57709D01*
X194091Y57733D01*
X194130Y57753D01*
X194326Y57891D01*
X194326Y45174D01*
X181879Y45174D01*
G37*
%LPD*%
%LPC*%
G36*
X181879Y87174D02*
X181879Y87174D01*
X182167Y88247D01*
X183054Y90389D01*
X184213Y92397D01*
X185625Y94236D01*
X187264Y95875D01*
X189103Y97287D01*
X191111Y98446D01*
X193521Y99444D01*
X193560Y99464D01*
X193602Y99478D01*
X193828Y99596D01*
X194055Y99709D01*
X194091Y99733D01*
X194130Y99753D01*
X194326Y99891D01*
X194326Y87174D01*
X181879Y87174D01*
G37*
%LPD*%
%LPC*%
G36*
X203574Y119926D02*
X203574Y119926D01*
X216021Y119926D01*
X215733Y118853D01*
X214846Y116711D01*
X213687Y114703D01*
X212275Y112864D01*
X210636Y111225D01*
X208797Y109813D01*
X206789Y108654D01*
X204379Y107656D01*
X204340Y107636D01*
X204298Y107622D01*
X204074Y107505D01*
X203845Y107392D01*
X203809Y107367D01*
X203770Y107347D01*
X203574Y107209D01*
X203574Y119926D01*
G37*
%LPD*%
%LPC*%
G36*
X203574Y77926D02*
X203574Y77926D01*
X216021Y77926D01*
X215733Y76853D01*
X214846Y74711D01*
X213687Y72703D01*
X212275Y70864D01*
X210636Y69225D01*
X208797Y67813D01*
X206789Y66654D01*
X204379Y65656D01*
X204340Y65636D01*
X204298Y65622D01*
X204073Y65504D01*
X203845Y65392D01*
X203809Y65367D01*
X203770Y65347D01*
X203574Y65209D01*
X203574Y77926D01*
G37*
%LPD*%
%LPC*%
G36*
X203574Y129174D02*
X203574Y129174D01*
X203574Y141621D01*
X204647Y141333D01*
X206789Y140446D01*
X208797Y139287D01*
X210636Y137875D01*
X212275Y136236D01*
X213687Y134397D01*
X214846Y132389D01*
X215733Y130247D01*
X216021Y129174D01*
X203574Y129174D01*
G37*
%LPD*%
%LPC*%
G36*
X181879Y129174D02*
X181879Y129174D01*
X182167Y130247D01*
X183054Y132389D01*
X184213Y134397D01*
X185625Y136236D01*
X187264Y137875D01*
X189103Y139287D01*
X191111Y140446D01*
X193253Y141333D01*
X194326Y141621D01*
X194326Y129174D01*
X181879Y129174D01*
G37*
%LPD*%
%LPC*%
G36*
X203574Y35926D02*
X203574Y35926D01*
X216021Y35926D01*
X215733Y34853D01*
X214846Y32711D01*
X213687Y30703D01*
X212275Y28864D01*
X210636Y27225D01*
X208797Y25813D01*
X206789Y24654D01*
X204647Y23767D01*
X203574Y23479D01*
X203574Y35926D01*
G37*
%LPD*%
%LPC*%
G36*
X193253Y23767D02*
X193253Y23767D01*
X191111Y24654D01*
X189103Y25813D01*
X187264Y27225D01*
X185625Y28864D01*
X184213Y30703D01*
X183054Y32711D01*
X182167Y34853D01*
X181879Y35926D01*
X194326Y35926D01*
X194326Y23479D01*
X193253Y23767D01*
G37*
%LPD*%
%LPC*%
G36*
X398144Y480774D02*
X398144Y480774D01*
X398144Y487681D01*
X411715Y487681D01*
X410948Y486176D01*
X409898Y484731D01*
X408634Y483467D01*
X407189Y482417D01*
X405597Y481606D01*
X403898Y481054D01*
X402133Y480774D01*
X398144Y480774D01*
G37*
%LPD*%
%LPC*%
G36*
X385267Y480774D02*
X385267Y480774D01*
X383502Y481054D01*
X381803Y481606D01*
X380211Y482417D01*
X378766Y483467D01*
X377502Y484731D01*
X376452Y486176D01*
X375685Y487681D01*
X389256Y487681D01*
X389256Y480774D01*
X385267Y480774D01*
G37*
%LPD*%
%LPC*%
G36*
X107844Y391719D02*
X107844Y391719D01*
X107844Y400112D01*
X109411Y399463D01*
X110950Y398575D01*
X112360Y397492D01*
X113617Y396235D01*
X114700Y394825D01*
X115588Y393286D01*
X116237Y391719D01*
X107844Y391719D01*
G37*
%LPD*%
%LPC*%
G36*
X107844Y382831D02*
X107844Y382831D01*
X116237Y382831D01*
X115588Y381264D01*
X114700Y379725D01*
X113617Y378315D01*
X112360Y377058D01*
X110950Y375975D01*
X109411Y375087D01*
X107844Y374438D01*
X107844Y382831D01*
G37*
%LPD*%
%LPC*%
G36*
X90563Y391719D02*
X90563Y391719D01*
X91212Y393286D01*
X92100Y394825D01*
X93183Y396235D01*
X94440Y397492D01*
X95850Y398575D01*
X97389Y399463D01*
X98956Y400112D01*
X98956Y391719D01*
X90563Y391719D01*
G37*
%LPD*%
%LPC*%
G36*
X97389Y375087D02*
X97389Y375087D01*
X95850Y375975D01*
X94440Y377058D01*
X93183Y378315D01*
X92100Y379725D01*
X91212Y381264D01*
X90563Y382831D01*
X98956Y382831D01*
X98956Y374438D01*
X97389Y375087D01*
G37*
%LPD*%
%LPC*%
G36*
X331469Y483869D02*
X331469Y483869D01*
X331469Y489709D01*
X337309Y483869D01*
X331469Y483869D01*
G37*
%LPD*%
%LPC*%
G36*
X125094Y226694D02*
X125094Y226694D01*
X125094Y232534D01*
X130934Y226694D01*
X125094Y226694D01*
G37*
%LPD*%
%LPC*%
G36*
X280669Y153669D02*
X280669Y153669D01*
X280669Y159509D01*
X286509Y153669D01*
X280669Y153669D01*
G37*
%LPD*%
%LPC*%
G36*
X110366Y226694D02*
X110366Y226694D01*
X116206Y232534D01*
X116206Y226694D01*
X110366Y226694D01*
G37*
%LPD*%
%LPC*%
G36*
X125094Y217806D02*
X125094Y217806D01*
X130934Y217806D01*
X125094Y211966D01*
X125094Y217806D01*
G37*
%LPD*%
%LPC*%
G36*
X265941Y153669D02*
X265941Y153669D01*
X271781Y159509D01*
X271781Y153669D01*
X265941Y153669D01*
G37*
%LPD*%
%LPC*%
G36*
X331469Y474981D02*
X331469Y474981D01*
X337309Y474981D01*
X331469Y469141D01*
X331469Y474981D01*
G37*
%LPD*%
%LPC*%
G36*
X280669Y144781D02*
X280669Y144781D01*
X286509Y144781D01*
X280669Y138941D01*
X280669Y144781D01*
G37*
%LPD*%
%LPC*%
G36*
X110366Y217806D02*
X110366Y217806D01*
X116206Y217806D01*
X116206Y211966D01*
X110366Y217806D01*
G37*
%LPD*%
%LPC*%
G36*
X265941Y144781D02*
X265941Y144781D01*
X271781Y144781D01*
X271781Y138941D01*
X265941Y144781D01*
G37*
%LPD*%
%LPC*%
G36*
X280669Y233681D02*
X280669Y233681D01*
X285649Y233681D01*
X285132Y232666D01*
X284169Y231340D01*
X283010Y230181D01*
X281684Y229218D01*
X280669Y228701D01*
X280669Y233681D01*
G37*
%LPD*%
%LPC*%
G36*
X356869Y233681D02*
X356869Y233681D01*
X361849Y233681D01*
X361332Y232666D01*
X360369Y231340D01*
X359210Y230181D01*
X357884Y229218D01*
X356869Y228701D01*
X356869Y233681D01*
G37*
%LPD*%
%LPC*%
G36*
X346966Y229218D02*
X346966Y229218D01*
X345640Y230181D01*
X344481Y231340D01*
X343518Y232666D01*
X343001Y233681D01*
X347981Y233681D01*
X347981Y228701D01*
X346966Y229218D01*
G37*
%LPD*%
%LPC*%
G36*
X270766Y229218D02*
X270766Y229218D01*
X269440Y230181D01*
X268281Y231340D01*
X267318Y232666D01*
X266801Y233681D01*
X271781Y233681D01*
X271781Y228701D01*
X270766Y229218D01*
G37*
%LPD*%
D10*
X193675Y549275D03*
D11*
X142875Y549275D03*
D12*
X260350Y768350D03*
X260350Y666750D03*
D13*
X198950Y124550D03*
X198950Y82550D03*
X198950Y40550D03*
X143950Y124550D03*
X143950Y82550D03*
D14*
X143950Y40550D03*
D13*
X198950Y759550D03*
X198950Y717550D03*
X198950Y675550D03*
X143950Y759550D03*
X143950Y717550D03*
D14*
X143950Y675550D03*
D15*
X386160Y542925D02*
X401240Y542925D01*
X401240Y517525D02*
X386160Y517525D01*
X386160Y492125D02*
X401240Y492125D01*
D16*
X298450Y555625D03*
X298450Y479425D03*
D17*
X120650Y222250D03*
X196850Y222250D03*
X276225Y184150D03*
X352425Y184150D03*
X276225Y149225D03*
X352425Y149225D03*
D18*
X327025Y479425D03*
X327025Y555625D03*
D19*
X276225Y314325D03*
X276225Y288925D03*
X352425Y288925D03*
X352425Y314325D03*
X276225Y263525D03*
X276225Y238125D03*
X352425Y263525D03*
X352425Y238125D03*
D20*
X103400Y387275D03*
X123400Y422275D03*
X140400Y389275D03*
X135400Y454275D03*
X150400Y422275D03*
D21*
X433070Y390525D03*
X433070Y644525D03*
D22*
X266700Y600075D03*
D23*
X292100Y600075D03*
D22*
X142875Y288925D03*
D23*
X168275Y288925D03*
D24*
X66104Y339325D02*
X48197Y339325D01*
X48197Y289325D02*
X66104Y289325D01*
M02*
