G04 EAGLE Gerber RS-274X export*
G75*
%MOMM*%
%FSLAX34Y34*%
%LPD*%
%IN*%
%IPPOS*%
%AMOC8*
5,1,8,0,0,1.08239X$1,22.5*%
G01*
%ADD10C,0.254000*%


D10*
X0Y0D02*
X508000Y0D01*
X508000Y800100D01*
X0Y800100D01*
X0Y0D01*
X70405Y109300D02*
X69319Y109378D01*
X68241Y109533D01*
X67176Y109764D01*
X66131Y110071D01*
X65110Y110452D01*
X64120Y110904D01*
X63163Y111426D01*
X62247Y112015D01*
X61375Y112668D01*
X60552Y113382D01*
X59782Y114152D01*
X59068Y114975D01*
X58415Y115847D01*
X57826Y116763D01*
X57304Y117720D01*
X56852Y118710D01*
X56471Y119731D01*
X56164Y120776D01*
X55933Y121841D01*
X55778Y122919D01*
X55700Y124005D01*
X55700Y125095D01*
X55778Y126181D01*
X55933Y127259D01*
X56164Y128324D01*
X56471Y129369D01*
X56852Y130390D01*
X57304Y131381D01*
X57826Y132337D01*
X58415Y133253D01*
X59068Y134125D01*
X59782Y134948D01*
X60552Y135719D01*
X61375Y136432D01*
X62247Y137085D01*
X63163Y137674D01*
X64120Y138196D01*
X65110Y138648D01*
X66131Y139029D01*
X67176Y139336D01*
X68241Y139567D01*
X69319Y139722D01*
X70405Y139800D01*
X71495Y139800D01*
X72581Y139722D01*
X73659Y139567D01*
X74724Y139336D01*
X75769Y139029D01*
X76790Y138648D01*
X77781Y138196D01*
X78737Y137674D01*
X79653Y137085D01*
X80525Y136432D01*
X81348Y135719D01*
X82119Y134948D01*
X82832Y134125D01*
X83485Y133253D01*
X84074Y132337D01*
X84596Y131381D01*
X85048Y130390D01*
X85429Y129369D01*
X85736Y128324D01*
X85967Y127259D01*
X86122Y126181D01*
X86200Y125095D01*
X86200Y124005D01*
X86122Y122919D01*
X85967Y121841D01*
X85736Y120776D01*
X85429Y119731D01*
X85048Y118710D01*
X84596Y117720D01*
X84074Y116763D01*
X83485Y115847D01*
X82832Y114975D01*
X82119Y114152D01*
X81348Y113382D01*
X80525Y112668D01*
X79653Y112015D01*
X78737Y111426D01*
X77781Y110904D01*
X76790Y110452D01*
X75769Y110071D01*
X74724Y109764D01*
X73659Y109533D01*
X72581Y109378D01*
X71495Y109300D01*
X70405Y109300D01*
X70405Y25300D02*
X69319Y25378D01*
X68241Y25533D01*
X67176Y25764D01*
X66131Y26071D01*
X65110Y26452D01*
X64120Y26904D01*
X63163Y27426D01*
X62247Y28015D01*
X61375Y28668D01*
X60552Y29382D01*
X59782Y30152D01*
X59068Y30975D01*
X58415Y31847D01*
X57826Y32763D01*
X57304Y33720D01*
X56852Y34710D01*
X56471Y35731D01*
X56164Y36776D01*
X55933Y37841D01*
X55778Y38919D01*
X55700Y40005D01*
X55700Y41095D01*
X55778Y42181D01*
X55933Y43259D01*
X56164Y44324D01*
X56471Y45369D01*
X56852Y46390D01*
X57304Y47381D01*
X57826Y48337D01*
X58415Y49253D01*
X59068Y50125D01*
X59782Y50948D01*
X60552Y51719D01*
X61375Y52432D01*
X62247Y53085D01*
X63163Y53674D01*
X64120Y54196D01*
X65110Y54648D01*
X66131Y55029D01*
X67176Y55336D01*
X68241Y55567D01*
X69319Y55722D01*
X70405Y55800D01*
X71495Y55800D01*
X72581Y55722D01*
X73659Y55567D01*
X74724Y55336D01*
X75769Y55029D01*
X76790Y54648D01*
X77781Y54196D01*
X78737Y53674D01*
X79653Y53085D01*
X80525Y52432D01*
X81348Y51719D01*
X82119Y50948D01*
X82832Y50125D01*
X83485Y49253D01*
X84074Y48337D01*
X84596Y47381D01*
X85048Y46390D01*
X85429Y45369D01*
X85736Y44324D01*
X85967Y43259D01*
X86122Y42181D01*
X86200Y41095D01*
X86200Y40005D01*
X86122Y38919D01*
X85967Y37841D01*
X85736Y36776D01*
X85429Y35731D01*
X85048Y34710D01*
X84596Y33720D01*
X84074Y32763D01*
X83485Y31847D01*
X82832Y30975D01*
X82119Y30152D01*
X81348Y29382D01*
X80525Y28668D01*
X79653Y28015D01*
X78737Y27426D01*
X77781Y26904D01*
X76790Y26452D01*
X75769Y26071D01*
X74724Y25764D01*
X73659Y25533D01*
X72581Y25378D01*
X71495Y25300D01*
X70405Y25300D01*
X70405Y744300D02*
X69319Y744378D01*
X68241Y744533D01*
X67176Y744764D01*
X66131Y745071D01*
X65110Y745452D01*
X64120Y745904D01*
X63163Y746426D01*
X62247Y747015D01*
X61375Y747668D01*
X60552Y748382D01*
X59782Y749152D01*
X59068Y749975D01*
X58415Y750847D01*
X57826Y751763D01*
X57304Y752720D01*
X56852Y753710D01*
X56471Y754731D01*
X56164Y755776D01*
X55933Y756841D01*
X55778Y757919D01*
X55700Y759005D01*
X55700Y760095D01*
X55778Y761181D01*
X55933Y762259D01*
X56164Y763324D01*
X56471Y764369D01*
X56852Y765390D01*
X57304Y766381D01*
X57826Y767337D01*
X58415Y768253D01*
X59068Y769125D01*
X59782Y769948D01*
X60552Y770719D01*
X61375Y771432D01*
X62247Y772085D01*
X63163Y772674D01*
X64120Y773196D01*
X65110Y773648D01*
X66131Y774029D01*
X67176Y774336D01*
X68241Y774567D01*
X69319Y774722D01*
X70405Y774800D01*
X71495Y774800D01*
X72581Y774722D01*
X73659Y774567D01*
X74724Y774336D01*
X75769Y774029D01*
X76790Y773648D01*
X77781Y773196D01*
X78737Y772674D01*
X79653Y772085D01*
X80525Y771432D01*
X81348Y770719D01*
X82119Y769948D01*
X82832Y769125D01*
X83485Y768253D01*
X84074Y767337D01*
X84596Y766381D01*
X85048Y765390D01*
X85429Y764369D01*
X85736Y763324D01*
X85967Y762259D01*
X86122Y761181D01*
X86200Y760095D01*
X86200Y759005D01*
X86122Y757919D01*
X85967Y756841D01*
X85736Y755776D01*
X85429Y754731D01*
X85048Y753710D01*
X84596Y752720D01*
X84074Y751763D01*
X83485Y750847D01*
X82832Y749975D01*
X82119Y749152D01*
X81348Y748382D01*
X80525Y747668D01*
X79653Y747015D01*
X78737Y746426D01*
X77781Y745904D01*
X76790Y745452D01*
X75769Y745071D01*
X74724Y744764D01*
X73659Y744533D01*
X72581Y744378D01*
X71495Y744300D01*
X70405Y744300D01*
X70405Y660300D02*
X69319Y660378D01*
X68241Y660533D01*
X67176Y660764D01*
X66131Y661071D01*
X65110Y661452D01*
X64120Y661904D01*
X63163Y662426D01*
X62247Y663015D01*
X61375Y663668D01*
X60552Y664382D01*
X59782Y665152D01*
X59068Y665975D01*
X58415Y666847D01*
X57826Y667763D01*
X57304Y668720D01*
X56852Y669710D01*
X56471Y670731D01*
X56164Y671776D01*
X55933Y672841D01*
X55778Y673919D01*
X55700Y675005D01*
X55700Y676095D01*
X55778Y677181D01*
X55933Y678259D01*
X56164Y679324D01*
X56471Y680369D01*
X56852Y681390D01*
X57304Y682381D01*
X57826Y683337D01*
X58415Y684253D01*
X59068Y685125D01*
X59782Y685948D01*
X60552Y686719D01*
X61375Y687432D01*
X62247Y688085D01*
X63163Y688674D01*
X64120Y689196D01*
X65110Y689648D01*
X66131Y690029D01*
X67176Y690336D01*
X68241Y690567D01*
X69319Y690722D01*
X70405Y690800D01*
X71495Y690800D01*
X72581Y690722D01*
X73659Y690567D01*
X74724Y690336D01*
X75769Y690029D01*
X76790Y689648D01*
X77781Y689196D01*
X78737Y688674D01*
X79653Y688085D01*
X80525Y687432D01*
X81348Y686719D01*
X82119Y685948D01*
X82832Y685125D01*
X83485Y684253D01*
X84074Y683337D01*
X84596Y682381D01*
X85048Y681390D01*
X85429Y680369D01*
X85736Y679324D01*
X85967Y678259D01*
X86122Y677181D01*
X86200Y676095D01*
X86200Y675005D01*
X86122Y673919D01*
X85967Y672841D01*
X85736Y671776D01*
X85429Y670731D01*
X85048Y669710D01*
X84596Y668720D01*
X84074Y667763D01*
X83485Y666847D01*
X82832Y665975D01*
X82119Y665152D01*
X81348Y664382D01*
X80525Y663668D01*
X79653Y663015D01*
X78737Y662426D01*
X77781Y661904D01*
X76790Y661452D01*
X75769Y661071D01*
X74724Y660764D01*
X73659Y660533D01*
X72581Y660378D01*
X71495Y660300D01*
X70405Y660300D01*
X478550Y43914D02*
X478474Y42846D01*
X478321Y41785D01*
X478093Y40738D01*
X477791Y39710D01*
X477417Y38706D01*
X476972Y37731D01*
X476458Y36791D01*
X475879Y35890D01*
X475237Y35032D01*
X474535Y34222D01*
X473778Y33465D01*
X472968Y32763D01*
X472110Y32121D01*
X471209Y31542D01*
X470269Y31028D01*
X469294Y30583D01*
X468290Y30209D01*
X467262Y29907D01*
X466215Y29679D01*
X465154Y29526D01*
X464086Y29450D01*
X463014Y29450D01*
X461946Y29526D01*
X460885Y29679D01*
X459838Y29907D01*
X458810Y30209D01*
X457806Y30583D01*
X456831Y31028D01*
X455891Y31542D01*
X454990Y32121D01*
X454132Y32763D01*
X453322Y33465D01*
X452565Y34222D01*
X451863Y35032D01*
X451221Y35890D01*
X450642Y36791D01*
X450128Y37731D01*
X449683Y38706D01*
X449309Y39710D01*
X449007Y40738D01*
X448779Y41785D01*
X448626Y42846D01*
X448550Y43914D01*
X448550Y44986D01*
X448626Y46054D01*
X448779Y47115D01*
X449007Y48162D01*
X449309Y49190D01*
X449683Y50194D01*
X450128Y51169D01*
X450642Y52109D01*
X451221Y53010D01*
X451863Y53868D01*
X452565Y54678D01*
X453322Y55435D01*
X454132Y56137D01*
X454990Y56779D01*
X455891Y57358D01*
X456831Y57872D01*
X457806Y58317D01*
X458810Y58691D01*
X459838Y58993D01*
X460885Y59221D01*
X461946Y59374D01*
X463014Y59450D01*
X464086Y59450D01*
X465154Y59374D01*
X466215Y59221D01*
X467262Y58993D01*
X468290Y58691D01*
X469294Y58317D01*
X470269Y57872D01*
X471209Y57358D01*
X472110Y56779D01*
X472968Y56137D01*
X473778Y55435D01*
X474535Y54678D01*
X475237Y53868D01*
X475879Y53010D01*
X476458Y52109D01*
X476972Y51169D01*
X477417Y50194D01*
X477791Y49190D01*
X478093Y48162D01*
X478321Y47115D01*
X478474Y46054D01*
X478550Y44986D01*
X478550Y43914D01*
X478550Y755114D02*
X478474Y754046D01*
X478321Y752985D01*
X478093Y751938D01*
X477791Y750910D01*
X477417Y749906D01*
X476972Y748931D01*
X476458Y747991D01*
X475879Y747090D01*
X475237Y746232D01*
X474535Y745422D01*
X473778Y744665D01*
X472968Y743963D01*
X472110Y743321D01*
X471209Y742742D01*
X470269Y742228D01*
X469294Y741783D01*
X468290Y741409D01*
X467262Y741107D01*
X466215Y740879D01*
X465154Y740726D01*
X464086Y740650D01*
X463014Y740650D01*
X461946Y740726D01*
X460885Y740879D01*
X459838Y741107D01*
X458810Y741409D01*
X457806Y741783D01*
X456831Y742228D01*
X455891Y742742D01*
X454990Y743321D01*
X454132Y743963D01*
X453322Y744665D01*
X452565Y745422D01*
X451863Y746232D01*
X451221Y747090D01*
X450642Y747991D01*
X450128Y748931D01*
X449683Y749906D01*
X449309Y750910D01*
X449007Y751938D01*
X448779Y752985D01*
X448626Y754046D01*
X448550Y755114D01*
X448550Y756186D01*
X448626Y757254D01*
X448779Y758315D01*
X449007Y759362D01*
X449309Y760390D01*
X449683Y761394D01*
X450128Y762369D01*
X450642Y763309D01*
X451221Y764210D01*
X451863Y765068D01*
X452565Y765878D01*
X453322Y766635D01*
X454132Y767337D01*
X454990Y767979D01*
X455891Y768558D01*
X456831Y769072D01*
X457806Y769517D01*
X458810Y769891D01*
X459838Y770193D01*
X460885Y770421D01*
X461946Y770574D01*
X463014Y770650D01*
X464086Y770650D01*
X465154Y770574D01*
X466215Y770421D01*
X467262Y770193D01*
X468290Y769891D01*
X469294Y769517D01*
X470269Y769072D01*
X471209Y768558D01*
X472110Y767979D01*
X472968Y767337D01*
X473778Y766635D01*
X474535Y765878D01*
X475237Y765068D01*
X475879Y764210D01*
X476458Y763309D01*
X476972Y762369D01*
X477417Y761394D01*
X477791Y760390D01*
X478093Y759362D01*
X478321Y758315D01*
X478474Y757254D01*
X478550Y756186D01*
X478550Y755114D01*
X59450Y590014D02*
X59374Y588946D01*
X59221Y587885D01*
X58993Y586838D01*
X58691Y585810D01*
X58317Y584806D01*
X57872Y583831D01*
X57358Y582891D01*
X56779Y581990D01*
X56137Y581132D01*
X55435Y580322D01*
X54678Y579565D01*
X53868Y578863D01*
X53010Y578221D01*
X52109Y577642D01*
X51169Y577128D01*
X50194Y576683D01*
X49190Y576309D01*
X48162Y576007D01*
X47115Y575779D01*
X46054Y575626D01*
X44986Y575550D01*
X43914Y575550D01*
X42846Y575626D01*
X41785Y575779D01*
X40738Y576007D01*
X39710Y576309D01*
X38706Y576683D01*
X37731Y577128D01*
X36791Y577642D01*
X35890Y578221D01*
X35032Y578863D01*
X34222Y579565D01*
X33465Y580322D01*
X32763Y581132D01*
X32121Y581990D01*
X31542Y582891D01*
X31028Y583831D01*
X30583Y584806D01*
X30209Y585810D01*
X29907Y586838D01*
X29679Y587885D01*
X29526Y588946D01*
X29450Y590014D01*
X29450Y591086D01*
X29526Y592154D01*
X29679Y593215D01*
X29907Y594262D01*
X30209Y595290D01*
X30583Y596294D01*
X31028Y597269D01*
X31542Y598209D01*
X32121Y599110D01*
X32763Y599968D01*
X33465Y600778D01*
X34222Y601535D01*
X35032Y602237D01*
X35890Y602879D01*
X36791Y603458D01*
X37731Y603972D01*
X38706Y604417D01*
X39710Y604791D01*
X40738Y605093D01*
X41785Y605321D01*
X42846Y605474D01*
X43914Y605550D01*
X44986Y605550D01*
X46054Y605474D01*
X47115Y605321D01*
X48162Y605093D01*
X49190Y604791D01*
X50194Y604417D01*
X51169Y603972D01*
X52109Y603458D01*
X53010Y602879D01*
X53868Y602237D01*
X54678Y601535D01*
X55435Y600778D01*
X56137Y599968D01*
X56779Y599110D01*
X57358Y598209D01*
X57872Y597269D01*
X58317Y596294D01*
X58691Y595290D01*
X58993Y594262D01*
X59221Y593215D01*
X59374Y592154D01*
X59450Y591086D01*
X59450Y590014D01*
X59450Y209014D02*
X59374Y207946D01*
X59221Y206885D01*
X58993Y205838D01*
X58691Y204810D01*
X58317Y203806D01*
X57872Y202831D01*
X57358Y201891D01*
X56779Y200990D01*
X56137Y200132D01*
X55435Y199322D01*
X54678Y198565D01*
X53868Y197863D01*
X53010Y197221D01*
X52109Y196642D01*
X51169Y196128D01*
X50194Y195683D01*
X49190Y195309D01*
X48162Y195007D01*
X47115Y194779D01*
X46054Y194626D01*
X44986Y194550D01*
X43914Y194550D01*
X42846Y194626D01*
X41785Y194779D01*
X40738Y195007D01*
X39710Y195309D01*
X38706Y195683D01*
X37731Y196128D01*
X36791Y196642D01*
X35890Y197221D01*
X35032Y197863D01*
X34222Y198565D01*
X33465Y199322D01*
X32763Y200132D01*
X32121Y200990D01*
X31542Y201891D01*
X31028Y202831D01*
X30583Y203806D01*
X30209Y204810D01*
X29907Y205838D01*
X29679Y206885D01*
X29526Y207946D01*
X29450Y209014D01*
X29450Y210086D01*
X29526Y211154D01*
X29679Y212215D01*
X29907Y213262D01*
X30209Y214290D01*
X30583Y215294D01*
X31028Y216269D01*
X31542Y217209D01*
X32121Y218110D01*
X32763Y218968D01*
X33465Y219778D01*
X34222Y220535D01*
X35032Y221237D01*
X35890Y221879D01*
X36791Y222458D01*
X37731Y222972D01*
X38706Y223417D01*
X39710Y223791D01*
X40738Y224093D01*
X41785Y224321D01*
X42846Y224474D01*
X43914Y224550D01*
X44986Y224550D01*
X46054Y224474D01*
X47115Y224321D01*
X48162Y224093D01*
X49190Y223791D01*
X50194Y223417D01*
X51169Y222972D01*
X52109Y222458D01*
X53010Y221879D01*
X53868Y221237D01*
X54678Y220535D01*
X55435Y219778D01*
X56137Y218968D01*
X56779Y218110D01*
X57358Y217209D01*
X57872Y216269D01*
X58317Y215294D01*
X58691Y214290D01*
X58993Y213262D01*
X59221Y212215D01*
X59374Y211154D01*
X59450Y210086D01*
X59450Y209014D01*
X55709Y402775D02*
X56323Y402706D01*
X56925Y402568D01*
X57508Y402364D01*
X58065Y402096D01*
X58588Y401768D01*
X59071Y401383D01*
X59508Y400946D01*
X59893Y400463D01*
X60221Y399940D01*
X60489Y399383D01*
X60693Y398800D01*
X60831Y398198D01*
X60900Y397584D01*
X60900Y396966D01*
X60831Y396352D01*
X60693Y395750D01*
X60489Y395167D01*
X60221Y394610D01*
X59893Y394087D01*
X59508Y393604D01*
X59071Y393168D01*
X58588Y392782D01*
X58065Y392454D01*
X57508Y392186D01*
X56925Y391982D01*
X56323Y391844D01*
X55709Y391775D01*
X55091Y391775D01*
X54477Y391844D01*
X53875Y391982D01*
X53292Y392186D01*
X52735Y392454D01*
X52212Y392782D01*
X51729Y393168D01*
X51293Y393604D01*
X50907Y394087D01*
X50579Y394610D01*
X50311Y395167D01*
X50107Y395750D01*
X49969Y396352D01*
X49900Y396966D01*
X49900Y397584D01*
X49969Y398198D01*
X50107Y398800D01*
X50311Y399383D01*
X50579Y399940D01*
X50907Y400463D01*
X51293Y400946D01*
X51729Y401383D01*
X52212Y401768D01*
X52735Y402096D01*
X53292Y402364D01*
X53875Y402568D01*
X54477Y402706D01*
X55091Y402775D01*
X55709Y402775D01*
X55709Y452775D02*
X56323Y452706D01*
X56925Y452568D01*
X57508Y452364D01*
X58065Y452096D01*
X58588Y451768D01*
X59071Y451383D01*
X59508Y450946D01*
X59893Y450463D01*
X60221Y449940D01*
X60489Y449383D01*
X60693Y448800D01*
X60831Y448198D01*
X60900Y447584D01*
X60900Y446966D01*
X60831Y446352D01*
X60693Y445750D01*
X60489Y445167D01*
X60221Y444610D01*
X59893Y444087D01*
X59508Y443604D01*
X59071Y443168D01*
X58588Y442782D01*
X58065Y442454D01*
X57508Y442186D01*
X56925Y441982D01*
X56323Y441844D01*
X55709Y441775D01*
X55091Y441775D01*
X54477Y441844D01*
X53875Y441982D01*
X53292Y442186D01*
X52735Y442454D01*
X52212Y442782D01*
X51729Y443168D01*
X51293Y443604D01*
X50907Y444087D01*
X50579Y444610D01*
X50311Y445167D01*
X50107Y445750D01*
X49969Y446352D01*
X49900Y446966D01*
X49900Y447584D01*
X49969Y448198D01*
X50107Y448800D01*
X50311Y449383D01*
X50579Y449940D01*
X50907Y450463D01*
X51293Y450946D01*
X51729Y451383D01*
X52212Y451768D01*
X52735Y452096D01*
X53292Y452364D01*
X53875Y452568D01*
X54477Y452706D01*
X55091Y452775D01*
X55709Y452775D01*
M02*
