G04 EAGLE Gerber RS-274X export*
G75*
%MOMM*%
%FSLAX34Y34*%
%LPD*%
%INSilkscreen Top*%
%IPPOS*%
%AMOC8*
5,1,8,0,0,1.08239X$1,22.5*%
G01*
%ADD10C,0.152400*%
%ADD11R,0.635000X2.286000*%
%ADD12C,0.127000*%
%ADD13R,2.540000X0.508000*%
%ADD14R,0.762000X1.905000*%
%ADD15C,0.200000*%
%ADD16C,0.101600*%
%ADD17C,0.254000*%
%ADD18C,0.177800*%
%ADD19R,0.381000X0.508000*%
%ADD20R,0.508000X0.381000*%
%ADD21C,0.203200*%


D10*
X179705Y549275D02*
X177165Y549275D01*
X177165Y560705D01*
X170815Y560705D01*
X170815Y537845D01*
X177165Y537845D01*
X177165Y549275D01*
X161925Y549275D02*
X156845Y549275D01*
X206375Y540385D02*
X206375Y532765D01*
X202565Y536575D02*
X210185Y536575D01*
X117475Y549275D02*
X117490Y550522D01*
X117536Y551768D01*
X117613Y553012D01*
X117720Y554254D01*
X117857Y555493D01*
X118025Y556729D01*
X118223Y557960D01*
X118451Y559186D01*
X118709Y560405D01*
X118997Y561618D01*
X119315Y562824D01*
X119662Y564021D01*
X120039Y565210D01*
X120445Y566389D01*
X120879Y567558D01*
X121342Y568715D01*
X121833Y569861D01*
X122352Y570995D01*
X122899Y572115D01*
X123473Y573222D01*
X124075Y574314D01*
X124702Y575391D01*
X125356Y576453D01*
X126036Y577498D01*
X126742Y578526D01*
X127472Y579537D01*
X128227Y580529D01*
X129006Y581502D01*
X129809Y582456D01*
X130635Y583390D01*
X131483Y584304D01*
X132354Y585196D01*
X133246Y586067D01*
X134160Y586915D01*
X135094Y587741D01*
X136048Y588544D01*
X137021Y589323D01*
X138013Y590078D01*
X139024Y590808D01*
X140052Y591514D01*
X141097Y592194D01*
X142159Y592848D01*
X143236Y593475D01*
X144328Y594077D01*
X145435Y594651D01*
X146555Y595198D01*
X147689Y595717D01*
X148835Y596208D01*
X149992Y596671D01*
X151161Y597105D01*
X152340Y597511D01*
X153529Y597888D01*
X154726Y598235D01*
X155932Y598553D01*
X157145Y598841D01*
X158364Y599099D01*
X159590Y599327D01*
X160821Y599525D01*
X162057Y599693D01*
X163296Y599830D01*
X164538Y599937D01*
X165782Y600014D01*
X167028Y600060D01*
X168275Y600075D01*
X169522Y600060D01*
X170768Y600014D01*
X172012Y599937D01*
X173254Y599830D01*
X174493Y599693D01*
X175729Y599525D01*
X176960Y599327D01*
X178186Y599099D01*
X179405Y598841D01*
X180618Y598553D01*
X181824Y598235D01*
X183021Y597888D01*
X184210Y597511D01*
X185389Y597105D01*
X186558Y596671D01*
X187715Y596208D01*
X188861Y595717D01*
X189995Y595198D01*
X191115Y594651D01*
X192222Y594077D01*
X193314Y593475D01*
X194391Y592848D01*
X195453Y592194D01*
X196498Y591514D01*
X197526Y590808D01*
X198537Y590078D01*
X199529Y589323D01*
X200502Y588544D01*
X201456Y587741D01*
X202390Y586915D01*
X203304Y586067D01*
X204196Y585196D01*
X205067Y584304D01*
X205915Y583390D01*
X206741Y582456D01*
X207544Y581502D01*
X208323Y580529D01*
X209078Y579537D01*
X209808Y578526D01*
X210514Y577498D01*
X211194Y576453D01*
X211848Y575391D01*
X212475Y574314D01*
X213077Y573222D01*
X213651Y572115D01*
X214198Y570995D01*
X214717Y569861D01*
X215208Y568715D01*
X215671Y567558D01*
X216105Y566389D01*
X216511Y565210D01*
X216888Y564021D01*
X217235Y562824D01*
X217553Y561618D01*
X217841Y560405D01*
X218099Y559186D01*
X218327Y557960D01*
X218525Y556729D01*
X218693Y555493D01*
X218830Y554254D01*
X218937Y553012D01*
X219014Y551768D01*
X219060Y550522D01*
X219075Y549275D01*
X219060Y548028D01*
X219014Y546782D01*
X218937Y545538D01*
X218830Y544296D01*
X218693Y543057D01*
X218525Y541821D01*
X218327Y540590D01*
X218099Y539364D01*
X217841Y538145D01*
X217553Y536932D01*
X217235Y535726D01*
X216888Y534529D01*
X216511Y533340D01*
X216105Y532161D01*
X215671Y530992D01*
X215208Y529835D01*
X214717Y528689D01*
X214198Y527555D01*
X213651Y526435D01*
X213077Y525328D01*
X212475Y524236D01*
X211848Y523159D01*
X211194Y522097D01*
X210514Y521052D01*
X209808Y520024D01*
X209078Y519013D01*
X208323Y518021D01*
X207544Y517048D01*
X206741Y516094D01*
X205915Y515160D01*
X205067Y514246D01*
X204196Y513354D01*
X203304Y512483D01*
X202390Y511635D01*
X201456Y510809D01*
X200502Y510006D01*
X199529Y509227D01*
X198537Y508472D01*
X197526Y507742D01*
X196498Y507036D01*
X195453Y506356D01*
X194391Y505702D01*
X193314Y505075D01*
X192222Y504473D01*
X191115Y503899D01*
X189995Y503352D01*
X188861Y502833D01*
X187715Y502342D01*
X186558Y501879D01*
X185389Y501445D01*
X184210Y501039D01*
X183021Y500662D01*
X181824Y500315D01*
X180618Y499997D01*
X179405Y499709D01*
X178186Y499451D01*
X176960Y499223D01*
X175729Y499025D01*
X174493Y498857D01*
X173254Y498720D01*
X172012Y498613D01*
X170768Y498536D01*
X169522Y498490D01*
X168275Y498475D01*
X167028Y498490D01*
X165782Y498536D01*
X164538Y498613D01*
X163296Y498720D01*
X162057Y498857D01*
X160821Y499025D01*
X159590Y499223D01*
X158364Y499451D01*
X157145Y499709D01*
X155932Y499997D01*
X154726Y500315D01*
X153529Y500662D01*
X152340Y501039D01*
X151161Y501445D01*
X149992Y501879D01*
X148835Y502342D01*
X147689Y502833D01*
X146555Y503352D01*
X145435Y503899D01*
X144328Y504473D01*
X143236Y505075D01*
X142159Y505702D01*
X141097Y506356D01*
X140052Y507036D01*
X139024Y507742D01*
X138013Y508472D01*
X137021Y509227D01*
X136048Y510006D01*
X135094Y510809D01*
X134160Y511635D01*
X133246Y512483D01*
X132354Y513354D01*
X131483Y514246D01*
X130635Y515160D01*
X129809Y516094D01*
X129006Y517048D01*
X128227Y518021D01*
X127472Y519013D01*
X126742Y520024D01*
X126036Y521052D01*
X125356Y522097D01*
X124702Y523159D01*
X124075Y524236D01*
X123473Y525328D01*
X122899Y526435D01*
X122352Y527555D01*
X121833Y528689D01*
X121342Y529835D01*
X120879Y530992D01*
X120445Y532161D01*
X120039Y533340D01*
X119662Y534529D01*
X119315Y535726D01*
X118997Y536932D01*
X118709Y538145D01*
X118451Y539364D01*
X118223Y540590D01*
X118025Y541821D01*
X117857Y543057D01*
X117720Y544296D01*
X117613Y545538D01*
X117536Y546782D01*
X117490Y548028D01*
X117475Y549275D01*
D11*
X162560Y549275D03*
D12*
X208878Y592328D02*
X211418Y592328D01*
X208878Y592328D02*
X208778Y592330D01*
X208679Y592336D01*
X208579Y592346D01*
X208481Y592359D01*
X208382Y592377D01*
X208285Y592398D01*
X208189Y592423D01*
X208093Y592452D01*
X207999Y592485D01*
X207906Y592521D01*
X207815Y592561D01*
X207725Y592605D01*
X207637Y592652D01*
X207551Y592702D01*
X207467Y592756D01*
X207385Y592813D01*
X207306Y592873D01*
X207228Y592937D01*
X207154Y593003D01*
X207082Y593072D01*
X207013Y593144D01*
X206947Y593218D01*
X206883Y593296D01*
X206823Y593375D01*
X206766Y593457D01*
X206712Y593541D01*
X206662Y593627D01*
X206615Y593715D01*
X206571Y593805D01*
X206531Y593896D01*
X206495Y593989D01*
X206462Y594083D01*
X206433Y594179D01*
X206408Y594275D01*
X206387Y594372D01*
X206369Y594471D01*
X206356Y594569D01*
X206346Y594669D01*
X206340Y594768D01*
X206338Y594868D01*
X206338Y601218D01*
X206340Y601318D01*
X206346Y601417D01*
X206356Y601517D01*
X206369Y601615D01*
X206387Y601714D01*
X206408Y601811D01*
X206433Y601907D01*
X206462Y602003D01*
X206495Y602097D01*
X206531Y602190D01*
X206571Y602281D01*
X206615Y602371D01*
X206662Y602459D01*
X206712Y602545D01*
X206766Y602629D01*
X206823Y602711D01*
X206883Y602790D01*
X206947Y602868D01*
X207013Y602942D01*
X207082Y603014D01*
X207154Y603083D01*
X207228Y603149D01*
X207306Y603213D01*
X207385Y603273D01*
X207467Y603330D01*
X207551Y603384D01*
X207637Y603434D01*
X207725Y603481D01*
X207815Y603525D01*
X207906Y603565D01*
X207999Y603601D01*
X208093Y603634D01*
X208189Y603663D01*
X208285Y603688D01*
X208382Y603709D01*
X208481Y603727D01*
X208579Y603740D01*
X208679Y603750D01*
X208778Y603756D01*
X208878Y603758D01*
X211418Y603758D01*
X218440Y603758D02*
X215900Y594868D01*
X222250Y594868D01*
X220345Y597408D02*
X220345Y592328D01*
D10*
X273050Y697230D02*
X273050Y737870D01*
X247650Y737870D01*
X247650Y697230D01*
X273050Y697230D01*
X260350Y711200D02*
X260350Y717550D01*
X254000Y727710D02*
X266700Y727710D01*
X260350Y717550D01*
X260350Y732790D01*
X254000Y727710D02*
X260350Y717550D01*
X254000Y717550D01*
X260350Y717550D02*
X266700Y717550D01*
D13*
X260350Y703580D03*
D14*
X260350Y747395D03*
X260350Y687705D03*
D12*
X243205Y697865D02*
X231775Y697865D01*
X231775Y701040D01*
X231777Y701151D01*
X231783Y701261D01*
X231792Y701372D01*
X231806Y701482D01*
X231823Y701591D01*
X231844Y701700D01*
X231869Y701808D01*
X231898Y701915D01*
X231930Y702021D01*
X231966Y702126D01*
X232006Y702229D01*
X232049Y702331D01*
X232096Y702432D01*
X232147Y702531D01*
X232200Y702628D01*
X232257Y702722D01*
X232318Y702815D01*
X232381Y702906D01*
X232448Y702995D01*
X232518Y703081D01*
X232591Y703164D01*
X232666Y703246D01*
X232744Y703324D01*
X232826Y703399D01*
X232909Y703472D01*
X232995Y703542D01*
X233084Y703609D01*
X233175Y703672D01*
X233268Y703733D01*
X233363Y703790D01*
X233459Y703843D01*
X233558Y703894D01*
X233659Y703941D01*
X233761Y703984D01*
X233864Y704024D01*
X233969Y704060D01*
X234075Y704092D01*
X234182Y704121D01*
X234290Y704146D01*
X234399Y704167D01*
X234508Y704184D01*
X234618Y704198D01*
X234729Y704207D01*
X234839Y704213D01*
X234950Y704215D01*
X240030Y704215D01*
X240141Y704213D01*
X240251Y704207D01*
X240362Y704198D01*
X240472Y704184D01*
X240581Y704167D01*
X240690Y704146D01*
X240798Y704121D01*
X240905Y704092D01*
X241011Y704060D01*
X241116Y704024D01*
X241219Y703984D01*
X241321Y703941D01*
X241422Y703894D01*
X241521Y703843D01*
X241618Y703790D01*
X241712Y703733D01*
X241805Y703672D01*
X241896Y703609D01*
X241985Y703542D01*
X242071Y703472D01*
X242154Y703399D01*
X242236Y703324D01*
X242314Y703246D01*
X242389Y703164D01*
X242462Y703081D01*
X242532Y702995D01*
X242599Y702906D01*
X242662Y702815D01*
X242723Y702722D01*
X242780Y702628D01*
X242833Y702531D01*
X242884Y702432D01*
X242931Y702331D01*
X242974Y702229D01*
X243014Y702126D01*
X243050Y702021D01*
X243082Y701915D01*
X243111Y701808D01*
X243136Y701700D01*
X243157Y701591D01*
X243174Y701482D01*
X243188Y701372D01*
X243197Y701261D01*
X243203Y701151D01*
X243205Y701040D01*
X243205Y697865D01*
X234315Y709676D02*
X231775Y712851D01*
X243205Y712851D01*
X243205Y709676D02*
X243205Y716026D01*
X209950Y151550D02*
X4950Y151550D01*
X4950Y13550D01*
X209950Y13550D01*
D15*
X142950Y7550D02*
X142952Y7613D01*
X142958Y7675D01*
X142968Y7737D01*
X142981Y7799D01*
X142999Y7859D01*
X143020Y7918D01*
X143045Y7976D01*
X143074Y8032D01*
X143106Y8086D01*
X143141Y8138D01*
X143179Y8187D01*
X143221Y8235D01*
X143265Y8279D01*
X143313Y8321D01*
X143362Y8359D01*
X143414Y8394D01*
X143468Y8426D01*
X143524Y8455D01*
X143582Y8480D01*
X143641Y8501D01*
X143701Y8519D01*
X143763Y8532D01*
X143825Y8542D01*
X143887Y8548D01*
X143950Y8550D01*
X144013Y8548D01*
X144075Y8542D01*
X144137Y8532D01*
X144199Y8519D01*
X144259Y8501D01*
X144318Y8480D01*
X144376Y8455D01*
X144432Y8426D01*
X144486Y8394D01*
X144538Y8359D01*
X144587Y8321D01*
X144635Y8279D01*
X144679Y8235D01*
X144721Y8187D01*
X144759Y8138D01*
X144794Y8086D01*
X144826Y8032D01*
X144855Y7976D01*
X144880Y7918D01*
X144901Y7859D01*
X144919Y7799D01*
X144932Y7737D01*
X144942Y7675D01*
X144948Y7613D01*
X144950Y7550D01*
X144948Y7487D01*
X144942Y7425D01*
X144932Y7363D01*
X144919Y7301D01*
X144901Y7241D01*
X144880Y7182D01*
X144855Y7124D01*
X144826Y7068D01*
X144794Y7014D01*
X144759Y6962D01*
X144721Y6913D01*
X144679Y6865D01*
X144635Y6821D01*
X144587Y6779D01*
X144538Y6741D01*
X144486Y6706D01*
X144432Y6674D01*
X144376Y6645D01*
X144318Y6620D01*
X144259Y6599D01*
X144199Y6581D01*
X144137Y6568D01*
X144075Y6558D01*
X144013Y6552D01*
X143950Y6550D01*
X143887Y6552D01*
X143825Y6558D01*
X143763Y6568D01*
X143701Y6581D01*
X143641Y6599D01*
X143582Y6620D01*
X143524Y6645D01*
X143468Y6674D01*
X143414Y6706D01*
X143362Y6741D01*
X143313Y6779D01*
X143265Y6821D01*
X143221Y6865D01*
X143179Y6913D01*
X143141Y6962D01*
X143106Y7014D01*
X143074Y7068D01*
X143045Y7124D01*
X143020Y7182D01*
X142999Y7241D01*
X142981Y7301D01*
X142968Y7363D01*
X142958Y7425D01*
X142952Y7487D01*
X142950Y7550D01*
D16*
X220961Y139278D02*
X230049Y139278D01*
X230049Y139277D02*
X230148Y139275D01*
X230248Y139269D01*
X230347Y139260D01*
X230445Y139247D01*
X230543Y139230D01*
X230641Y139209D01*
X230737Y139184D01*
X230832Y139156D01*
X230926Y139124D01*
X231019Y139089D01*
X231111Y139050D01*
X231201Y139007D01*
X231289Y138962D01*
X231376Y138912D01*
X231460Y138860D01*
X231543Y138804D01*
X231623Y138746D01*
X231701Y138684D01*
X231776Y138619D01*
X231849Y138551D01*
X231919Y138481D01*
X231987Y138408D01*
X232052Y138333D01*
X232114Y138255D01*
X232172Y138175D01*
X232228Y138092D01*
X232280Y138008D01*
X232330Y137921D01*
X232375Y137833D01*
X232418Y137743D01*
X232457Y137651D01*
X232492Y137558D01*
X232524Y137464D01*
X232552Y137369D01*
X232577Y137273D01*
X232598Y137175D01*
X232615Y137077D01*
X232628Y136979D01*
X232637Y136880D01*
X232643Y136780D01*
X232645Y136681D01*
X232645Y135383D01*
X223557Y144551D02*
X220961Y147796D01*
X232645Y147796D01*
X232645Y144551D02*
X232645Y151042D01*
D12*
X209950Y786550D02*
X4950Y786550D01*
X4950Y648550D01*
X209950Y648550D01*
D15*
X142950Y642550D02*
X142952Y642613D01*
X142958Y642675D01*
X142968Y642737D01*
X142981Y642799D01*
X142999Y642859D01*
X143020Y642918D01*
X143045Y642976D01*
X143074Y643032D01*
X143106Y643086D01*
X143141Y643138D01*
X143179Y643187D01*
X143221Y643235D01*
X143265Y643279D01*
X143313Y643321D01*
X143362Y643359D01*
X143414Y643394D01*
X143468Y643426D01*
X143524Y643455D01*
X143582Y643480D01*
X143641Y643501D01*
X143701Y643519D01*
X143763Y643532D01*
X143825Y643542D01*
X143887Y643548D01*
X143950Y643550D01*
X144013Y643548D01*
X144075Y643542D01*
X144137Y643532D01*
X144199Y643519D01*
X144259Y643501D01*
X144318Y643480D01*
X144376Y643455D01*
X144432Y643426D01*
X144486Y643394D01*
X144538Y643359D01*
X144587Y643321D01*
X144635Y643279D01*
X144679Y643235D01*
X144721Y643187D01*
X144759Y643138D01*
X144794Y643086D01*
X144826Y643032D01*
X144855Y642976D01*
X144880Y642918D01*
X144901Y642859D01*
X144919Y642799D01*
X144932Y642737D01*
X144942Y642675D01*
X144948Y642613D01*
X144950Y642550D01*
X144948Y642487D01*
X144942Y642425D01*
X144932Y642363D01*
X144919Y642301D01*
X144901Y642241D01*
X144880Y642182D01*
X144855Y642124D01*
X144826Y642068D01*
X144794Y642014D01*
X144759Y641962D01*
X144721Y641913D01*
X144679Y641865D01*
X144635Y641821D01*
X144587Y641779D01*
X144538Y641741D01*
X144486Y641706D01*
X144432Y641674D01*
X144376Y641645D01*
X144318Y641620D01*
X144259Y641599D01*
X144199Y641581D01*
X144137Y641568D01*
X144075Y641558D01*
X144013Y641552D01*
X143950Y641550D01*
X143887Y641552D01*
X143825Y641558D01*
X143763Y641568D01*
X143701Y641581D01*
X143641Y641599D01*
X143582Y641620D01*
X143524Y641645D01*
X143468Y641674D01*
X143414Y641706D01*
X143362Y641741D01*
X143313Y641779D01*
X143265Y641821D01*
X143221Y641865D01*
X143179Y641913D01*
X143141Y641962D01*
X143106Y642014D01*
X143074Y642068D01*
X143045Y642124D01*
X143020Y642182D01*
X142999Y642241D01*
X142981Y642301D01*
X142968Y642363D01*
X142958Y642425D01*
X142952Y642487D01*
X142950Y642550D01*
D16*
X217786Y774278D02*
X226874Y774278D01*
X226874Y774277D02*
X226973Y774275D01*
X227073Y774269D01*
X227172Y774260D01*
X227270Y774247D01*
X227368Y774230D01*
X227466Y774209D01*
X227562Y774184D01*
X227657Y774156D01*
X227751Y774124D01*
X227844Y774089D01*
X227936Y774050D01*
X228026Y774007D01*
X228114Y773962D01*
X228201Y773912D01*
X228285Y773860D01*
X228368Y773804D01*
X228448Y773746D01*
X228526Y773684D01*
X228601Y773619D01*
X228674Y773551D01*
X228744Y773481D01*
X228812Y773408D01*
X228877Y773333D01*
X228939Y773255D01*
X228997Y773175D01*
X229053Y773092D01*
X229105Y773008D01*
X229155Y772921D01*
X229200Y772833D01*
X229243Y772743D01*
X229282Y772651D01*
X229317Y772558D01*
X229349Y772464D01*
X229377Y772369D01*
X229402Y772273D01*
X229423Y772175D01*
X229440Y772077D01*
X229453Y771979D01*
X229462Y771880D01*
X229468Y771780D01*
X229470Y771681D01*
X229470Y770383D01*
X217786Y783121D02*
X217788Y783228D01*
X217794Y783334D01*
X217804Y783440D01*
X217817Y783546D01*
X217835Y783652D01*
X217856Y783756D01*
X217881Y783860D01*
X217910Y783963D01*
X217942Y784064D01*
X217979Y784164D01*
X218019Y784263D01*
X218062Y784361D01*
X218109Y784457D01*
X218160Y784551D01*
X218214Y784643D01*
X218271Y784733D01*
X218331Y784821D01*
X218395Y784906D01*
X218462Y784989D01*
X218532Y785070D01*
X218604Y785148D01*
X218680Y785224D01*
X218758Y785296D01*
X218839Y785366D01*
X218922Y785433D01*
X219007Y785497D01*
X219095Y785557D01*
X219185Y785614D01*
X219277Y785668D01*
X219371Y785719D01*
X219467Y785766D01*
X219565Y785809D01*
X219664Y785849D01*
X219764Y785886D01*
X219865Y785918D01*
X219968Y785947D01*
X220072Y785972D01*
X220176Y785993D01*
X220282Y786011D01*
X220388Y786024D01*
X220494Y786034D01*
X220600Y786040D01*
X220707Y786042D01*
X217786Y783121D02*
X217788Y783000D01*
X217794Y782879D01*
X217804Y782759D01*
X217817Y782638D01*
X217835Y782519D01*
X217856Y782399D01*
X217881Y782281D01*
X217910Y782164D01*
X217943Y782047D01*
X217979Y781932D01*
X218020Y781818D01*
X218063Y781705D01*
X218111Y781593D01*
X218162Y781484D01*
X218217Y781376D01*
X218275Y781269D01*
X218336Y781165D01*
X218401Y781063D01*
X218469Y780963D01*
X218540Y780865D01*
X218614Y780769D01*
X218691Y780676D01*
X218772Y780586D01*
X218855Y780498D01*
X218941Y780413D01*
X219030Y780330D01*
X219121Y780251D01*
X219215Y780174D01*
X219311Y780101D01*
X219409Y780031D01*
X219510Y779964D01*
X219613Y779900D01*
X219718Y779840D01*
X219825Y779782D01*
X219933Y779729D01*
X220043Y779679D01*
X220155Y779633D01*
X220268Y779590D01*
X220383Y779551D01*
X222979Y785068D02*
X222901Y785147D01*
X222821Y785223D01*
X222738Y785296D01*
X222652Y785366D01*
X222565Y785433D01*
X222474Y785497D01*
X222382Y785557D01*
X222288Y785615D01*
X222191Y785669D01*
X222093Y785719D01*
X221993Y785766D01*
X221892Y785810D01*
X221789Y785850D01*
X221684Y785886D01*
X221579Y785918D01*
X221472Y785947D01*
X221365Y785972D01*
X221256Y785994D01*
X221147Y786011D01*
X221038Y786025D01*
X220928Y786034D01*
X220817Y786040D01*
X220707Y786042D01*
X222979Y785068D02*
X229470Y779551D01*
X229470Y786042D01*
D17*
X374650Y474345D02*
X374668Y474146D01*
X374691Y473947D01*
X374718Y473749D01*
X374750Y473551D01*
X374787Y473355D01*
X374829Y473159D01*
X374875Y472964D01*
X374926Y472771D01*
X374982Y472579D01*
X375042Y472388D01*
X375107Y472199D01*
X375177Y472011D01*
X375251Y471825D01*
X375329Y471641D01*
X375412Y471459D01*
X375499Y471279D01*
X375591Y471101D01*
X375687Y470926D01*
X375787Y470752D01*
X375891Y470582D01*
X375999Y470413D01*
X376112Y470248D01*
X376228Y470085D01*
X376348Y469925D01*
X376472Y469768D01*
X376600Y469614D01*
X376732Y469464D01*
X376867Y469316D01*
X377005Y469172D01*
X377147Y469031D01*
X377293Y468894D01*
X377442Y468760D01*
X377593Y468629D01*
X377748Y468503D01*
X377906Y468380D01*
X378067Y468261D01*
X378231Y468146D01*
X378398Y468036D01*
X378567Y467929D01*
X378738Y467826D01*
X378913Y467727D01*
X379089Y467633D01*
X379268Y467543D01*
X379448Y467457D01*
X379631Y467376D01*
X379816Y467299D01*
X380002Y467227D01*
X380191Y467159D01*
X380380Y467095D01*
X380572Y467037D01*
X380764Y466983D01*
X380958Y466933D01*
X381153Y466888D01*
X381349Y466849D01*
X381546Y466813D01*
X381744Y466783D01*
X381942Y466757D01*
X382141Y466736D01*
X382341Y466720D01*
X382540Y466709D01*
X382740Y466703D01*
X382940Y466701D01*
X383140Y466704D01*
X383340Y466712D01*
X383540Y466725D01*
X374650Y474345D02*
X374650Y560705D01*
X374652Y560889D01*
X374659Y561073D01*
X374670Y561257D01*
X374686Y561440D01*
X374706Y561623D01*
X374730Y561806D01*
X374759Y561988D01*
X374792Y562169D01*
X374830Y562349D01*
X374871Y562529D01*
X374918Y562707D01*
X374968Y562884D01*
X375023Y563060D01*
X375082Y563234D01*
X375145Y563407D01*
X375213Y563578D01*
X375284Y563748D01*
X375360Y563916D01*
X375439Y564082D01*
X375523Y564246D01*
X375610Y564408D01*
X375702Y564568D01*
X375797Y564726D01*
X375896Y564881D01*
X375999Y565034D01*
X376105Y565184D01*
X376215Y565332D01*
X376329Y565477D01*
X376446Y565619D01*
X376566Y565758D01*
X376690Y565894D01*
X376817Y566028D01*
X376947Y566158D01*
X377081Y566285D01*
X377217Y566409D01*
X377356Y566529D01*
X377498Y566646D01*
X377643Y566760D01*
X377791Y566870D01*
X377941Y566976D01*
X378094Y567079D01*
X378249Y567178D01*
X378407Y567273D01*
X378567Y567365D01*
X378729Y567452D01*
X378893Y567536D01*
X379059Y567615D01*
X379227Y567691D01*
X379397Y567762D01*
X379568Y567830D01*
X379741Y567893D01*
X379915Y567952D01*
X380091Y568007D01*
X380268Y568057D01*
X380446Y568104D01*
X380626Y568145D01*
X380806Y568183D01*
X380987Y568216D01*
X381169Y568245D01*
X381352Y568269D01*
X381535Y568289D01*
X381718Y568305D01*
X381902Y568316D01*
X382086Y568323D01*
X382270Y568325D01*
X412750Y568325D01*
X419100Y568325D01*
X419100Y466725D02*
X412750Y466725D01*
X383540Y466725D01*
X412750Y466725D02*
X412750Y568325D01*
X419100Y568325D02*
X419100Y466725D01*
D18*
X487941Y438600D02*
X503948Y438600D01*
X487941Y438600D02*
X487941Y443047D01*
X487942Y443047D02*
X487944Y443179D01*
X487950Y443310D01*
X487960Y443442D01*
X487973Y443573D01*
X487991Y443703D01*
X488012Y443833D01*
X488037Y443963D01*
X488066Y444091D01*
X488099Y444219D01*
X488136Y444345D01*
X488176Y444471D01*
X488220Y444595D01*
X488268Y444718D01*
X488319Y444839D01*
X488374Y444959D01*
X488433Y445077D01*
X488494Y445193D01*
X488560Y445308D01*
X488628Y445420D01*
X488700Y445531D01*
X488776Y445639D01*
X488854Y445745D01*
X488936Y445848D01*
X489020Y445949D01*
X489108Y446048D01*
X489198Y446144D01*
X489291Y446237D01*
X489387Y446327D01*
X489486Y446415D01*
X489587Y446499D01*
X489690Y446581D01*
X489796Y446659D01*
X489904Y446735D01*
X490015Y446807D01*
X490127Y446875D01*
X490242Y446941D01*
X490358Y447002D01*
X490476Y447061D01*
X490596Y447116D01*
X490717Y447167D01*
X490840Y447215D01*
X490964Y447259D01*
X491090Y447299D01*
X491216Y447336D01*
X491344Y447369D01*
X491472Y447398D01*
X491602Y447423D01*
X491732Y447444D01*
X491862Y447462D01*
X491993Y447475D01*
X492125Y447485D01*
X492256Y447491D01*
X492388Y447493D01*
X492520Y447491D01*
X492651Y447485D01*
X492783Y447475D01*
X492914Y447462D01*
X493044Y447444D01*
X493174Y447423D01*
X493304Y447398D01*
X493432Y447369D01*
X493560Y447336D01*
X493686Y447299D01*
X493812Y447259D01*
X493936Y447215D01*
X494059Y447167D01*
X494180Y447116D01*
X494300Y447061D01*
X494418Y447002D01*
X494534Y446941D01*
X494649Y446875D01*
X494761Y446807D01*
X494872Y446735D01*
X494980Y446659D01*
X495086Y446581D01*
X495189Y446499D01*
X495290Y446415D01*
X495389Y446327D01*
X495485Y446237D01*
X495578Y446144D01*
X495668Y446048D01*
X495756Y445949D01*
X495840Y445848D01*
X495922Y445745D01*
X496000Y445639D01*
X496076Y445531D01*
X496148Y445420D01*
X496216Y445308D01*
X496282Y445193D01*
X496343Y445077D01*
X496402Y444959D01*
X496457Y444839D01*
X496508Y444718D01*
X496556Y444595D01*
X496600Y444471D01*
X496640Y444345D01*
X496677Y444219D01*
X496710Y444091D01*
X496739Y443963D01*
X496764Y443833D01*
X496785Y443703D01*
X496803Y443573D01*
X496816Y443442D01*
X496826Y443310D01*
X496832Y443179D01*
X496834Y443047D01*
X496834Y438600D01*
X499502Y453482D02*
X492388Y453482D01*
X492256Y453484D01*
X492125Y453490D01*
X491993Y453500D01*
X491862Y453513D01*
X491732Y453531D01*
X491602Y453552D01*
X491472Y453577D01*
X491344Y453606D01*
X491216Y453639D01*
X491090Y453676D01*
X490964Y453716D01*
X490840Y453760D01*
X490717Y453808D01*
X490596Y453859D01*
X490476Y453914D01*
X490358Y453973D01*
X490242Y454034D01*
X490127Y454100D01*
X490015Y454168D01*
X489904Y454240D01*
X489796Y454316D01*
X489690Y454394D01*
X489587Y454476D01*
X489486Y454560D01*
X489387Y454648D01*
X489291Y454738D01*
X489198Y454831D01*
X489108Y454927D01*
X489020Y455026D01*
X488936Y455127D01*
X488854Y455230D01*
X488776Y455336D01*
X488700Y455444D01*
X488628Y455555D01*
X488560Y455667D01*
X488494Y455782D01*
X488433Y455898D01*
X488374Y456016D01*
X488319Y456136D01*
X488268Y456257D01*
X488220Y456380D01*
X488176Y456504D01*
X488136Y456630D01*
X488099Y456756D01*
X488066Y456884D01*
X488037Y457012D01*
X488012Y457142D01*
X487991Y457272D01*
X487973Y457402D01*
X487960Y457533D01*
X487950Y457665D01*
X487944Y457796D01*
X487942Y457928D01*
X487944Y458060D01*
X487950Y458191D01*
X487960Y458323D01*
X487973Y458454D01*
X487991Y458584D01*
X488012Y458714D01*
X488037Y458844D01*
X488066Y458972D01*
X488099Y459100D01*
X488136Y459226D01*
X488176Y459352D01*
X488220Y459476D01*
X488268Y459599D01*
X488319Y459720D01*
X488374Y459840D01*
X488433Y459958D01*
X488494Y460074D01*
X488560Y460189D01*
X488628Y460301D01*
X488700Y460412D01*
X488776Y460520D01*
X488854Y460626D01*
X488936Y460729D01*
X489020Y460830D01*
X489108Y460929D01*
X489198Y461025D01*
X489291Y461118D01*
X489387Y461208D01*
X489486Y461296D01*
X489587Y461380D01*
X489690Y461462D01*
X489796Y461540D01*
X489904Y461616D01*
X490015Y461688D01*
X490127Y461756D01*
X490242Y461822D01*
X490358Y461883D01*
X490476Y461942D01*
X490596Y461997D01*
X490717Y462048D01*
X490840Y462096D01*
X490964Y462140D01*
X491090Y462180D01*
X491216Y462217D01*
X491344Y462250D01*
X491472Y462279D01*
X491602Y462304D01*
X491732Y462325D01*
X491862Y462343D01*
X491993Y462356D01*
X492125Y462366D01*
X492256Y462372D01*
X492388Y462374D01*
X499502Y462374D01*
X499634Y462372D01*
X499765Y462366D01*
X499897Y462356D01*
X500028Y462343D01*
X500158Y462325D01*
X500288Y462304D01*
X500418Y462279D01*
X500546Y462250D01*
X500674Y462217D01*
X500800Y462180D01*
X500926Y462140D01*
X501050Y462096D01*
X501173Y462048D01*
X501294Y461997D01*
X501414Y461942D01*
X501532Y461883D01*
X501648Y461822D01*
X501763Y461756D01*
X501875Y461688D01*
X501986Y461616D01*
X502094Y461540D01*
X502200Y461462D01*
X502303Y461380D01*
X502404Y461296D01*
X502503Y461208D01*
X502599Y461118D01*
X502692Y461025D01*
X502782Y460929D01*
X502870Y460830D01*
X502954Y460729D01*
X503036Y460626D01*
X503114Y460520D01*
X503190Y460412D01*
X503262Y460301D01*
X503330Y460189D01*
X503396Y460074D01*
X503457Y459958D01*
X503516Y459840D01*
X503571Y459720D01*
X503622Y459599D01*
X503670Y459476D01*
X503714Y459352D01*
X503754Y459226D01*
X503791Y459100D01*
X503824Y458972D01*
X503853Y458844D01*
X503878Y458714D01*
X503899Y458584D01*
X503917Y458454D01*
X503930Y458323D01*
X503940Y458191D01*
X503946Y458060D01*
X503948Y457928D01*
X503946Y457796D01*
X503940Y457665D01*
X503930Y457533D01*
X503917Y457402D01*
X503899Y457272D01*
X503878Y457142D01*
X503853Y457012D01*
X503824Y456884D01*
X503791Y456756D01*
X503754Y456630D01*
X503714Y456504D01*
X503670Y456380D01*
X503622Y456257D01*
X503571Y456136D01*
X503516Y456016D01*
X503457Y455898D01*
X503396Y455782D01*
X503330Y455667D01*
X503262Y455555D01*
X503190Y455444D01*
X503114Y455336D01*
X503036Y455230D01*
X502954Y455127D01*
X502870Y455026D01*
X502782Y454927D01*
X502692Y454831D01*
X502599Y454738D01*
X502503Y454648D01*
X502404Y454560D01*
X502303Y454476D01*
X502200Y454394D01*
X502094Y454316D01*
X501986Y454240D01*
X501875Y454168D01*
X501763Y454100D01*
X501648Y454034D01*
X501532Y453973D01*
X501414Y453914D01*
X501294Y453859D01*
X501173Y453808D01*
X501050Y453760D01*
X500926Y453716D01*
X500800Y453676D01*
X500674Y453639D01*
X500546Y453606D01*
X500418Y453577D01*
X500288Y453552D01*
X500158Y453531D01*
X500028Y453513D01*
X499897Y453500D01*
X499765Y453490D01*
X499634Y453484D01*
X499502Y453482D01*
X487941Y468533D02*
X503948Y472090D01*
X493277Y475647D01*
X503948Y479205D01*
X487941Y482762D01*
X503948Y489475D02*
X503948Y496589D01*
X503948Y489475D02*
X487941Y489475D01*
X487941Y496589D01*
X495055Y494810D02*
X495055Y489475D01*
X487941Y503093D02*
X503948Y503093D01*
X487941Y503093D02*
X487941Y507539D01*
X487942Y507539D02*
X487944Y507671D01*
X487950Y507802D01*
X487960Y507934D01*
X487973Y508065D01*
X487991Y508195D01*
X488012Y508325D01*
X488037Y508455D01*
X488066Y508583D01*
X488099Y508711D01*
X488136Y508837D01*
X488176Y508963D01*
X488220Y509087D01*
X488268Y509210D01*
X488319Y509331D01*
X488374Y509451D01*
X488433Y509569D01*
X488494Y509685D01*
X488560Y509800D01*
X488628Y509912D01*
X488700Y510023D01*
X488776Y510131D01*
X488854Y510237D01*
X488936Y510340D01*
X489020Y510441D01*
X489108Y510540D01*
X489198Y510636D01*
X489291Y510729D01*
X489387Y510819D01*
X489486Y510907D01*
X489587Y510991D01*
X489690Y511073D01*
X489796Y511151D01*
X489904Y511227D01*
X490015Y511299D01*
X490127Y511367D01*
X490242Y511433D01*
X490358Y511494D01*
X490476Y511553D01*
X490596Y511608D01*
X490717Y511659D01*
X490840Y511707D01*
X490964Y511751D01*
X491090Y511791D01*
X491216Y511828D01*
X491344Y511861D01*
X491472Y511890D01*
X491602Y511915D01*
X491732Y511936D01*
X491862Y511954D01*
X491993Y511967D01*
X492125Y511977D01*
X492256Y511983D01*
X492388Y511985D01*
X492520Y511983D01*
X492651Y511977D01*
X492783Y511967D01*
X492914Y511954D01*
X493044Y511936D01*
X493174Y511915D01*
X493304Y511890D01*
X493432Y511861D01*
X493560Y511828D01*
X493686Y511791D01*
X493812Y511751D01*
X493936Y511707D01*
X494059Y511659D01*
X494180Y511608D01*
X494300Y511553D01*
X494418Y511494D01*
X494534Y511433D01*
X494649Y511367D01*
X494761Y511299D01*
X494872Y511227D01*
X494980Y511151D01*
X495086Y511073D01*
X495189Y510991D01*
X495290Y510907D01*
X495389Y510819D01*
X495485Y510729D01*
X495578Y510636D01*
X495668Y510540D01*
X495756Y510441D01*
X495840Y510340D01*
X495922Y510237D01*
X496000Y510131D01*
X496076Y510023D01*
X496148Y509912D01*
X496216Y509800D01*
X496282Y509685D01*
X496343Y509569D01*
X496402Y509451D01*
X496457Y509331D01*
X496508Y509210D01*
X496556Y509087D01*
X496600Y508963D01*
X496640Y508837D01*
X496677Y508711D01*
X496710Y508583D01*
X496739Y508455D01*
X496764Y508325D01*
X496785Y508195D01*
X496803Y508065D01*
X496816Y507934D01*
X496826Y507802D01*
X496832Y507671D01*
X496834Y507539D01*
X496834Y503093D01*
X496834Y508428D02*
X503948Y511985D01*
X505727Y517953D02*
X505727Y525067D01*
X503948Y531809D02*
X487941Y531809D01*
X496834Y537145D01*
X487941Y542480D01*
X503948Y542480D01*
X499502Y549897D02*
X492388Y549897D01*
X492256Y549899D01*
X492125Y549905D01*
X491993Y549915D01*
X491862Y549928D01*
X491732Y549946D01*
X491602Y549967D01*
X491472Y549992D01*
X491344Y550021D01*
X491216Y550054D01*
X491090Y550091D01*
X490964Y550131D01*
X490840Y550175D01*
X490717Y550223D01*
X490596Y550274D01*
X490476Y550329D01*
X490358Y550388D01*
X490242Y550449D01*
X490127Y550515D01*
X490015Y550583D01*
X489904Y550655D01*
X489796Y550731D01*
X489690Y550809D01*
X489587Y550891D01*
X489486Y550975D01*
X489387Y551063D01*
X489291Y551153D01*
X489198Y551246D01*
X489108Y551342D01*
X489020Y551441D01*
X488936Y551542D01*
X488854Y551645D01*
X488776Y551751D01*
X488700Y551859D01*
X488628Y551970D01*
X488560Y552082D01*
X488494Y552197D01*
X488433Y552313D01*
X488374Y552431D01*
X488319Y552551D01*
X488268Y552672D01*
X488220Y552795D01*
X488176Y552919D01*
X488136Y553045D01*
X488099Y553171D01*
X488066Y553299D01*
X488037Y553427D01*
X488012Y553557D01*
X487991Y553687D01*
X487973Y553817D01*
X487960Y553948D01*
X487950Y554080D01*
X487944Y554211D01*
X487942Y554343D01*
X487944Y554475D01*
X487950Y554606D01*
X487960Y554738D01*
X487973Y554869D01*
X487991Y554999D01*
X488012Y555129D01*
X488037Y555259D01*
X488066Y555387D01*
X488099Y555515D01*
X488136Y555641D01*
X488176Y555767D01*
X488220Y555891D01*
X488268Y556014D01*
X488319Y556135D01*
X488374Y556255D01*
X488433Y556373D01*
X488494Y556489D01*
X488560Y556604D01*
X488628Y556716D01*
X488700Y556827D01*
X488776Y556935D01*
X488854Y557041D01*
X488936Y557144D01*
X489020Y557245D01*
X489108Y557344D01*
X489198Y557440D01*
X489291Y557533D01*
X489387Y557623D01*
X489486Y557711D01*
X489587Y557795D01*
X489690Y557877D01*
X489796Y557955D01*
X489904Y558031D01*
X490015Y558103D01*
X490127Y558171D01*
X490242Y558237D01*
X490358Y558298D01*
X490476Y558357D01*
X490596Y558412D01*
X490717Y558463D01*
X490840Y558511D01*
X490964Y558555D01*
X491090Y558595D01*
X491216Y558632D01*
X491344Y558665D01*
X491472Y558694D01*
X491602Y558719D01*
X491732Y558740D01*
X491862Y558758D01*
X491993Y558771D01*
X492125Y558781D01*
X492256Y558787D01*
X492388Y558789D01*
X499502Y558789D01*
X499634Y558787D01*
X499765Y558781D01*
X499897Y558771D01*
X500028Y558758D01*
X500158Y558740D01*
X500288Y558719D01*
X500418Y558694D01*
X500546Y558665D01*
X500674Y558632D01*
X500800Y558595D01*
X500926Y558555D01*
X501050Y558511D01*
X501173Y558463D01*
X501294Y558412D01*
X501414Y558357D01*
X501532Y558298D01*
X501648Y558237D01*
X501763Y558171D01*
X501875Y558103D01*
X501986Y558031D01*
X502094Y557955D01*
X502200Y557877D01*
X502303Y557795D01*
X502404Y557711D01*
X502503Y557623D01*
X502599Y557533D01*
X502692Y557440D01*
X502782Y557344D01*
X502870Y557245D01*
X502954Y557144D01*
X503036Y557041D01*
X503114Y556935D01*
X503190Y556827D01*
X503262Y556716D01*
X503330Y556604D01*
X503396Y556489D01*
X503457Y556373D01*
X503516Y556255D01*
X503571Y556135D01*
X503622Y556014D01*
X503670Y555891D01*
X503714Y555767D01*
X503754Y555641D01*
X503791Y555515D01*
X503824Y555387D01*
X503853Y555259D01*
X503878Y555129D01*
X503899Y554999D01*
X503917Y554869D01*
X503930Y554738D01*
X503940Y554606D01*
X503946Y554475D01*
X503948Y554343D01*
X503946Y554211D01*
X503940Y554080D01*
X503930Y553948D01*
X503917Y553817D01*
X503899Y553687D01*
X503878Y553557D01*
X503853Y553427D01*
X503824Y553299D01*
X503791Y553171D01*
X503754Y553045D01*
X503714Y552919D01*
X503670Y552795D01*
X503622Y552672D01*
X503571Y552551D01*
X503516Y552431D01*
X503457Y552313D01*
X503396Y552197D01*
X503330Y552082D01*
X503262Y551970D01*
X503190Y551859D01*
X503114Y551751D01*
X503036Y551645D01*
X502954Y551542D01*
X502870Y551441D01*
X502782Y551342D01*
X502692Y551246D01*
X502599Y551153D01*
X502503Y551063D01*
X502404Y550975D01*
X502303Y550891D01*
X502200Y550809D01*
X502094Y550731D01*
X501986Y550655D01*
X501875Y550583D01*
X501763Y550515D01*
X501648Y550449D01*
X501532Y550388D01*
X501414Y550329D01*
X501294Y550274D01*
X501173Y550223D01*
X501050Y550175D01*
X500926Y550131D01*
X500800Y550091D01*
X500674Y550054D01*
X500546Y550021D01*
X500418Y549992D01*
X500288Y549967D01*
X500158Y549946D01*
X500028Y549928D01*
X499897Y549915D01*
X499765Y549905D01*
X499634Y549899D01*
X499502Y549897D01*
X503948Y570346D02*
X503946Y570462D01*
X503940Y570579D01*
X503931Y570695D01*
X503918Y570810D01*
X503900Y570925D01*
X503880Y571040D01*
X503855Y571154D01*
X503827Y571267D01*
X503795Y571379D01*
X503759Y571489D01*
X503720Y571599D01*
X503677Y571707D01*
X503631Y571814D01*
X503581Y571919D01*
X503528Y572023D01*
X503471Y572125D01*
X503412Y572224D01*
X503349Y572322D01*
X503282Y572418D01*
X503213Y572511D01*
X503141Y572603D01*
X503065Y572691D01*
X502987Y572778D01*
X502906Y572861D01*
X502823Y572942D01*
X502736Y573020D01*
X502648Y573096D01*
X502556Y573168D01*
X502463Y573237D01*
X502367Y573304D01*
X502269Y573367D01*
X502170Y573426D01*
X502068Y573483D01*
X501964Y573536D01*
X501859Y573586D01*
X501752Y573632D01*
X501644Y573675D01*
X501534Y573714D01*
X501424Y573750D01*
X501312Y573782D01*
X501199Y573810D01*
X501085Y573835D01*
X500970Y573855D01*
X500855Y573873D01*
X500740Y573886D01*
X500624Y573895D01*
X500507Y573901D01*
X500391Y573903D01*
X503948Y570346D02*
X503946Y570166D01*
X503939Y569987D01*
X503929Y569807D01*
X503914Y569628D01*
X503894Y569449D01*
X503871Y569271D01*
X503843Y569093D01*
X503811Y568916D01*
X503774Y568740D01*
X503734Y568565D01*
X503689Y568391D01*
X503640Y568218D01*
X503587Y568046D01*
X503530Y567876D01*
X503469Y567707D01*
X503404Y567539D01*
X503335Y567373D01*
X503262Y567209D01*
X503185Y567047D01*
X503104Y566886D01*
X503019Y566727D01*
X502931Y566571D01*
X502839Y566417D01*
X502743Y566264D01*
X502643Y566115D01*
X502540Y565967D01*
X502434Y565823D01*
X502324Y565680D01*
X502211Y565541D01*
X502094Y565404D01*
X501974Y565270D01*
X501851Y565139D01*
X501725Y565011D01*
X491498Y565455D02*
X491379Y565457D01*
X491260Y565463D01*
X491142Y565473D01*
X491024Y565487D01*
X490906Y565505D01*
X490790Y565526D01*
X490673Y565552D01*
X490558Y565581D01*
X490444Y565615D01*
X490331Y565652D01*
X490220Y565693D01*
X490109Y565737D01*
X490001Y565785D01*
X489894Y565837D01*
X489789Y565893D01*
X489685Y565952D01*
X489584Y566014D01*
X489485Y566079D01*
X489388Y566148D01*
X489294Y566220D01*
X489202Y566296D01*
X489112Y566374D01*
X489025Y566455D01*
X488941Y566539D01*
X488860Y566626D01*
X488782Y566715D01*
X488706Y566808D01*
X488634Y566902D01*
X488565Y566999D01*
X488500Y567098D01*
X488438Y567199D01*
X488379Y567303D01*
X488323Y567408D01*
X488271Y567515D01*
X488223Y567623D01*
X488179Y567734D01*
X488138Y567845D01*
X488101Y567958D01*
X488067Y568072D01*
X488038Y568187D01*
X488012Y568303D01*
X487991Y568420D01*
X487973Y568538D01*
X487959Y568656D01*
X487949Y568774D01*
X487943Y568893D01*
X487941Y569012D01*
X487943Y569171D01*
X487949Y569330D01*
X487958Y569488D01*
X487971Y569647D01*
X487988Y569805D01*
X488009Y569962D01*
X488034Y570119D01*
X488062Y570276D01*
X488094Y570432D01*
X488130Y570586D01*
X488169Y570740D01*
X488212Y570893D01*
X488259Y571045D01*
X488309Y571196D01*
X488363Y571346D01*
X488420Y571494D01*
X488481Y571641D01*
X488545Y571786D01*
X488613Y571930D01*
X488684Y572072D01*
X488759Y572212D01*
X488837Y572351D01*
X488918Y572487D01*
X489003Y572622D01*
X489090Y572755D01*
X489181Y572885D01*
X489275Y573014D01*
X494611Y567233D02*
X494550Y567133D01*
X494485Y567035D01*
X494418Y566939D01*
X494347Y566845D01*
X494274Y566754D01*
X494197Y566665D01*
X494118Y566579D01*
X494036Y566495D01*
X493951Y566414D01*
X493864Y566336D01*
X493774Y566261D01*
X493681Y566188D01*
X493587Y566119D01*
X493490Y566053D01*
X493391Y565990D01*
X493291Y565930D01*
X493188Y565874D01*
X493083Y565820D01*
X492977Y565771D01*
X492869Y565724D01*
X492760Y565682D01*
X492650Y565643D01*
X492538Y565607D01*
X492425Y565575D01*
X492312Y565547D01*
X492197Y565522D01*
X492082Y565501D01*
X491966Y565484D01*
X491849Y565471D01*
X491732Y565462D01*
X491615Y565456D01*
X491498Y565454D01*
X497278Y572124D02*
X497339Y572224D01*
X497404Y572322D01*
X497471Y572418D01*
X497542Y572512D01*
X497615Y572603D01*
X497692Y572692D01*
X497771Y572778D01*
X497853Y572862D01*
X497938Y572943D01*
X498025Y573021D01*
X498115Y573096D01*
X498208Y573169D01*
X498302Y573238D01*
X498399Y573304D01*
X498498Y573367D01*
X498598Y573427D01*
X498701Y573483D01*
X498806Y573537D01*
X498912Y573586D01*
X499020Y573633D01*
X499129Y573675D01*
X499239Y573714D01*
X499351Y573750D01*
X499464Y573782D01*
X499577Y573810D01*
X499692Y573835D01*
X499807Y573856D01*
X499923Y573873D01*
X500040Y573886D01*
X500157Y573895D01*
X500274Y573901D01*
X500391Y573903D01*
X497279Y572124D02*
X494611Y567233D01*
X487941Y580678D02*
X503948Y580678D01*
X487941Y580678D02*
X487941Y587792D01*
X495055Y587792D02*
X495055Y580678D01*
X503948Y594228D02*
X503948Y601342D01*
X503948Y594228D02*
X487941Y594228D01*
X487941Y601342D01*
X495055Y599564D02*
X495055Y594228D01*
X487941Y610628D02*
X503948Y610628D01*
X487941Y606182D02*
X487941Y615075D01*
D10*
X180975Y224155D02*
X180973Y224055D01*
X180967Y223956D01*
X180957Y223856D01*
X180944Y223758D01*
X180926Y223659D01*
X180905Y223562D01*
X180880Y223466D01*
X180851Y223370D01*
X180818Y223276D01*
X180782Y223183D01*
X180742Y223092D01*
X180698Y223002D01*
X180651Y222914D01*
X180601Y222828D01*
X180547Y222744D01*
X180490Y222662D01*
X180430Y222583D01*
X180366Y222505D01*
X180300Y222431D01*
X180231Y222359D01*
X180159Y222290D01*
X180085Y222224D01*
X180007Y222160D01*
X179928Y222100D01*
X179846Y222043D01*
X179762Y221989D01*
X179676Y221939D01*
X179588Y221892D01*
X179498Y221848D01*
X179407Y221808D01*
X179314Y221772D01*
X179220Y221739D01*
X179124Y221710D01*
X179028Y221685D01*
X178931Y221664D01*
X178832Y221646D01*
X178734Y221633D01*
X178634Y221623D01*
X178535Y221617D01*
X178435Y221615D01*
X180975Y239395D02*
X180973Y239495D01*
X180967Y239594D01*
X180957Y239694D01*
X180944Y239792D01*
X180926Y239891D01*
X180905Y239988D01*
X180880Y240084D01*
X180851Y240180D01*
X180818Y240274D01*
X180782Y240367D01*
X180742Y240458D01*
X180698Y240548D01*
X180651Y240636D01*
X180601Y240722D01*
X180547Y240806D01*
X180490Y240888D01*
X180430Y240967D01*
X180366Y241045D01*
X180300Y241119D01*
X180231Y241191D01*
X180159Y241260D01*
X180085Y241326D01*
X180007Y241390D01*
X179928Y241450D01*
X179846Y241507D01*
X179762Y241561D01*
X179676Y241611D01*
X179588Y241658D01*
X179498Y241702D01*
X179407Y241742D01*
X179314Y241778D01*
X179220Y241811D01*
X179124Y241840D01*
X179028Y241865D01*
X178931Y241886D01*
X178832Y241904D01*
X178734Y241917D01*
X178634Y241927D01*
X178535Y241933D01*
X178435Y241935D01*
X132715Y241935D02*
X132615Y241933D01*
X132516Y241927D01*
X132416Y241917D01*
X132318Y241904D01*
X132219Y241886D01*
X132122Y241865D01*
X132026Y241840D01*
X131930Y241811D01*
X131836Y241778D01*
X131743Y241742D01*
X131652Y241702D01*
X131562Y241658D01*
X131474Y241611D01*
X131388Y241561D01*
X131304Y241507D01*
X131222Y241450D01*
X131143Y241390D01*
X131065Y241326D01*
X130991Y241260D01*
X130919Y241191D01*
X130850Y241119D01*
X130784Y241045D01*
X130720Y240967D01*
X130660Y240888D01*
X130603Y240806D01*
X130549Y240722D01*
X130499Y240636D01*
X130452Y240548D01*
X130408Y240458D01*
X130368Y240367D01*
X130332Y240274D01*
X130299Y240180D01*
X130270Y240084D01*
X130245Y239988D01*
X130224Y239891D01*
X130206Y239792D01*
X130193Y239694D01*
X130183Y239594D01*
X130177Y239495D01*
X130175Y239395D01*
X130175Y224155D02*
X130177Y224055D01*
X130183Y223956D01*
X130193Y223856D01*
X130206Y223758D01*
X130224Y223659D01*
X130245Y223562D01*
X130270Y223466D01*
X130299Y223370D01*
X130332Y223276D01*
X130368Y223183D01*
X130408Y223092D01*
X130452Y223002D01*
X130499Y222914D01*
X130549Y222828D01*
X130603Y222744D01*
X130660Y222662D01*
X130720Y222583D01*
X130784Y222505D01*
X130850Y222431D01*
X130919Y222359D01*
X130991Y222290D01*
X131065Y222224D01*
X131143Y222160D01*
X131222Y222100D01*
X131304Y222043D01*
X131388Y221989D01*
X131474Y221939D01*
X131562Y221892D01*
X131652Y221848D01*
X131743Y221808D01*
X131836Y221772D01*
X131930Y221739D01*
X132026Y221710D01*
X132122Y221685D01*
X132219Y221664D01*
X132318Y221646D01*
X132416Y221633D01*
X132516Y221623D01*
X132615Y221617D01*
X132715Y221615D01*
X180975Y224155D02*
X180975Y239395D01*
X178435Y221615D02*
X174625Y221615D01*
X173355Y222885D01*
X174625Y241935D02*
X178435Y241935D01*
X174625Y241935D02*
X173355Y240665D01*
X137795Y222885D02*
X136525Y221615D01*
X137795Y222885D02*
X173355Y222885D01*
X137795Y240665D02*
X136525Y241935D01*
X137795Y240665D02*
X173355Y240665D01*
X136525Y221615D02*
X132715Y221615D01*
X132715Y241935D02*
X136525Y241935D01*
X130175Y239395D02*
X130175Y224155D01*
D19*
X128270Y231775D03*
X182880Y231775D03*
D16*
X112703Y244348D02*
X112703Y253238D01*
X115173Y253238D01*
X115271Y253236D01*
X115369Y253230D01*
X115467Y253220D01*
X115564Y253207D01*
X115661Y253189D01*
X115757Y253168D01*
X115851Y253143D01*
X115945Y253114D01*
X116038Y253082D01*
X116129Y253045D01*
X116219Y253006D01*
X116307Y252962D01*
X116393Y252915D01*
X116478Y252865D01*
X116560Y252812D01*
X116640Y252755D01*
X116718Y252695D01*
X116793Y252632D01*
X116866Y252566D01*
X116936Y252497D01*
X117003Y252426D01*
X117068Y252352D01*
X117129Y252275D01*
X117188Y252196D01*
X117243Y252115D01*
X117295Y252032D01*
X117343Y251946D01*
X117388Y251859D01*
X117430Y251770D01*
X117468Y251680D01*
X117502Y251588D01*
X117533Y251495D01*
X117560Y251400D01*
X117583Y251305D01*
X117603Y251208D01*
X117618Y251112D01*
X117630Y251014D01*
X117638Y250916D01*
X117642Y250818D01*
X117642Y250720D01*
X117638Y250622D01*
X117630Y250524D01*
X117618Y250426D01*
X117603Y250330D01*
X117583Y250233D01*
X117560Y250138D01*
X117533Y250043D01*
X117502Y249950D01*
X117468Y249858D01*
X117430Y249768D01*
X117388Y249679D01*
X117343Y249592D01*
X117295Y249506D01*
X117243Y249423D01*
X117188Y249342D01*
X117129Y249263D01*
X117068Y249186D01*
X117003Y249112D01*
X116936Y249041D01*
X116866Y248972D01*
X116793Y248906D01*
X116718Y248843D01*
X116640Y248783D01*
X116560Y248726D01*
X116478Y248673D01*
X116393Y248623D01*
X116307Y248576D01*
X116219Y248532D01*
X116129Y248493D01*
X116038Y248456D01*
X115945Y248424D01*
X115851Y248395D01*
X115757Y248370D01*
X115661Y248349D01*
X115564Y248331D01*
X115467Y248318D01*
X115369Y248308D01*
X115271Y248302D01*
X115173Y248300D01*
X115173Y248299D02*
X112703Y248299D01*
X115667Y248299D02*
X117642Y244348D01*
X121553Y251262D02*
X124023Y253238D01*
X124023Y244348D01*
X126492Y244348D02*
X121553Y244348D01*
D10*
X132715Y207010D02*
X132615Y207008D01*
X132516Y207002D01*
X132416Y206992D01*
X132318Y206979D01*
X132219Y206961D01*
X132122Y206940D01*
X132026Y206915D01*
X131930Y206886D01*
X131836Y206853D01*
X131743Y206817D01*
X131652Y206777D01*
X131562Y206733D01*
X131474Y206686D01*
X131388Y206636D01*
X131304Y206582D01*
X131222Y206525D01*
X131143Y206465D01*
X131065Y206401D01*
X130991Y206335D01*
X130919Y206266D01*
X130850Y206194D01*
X130784Y206120D01*
X130720Y206042D01*
X130660Y205963D01*
X130603Y205881D01*
X130549Y205797D01*
X130499Y205711D01*
X130452Y205623D01*
X130408Y205533D01*
X130368Y205442D01*
X130332Y205349D01*
X130299Y205255D01*
X130270Y205159D01*
X130245Y205063D01*
X130224Y204966D01*
X130206Y204867D01*
X130193Y204769D01*
X130183Y204669D01*
X130177Y204570D01*
X130175Y204470D01*
X130175Y189230D02*
X130177Y189130D01*
X130183Y189031D01*
X130193Y188931D01*
X130206Y188833D01*
X130224Y188734D01*
X130245Y188637D01*
X130270Y188541D01*
X130299Y188445D01*
X130332Y188351D01*
X130368Y188258D01*
X130408Y188167D01*
X130452Y188077D01*
X130499Y187989D01*
X130549Y187903D01*
X130603Y187819D01*
X130660Y187737D01*
X130720Y187658D01*
X130784Y187580D01*
X130850Y187506D01*
X130919Y187434D01*
X130991Y187365D01*
X131065Y187299D01*
X131143Y187235D01*
X131222Y187175D01*
X131304Y187118D01*
X131388Y187064D01*
X131474Y187014D01*
X131562Y186967D01*
X131652Y186923D01*
X131743Y186883D01*
X131836Y186847D01*
X131930Y186814D01*
X132026Y186785D01*
X132122Y186760D01*
X132219Y186739D01*
X132318Y186721D01*
X132416Y186708D01*
X132516Y186698D01*
X132615Y186692D01*
X132715Y186690D01*
X178435Y186690D02*
X178535Y186692D01*
X178634Y186698D01*
X178734Y186708D01*
X178832Y186721D01*
X178931Y186739D01*
X179028Y186760D01*
X179124Y186785D01*
X179220Y186814D01*
X179314Y186847D01*
X179407Y186883D01*
X179498Y186923D01*
X179588Y186967D01*
X179676Y187014D01*
X179762Y187064D01*
X179846Y187118D01*
X179928Y187175D01*
X180007Y187235D01*
X180085Y187299D01*
X180159Y187365D01*
X180231Y187434D01*
X180300Y187506D01*
X180366Y187580D01*
X180430Y187658D01*
X180490Y187737D01*
X180547Y187819D01*
X180601Y187903D01*
X180651Y187989D01*
X180698Y188077D01*
X180742Y188167D01*
X180782Y188258D01*
X180818Y188351D01*
X180851Y188445D01*
X180880Y188541D01*
X180905Y188637D01*
X180926Y188734D01*
X180944Y188833D01*
X180957Y188931D01*
X180967Y189031D01*
X180973Y189130D01*
X180975Y189230D01*
X180975Y204470D02*
X180973Y204570D01*
X180967Y204669D01*
X180957Y204769D01*
X180944Y204867D01*
X180926Y204966D01*
X180905Y205063D01*
X180880Y205159D01*
X180851Y205255D01*
X180818Y205349D01*
X180782Y205442D01*
X180742Y205533D01*
X180698Y205623D01*
X180651Y205711D01*
X180601Y205797D01*
X180547Y205881D01*
X180490Y205963D01*
X180430Y206042D01*
X180366Y206120D01*
X180300Y206194D01*
X180231Y206266D01*
X180159Y206335D01*
X180085Y206401D01*
X180007Y206465D01*
X179928Y206525D01*
X179846Y206582D01*
X179762Y206636D01*
X179676Y206686D01*
X179588Y206733D01*
X179498Y206777D01*
X179407Y206817D01*
X179314Y206853D01*
X179220Y206886D01*
X179124Y206915D01*
X179028Y206940D01*
X178931Y206961D01*
X178832Y206979D01*
X178734Y206992D01*
X178634Y207002D01*
X178535Y207008D01*
X178435Y207010D01*
X130175Y204470D02*
X130175Y189230D01*
X132715Y207010D02*
X136525Y207010D01*
X137795Y205740D01*
X136525Y186690D02*
X132715Y186690D01*
X136525Y186690D02*
X137795Y187960D01*
X173355Y205740D02*
X174625Y207010D01*
X173355Y205740D02*
X137795Y205740D01*
X173355Y187960D02*
X174625Y186690D01*
X173355Y187960D02*
X137795Y187960D01*
X174625Y207010D02*
X178435Y207010D01*
X178435Y186690D02*
X174625Y186690D01*
X180975Y189230D02*
X180975Y204470D01*
D19*
X182880Y196850D03*
X128270Y196850D03*
D16*
X111633Y210312D02*
X111633Y219202D01*
X114102Y219202D01*
X114200Y219200D01*
X114298Y219194D01*
X114396Y219184D01*
X114493Y219171D01*
X114590Y219153D01*
X114686Y219132D01*
X114780Y219107D01*
X114874Y219078D01*
X114967Y219046D01*
X115058Y219009D01*
X115148Y218970D01*
X115236Y218926D01*
X115322Y218879D01*
X115407Y218829D01*
X115489Y218776D01*
X115569Y218719D01*
X115647Y218659D01*
X115722Y218596D01*
X115795Y218530D01*
X115865Y218461D01*
X115932Y218390D01*
X115997Y218316D01*
X116058Y218239D01*
X116117Y218160D01*
X116172Y218079D01*
X116224Y217996D01*
X116272Y217910D01*
X116317Y217823D01*
X116359Y217734D01*
X116397Y217644D01*
X116431Y217552D01*
X116462Y217459D01*
X116489Y217364D01*
X116512Y217269D01*
X116532Y217172D01*
X116547Y217076D01*
X116559Y216978D01*
X116567Y216880D01*
X116571Y216782D01*
X116571Y216684D01*
X116567Y216586D01*
X116559Y216488D01*
X116547Y216390D01*
X116532Y216294D01*
X116512Y216197D01*
X116489Y216102D01*
X116462Y216007D01*
X116431Y215914D01*
X116397Y215822D01*
X116359Y215732D01*
X116317Y215643D01*
X116272Y215556D01*
X116224Y215470D01*
X116172Y215387D01*
X116117Y215306D01*
X116058Y215227D01*
X115997Y215150D01*
X115932Y215076D01*
X115865Y215005D01*
X115795Y214936D01*
X115722Y214870D01*
X115647Y214807D01*
X115569Y214747D01*
X115489Y214690D01*
X115407Y214637D01*
X115322Y214587D01*
X115236Y214540D01*
X115148Y214496D01*
X115058Y214457D01*
X114967Y214420D01*
X114874Y214388D01*
X114780Y214359D01*
X114686Y214334D01*
X114590Y214313D01*
X114493Y214295D01*
X114396Y214282D01*
X114298Y214272D01*
X114200Y214266D01*
X114102Y214264D01*
X114102Y214263D02*
X111633Y214263D01*
X114596Y214263D02*
X116572Y210312D01*
X125422Y216980D02*
X125420Y217072D01*
X125414Y217164D01*
X125405Y217255D01*
X125392Y217346D01*
X125375Y217436D01*
X125354Y217526D01*
X125330Y217614D01*
X125302Y217702D01*
X125270Y217788D01*
X125235Y217873D01*
X125196Y217956D01*
X125154Y218038D01*
X125109Y218118D01*
X125060Y218196D01*
X125008Y218272D01*
X124953Y218345D01*
X124895Y218417D01*
X124835Y218486D01*
X124771Y218552D01*
X124705Y218616D01*
X124636Y218676D01*
X124564Y218734D01*
X124491Y218789D01*
X124415Y218841D01*
X124337Y218890D01*
X124257Y218935D01*
X124175Y218977D01*
X124092Y219016D01*
X124007Y219051D01*
X123921Y219083D01*
X123833Y219111D01*
X123745Y219135D01*
X123655Y219156D01*
X123565Y219173D01*
X123474Y219186D01*
X123383Y219195D01*
X123291Y219201D01*
X123199Y219203D01*
X123199Y219202D02*
X123093Y219200D01*
X122988Y219194D01*
X122883Y219184D01*
X122778Y219171D01*
X122674Y219153D01*
X122571Y219132D01*
X122468Y219107D01*
X122366Y219078D01*
X122266Y219045D01*
X122167Y219009D01*
X122069Y218969D01*
X121973Y218925D01*
X121878Y218878D01*
X121786Y218828D01*
X121695Y218774D01*
X121606Y218716D01*
X121520Y218656D01*
X121436Y218592D01*
X121354Y218526D01*
X121274Y218456D01*
X121198Y218383D01*
X121124Y218308D01*
X121053Y218230D01*
X120985Y218149D01*
X120919Y218066D01*
X120857Y217980D01*
X120799Y217893D01*
X120743Y217803D01*
X120691Y217711D01*
X120642Y217617D01*
X120597Y217522D01*
X120555Y217425D01*
X120517Y217326D01*
X120483Y217227D01*
X124681Y215251D02*
X124750Y215320D01*
X124816Y215390D01*
X124879Y215464D01*
X124938Y215540D01*
X124995Y215618D01*
X125049Y215698D01*
X125099Y215781D01*
X125146Y215865D01*
X125189Y215952D01*
X125229Y216040D01*
X125265Y216129D01*
X125298Y216220D01*
X125327Y216312D01*
X125352Y216406D01*
X125373Y216500D01*
X125391Y216595D01*
X125404Y216691D01*
X125414Y216787D01*
X125420Y216883D01*
X125422Y216980D01*
X124681Y215251D02*
X120483Y210312D01*
X125422Y210312D01*
D10*
X288925Y191770D02*
X288927Y191870D01*
X288933Y191969D01*
X288943Y192069D01*
X288956Y192167D01*
X288974Y192266D01*
X288995Y192363D01*
X289020Y192459D01*
X289049Y192555D01*
X289082Y192649D01*
X289118Y192742D01*
X289158Y192833D01*
X289202Y192923D01*
X289249Y193011D01*
X289299Y193097D01*
X289353Y193181D01*
X289410Y193263D01*
X289470Y193342D01*
X289534Y193420D01*
X289600Y193494D01*
X289669Y193566D01*
X289741Y193635D01*
X289815Y193701D01*
X289893Y193765D01*
X289972Y193825D01*
X290054Y193882D01*
X290138Y193936D01*
X290224Y193986D01*
X290312Y194033D01*
X290402Y194077D01*
X290493Y194117D01*
X290586Y194153D01*
X290680Y194186D01*
X290776Y194215D01*
X290872Y194240D01*
X290969Y194261D01*
X291068Y194279D01*
X291166Y194292D01*
X291266Y194302D01*
X291365Y194308D01*
X291465Y194310D01*
X288925Y176530D02*
X288927Y176430D01*
X288933Y176331D01*
X288943Y176231D01*
X288956Y176133D01*
X288974Y176034D01*
X288995Y175937D01*
X289020Y175841D01*
X289049Y175745D01*
X289082Y175651D01*
X289118Y175558D01*
X289158Y175467D01*
X289202Y175377D01*
X289249Y175289D01*
X289299Y175203D01*
X289353Y175119D01*
X289410Y175037D01*
X289470Y174958D01*
X289534Y174880D01*
X289600Y174806D01*
X289669Y174734D01*
X289741Y174665D01*
X289815Y174599D01*
X289893Y174535D01*
X289972Y174475D01*
X290054Y174418D01*
X290138Y174364D01*
X290224Y174314D01*
X290312Y174267D01*
X290402Y174223D01*
X290493Y174183D01*
X290586Y174147D01*
X290680Y174114D01*
X290776Y174085D01*
X290872Y174060D01*
X290969Y174039D01*
X291068Y174021D01*
X291166Y174008D01*
X291266Y173998D01*
X291365Y173992D01*
X291465Y173990D01*
X337185Y173990D02*
X337285Y173992D01*
X337384Y173998D01*
X337484Y174008D01*
X337582Y174021D01*
X337681Y174039D01*
X337778Y174060D01*
X337874Y174085D01*
X337970Y174114D01*
X338064Y174147D01*
X338157Y174183D01*
X338248Y174223D01*
X338338Y174267D01*
X338426Y174314D01*
X338512Y174364D01*
X338596Y174418D01*
X338678Y174475D01*
X338757Y174535D01*
X338835Y174599D01*
X338909Y174665D01*
X338981Y174734D01*
X339050Y174806D01*
X339116Y174880D01*
X339180Y174958D01*
X339240Y175037D01*
X339297Y175119D01*
X339351Y175203D01*
X339401Y175289D01*
X339448Y175377D01*
X339492Y175467D01*
X339532Y175558D01*
X339568Y175651D01*
X339601Y175745D01*
X339630Y175841D01*
X339655Y175937D01*
X339676Y176034D01*
X339694Y176133D01*
X339707Y176231D01*
X339717Y176331D01*
X339723Y176430D01*
X339725Y176530D01*
X339725Y191770D02*
X339723Y191870D01*
X339717Y191969D01*
X339707Y192069D01*
X339694Y192167D01*
X339676Y192266D01*
X339655Y192363D01*
X339630Y192459D01*
X339601Y192555D01*
X339568Y192649D01*
X339532Y192742D01*
X339492Y192833D01*
X339448Y192923D01*
X339401Y193011D01*
X339351Y193097D01*
X339297Y193181D01*
X339240Y193263D01*
X339180Y193342D01*
X339116Y193420D01*
X339050Y193494D01*
X338981Y193566D01*
X338909Y193635D01*
X338835Y193701D01*
X338757Y193765D01*
X338678Y193825D01*
X338596Y193882D01*
X338512Y193936D01*
X338426Y193986D01*
X338338Y194033D01*
X338248Y194077D01*
X338157Y194117D01*
X338064Y194153D01*
X337970Y194186D01*
X337874Y194215D01*
X337778Y194240D01*
X337681Y194261D01*
X337582Y194279D01*
X337484Y194292D01*
X337384Y194302D01*
X337285Y194308D01*
X337185Y194310D01*
X288925Y191770D02*
X288925Y176530D01*
X291465Y194310D02*
X295275Y194310D01*
X296545Y193040D01*
X295275Y173990D02*
X291465Y173990D01*
X295275Y173990D02*
X296545Y175260D01*
X332105Y193040D02*
X333375Y194310D01*
X332105Y193040D02*
X296545Y193040D01*
X332105Y175260D02*
X333375Y173990D01*
X332105Y175260D02*
X296545Y175260D01*
X333375Y194310D02*
X337185Y194310D01*
X337185Y173990D02*
X333375Y173990D01*
X339725Y176530D02*
X339725Y191770D01*
D19*
X341630Y184150D03*
X287020Y184150D03*
D16*
X273558Y197612D02*
X273558Y206502D01*
X276027Y206502D01*
X276125Y206500D01*
X276223Y206494D01*
X276321Y206484D01*
X276418Y206471D01*
X276515Y206453D01*
X276611Y206432D01*
X276705Y206407D01*
X276799Y206378D01*
X276892Y206346D01*
X276983Y206309D01*
X277073Y206270D01*
X277161Y206226D01*
X277247Y206179D01*
X277332Y206129D01*
X277414Y206076D01*
X277494Y206019D01*
X277572Y205959D01*
X277647Y205896D01*
X277720Y205830D01*
X277790Y205761D01*
X277857Y205690D01*
X277922Y205616D01*
X277983Y205539D01*
X278042Y205460D01*
X278097Y205379D01*
X278149Y205296D01*
X278197Y205210D01*
X278242Y205123D01*
X278284Y205034D01*
X278322Y204944D01*
X278356Y204852D01*
X278387Y204759D01*
X278414Y204664D01*
X278437Y204569D01*
X278457Y204472D01*
X278472Y204376D01*
X278484Y204278D01*
X278492Y204180D01*
X278496Y204082D01*
X278496Y203984D01*
X278492Y203886D01*
X278484Y203788D01*
X278472Y203690D01*
X278457Y203594D01*
X278437Y203497D01*
X278414Y203402D01*
X278387Y203307D01*
X278356Y203214D01*
X278322Y203122D01*
X278284Y203032D01*
X278242Y202943D01*
X278197Y202856D01*
X278149Y202770D01*
X278097Y202687D01*
X278042Y202606D01*
X277983Y202527D01*
X277922Y202450D01*
X277857Y202376D01*
X277790Y202305D01*
X277720Y202236D01*
X277647Y202170D01*
X277572Y202107D01*
X277494Y202047D01*
X277414Y201990D01*
X277332Y201937D01*
X277247Y201887D01*
X277161Y201840D01*
X277073Y201796D01*
X276983Y201757D01*
X276892Y201720D01*
X276799Y201688D01*
X276705Y201659D01*
X276611Y201634D01*
X276515Y201613D01*
X276418Y201595D01*
X276321Y201582D01*
X276223Y201572D01*
X276125Y201566D01*
X276027Y201564D01*
X276027Y201563D02*
X273558Y201563D01*
X276521Y201563D02*
X278497Y197612D01*
X282408Y197612D02*
X284877Y197612D01*
X284975Y197614D01*
X285073Y197620D01*
X285171Y197630D01*
X285268Y197643D01*
X285365Y197661D01*
X285461Y197682D01*
X285555Y197707D01*
X285649Y197736D01*
X285742Y197768D01*
X285833Y197805D01*
X285923Y197844D01*
X286011Y197888D01*
X286097Y197935D01*
X286182Y197985D01*
X286264Y198038D01*
X286344Y198095D01*
X286422Y198155D01*
X286497Y198218D01*
X286570Y198284D01*
X286640Y198353D01*
X286707Y198424D01*
X286772Y198498D01*
X286833Y198575D01*
X286892Y198654D01*
X286947Y198735D01*
X286999Y198818D01*
X287047Y198904D01*
X287092Y198991D01*
X287134Y199080D01*
X287172Y199170D01*
X287206Y199262D01*
X287237Y199355D01*
X287264Y199450D01*
X287287Y199545D01*
X287307Y199642D01*
X287322Y199738D01*
X287334Y199836D01*
X287342Y199934D01*
X287346Y200032D01*
X287346Y200130D01*
X287342Y200228D01*
X287334Y200326D01*
X287322Y200424D01*
X287307Y200520D01*
X287287Y200617D01*
X287264Y200712D01*
X287237Y200807D01*
X287206Y200900D01*
X287172Y200992D01*
X287134Y201082D01*
X287092Y201171D01*
X287047Y201258D01*
X286999Y201344D01*
X286947Y201427D01*
X286892Y201508D01*
X286833Y201587D01*
X286772Y201664D01*
X286707Y201738D01*
X286640Y201809D01*
X286570Y201878D01*
X286497Y201944D01*
X286422Y202007D01*
X286344Y202067D01*
X286264Y202124D01*
X286182Y202177D01*
X286097Y202227D01*
X286011Y202274D01*
X285923Y202318D01*
X285833Y202357D01*
X285742Y202394D01*
X285649Y202426D01*
X285555Y202455D01*
X285461Y202480D01*
X285365Y202501D01*
X285268Y202519D01*
X285171Y202532D01*
X285073Y202542D01*
X284975Y202548D01*
X284877Y202550D01*
X285371Y206502D02*
X282408Y206502D01*
X285371Y206502D02*
X285458Y206500D01*
X285546Y206494D01*
X285633Y206485D01*
X285719Y206471D01*
X285805Y206454D01*
X285889Y206433D01*
X285973Y206408D01*
X286056Y206379D01*
X286137Y206347D01*
X286217Y206312D01*
X286295Y206273D01*
X286372Y206230D01*
X286446Y206184D01*
X286518Y206135D01*
X286588Y206083D01*
X286656Y206027D01*
X286721Y205969D01*
X286784Y205908D01*
X286843Y205844D01*
X286900Y205777D01*
X286954Y205709D01*
X287005Y205637D01*
X287052Y205564D01*
X287097Y205489D01*
X287138Y205411D01*
X287175Y205332D01*
X287209Y205252D01*
X287239Y205170D01*
X287266Y205087D01*
X287289Y205002D01*
X287308Y204917D01*
X287323Y204831D01*
X287335Y204744D01*
X287343Y204657D01*
X287347Y204570D01*
X287347Y204482D01*
X287343Y204395D01*
X287335Y204308D01*
X287323Y204221D01*
X287308Y204135D01*
X287289Y204050D01*
X287266Y203965D01*
X287239Y203882D01*
X287209Y203800D01*
X287175Y203720D01*
X287138Y203641D01*
X287097Y203563D01*
X287052Y203488D01*
X287005Y203415D01*
X286954Y203343D01*
X286900Y203275D01*
X286843Y203208D01*
X286784Y203144D01*
X286721Y203083D01*
X286656Y203025D01*
X286588Y202969D01*
X286518Y202917D01*
X286446Y202868D01*
X286372Y202822D01*
X286295Y202779D01*
X286217Y202740D01*
X286137Y202705D01*
X286056Y202673D01*
X285973Y202644D01*
X285889Y202619D01*
X285805Y202598D01*
X285719Y202581D01*
X285633Y202567D01*
X285546Y202558D01*
X285458Y202552D01*
X285371Y202550D01*
X285371Y202551D02*
X283396Y202551D01*
D10*
X291465Y159385D02*
X291365Y159383D01*
X291266Y159377D01*
X291166Y159367D01*
X291068Y159354D01*
X290969Y159336D01*
X290872Y159315D01*
X290776Y159290D01*
X290680Y159261D01*
X290586Y159228D01*
X290493Y159192D01*
X290402Y159152D01*
X290312Y159108D01*
X290224Y159061D01*
X290138Y159011D01*
X290054Y158957D01*
X289972Y158900D01*
X289893Y158840D01*
X289815Y158776D01*
X289741Y158710D01*
X289669Y158641D01*
X289600Y158569D01*
X289534Y158495D01*
X289470Y158417D01*
X289410Y158338D01*
X289353Y158256D01*
X289299Y158172D01*
X289249Y158086D01*
X289202Y157998D01*
X289158Y157908D01*
X289118Y157817D01*
X289082Y157724D01*
X289049Y157630D01*
X289020Y157534D01*
X288995Y157438D01*
X288974Y157341D01*
X288956Y157242D01*
X288943Y157144D01*
X288933Y157044D01*
X288927Y156945D01*
X288925Y156845D01*
X288925Y141605D02*
X288927Y141505D01*
X288933Y141406D01*
X288943Y141306D01*
X288956Y141208D01*
X288974Y141109D01*
X288995Y141012D01*
X289020Y140916D01*
X289049Y140820D01*
X289082Y140726D01*
X289118Y140633D01*
X289158Y140542D01*
X289202Y140452D01*
X289249Y140364D01*
X289299Y140278D01*
X289353Y140194D01*
X289410Y140112D01*
X289470Y140033D01*
X289534Y139955D01*
X289600Y139881D01*
X289669Y139809D01*
X289741Y139740D01*
X289815Y139674D01*
X289893Y139610D01*
X289972Y139550D01*
X290054Y139493D01*
X290138Y139439D01*
X290224Y139389D01*
X290312Y139342D01*
X290402Y139298D01*
X290493Y139258D01*
X290586Y139222D01*
X290680Y139189D01*
X290776Y139160D01*
X290872Y139135D01*
X290969Y139114D01*
X291068Y139096D01*
X291166Y139083D01*
X291266Y139073D01*
X291365Y139067D01*
X291465Y139065D01*
X337185Y139065D02*
X337285Y139067D01*
X337384Y139073D01*
X337484Y139083D01*
X337582Y139096D01*
X337681Y139114D01*
X337778Y139135D01*
X337874Y139160D01*
X337970Y139189D01*
X338064Y139222D01*
X338157Y139258D01*
X338248Y139298D01*
X338338Y139342D01*
X338426Y139389D01*
X338512Y139439D01*
X338596Y139493D01*
X338678Y139550D01*
X338757Y139610D01*
X338835Y139674D01*
X338909Y139740D01*
X338981Y139809D01*
X339050Y139881D01*
X339116Y139955D01*
X339180Y140033D01*
X339240Y140112D01*
X339297Y140194D01*
X339351Y140278D01*
X339401Y140364D01*
X339448Y140452D01*
X339492Y140542D01*
X339532Y140633D01*
X339568Y140726D01*
X339601Y140820D01*
X339630Y140916D01*
X339655Y141012D01*
X339676Y141109D01*
X339694Y141208D01*
X339707Y141306D01*
X339717Y141406D01*
X339723Y141505D01*
X339725Y141605D01*
X339725Y156845D02*
X339723Y156945D01*
X339717Y157044D01*
X339707Y157144D01*
X339694Y157242D01*
X339676Y157341D01*
X339655Y157438D01*
X339630Y157534D01*
X339601Y157630D01*
X339568Y157724D01*
X339532Y157817D01*
X339492Y157908D01*
X339448Y157998D01*
X339401Y158086D01*
X339351Y158172D01*
X339297Y158256D01*
X339240Y158338D01*
X339180Y158417D01*
X339116Y158495D01*
X339050Y158569D01*
X338981Y158641D01*
X338909Y158710D01*
X338835Y158776D01*
X338757Y158840D01*
X338678Y158900D01*
X338596Y158957D01*
X338512Y159011D01*
X338426Y159061D01*
X338338Y159108D01*
X338248Y159152D01*
X338157Y159192D01*
X338064Y159228D01*
X337970Y159261D01*
X337874Y159290D01*
X337778Y159315D01*
X337681Y159336D01*
X337582Y159354D01*
X337484Y159367D01*
X337384Y159377D01*
X337285Y159383D01*
X337185Y159385D01*
X288925Y156845D02*
X288925Y141605D01*
X291465Y159385D02*
X295275Y159385D01*
X296545Y158115D01*
X295275Y139065D02*
X291465Y139065D01*
X295275Y139065D02*
X296545Y140335D01*
X332105Y158115D02*
X333375Y159385D01*
X332105Y158115D02*
X296545Y158115D01*
X332105Y140335D02*
X333375Y139065D01*
X332105Y140335D02*
X296545Y140335D01*
X333375Y159385D02*
X337185Y159385D01*
X337185Y139065D02*
X333375Y139065D01*
X339725Y141605D02*
X339725Y156845D01*
D19*
X341630Y149225D03*
X287020Y149225D03*
D16*
X270383Y162687D02*
X270383Y171577D01*
X272852Y171577D01*
X272950Y171575D01*
X273048Y171569D01*
X273146Y171559D01*
X273243Y171546D01*
X273340Y171528D01*
X273436Y171507D01*
X273530Y171482D01*
X273624Y171453D01*
X273717Y171421D01*
X273808Y171384D01*
X273898Y171345D01*
X273986Y171301D01*
X274072Y171254D01*
X274157Y171204D01*
X274239Y171151D01*
X274319Y171094D01*
X274397Y171034D01*
X274472Y170971D01*
X274545Y170905D01*
X274615Y170836D01*
X274682Y170765D01*
X274747Y170691D01*
X274808Y170614D01*
X274867Y170535D01*
X274922Y170454D01*
X274974Y170371D01*
X275022Y170285D01*
X275067Y170198D01*
X275109Y170109D01*
X275147Y170019D01*
X275181Y169927D01*
X275212Y169834D01*
X275239Y169739D01*
X275262Y169644D01*
X275282Y169547D01*
X275297Y169451D01*
X275309Y169353D01*
X275317Y169255D01*
X275321Y169157D01*
X275321Y169059D01*
X275317Y168961D01*
X275309Y168863D01*
X275297Y168765D01*
X275282Y168669D01*
X275262Y168572D01*
X275239Y168477D01*
X275212Y168382D01*
X275181Y168289D01*
X275147Y168197D01*
X275109Y168107D01*
X275067Y168018D01*
X275022Y167931D01*
X274974Y167845D01*
X274922Y167762D01*
X274867Y167681D01*
X274808Y167602D01*
X274747Y167525D01*
X274682Y167451D01*
X274615Y167380D01*
X274545Y167311D01*
X274472Y167245D01*
X274397Y167182D01*
X274319Y167122D01*
X274239Y167065D01*
X274157Y167012D01*
X274072Y166962D01*
X273986Y166915D01*
X273898Y166871D01*
X273808Y166832D01*
X273717Y166795D01*
X273624Y166763D01*
X273530Y166734D01*
X273436Y166709D01*
X273340Y166688D01*
X273243Y166670D01*
X273146Y166657D01*
X273048Y166647D01*
X272950Y166641D01*
X272852Y166639D01*
X272852Y166638D02*
X270383Y166638D01*
X273346Y166638D02*
X275322Y162687D01*
X279233Y164663D02*
X281208Y171577D01*
X279233Y164663D02*
X284172Y164663D01*
X282690Y166638D02*
X282690Y162687D01*
D10*
X319405Y492125D02*
X319305Y492127D01*
X319206Y492133D01*
X319106Y492143D01*
X319008Y492156D01*
X318909Y492174D01*
X318812Y492195D01*
X318716Y492220D01*
X318620Y492249D01*
X318526Y492282D01*
X318433Y492318D01*
X318342Y492358D01*
X318252Y492402D01*
X318164Y492449D01*
X318078Y492499D01*
X317994Y492553D01*
X317912Y492610D01*
X317833Y492670D01*
X317755Y492734D01*
X317681Y492800D01*
X317609Y492869D01*
X317540Y492941D01*
X317474Y493015D01*
X317410Y493093D01*
X317350Y493172D01*
X317293Y493254D01*
X317239Y493338D01*
X317189Y493424D01*
X317142Y493512D01*
X317098Y493602D01*
X317058Y493693D01*
X317022Y493786D01*
X316989Y493880D01*
X316960Y493976D01*
X316935Y494072D01*
X316914Y494169D01*
X316896Y494268D01*
X316883Y494366D01*
X316873Y494466D01*
X316867Y494565D01*
X316865Y494665D01*
X334645Y492125D02*
X334745Y492127D01*
X334844Y492133D01*
X334944Y492143D01*
X335042Y492156D01*
X335141Y492174D01*
X335238Y492195D01*
X335334Y492220D01*
X335430Y492249D01*
X335524Y492282D01*
X335617Y492318D01*
X335708Y492358D01*
X335798Y492402D01*
X335886Y492449D01*
X335972Y492499D01*
X336056Y492553D01*
X336138Y492610D01*
X336217Y492670D01*
X336295Y492734D01*
X336369Y492800D01*
X336441Y492869D01*
X336510Y492941D01*
X336576Y493015D01*
X336640Y493093D01*
X336700Y493172D01*
X336757Y493254D01*
X336811Y493338D01*
X336861Y493424D01*
X336908Y493512D01*
X336952Y493602D01*
X336992Y493693D01*
X337028Y493786D01*
X337061Y493880D01*
X337090Y493976D01*
X337115Y494072D01*
X337136Y494169D01*
X337154Y494268D01*
X337167Y494366D01*
X337177Y494466D01*
X337183Y494565D01*
X337185Y494665D01*
X337185Y540385D02*
X337183Y540485D01*
X337177Y540584D01*
X337167Y540684D01*
X337154Y540782D01*
X337136Y540881D01*
X337115Y540978D01*
X337090Y541074D01*
X337061Y541170D01*
X337028Y541264D01*
X336992Y541357D01*
X336952Y541448D01*
X336908Y541538D01*
X336861Y541626D01*
X336811Y541712D01*
X336757Y541796D01*
X336700Y541878D01*
X336640Y541957D01*
X336576Y542035D01*
X336510Y542109D01*
X336441Y542181D01*
X336369Y542250D01*
X336295Y542316D01*
X336217Y542380D01*
X336138Y542440D01*
X336056Y542497D01*
X335972Y542551D01*
X335886Y542601D01*
X335798Y542648D01*
X335708Y542692D01*
X335617Y542732D01*
X335524Y542768D01*
X335430Y542801D01*
X335334Y542830D01*
X335238Y542855D01*
X335141Y542876D01*
X335042Y542894D01*
X334944Y542907D01*
X334844Y542917D01*
X334745Y542923D01*
X334645Y542925D01*
X319405Y542925D02*
X319305Y542923D01*
X319206Y542917D01*
X319106Y542907D01*
X319008Y542894D01*
X318909Y542876D01*
X318812Y542855D01*
X318716Y542830D01*
X318620Y542801D01*
X318526Y542768D01*
X318433Y542732D01*
X318342Y542692D01*
X318252Y542648D01*
X318164Y542601D01*
X318078Y542551D01*
X317994Y542497D01*
X317912Y542440D01*
X317833Y542380D01*
X317755Y542316D01*
X317681Y542250D01*
X317609Y542181D01*
X317540Y542109D01*
X317474Y542035D01*
X317410Y541957D01*
X317350Y541878D01*
X317293Y541796D01*
X317239Y541712D01*
X317189Y541626D01*
X317142Y541538D01*
X317098Y541448D01*
X317058Y541357D01*
X317022Y541264D01*
X316989Y541170D01*
X316960Y541074D01*
X316935Y540978D01*
X316914Y540881D01*
X316896Y540782D01*
X316883Y540684D01*
X316873Y540584D01*
X316867Y540485D01*
X316865Y540385D01*
X319405Y492125D02*
X334645Y492125D01*
X316865Y494665D02*
X316865Y498475D01*
X318135Y499745D01*
X337185Y498475D02*
X337185Y494665D01*
X337185Y498475D02*
X335915Y499745D01*
X318135Y535305D02*
X316865Y536575D01*
X318135Y535305D02*
X318135Y499745D01*
X335915Y535305D02*
X337185Y536575D01*
X335915Y535305D02*
X335915Y499745D01*
X316865Y536575D02*
X316865Y540385D01*
X337185Y540385D02*
X337185Y536575D01*
X334645Y542925D02*
X319405Y542925D01*
D20*
X327025Y544830D03*
X327025Y490220D03*
D16*
X313563Y492633D02*
X304673Y492633D01*
X304673Y495102D01*
X304675Y495200D01*
X304681Y495298D01*
X304691Y495396D01*
X304704Y495493D01*
X304722Y495590D01*
X304743Y495686D01*
X304768Y495780D01*
X304797Y495874D01*
X304829Y495967D01*
X304866Y496058D01*
X304905Y496148D01*
X304949Y496236D01*
X304996Y496322D01*
X305046Y496407D01*
X305099Y496489D01*
X305156Y496569D01*
X305216Y496647D01*
X305279Y496722D01*
X305345Y496795D01*
X305414Y496865D01*
X305485Y496932D01*
X305559Y496997D01*
X305636Y497058D01*
X305715Y497117D01*
X305796Y497172D01*
X305879Y497224D01*
X305965Y497272D01*
X306052Y497317D01*
X306141Y497359D01*
X306231Y497397D01*
X306323Y497431D01*
X306416Y497462D01*
X306511Y497489D01*
X306606Y497512D01*
X306703Y497532D01*
X306799Y497547D01*
X306897Y497559D01*
X306995Y497567D01*
X307093Y497571D01*
X307191Y497571D01*
X307289Y497567D01*
X307387Y497559D01*
X307485Y497547D01*
X307581Y497532D01*
X307678Y497512D01*
X307773Y497489D01*
X307868Y497462D01*
X307961Y497431D01*
X308053Y497397D01*
X308143Y497359D01*
X308232Y497317D01*
X308319Y497272D01*
X308405Y497224D01*
X308488Y497172D01*
X308569Y497117D01*
X308648Y497058D01*
X308725Y496997D01*
X308799Y496932D01*
X308870Y496865D01*
X308939Y496795D01*
X309005Y496722D01*
X309068Y496647D01*
X309128Y496569D01*
X309185Y496489D01*
X309238Y496407D01*
X309288Y496322D01*
X309335Y496236D01*
X309379Y496148D01*
X309418Y496058D01*
X309455Y495967D01*
X309487Y495874D01*
X309516Y495780D01*
X309541Y495686D01*
X309562Y495590D01*
X309580Y495493D01*
X309593Y495396D01*
X309603Y495298D01*
X309609Y495200D01*
X309611Y495102D01*
X309612Y495102D02*
X309612Y492633D01*
X309612Y495596D02*
X313563Y497572D01*
X313563Y501483D02*
X313563Y504446D01*
X313561Y504535D01*
X313555Y504623D01*
X313545Y504711D01*
X313531Y504799D01*
X313513Y504886D01*
X313492Y504972D01*
X313466Y505057D01*
X313437Y505140D01*
X313404Y505223D01*
X313367Y505303D01*
X313327Y505382D01*
X313283Y505459D01*
X313236Y505535D01*
X313186Y505607D01*
X313132Y505678D01*
X313075Y505746D01*
X313015Y505812D01*
X312953Y505874D01*
X312887Y505934D01*
X312819Y505991D01*
X312748Y506045D01*
X312676Y506095D01*
X312601Y506142D01*
X312523Y506186D01*
X312444Y506226D01*
X312364Y506263D01*
X312281Y506296D01*
X312198Y506325D01*
X312113Y506351D01*
X312027Y506372D01*
X311940Y506390D01*
X311852Y506404D01*
X311764Y506414D01*
X311676Y506420D01*
X311587Y506422D01*
X310600Y506422D01*
X310514Y506420D01*
X310428Y506414D01*
X310342Y506405D01*
X310257Y506392D01*
X310172Y506375D01*
X310089Y506355D01*
X310006Y506331D01*
X309924Y506303D01*
X309844Y506272D01*
X309765Y506237D01*
X309688Y506199D01*
X309612Y506157D01*
X309538Y506113D01*
X309467Y506065D01*
X309397Y506014D01*
X309330Y505960D01*
X309265Y505903D01*
X309203Y505843D01*
X309143Y505781D01*
X309086Y505716D01*
X309032Y505649D01*
X308981Y505579D01*
X308933Y505508D01*
X308889Y505434D01*
X308847Y505358D01*
X308809Y505281D01*
X308774Y505202D01*
X308743Y505122D01*
X308715Y505040D01*
X308691Y504957D01*
X308671Y504874D01*
X308654Y504789D01*
X308641Y504704D01*
X308632Y504618D01*
X308626Y504532D01*
X308624Y504446D01*
X308624Y501483D01*
X304673Y501483D01*
X304673Y506422D01*
D10*
X343535Y327025D02*
X343535Y225425D01*
X285115Y225425D02*
X285115Y327025D01*
X285115Y225425D02*
X343535Y225425D01*
X343535Y327025D02*
X324485Y327025D01*
X304165Y327025D02*
X285115Y327025D01*
X304165Y327025D02*
X304168Y326778D01*
X304177Y326530D01*
X304192Y326283D01*
X304213Y326037D01*
X304240Y325791D01*
X304273Y325546D01*
X304312Y325301D01*
X304357Y325058D01*
X304408Y324816D01*
X304465Y324575D01*
X304527Y324336D01*
X304596Y324098D01*
X304670Y323862D01*
X304750Y323628D01*
X304835Y323396D01*
X304927Y323166D01*
X305023Y322938D01*
X305126Y322713D01*
X305233Y322490D01*
X305347Y322270D01*
X305465Y322053D01*
X305589Y321838D01*
X305718Y321627D01*
X305852Y321419D01*
X305991Y321214D01*
X306135Y321013D01*
X306283Y320815D01*
X306437Y320621D01*
X306595Y320431D01*
X306758Y320245D01*
X306925Y320063D01*
X307097Y319885D01*
X307273Y319711D01*
X307453Y319541D01*
X307638Y319376D01*
X307826Y319216D01*
X308018Y319060D01*
X308214Y318908D01*
X308413Y318762D01*
X308616Y318620D01*
X308823Y318484D01*
X309032Y318352D01*
X309245Y318226D01*
X309461Y318105D01*
X309679Y317989D01*
X309901Y317879D01*
X310125Y317774D01*
X310351Y317674D01*
X310580Y317580D01*
X310811Y317492D01*
X311045Y317409D01*
X311280Y317332D01*
X311517Y317261D01*
X311755Y317195D01*
X311995Y317136D01*
X312237Y317082D01*
X312480Y317034D01*
X312723Y316992D01*
X312968Y316956D01*
X313214Y316926D01*
X313460Y316902D01*
X313707Y316884D01*
X313954Y316872D01*
X314201Y316866D01*
X314449Y316866D01*
X314696Y316872D01*
X314943Y316884D01*
X315190Y316902D01*
X315436Y316926D01*
X315682Y316956D01*
X315927Y316992D01*
X316170Y317034D01*
X316413Y317082D01*
X316655Y317136D01*
X316895Y317195D01*
X317133Y317261D01*
X317370Y317332D01*
X317605Y317409D01*
X317839Y317492D01*
X318070Y317580D01*
X318299Y317674D01*
X318525Y317774D01*
X318749Y317879D01*
X318971Y317989D01*
X319189Y318105D01*
X319405Y318226D01*
X319618Y318352D01*
X319827Y318484D01*
X320034Y318620D01*
X320237Y318762D01*
X320436Y318908D01*
X320632Y319060D01*
X320824Y319216D01*
X321012Y319376D01*
X321197Y319541D01*
X321377Y319711D01*
X321553Y319885D01*
X321725Y320063D01*
X321892Y320245D01*
X322055Y320431D01*
X322213Y320621D01*
X322367Y320815D01*
X322515Y321013D01*
X322659Y321214D01*
X322798Y321419D01*
X322932Y321627D01*
X323061Y321838D01*
X323185Y322053D01*
X323303Y322270D01*
X323417Y322490D01*
X323524Y322713D01*
X323627Y322938D01*
X323723Y323166D01*
X323815Y323396D01*
X323900Y323628D01*
X323980Y323862D01*
X324054Y324098D01*
X324123Y324336D01*
X324185Y324575D01*
X324242Y324816D01*
X324293Y325058D01*
X324338Y325301D01*
X324377Y325546D01*
X324410Y325791D01*
X324437Y326037D01*
X324458Y326283D01*
X324473Y326530D01*
X324482Y326778D01*
X324485Y327025D01*
D12*
X250190Y228600D02*
X250290Y228598D01*
X250389Y228592D01*
X250489Y228582D01*
X250587Y228569D01*
X250686Y228551D01*
X250783Y228530D01*
X250879Y228505D01*
X250975Y228476D01*
X251069Y228443D01*
X251162Y228407D01*
X251253Y228367D01*
X251343Y228323D01*
X251431Y228276D01*
X251517Y228226D01*
X251601Y228172D01*
X251683Y228115D01*
X251762Y228055D01*
X251840Y227991D01*
X251914Y227925D01*
X251986Y227856D01*
X252055Y227784D01*
X252121Y227710D01*
X252185Y227632D01*
X252245Y227553D01*
X252302Y227471D01*
X252356Y227387D01*
X252406Y227301D01*
X252453Y227213D01*
X252497Y227123D01*
X252537Y227032D01*
X252573Y226939D01*
X252606Y226845D01*
X252635Y226749D01*
X252660Y226653D01*
X252681Y226556D01*
X252699Y226457D01*
X252712Y226359D01*
X252722Y226259D01*
X252728Y226160D01*
X252730Y226060D01*
X252728Y225919D01*
X252723Y225778D01*
X252713Y225637D01*
X252700Y225496D01*
X252684Y225356D01*
X252663Y225216D01*
X252639Y225077D01*
X252611Y224938D01*
X252580Y224801D01*
X252545Y224664D01*
X252507Y224528D01*
X252465Y224393D01*
X252419Y224260D01*
X252370Y224127D01*
X252317Y223996D01*
X252261Y223867D01*
X252202Y223738D01*
X252139Y223612D01*
X252073Y223487D01*
X252004Y223364D01*
X251931Y223243D01*
X251855Y223124D01*
X251776Y223006D01*
X251695Y222891D01*
X251610Y222779D01*
X251522Y222668D01*
X251431Y222560D01*
X251338Y222454D01*
X251241Y222351D01*
X251142Y222250D01*
X243840Y222568D02*
X243740Y222570D01*
X243641Y222576D01*
X243541Y222586D01*
X243443Y222599D01*
X243344Y222617D01*
X243247Y222638D01*
X243151Y222663D01*
X243055Y222692D01*
X242961Y222725D01*
X242868Y222761D01*
X242777Y222801D01*
X242687Y222845D01*
X242599Y222892D01*
X242513Y222942D01*
X242429Y222996D01*
X242347Y223053D01*
X242268Y223113D01*
X242190Y223177D01*
X242116Y223243D01*
X242044Y223312D01*
X241975Y223384D01*
X241909Y223458D01*
X241845Y223536D01*
X241785Y223615D01*
X241728Y223697D01*
X241674Y223781D01*
X241624Y223867D01*
X241577Y223955D01*
X241533Y224045D01*
X241493Y224136D01*
X241457Y224229D01*
X241424Y224323D01*
X241395Y224419D01*
X241370Y224515D01*
X241349Y224612D01*
X241331Y224711D01*
X241318Y224809D01*
X241308Y224909D01*
X241302Y225008D01*
X241300Y225108D01*
X241302Y225241D01*
X241307Y225374D01*
X241317Y225507D01*
X241330Y225640D01*
X241347Y225772D01*
X241367Y225904D01*
X241391Y226035D01*
X241419Y226165D01*
X241450Y226295D01*
X241485Y226423D01*
X241524Y226551D01*
X241566Y226677D01*
X241612Y226802D01*
X241661Y226926D01*
X241713Y227049D01*
X241769Y227170D01*
X241829Y227289D01*
X241891Y227407D01*
X241957Y227522D01*
X242026Y227636D01*
X242099Y227748D01*
X242174Y227858D01*
X242253Y227966D01*
X246063Y223837D02*
X246011Y223753D01*
X245956Y223670D01*
X245897Y223590D01*
X245836Y223512D01*
X245772Y223437D01*
X245704Y223364D01*
X245634Y223293D01*
X245562Y223226D01*
X245487Y223161D01*
X245409Y223099D01*
X245329Y223040D01*
X245247Y222984D01*
X245163Y222932D01*
X245077Y222883D01*
X244989Y222837D01*
X244899Y222794D01*
X244808Y222755D01*
X244715Y222720D01*
X244621Y222688D01*
X244526Y222660D01*
X244430Y222635D01*
X244333Y222615D01*
X244235Y222597D01*
X244137Y222584D01*
X244038Y222575D01*
X243939Y222569D01*
X243840Y222567D01*
X247967Y227330D02*
X248019Y227414D01*
X248074Y227497D01*
X248133Y227577D01*
X248194Y227655D01*
X248258Y227730D01*
X248326Y227803D01*
X248396Y227874D01*
X248468Y227941D01*
X248543Y228006D01*
X248621Y228068D01*
X248701Y228127D01*
X248783Y228183D01*
X248867Y228235D01*
X248953Y228284D01*
X249041Y228330D01*
X249131Y228373D01*
X249222Y228412D01*
X249315Y228447D01*
X249409Y228479D01*
X249504Y228507D01*
X249600Y228532D01*
X249697Y228552D01*
X249795Y228570D01*
X249893Y228583D01*
X249992Y228592D01*
X250091Y228598D01*
X250190Y228600D01*
X247968Y227330D02*
X246063Y223838D01*
X241300Y234188D02*
X252730Y234188D01*
X252730Y232918D02*
X252730Y235458D01*
X241300Y235458D02*
X241300Y232918D01*
X246380Y244983D02*
X246380Y246888D01*
X252730Y246888D01*
X252730Y243078D01*
X252728Y242978D01*
X252722Y242879D01*
X252712Y242779D01*
X252699Y242681D01*
X252681Y242582D01*
X252660Y242485D01*
X252635Y242389D01*
X252606Y242293D01*
X252573Y242199D01*
X252537Y242106D01*
X252497Y242015D01*
X252453Y241925D01*
X252406Y241837D01*
X252356Y241751D01*
X252302Y241667D01*
X252245Y241585D01*
X252185Y241506D01*
X252121Y241428D01*
X252055Y241354D01*
X251986Y241282D01*
X251914Y241213D01*
X251840Y241147D01*
X251762Y241083D01*
X251683Y241023D01*
X251601Y240966D01*
X251517Y240912D01*
X251431Y240862D01*
X251343Y240815D01*
X251253Y240771D01*
X251162Y240731D01*
X251069Y240695D01*
X250975Y240662D01*
X250879Y240633D01*
X250783Y240608D01*
X250686Y240587D01*
X250587Y240569D01*
X250489Y240556D01*
X250389Y240546D01*
X250290Y240540D01*
X250190Y240538D01*
X243840Y240538D01*
X243740Y240540D01*
X243641Y240546D01*
X243541Y240556D01*
X243443Y240569D01*
X243344Y240587D01*
X243247Y240608D01*
X243151Y240633D01*
X243055Y240662D01*
X242961Y240695D01*
X242868Y240731D01*
X242777Y240771D01*
X242687Y240815D01*
X242599Y240862D01*
X242513Y240912D01*
X242429Y240966D01*
X242347Y241023D01*
X242268Y241083D01*
X242190Y241147D01*
X242116Y241213D01*
X242044Y241282D01*
X241975Y241354D01*
X241909Y241428D01*
X241845Y241506D01*
X241785Y241585D01*
X241728Y241667D01*
X241674Y241751D01*
X241624Y241837D01*
X241577Y241925D01*
X241533Y242015D01*
X241493Y242106D01*
X241457Y242199D01*
X241424Y242293D01*
X241395Y242389D01*
X241370Y242485D01*
X241349Y242582D01*
X241331Y242681D01*
X241318Y242779D01*
X241308Y242879D01*
X241302Y242978D01*
X241300Y243078D01*
X241300Y246888D01*
X241300Y252730D02*
X252730Y252730D01*
X252730Y259080D02*
X241300Y252730D01*
X241300Y259080D02*
X252730Y259080D01*
X252730Y263906D02*
X241300Y267716D01*
X252730Y271526D01*
X249873Y270574D02*
X249873Y264859D01*
X252730Y276377D02*
X241300Y276377D01*
X252730Y276377D02*
X252730Y281457D01*
X254000Y285369D02*
X254000Y290449D01*
X252730Y294386D02*
X241300Y298196D01*
X252730Y302006D01*
X249873Y301053D02*
X249873Y295338D01*
X252730Y306959D02*
X241300Y306959D01*
X247650Y310769D01*
X241300Y314579D01*
X252730Y314579D01*
X252730Y320738D02*
X241300Y320738D01*
X241300Y323913D01*
X241302Y324024D01*
X241308Y324134D01*
X241317Y324245D01*
X241331Y324355D01*
X241348Y324464D01*
X241369Y324573D01*
X241394Y324681D01*
X241423Y324788D01*
X241455Y324894D01*
X241491Y324999D01*
X241531Y325102D01*
X241574Y325204D01*
X241621Y325305D01*
X241672Y325404D01*
X241725Y325501D01*
X241782Y325595D01*
X241843Y325688D01*
X241906Y325779D01*
X241973Y325868D01*
X242043Y325954D01*
X242116Y326037D01*
X242191Y326119D01*
X242269Y326197D01*
X242351Y326272D01*
X242434Y326345D01*
X242520Y326415D01*
X242609Y326482D01*
X242700Y326545D01*
X242793Y326606D01*
X242888Y326663D01*
X242984Y326716D01*
X243083Y326767D01*
X243184Y326814D01*
X243286Y326857D01*
X243389Y326897D01*
X243494Y326933D01*
X243600Y326965D01*
X243707Y326994D01*
X243815Y327019D01*
X243924Y327040D01*
X244033Y327057D01*
X244143Y327071D01*
X244254Y327080D01*
X244364Y327086D01*
X244475Y327088D01*
X244586Y327086D01*
X244696Y327080D01*
X244807Y327071D01*
X244917Y327057D01*
X245026Y327040D01*
X245135Y327019D01*
X245243Y326994D01*
X245350Y326965D01*
X245456Y326933D01*
X245561Y326897D01*
X245664Y326857D01*
X245766Y326814D01*
X245867Y326767D01*
X245966Y326716D01*
X246063Y326663D01*
X246157Y326606D01*
X246250Y326545D01*
X246341Y326482D01*
X246430Y326415D01*
X246516Y326345D01*
X246599Y326272D01*
X246681Y326197D01*
X246759Y326119D01*
X246834Y326037D01*
X246907Y325954D01*
X246977Y325868D01*
X247044Y325779D01*
X247107Y325688D01*
X247168Y325595D01*
X247225Y325501D01*
X247278Y325404D01*
X247329Y325305D01*
X247376Y325204D01*
X247419Y325102D01*
X247459Y324999D01*
X247495Y324894D01*
X247527Y324788D01*
X247556Y324681D01*
X247581Y324573D01*
X247602Y324464D01*
X247619Y324355D01*
X247633Y324245D01*
X247642Y324134D01*
X247648Y324024D01*
X247650Y323913D01*
X247650Y320738D01*
X254000Y331089D02*
X254000Y336169D01*
D10*
X429260Y44450D02*
X429270Y45292D01*
X429301Y46133D01*
X429353Y46973D01*
X429425Y47811D01*
X429518Y48647D01*
X429631Y49481D01*
X429765Y50312D01*
X429919Y51140D01*
X430093Y51963D01*
X430288Y52782D01*
X430502Y53596D01*
X430737Y54404D01*
X430991Y55206D01*
X431264Y56002D01*
X431558Y56791D01*
X431870Y57572D01*
X432202Y58346D01*
X432552Y59111D01*
X432921Y59867D01*
X433309Y60614D01*
X433715Y61351D01*
X434138Y62079D01*
X434580Y62795D01*
X435039Y63501D01*
X435515Y64194D01*
X436008Y64877D01*
X436518Y65546D01*
X437043Y66203D01*
X437585Y66847D01*
X438143Y67478D01*
X438716Y68094D01*
X439303Y68697D01*
X439906Y69284D01*
X440522Y69857D01*
X441153Y70415D01*
X441797Y70957D01*
X442454Y71482D01*
X443123Y71992D01*
X443806Y72485D01*
X444499Y72961D01*
X445205Y73420D01*
X445921Y73862D01*
X446649Y74285D01*
X447386Y74691D01*
X448133Y75079D01*
X448889Y75448D01*
X449654Y75798D01*
X450428Y76130D01*
X451209Y76442D01*
X451998Y76736D01*
X452794Y77009D01*
X453596Y77263D01*
X454404Y77498D01*
X455218Y77712D01*
X456037Y77907D01*
X456860Y78081D01*
X457688Y78235D01*
X458519Y78369D01*
X459353Y78482D01*
X460189Y78575D01*
X461027Y78647D01*
X461867Y78699D01*
X462708Y78730D01*
X463550Y78740D01*
X464392Y78730D01*
X465233Y78699D01*
X466073Y78647D01*
X466911Y78575D01*
X467747Y78482D01*
X468581Y78369D01*
X469412Y78235D01*
X470240Y78081D01*
X471063Y77907D01*
X471882Y77712D01*
X472696Y77498D01*
X473504Y77263D01*
X474306Y77009D01*
X475102Y76736D01*
X475891Y76442D01*
X476672Y76130D01*
X477446Y75798D01*
X478211Y75448D01*
X478967Y75079D01*
X479714Y74691D01*
X480451Y74285D01*
X481179Y73862D01*
X481895Y73420D01*
X482601Y72961D01*
X483294Y72485D01*
X483977Y71992D01*
X484646Y71482D01*
X485303Y70957D01*
X485947Y70415D01*
X486578Y69857D01*
X487194Y69284D01*
X487797Y68697D01*
X488384Y68094D01*
X488957Y67478D01*
X489515Y66847D01*
X490057Y66203D01*
X490582Y65546D01*
X491092Y64877D01*
X491585Y64194D01*
X492061Y63501D01*
X492520Y62795D01*
X492962Y62079D01*
X493385Y61351D01*
X493791Y60614D01*
X494179Y59867D01*
X494548Y59111D01*
X494898Y58346D01*
X495230Y57572D01*
X495542Y56791D01*
X495836Y56002D01*
X496109Y55206D01*
X496363Y54404D01*
X496598Y53596D01*
X496812Y52782D01*
X497007Y51963D01*
X497181Y51140D01*
X497335Y50312D01*
X497469Y49481D01*
X497582Y48647D01*
X497675Y47811D01*
X497747Y46973D01*
X497799Y46133D01*
X497830Y45292D01*
X497840Y44450D01*
X497830Y43608D01*
X497799Y42767D01*
X497747Y41927D01*
X497675Y41089D01*
X497582Y40253D01*
X497469Y39419D01*
X497335Y38588D01*
X497181Y37760D01*
X497007Y36937D01*
X496812Y36118D01*
X496598Y35304D01*
X496363Y34496D01*
X496109Y33694D01*
X495836Y32898D01*
X495542Y32109D01*
X495230Y31328D01*
X494898Y30554D01*
X494548Y29789D01*
X494179Y29033D01*
X493791Y28286D01*
X493385Y27549D01*
X492962Y26821D01*
X492520Y26105D01*
X492061Y25399D01*
X491585Y24706D01*
X491092Y24023D01*
X490582Y23354D01*
X490057Y22697D01*
X489515Y22053D01*
X488957Y21422D01*
X488384Y20806D01*
X487797Y20203D01*
X487194Y19616D01*
X486578Y19043D01*
X485947Y18485D01*
X485303Y17943D01*
X484646Y17418D01*
X483977Y16908D01*
X483294Y16415D01*
X482601Y15939D01*
X481895Y15480D01*
X481179Y15038D01*
X480451Y14615D01*
X479714Y14209D01*
X478967Y13821D01*
X478211Y13452D01*
X477446Y13102D01*
X476672Y12770D01*
X475891Y12458D01*
X475102Y12164D01*
X474306Y11891D01*
X473504Y11637D01*
X472696Y11402D01*
X471882Y11188D01*
X471063Y10993D01*
X470240Y10819D01*
X469412Y10665D01*
X468581Y10531D01*
X467747Y10418D01*
X466911Y10325D01*
X466073Y10253D01*
X465233Y10201D01*
X464392Y10170D01*
X463550Y10160D01*
X462708Y10170D01*
X461867Y10201D01*
X461027Y10253D01*
X460189Y10325D01*
X459353Y10418D01*
X458519Y10531D01*
X457688Y10665D01*
X456860Y10819D01*
X456037Y10993D01*
X455218Y11188D01*
X454404Y11402D01*
X453596Y11637D01*
X452794Y11891D01*
X451998Y12164D01*
X451209Y12458D01*
X450428Y12770D01*
X449654Y13102D01*
X448889Y13452D01*
X448133Y13821D01*
X447386Y14209D01*
X446649Y14615D01*
X445921Y15038D01*
X445205Y15480D01*
X444499Y15939D01*
X443806Y16415D01*
X443123Y16908D01*
X442454Y17418D01*
X441797Y17943D01*
X441153Y18485D01*
X440522Y19043D01*
X439906Y19616D01*
X439303Y20203D01*
X438716Y20806D01*
X438143Y21422D01*
X437585Y22053D01*
X437043Y22697D01*
X436518Y23354D01*
X436008Y24023D01*
X435515Y24706D01*
X435039Y25399D01*
X434580Y26105D01*
X434138Y26821D01*
X433715Y27549D01*
X433309Y28286D01*
X432921Y29033D01*
X432552Y29789D01*
X432202Y30554D01*
X431870Y31328D01*
X431558Y32109D01*
X431264Y32898D01*
X430991Y33694D01*
X430737Y34496D01*
X430502Y35304D01*
X430288Y36118D01*
X430093Y36937D01*
X429919Y37760D01*
X429765Y38588D01*
X429631Y39419D01*
X429518Y40253D01*
X429425Y41089D01*
X429353Y41927D01*
X429301Y42767D01*
X429270Y43608D01*
X429260Y44450D01*
D21*
X447550Y44450D02*
X447555Y44843D01*
X447569Y45235D01*
X447593Y45627D01*
X447627Y46018D01*
X447670Y46409D01*
X447723Y46798D01*
X447786Y47185D01*
X447857Y47571D01*
X447939Y47956D01*
X448029Y48338D01*
X448130Y48717D01*
X448239Y49095D01*
X448358Y49469D01*
X448485Y49840D01*
X448622Y50208D01*
X448768Y50573D01*
X448923Y50934D01*
X449086Y51291D01*
X449258Y51644D01*
X449439Y51992D01*
X449629Y52336D01*
X449826Y52676D01*
X450032Y53010D01*
X450246Y53339D01*
X450469Y53663D01*
X450699Y53981D01*
X450936Y54294D01*
X451182Y54600D01*
X451435Y54901D01*
X451695Y55195D01*
X451962Y55483D01*
X452236Y55764D01*
X452517Y56038D01*
X452805Y56305D01*
X453099Y56565D01*
X453400Y56818D01*
X453706Y57064D01*
X454019Y57301D01*
X454337Y57531D01*
X454661Y57754D01*
X454990Y57968D01*
X455324Y58174D01*
X455664Y58371D01*
X456008Y58561D01*
X456356Y58742D01*
X456709Y58914D01*
X457066Y59077D01*
X457427Y59232D01*
X457792Y59378D01*
X458160Y59515D01*
X458531Y59642D01*
X458905Y59761D01*
X459283Y59870D01*
X459662Y59971D01*
X460044Y60061D01*
X460429Y60143D01*
X460815Y60214D01*
X461202Y60277D01*
X461591Y60330D01*
X461982Y60373D01*
X462373Y60407D01*
X462765Y60431D01*
X463157Y60445D01*
X463550Y60450D01*
X463943Y60445D01*
X464335Y60431D01*
X464727Y60407D01*
X465118Y60373D01*
X465509Y60330D01*
X465898Y60277D01*
X466285Y60214D01*
X466671Y60143D01*
X467056Y60061D01*
X467438Y59971D01*
X467817Y59870D01*
X468195Y59761D01*
X468569Y59642D01*
X468940Y59515D01*
X469308Y59378D01*
X469673Y59232D01*
X470034Y59077D01*
X470391Y58914D01*
X470744Y58742D01*
X471092Y58561D01*
X471436Y58371D01*
X471776Y58174D01*
X472110Y57968D01*
X472439Y57754D01*
X472763Y57531D01*
X473081Y57301D01*
X473394Y57064D01*
X473700Y56818D01*
X474001Y56565D01*
X474295Y56305D01*
X474583Y56038D01*
X474864Y55764D01*
X475138Y55483D01*
X475405Y55195D01*
X475665Y54901D01*
X475918Y54600D01*
X476164Y54294D01*
X476401Y53981D01*
X476631Y53663D01*
X476854Y53339D01*
X477068Y53010D01*
X477274Y52676D01*
X477471Y52336D01*
X477661Y51992D01*
X477842Y51644D01*
X478014Y51291D01*
X478177Y50934D01*
X478332Y50573D01*
X478478Y50208D01*
X478615Y49840D01*
X478742Y49469D01*
X478861Y49095D01*
X478970Y48717D01*
X479071Y48338D01*
X479161Y47956D01*
X479243Y47571D01*
X479314Y47185D01*
X479377Y46798D01*
X479430Y46409D01*
X479473Y46018D01*
X479507Y45627D01*
X479531Y45235D01*
X479545Y44843D01*
X479550Y44450D01*
X479545Y44057D01*
X479531Y43665D01*
X479507Y43273D01*
X479473Y42882D01*
X479430Y42491D01*
X479377Y42102D01*
X479314Y41715D01*
X479243Y41329D01*
X479161Y40944D01*
X479071Y40562D01*
X478970Y40183D01*
X478861Y39805D01*
X478742Y39431D01*
X478615Y39060D01*
X478478Y38692D01*
X478332Y38327D01*
X478177Y37966D01*
X478014Y37609D01*
X477842Y37256D01*
X477661Y36908D01*
X477471Y36564D01*
X477274Y36224D01*
X477068Y35890D01*
X476854Y35561D01*
X476631Y35237D01*
X476401Y34919D01*
X476164Y34606D01*
X475918Y34300D01*
X475665Y33999D01*
X475405Y33705D01*
X475138Y33417D01*
X474864Y33136D01*
X474583Y32862D01*
X474295Y32595D01*
X474001Y32335D01*
X473700Y32082D01*
X473394Y31836D01*
X473081Y31599D01*
X472763Y31369D01*
X472439Y31146D01*
X472110Y30932D01*
X471776Y30726D01*
X471436Y30529D01*
X471092Y30339D01*
X470744Y30158D01*
X470391Y29986D01*
X470034Y29823D01*
X469673Y29668D01*
X469308Y29522D01*
X468940Y29385D01*
X468569Y29258D01*
X468195Y29139D01*
X467817Y29030D01*
X467438Y28929D01*
X467056Y28839D01*
X466671Y28757D01*
X466285Y28686D01*
X465898Y28623D01*
X465509Y28570D01*
X465118Y28527D01*
X464727Y28493D01*
X464335Y28469D01*
X463943Y28455D01*
X463550Y28450D01*
X463157Y28455D01*
X462765Y28469D01*
X462373Y28493D01*
X461982Y28527D01*
X461591Y28570D01*
X461202Y28623D01*
X460815Y28686D01*
X460429Y28757D01*
X460044Y28839D01*
X459662Y28929D01*
X459283Y29030D01*
X458905Y29139D01*
X458531Y29258D01*
X458160Y29385D01*
X457792Y29522D01*
X457427Y29668D01*
X457066Y29823D01*
X456709Y29986D01*
X456356Y30158D01*
X456008Y30339D01*
X455664Y30529D01*
X455324Y30726D01*
X454990Y30932D01*
X454661Y31146D01*
X454337Y31369D01*
X454019Y31599D01*
X453706Y31836D01*
X453400Y32082D01*
X453099Y32335D01*
X452805Y32595D01*
X452517Y32862D01*
X452236Y33136D01*
X451962Y33417D01*
X451695Y33705D01*
X451435Y33999D01*
X451182Y34300D01*
X450936Y34606D01*
X450699Y34919D01*
X450469Y35237D01*
X450246Y35561D01*
X450032Y35890D01*
X449826Y36224D01*
X449629Y36564D01*
X449439Y36908D01*
X449258Y37256D01*
X449086Y37609D01*
X448923Y37966D01*
X448768Y38327D01*
X448622Y38692D01*
X448485Y39060D01*
X448358Y39431D01*
X448239Y39805D01*
X448130Y40183D01*
X448029Y40562D01*
X447939Y40944D01*
X447857Y41329D01*
X447786Y41715D01*
X447723Y42102D01*
X447670Y42491D01*
X447627Y42882D01*
X447593Y43273D01*
X447569Y43665D01*
X447555Y44057D01*
X447550Y44450D01*
D10*
X429260Y755650D02*
X429270Y756492D01*
X429301Y757333D01*
X429353Y758173D01*
X429425Y759011D01*
X429518Y759847D01*
X429631Y760681D01*
X429765Y761512D01*
X429919Y762340D01*
X430093Y763163D01*
X430288Y763982D01*
X430502Y764796D01*
X430737Y765604D01*
X430991Y766406D01*
X431264Y767202D01*
X431558Y767991D01*
X431870Y768772D01*
X432202Y769546D01*
X432552Y770311D01*
X432921Y771067D01*
X433309Y771814D01*
X433715Y772551D01*
X434138Y773279D01*
X434580Y773995D01*
X435039Y774701D01*
X435515Y775394D01*
X436008Y776077D01*
X436518Y776746D01*
X437043Y777403D01*
X437585Y778047D01*
X438143Y778678D01*
X438716Y779294D01*
X439303Y779897D01*
X439906Y780484D01*
X440522Y781057D01*
X441153Y781615D01*
X441797Y782157D01*
X442454Y782682D01*
X443123Y783192D01*
X443806Y783685D01*
X444499Y784161D01*
X445205Y784620D01*
X445921Y785062D01*
X446649Y785485D01*
X447386Y785891D01*
X448133Y786279D01*
X448889Y786648D01*
X449654Y786998D01*
X450428Y787330D01*
X451209Y787642D01*
X451998Y787936D01*
X452794Y788209D01*
X453596Y788463D01*
X454404Y788698D01*
X455218Y788912D01*
X456037Y789107D01*
X456860Y789281D01*
X457688Y789435D01*
X458519Y789569D01*
X459353Y789682D01*
X460189Y789775D01*
X461027Y789847D01*
X461867Y789899D01*
X462708Y789930D01*
X463550Y789940D01*
X464392Y789930D01*
X465233Y789899D01*
X466073Y789847D01*
X466911Y789775D01*
X467747Y789682D01*
X468581Y789569D01*
X469412Y789435D01*
X470240Y789281D01*
X471063Y789107D01*
X471882Y788912D01*
X472696Y788698D01*
X473504Y788463D01*
X474306Y788209D01*
X475102Y787936D01*
X475891Y787642D01*
X476672Y787330D01*
X477446Y786998D01*
X478211Y786648D01*
X478967Y786279D01*
X479714Y785891D01*
X480451Y785485D01*
X481179Y785062D01*
X481895Y784620D01*
X482601Y784161D01*
X483294Y783685D01*
X483977Y783192D01*
X484646Y782682D01*
X485303Y782157D01*
X485947Y781615D01*
X486578Y781057D01*
X487194Y780484D01*
X487797Y779897D01*
X488384Y779294D01*
X488957Y778678D01*
X489515Y778047D01*
X490057Y777403D01*
X490582Y776746D01*
X491092Y776077D01*
X491585Y775394D01*
X492061Y774701D01*
X492520Y773995D01*
X492962Y773279D01*
X493385Y772551D01*
X493791Y771814D01*
X494179Y771067D01*
X494548Y770311D01*
X494898Y769546D01*
X495230Y768772D01*
X495542Y767991D01*
X495836Y767202D01*
X496109Y766406D01*
X496363Y765604D01*
X496598Y764796D01*
X496812Y763982D01*
X497007Y763163D01*
X497181Y762340D01*
X497335Y761512D01*
X497469Y760681D01*
X497582Y759847D01*
X497675Y759011D01*
X497747Y758173D01*
X497799Y757333D01*
X497830Y756492D01*
X497840Y755650D01*
X497830Y754808D01*
X497799Y753967D01*
X497747Y753127D01*
X497675Y752289D01*
X497582Y751453D01*
X497469Y750619D01*
X497335Y749788D01*
X497181Y748960D01*
X497007Y748137D01*
X496812Y747318D01*
X496598Y746504D01*
X496363Y745696D01*
X496109Y744894D01*
X495836Y744098D01*
X495542Y743309D01*
X495230Y742528D01*
X494898Y741754D01*
X494548Y740989D01*
X494179Y740233D01*
X493791Y739486D01*
X493385Y738749D01*
X492962Y738021D01*
X492520Y737305D01*
X492061Y736599D01*
X491585Y735906D01*
X491092Y735223D01*
X490582Y734554D01*
X490057Y733897D01*
X489515Y733253D01*
X488957Y732622D01*
X488384Y732006D01*
X487797Y731403D01*
X487194Y730816D01*
X486578Y730243D01*
X485947Y729685D01*
X485303Y729143D01*
X484646Y728618D01*
X483977Y728108D01*
X483294Y727615D01*
X482601Y727139D01*
X481895Y726680D01*
X481179Y726238D01*
X480451Y725815D01*
X479714Y725409D01*
X478967Y725021D01*
X478211Y724652D01*
X477446Y724302D01*
X476672Y723970D01*
X475891Y723658D01*
X475102Y723364D01*
X474306Y723091D01*
X473504Y722837D01*
X472696Y722602D01*
X471882Y722388D01*
X471063Y722193D01*
X470240Y722019D01*
X469412Y721865D01*
X468581Y721731D01*
X467747Y721618D01*
X466911Y721525D01*
X466073Y721453D01*
X465233Y721401D01*
X464392Y721370D01*
X463550Y721360D01*
X462708Y721370D01*
X461867Y721401D01*
X461027Y721453D01*
X460189Y721525D01*
X459353Y721618D01*
X458519Y721731D01*
X457688Y721865D01*
X456860Y722019D01*
X456037Y722193D01*
X455218Y722388D01*
X454404Y722602D01*
X453596Y722837D01*
X452794Y723091D01*
X451998Y723364D01*
X451209Y723658D01*
X450428Y723970D01*
X449654Y724302D01*
X448889Y724652D01*
X448133Y725021D01*
X447386Y725409D01*
X446649Y725815D01*
X445921Y726238D01*
X445205Y726680D01*
X444499Y727139D01*
X443806Y727615D01*
X443123Y728108D01*
X442454Y728618D01*
X441797Y729143D01*
X441153Y729685D01*
X440522Y730243D01*
X439906Y730816D01*
X439303Y731403D01*
X438716Y732006D01*
X438143Y732622D01*
X437585Y733253D01*
X437043Y733897D01*
X436518Y734554D01*
X436008Y735223D01*
X435515Y735906D01*
X435039Y736599D01*
X434580Y737305D01*
X434138Y738021D01*
X433715Y738749D01*
X433309Y739486D01*
X432921Y740233D01*
X432552Y740989D01*
X432202Y741754D01*
X431870Y742528D01*
X431558Y743309D01*
X431264Y744098D01*
X430991Y744894D01*
X430737Y745696D01*
X430502Y746504D01*
X430288Y747318D01*
X430093Y748137D01*
X429919Y748960D01*
X429765Y749788D01*
X429631Y750619D01*
X429518Y751453D01*
X429425Y752289D01*
X429353Y753127D01*
X429301Y753967D01*
X429270Y754808D01*
X429260Y755650D01*
D21*
X447550Y755650D02*
X447555Y756043D01*
X447569Y756435D01*
X447593Y756827D01*
X447627Y757218D01*
X447670Y757609D01*
X447723Y757998D01*
X447786Y758385D01*
X447857Y758771D01*
X447939Y759156D01*
X448029Y759538D01*
X448130Y759917D01*
X448239Y760295D01*
X448358Y760669D01*
X448485Y761040D01*
X448622Y761408D01*
X448768Y761773D01*
X448923Y762134D01*
X449086Y762491D01*
X449258Y762844D01*
X449439Y763192D01*
X449629Y763536D01*
X449826Y763876D01*
X450032Y764210D01*
X450246Y764539D01*
X450469Y764863D01*
X450699Y765181D01*
X450936Y765494D01*
X451182Y765800D01*
X451435Y766101D01*
X451695Y766395D01*
X451962Y766683D01*
X452236Y766964D01*
X452517Y767238D01*
X452805Y767505D01*
X453099Y767765D01*
X453400Y768018D01*
X453706Y768264D01*
X454019Y768501D01*
X454337Y768731D01*
X454661Y768954D01*
X454990Y769168D01*
X455324Y769374D01*
X455664Y769571D01*
X456008Y769761D01*
X456356Y769942D01*
X456709Y770114D01*
X457066Y770277D01*
X457427Y770432D01*
X457792Y770578D01*
X458160Y770715D01*
X458531Y770842D01*
X458905Y770961D01*
X459283Y771070D01*
X459662Y771171D01*
X460044Y771261D01*
X460429Y771343D01*
X460815Y771414D01*
X461202Y771477D01*
X461591Y771530D01*
X461982Y771573D01*
X462373Y771607D01*
X462765Y771631D01*
X463157Y771645D01*
X463550Y771650D01*
X463943Y771645D01*
X464335Y771631D01*
X464727Y771607D01*
X465118Y771573D01*
X465509Y771530D01*
X465898Y771477D01*
X466285Y771414D01*
X466671Y771343D01*
X467056Y771261D01*
X467438Y771171D01*
X467817Y771070D01*
X468195Y770961D01*
X468569Y770842D01*
X468940Y770715D01*
X469308Y770578D01*
X469673Y770432D01*
X470034Y770277D01*
X470391Y770114D01*
X470744Y769942D01*
X471092Y769761D01*
X471436Y769571D01*
X471776Y769374D01*
X472110Y769168D01*
X472439Y768954D01*
X472763Y768731D01*
X473081Y768501D01*
X473394Y768264D01*
X473700Y768018D01*
X474001Y767765D01*
X474295Y767505D01*
X474583Y767238D01*
X474864Y766964D01*
X475138Y766683D01*
X475405Y766395D01*
X475665Y766101D01*
X475918Y765800D01*
X476164Y765494D01*
X476401Y765181D01*
X476631Y764863D01*
X476854Y764539D01*
X477068Y764210D01*
X477274Y763876D01*
X477471Y763536D01*
X477661Y763192D01*
X477842Y762844D01*
X478014Y762491D01*
X478177Y762134D01*
X478332Y761773D01*
X478478Y761408D01*
X478615Y761040D01*
X478742Y760669D01*
X478861Y760295D01*
X478970Y759917D01*
X479071Y759538D01*
X479161Y759156D01*
X479243Y758771D01*
X479314Y758385D01*
X479377Y757998D01*
X479430Y757609D01*
X479473Y757218D01*
X479507Y756827D01*
X479531Y756435D01*
X479545Y756043D01*
X479550Y755650D01*
X479545Y755257D01*
X479531Y754865D01*
X479507Y754473D01*
X479473Y754082D01*
X479430Y753691D01*
X479377Y753302D01*
X479314Y752915D01*
X479243Y752529D01*
X479161Y752144D01*
X479071Y751762D01*
X478970Y751383D01*
X478861Y751005D01*
X478742Y750631D01*
X478615Y750260D01*
X478478Y749892D01*
X478332Y749527D01*
X478177Y749166D01*
X478014Y748809D01*
X477842Y748456D01*
X477661Y748108D01*
X477471Y747764D01*
X477274Y747424D01*
X477068Y747090D01*
X476854Y746761D01*
X476631Y746437D01*
X476401Y746119D01*
X476164Y745806D01*
X475918Y745500D01*
X475665Y745199D01*
X475405Y744905D01*
X475138Y744617D01*
X474864Y744336D01*
X474583Y744062D01*
X474295Y743795D01*
X474001Y743535D01*
X473700Y743282D01*
X473394Y743036D01*
X473081Y742799D01*
X472763Y742569D01*
X472439Y742346D01*
X472110Y742132D01*
X471776Y741926D01*
X471436Y741729D01*
X471092Y741539D01*
X470744Y741358D01*
X470391Y741186D01*
X470034Y741023D01*
X469673Y740868D01*
X469308Y740722D01*
X468940Y740585D01*
X468569Y740458D01*
X468195Y740339D01*
X467817Y740230D01*
X467438Y740129D01*
X467056Y740039D01*
X466671Y739957D01*
X466285Y739886D01*
X465898Y739823D01*
X465509Y739770D01*
X465118Y739727D01*
X464727Y739693D01*
X464335Y739669D01*
X463943Y739655D01*
X463550Y739650D01*
X463157Y739655D01*
X462765Y739669D01*
X462373Y739693D01*
X461982Y739727D01*
X461591Y739770D01*
X461202Y739823D01*
X460815Y739886D01*
X460429Y739957D01*
X460044Y740039D01*
X459662Y740129D01*
X459283Y740230D01*
X458905Y740339D01*
X458531Y740458D01*
X458160Y740585D01*
X457792Y740722D01*
X457427Y740868D01*
X457066Y741023D01*
X456709Y741186D01*
X456356Y741358D01*
X456008Y741539D01*
X455664Y741729D01*
X455324Y741926D01*
X454990Y742132D01*
X454661Y742346D01*
X454337Y742569D01*
X454019Y742799D01*
X453706Y743036D01*
X453400Y743282D01*
X453099Y743535D01*
X452805Y743795D01*
X452517Y744062D01*
X452236Y744336D01*
X451962Y744617D01*
X451695Y744905D01*
X451435Y745199D01*
X451182Y745500D01*
X450936Y745806D01*
X450699Y746119D01*
X450469Y746437D01*
X450246Y746761D01*
X450032Y747090D01*
X449826Y747424D01*
X449629Y747764D01*
X449439Y748108D01*
X449258Y748456D01*
X449086Y748809D01*
X448923Y749166D01*
X448768Y749527D01*
X448622Y749892D01*
X448485Y750260D01*
X448358Y750631D01*
X448239Y751005D01*
X448130Y751383D01*
X448029Y751762D01*
X447939Y752144D01*
X447857Y752529D01*
X447786Y752915D01*
X447723Y753302D01*
X447670Y753691D01*
X447627Y754082D01*
X447593Y754473D01*
X447569Y754865D01*
X447555Y755257D01*
X447550Y755650D01*
D10*
X10160Y590550D02*
X10170Y591392D01*
X10201Y592233D01*
X10253Y593073D01*
X10325Y593911D01*
X10418Y594747D01*
X10531Y595581D01*
X10665Y596412D01*
X10819Y597240D01*
X10993Y598063D01*
X11188Y598882D01*
X11402Y599696D01*
X11637Y600504D01*
X11891Y601306D01*
X12164Y602102D01*
X12458Y602891D01*
X12770Y603672D01*
X13102Y604446D01*
X13452Y605211D01*
X13821Y605967D01*
X14209Y606714D01*
X14615Y607451D01*
X15038Y608179D01*
X15480Y608895D01*
X15939Y609601D01*
X16415Y610294D01*
X16908Y610977D01*
X17418Y611646D01*
X17943Y612303D01*
X18485Y612947D01*
X19043Y613578D01*
X19616Y614194D01*
X20203Y614797D01*
X20806Y615384D01*
X21422Y615957D01*
X22053Y616515D01*
X22697Y617057D01*
X23354Y617582D01*
X24023Y618092D01*
X24706Y618585D01*
X25399Y619061D01*
X26105Y619520D01*
X26821Y619962D01*
X27549Y620385D01*
X28286Y620791D01*
X29033Y621179D01*
X29789Y621548D01*
X30554Y621898D01*
X31328Y622230D01*
X32109Y622542D01*
X32898Y622836D01*
X33694Y623109D01*
X34496Y623363D01*
X35304Y623598D01*
X36118Y623812D01*
X36937Y624007D01*
X37760Y624181D01*
X38588Y624335D01*
X39419Y624469D01*
X40253Y624582D01*
X41089Y624675D01*
X41927Y624747D01*
X42767Y624799D01*
X43608Y624830D01*
X44450Y624840D01*
X45292Y624830D01*
X46133Y624799D01*
X46973Y624747D01*
X47811Y624675D01*
X48647Y624582D01*
X49481Y624469D01*
X50312Y624335D01*
X51140Y624181D01*
X51963Y624007D01*
X52782Y623812D01*
X53596Y623598D01*
X54404Y623363D01*
X55206Y623109D01*
X56002Y622836D01*
X56791Y622542D01*
X57572Y622230D01*
X58346Y621898D01*
X59111Y621548D01*
X59867Y621179D01*
X60614Y620791D01*
X61351Y620385D01*
X62079Y619962D01*
X62795Y619520D01*
X63501Y619061D01*
X64194Y618585D01*
X64877Y618092D01*
X65546Y617582D01*
X66203Y617057D01*
X66847Y616515D01*
X67478Y615957D01*
X68094Y615384D01*
X68697Y614797D01*
X69284Y614194D01*
X69857Y613578D01*
X70415Y612947D01*
X70957Y612303D01*
X71482Y611646D01*
X71992Y610977D01*
X72485Y610294D01*
X72961Y609601D01*
X73420Y608895D01*
X73862Y608179D01*
X74285Y607451D01*
X74691Y606714D01*
X75079Y605967D01*
X75448Y605211D01*
X75798Y604446D01*
X76130Y603672D01*
X76442Y602891D01*
X76736Y602102D01*
X77009Y601306D01*
X77263Y600504D01*
X77498Y599696D01*
X77712Y598882D01*
X77907Y598063D01*
X78081Y597240D01*
X78235Y596412D01*
X78369Y595581D01*
X78482Y594747D01*
X78575Y593911D01*
X78647Y593073D01*
X78699Y592233D01*
X78730Y591392D01*
X78740Y590550D01*
X78730Y589708D01*
X78699Y588867D01*
X78647Y588027D01*
X78575Y587189D01*
X78482Y586353D01*
X78369Y585519D01*
X78235Y584688D01*
X78081Y583860D01*
X77907Y583037D01*
X77712Y582218D01*
X77498Y581404D01*
X77263Y580596D01*
X77009Y579794D01*
X76736Y578998D01*
X76442Y578209D01*
X76130Y577428D01*
X75798Y576654D01*
X75448Y575889D01*
X75079Y575133D01*
X74691Y574386D01*
X74285Y573649D01*
X73862Y572921D01*
X73420Y572205D01*
X72961Y571499D01*
X72485Y570806D01*
X71992Y570123D01*
X71482Y569454D01*
X70957Y568797D01*
X70415Y568153D01*
X69857Y567522D01*
X69284Y566906D01*
X68697Y566303D01*
X68094Y565716D01*
X67478Y565143D01*
X66847Y564585D01*
X66203Y564043D01*
X65546Y563518D01*
X64877Y563008D01*
X64194Y562515D01*
X63501Y562039D01*
X62795Y561580D01*
X62079Y561138D01*
X61351Y560715D01*
X60614Y560309D01*
X59867Y559921D01*
X59111Y559552D01*
X58346Y559202D01*
X57572Y558870D01*
X56791Y558558D01*
X56002Y558264D01*
X55206Y557991D01*
X54404Y557737D01*
X53596Y557502D01*
X52782Y557288D01*
X51963Y557093D01*
X51140Y556919D01*
X50312Y556765D01*
X49481Y556631D01*
X48647Y556518D01*
X47811Y556425D01*
X46973Y556353D01*
X46133Y556301D01*
X45292Y556270D01*
X44450Y556260D01*
X43608Y556270D01*
X42767Y556301D01*
X41927Y556353D01*
X41089Y556425D01*
X40253Y556518D01*
X39419Y556631D01*
X38588Y556765D01*
X37760Y556919D01*
X36937Y557093D01*
X36118Y557288D01*
X35304Y557502D01*
X34496Y557737D01*
X33694Y557991D01*
X32898Y558264D01*
X32109Y558558D01*
X31328Y558870D01*
X30554Y559202D01*
X29789Y559552D01*
X29033Y559921D01*
X28286Y560309D01*
X27549Y560715D01*
X26821Y561138D01*
X26105Y561580D01*
X25399Y562039D01*
X24706Y562515D01*
X24023Y563008D01*
X23354Y563518D01*
X22697Y564043D01*
X22053Y564585D01*
X21422Y565143D01*
X20806Y565716D01*
X20203Y566303D01*
X19616Y566906D01*
X19043Y567522D01*
X18485Y568153D01*
X17943Y568797D01*
X17418Y569454D01*
X16908Y570123D01*
X16415Y570806D01*
X15939Y571499D01*
X15480Y572205D01*
X15038Y572921D01*
X14615Y573649D01*
X14209Y574386D01*
X13821Y575133D01*
X13452Y575889D01*
X13102Y576654D01*
X12770Y577428D01*
X12458Y578209D01*
X12164Y578998D01*
X11891Y579794D01*
X11637Y580596D01*
X11402Y581404D01*
X11188Y582218D01*
X10993Y583037D01*
X10819Y583860D01*
X10665Y584688D01*
X10531Y585519D01*
X10418Y586353D01*
X10325Y587189D01*
X10253Y588027D01*
X10201Y588867D01*
X10170Y589708D01*
X10160Y590550D01*
D21*
X28450Y590550D02*
X28455Y590943D01*
X28469Y591335D01*
X28493Y591727D01*
X28527Y592118D01*
X28570Y592509D01*
X28623Y592898D01*
X28686Y593285D01*
X28757Y593671D01*
X28839Y594056D01*
X28929Y594438D01*
X29030Y594817D01*
X29139Y595195D01*
X29258Y595569D01*
X29385Y595940D01*
X29522Y596308D01*
X29668Y596673D01*
X29823Y597034D01*
X29986Y597391D01*
X30158Y597744D01*
X30339Y598092D01*
X30529Y598436D01*
X30726Y598776D01*
X30932Y599110D01*
X31146Y599439D01*
X31369Y599763D01*
X31599Y600081D01*
X31836Y600394D01*
X32082Y600700D01*
X32335Y601001D01*
X32595Y601295D01*
X32862Y601583D01*
X33136Y601864D01*
X33417Y602138D01*
X33705Y602405D01*
X33999Y602665D01*
X34300Y602918D01*
X34606Y603164D01*
X34919Y603401D01*
X35237Y603631D01*
X35561Y603854D01*
X35890Y604068D01*
X36224Y604274D01*
X36564Y604471D01*
X36908Y604661D01*
X37256Y604842D01*
X37609Y605014D01*
X37966Y605177D01*
X38327Y605332D01*
X38692Y605478D01*
X39060Y605615D01*
X39431Y605742D01*
X39805Y605861D01*
X40183Y605970D01*
X40562Y606071D01*
X40944Y606161D01*
X41329Y606243D01*
X41715Y606314D01*
X42102Y606377D01*
X42491Y606430D01*
X42882Y606473D01*
X43273Y606507D01*
X43665Y606531D01*
X44057Y606545D01*
X44450Y606550D01*
X44843Y606545D01*
X45235Y606531D01*
X45627Y606507D01*
X46018Y606473D01*
X46409Y606430D01*
X46798Y606377D01*
X47185Y606314D01*
X47571Y606243D01*
X47956Y606161D01*
X48338Y606071D01*
X48717Y605970D01*
X49095Y605861D01*
X49469Y605742D01*
X49840Y605615D01*
X50208Y605478D01*
X50573Y605332D01*
X50934Y605177D01*
X51291Y605014D01*
X51644Y604842D01*
X51992Y604661D01*
X52336Y604471D01*
X52676Y604274D01*
X53010Y604068D01*
X53339Y603854D01*
X53663Y603631D01*
X53981Y603401D01*
X54294Y603164D01*
X54600Y602918D01*
X54901Y602665D01*
X55195Y602405D01*
X55483Y602138D01*
X55764Y601864D01*
X56038Y601583D01*
X56305Y601295D01*
X56565Y601001D01*
X56818Y600700D01*
X57064Y600394D01*
X57301Y600081D01*
X57531Y599763D01*
X57754Y599439D01*
X57968Y599110D01*
X58174Y598776D01*
X58371Y598436D01*
X58561Y598092D01*
X58742Y597744D01*
X58914Y597391D01*
X59077Y597034D01*
X59232Y596673D01*
X59378Y596308D01*
X59515Y595940D01*
X59642Y595569D01*
X59761Y595195D01*
X59870Y594817D01*
X59971Y594438D01*
X60061Y594056D01*
X60143Y593671D01*
X60214Y593285D01*
X60277Y592898D01*
X60330Y592509D01*
X60373Y592118D01*
X60407Y591727D01*
X60431Y591335D01*
X60445Y590943D01*
X60450Y590550D01*
X60445Y590157D01*
X60431Y589765D01*
X60407Y589373D01*
X60373Y588982D01*
X60330Y588591D01*
X60277Y588202D01*
X60214Y587815D01*
X60143Y587429D01*
X60061Y587044D01*
X59971Y586662D01*
X59870Y586283D01*
X59761Y585905D01*
X59642Y585531D01*
X59515Y585160D01*
X59378Y584792D01*
X59232Y584427D01*
X59077Y584066D01*
X58914Y583709D01*
X58742Y583356D01*
X58561Y583008D01*
X58371Y582664D01*
X58174Y582324D01*
X57968Y581990D01*
X57754Y581661D01*
X57531Y581337D01*
X57301Y581019D01*
X57064Y580706D01*
X56818Y580400D01*
X56565Y580099D01*
X56305Y579805D01*
X56038Y579517D01*
X55764Y579236D01*
X55483Y578962D01*
X55195Y578695D01*
X54901Y578435D01*
X54600Y578182D01*
X54294Y577936D01*
X53981Y577699D01*
X53663Y577469D01*
X53339Y577246D01*
X53010Y577032D01*
X52676Y576826D01*
X52336Y576629D01*
X51992Y576439D01*
X51644Y576258D01*
X51291Y576086D01*
X50934Y575923D01*
X50573Y575768D01*
X50208Y575622D01*
X49840Y575485D01*
X49469Y575358D01*
X49095Y575239D01*
X48717Y575130D01*
X48338Y575029D01*
X47956Y574939D01*
X47571Y574857D01*
X47185Y574786D01*
X46798Y574723D01*
X46409Y574670D01*
X46018Y574627D01*
X45627Y574593D01*
X45235Y574569D01*
X44843Y574555D01*
X44450Y574550D01*
X44057Y574555D01*
X43665Y574569D01*
X43273Y574593D01*
X42882Y574627D01*
X42491Y574670D01*
X42102Y574723D01*
X41715Y574786D01*
X41329Y574857D01*
X40944Y574939D01*
X40562Y575029D01*
X40183Y575130D01*
X39805Y575239D01*
X39431Y575358D01*
X39060Y575485D01*
X38692Y575622D01*
X38327Y575768D01*
X37966Y575923D01*
X37609Y576086D01*
X37256Y576258D01*
X36908Y576439D01*
X36564Y576629D01*
X36224Y576826D01*
X35890Y577032D01*
X35561Y577246D01*
X35237Y577469D01*
X34919Y577699D01*
X34606Y577936D01*
X34300Y578182D01*
X33999Y578435D01*
X33705Y578695D01*
X33417Y578962D01*
X33136Y579236D01*
X32862Y579517D01*
X32595Y579805D01*
X32335Y580099D01*
X32082Y580400D01*
X31836Y580706D01*
X31599Y581019D01*
X31369Y581337D01*
X31146Y581661D01*
X30932Y581990D01*
X30726Y582324D01*
X30529Y582664D01*
X30339Y583008D01*
X30158Y583356D01*
X29986Y583709D01*
X29823Y584066D01*
X29668Y584427D01*
X29522Y584792D01*
X29385Y585160D01*
X29258Y585531D01*
X29139Y585905D01*
X29030Y586283D01*
X28929Y586662D01*
X28839Y587044D01*
X28757Y587429D01*
X28686Y587815D01*
X28623Y588202D01*
X28570Y588591D01*
X28527Y588982D01*
X28493Y589373D01*
X28469Y589765D01*
X28455Y590157D01*
X28450Y590550D01*
D10*
X10160Y209550D02*
X10170Y210392D01*
X10201Y211233D01*
X10253Y212073D01*
X10325Y212911D01*
X10418Y213747D01*
X10531Y214581D01*
X10665Y215412D01*
X10819Y216240D01*
X10993Y217063D01*
X11188Y217882D01*
X11402Y218696D01*
X11637Y219504D01*
X11891Y220306D01*
X12164Y221102D01*
X12458Y221891D01*
X12770Y222672D01*
X13102Y223446D01*
X13452Y224211D01*
X13821Y224967D01*
X14209Y225714D01*
X14615Y226451D01*
X15038Y227179D01*
X15480Y227895D01*
X15939Y228601D01*
X16415Y229294D01*
X16908Y229977D01*
X17418Y230646D01*
X17943Y231303D01*
X18485Y231947D01*
X19043Y232578D01*
X19616Y233194D01*
X20203Y233797D01*
X20806Y234384D01*
X21422Y234957D01*
X22053Y235515D01*
X22697Y236057D01*
X23354Y236582D01*
X24023Y237092D01*
X24706Y237585D01*
X25399Y238061D01*
X26105Y238520D01*
X26821Y238962D01*
X27549Y239385D01*
X28286Y239791D01*
X29033Y240179D01*
X29789Y240548D01*
X30554Y240898D01*
X31328Y241230D01*
X32109Y241542D01*
X32898Y241836D01*
X33694Y242109D01*
X34496Y242363D01*
X35304Y242598D01*
X36118Y242812D01*
X36937Y243007D01*
X37760Y243181D01*
X38588Y243335D01*
X39419Y243469D01*
X40253Y243582D01*
X41089Y243675D01*
X41927Y243747D01*
X42767Y243799D01*
X43608Y243830D01*
X44450Y243840D01*
X45292Y243830D01*
X46133Y243799D01*
X46973Y243747D01*
X47811Y243675D01*
X48647Y243582D01*
X49481Y243469D01*
X50312Y243335D01*
X51140Y243181D01*
X51963Y243007D01*
X52782Y242812D01*
X53596Y242598D01*
X54404Y242363D01*
X55206Y242109D01*
X56002Y241836D01*
X56791Y241542D01*
X57572Y241230D01*
X58346Y240898D01*
X59111Y240548D01*
X59867Y240179D01*
X60614Y239791D01*
X61351Y239385D01*
X62079Y238962D01*
X62795Y238520D01*
X63501Y238061D01*
X64194Y237585D01*
X64877Y237092D01*
X65546Y236582D01*
X66203Y236057D01*
X66847Y235515D01*
X67478Y234957D01*
X68094Y234384D01*
X68697Y233797D01*
X69284Y233194D01*
X69857Y232578D01*
X70415Y231947D01*
X70957Y231303D01*
X71482Y230646D01*
X71992Y229977D01*
X72485Y229294D01*
X72961Y228601D01*
X73420Y227895D01*
X73862Y227179D01*
X74285Y226451D01*
X74691Y225714D01*
X75079Y224967D01*
X75448Y224211D01*
X75798Y223446D01*
X76130Y222672D01*
X76442Y221891D01*
X76736Y221102D01*
X77009Y220306D01*
X77263Y219504D01*
X77498Y218696D01*
X77712Y217882D01*
X77907Y217063D01*
X78081Y216240D01*
X78235Y215412D01*
X78369Y214581D01*
X78482Y213747D01*
X78575Y212911D01*
X78647Y212073D01*
X78699Y211233D01*
X78730Y210392D01*
X78740Y209550D01*
X78730Y208708D01*
X78699Y207867D01*
X78647Y207027D01*
X78575Y206189D01*
X78482Y205353D01*
X78369Y204519D01*
X78235Y203688D01*
X78081Y202860D01*
X77907Y202037D01*
X77712Y201218D01*
X77498Y200404D01*
X77263Y199596D01*
X77009Y198794D01*
X76736Y197998D01*
X76442Y197209D01*
X76130Y196428D01*
X75798Y195654D01*
X75448Y194889D01*
X75079Y194133D01*
X74691Y193386D01*
X74285Y192649D01*
X73862Y191921D01*
X73420Y191205D01*
X72961Y190499D01*
X72485Y189806D01*
X71992Y189123D01*
X71482Y188454D01*
X70957Y187797D01*
X70415Y187153D01*
X69857Y186522D01*
X69284Y185906D01*
X68697Y185303D01*
X68094Y184716D01*
X67478Y184143D01*
X66847Y183585D01*
X66203Y183043D01*
X65546Y182518D01*
X64877Y182008D01*
X64194Y181515D01*
X63501Y181039D01*
X62795Y180580D01*
X62079Y180138D01*
X61351Y179715D01*
X60614Y179309D01*
X59867Y178921D01*
X59111Y178552D01*
X58346Y178202D01*
X57572Y177870D01*
X56791Y177558D01*
X56002Y177264D01*
X55206Y176991D01*
X54404Y176737D01*
X53596Y176502D01*
X52782Y176288D01*
X51963Y176093D01*
X51140Y175919D01*
X50312Y175765D01*
X49481Y175631D01*
X48647Y175518D01*
X47811Y175425D01*
X46973Y175353D01*
X46133Y175301D01*
X45292Y175270D01*
X44450Y175260D01*
X43608Y175270D01*
X42767Y175301D01*
X41927Y175353D01*
X41089Y175425D01*
X40253Y175518D01*
X39419Y175631D01*
X38588Y175765D01*
X37760Y175919D01*
X36937Y176093D01*
X36118Y176288D01*
X35304Y176502D01*
X34496Y176737D01*
X33694Y176991D01*
X32898Y177264D01*
X32109Y177558D01*
X31328Y177870D01*
X30554Y178202D01*
X29789Y178552D01*
X29033Y178921D01*
X28286Y179309D01*
X27549Y179715D01*
X26821Y180138D01*
X26105Y180580D01*
X25399Y181039D01*
X24706Y181515D01*
X24023Y182008D01*
X23354Y182518D01*
X22697Y183043D01*
X22053Y183585D01*
X21422Y184143D01*
X20806Y184716D01*
X20203Y185303D01*
X19616Y185906D01*
X19043Y186522D01*
X18485Y187153D01*
X17943Y187797D01*
X17418Y188454D01*
X16908Y189123D01*
X16415Y189806D01*
X15939Y190499D01*
X15480Y191205D01*
X15038Y191921D01*
X14615Y192649D01*
X14209Y193386D01*
X13821Y194133D01*
X13452Y194889D01*
X13102Y195654D01*
X12770Y196428D01*
X12458Y197209D01*
X12164Y197998D01*
X11891Y198794D01*
X11637Y199596D01*
X11402Y200404D01*
X11188Y201218D01*
X10993Y202037D01*
X10819Y202860D01*
X10665Y203688D01*
X10531Y204519D01*
X10418Y205353D01*
X10325Y206189D01*
X10253Y207027D01*
X10201Y207867D01*
X10170Y208708D01*
X10160Y209550D01*
D21*
X28450Y209550D02*
X28455Y209943D01*
X28469Y210335D01*
X28493Y210727D01*
X28527Y211118D01*
X28570Y211509D01*
X28623Y211898D01*
X28686Y212285D01*
X28757Y212671D01*
X28839Y213056D01*
X28929Y213438D01*
X29030Y213817D01*
X29139Y214195D01*
X29258Y214569D01*
X29385Y214940D01*
X29522Y215308D01*
X29668Y215673D01*
X29823Y216034D01*
X29986Y216391D01*
X30158Y216744D01*
X30339Y217092D01*
X30529Y217436D01*
X30726Y217776D01*
X30932Y218110D01*
X31146Y218439D01*
X31369Y218763D01*
X31599Y219081D01*
X31836Y219394D01*
X32082Y219700D01*
X32335Y220001D01*
X32595Y220295D01*
X32862Y220583D01*
X33136Y220864D01*
X33417Y221138D01*
X33705Y221405D01*
X33999Y221665D01*
X34300Y221918D01*
X34606Y222164D01*
X34919Y222401D01*
X35237Y222631D01*
X35561Y222854D01*
X35890Y223068D01*
X36224Y223274D01*
X36564Y223471D01*
X36908Y223661D01*
X37256Y223842D01*
X37609Y224014D01*
X37966Y224177D01*
X38327Y224332D01*
X38692Y224478D01*
X39060Y224615D01*
X39431Y224742D01*
X39805Y224861D01*
X40183Y224970D01*
X40562Y225071D01*
X40944Y225161D01*
X41329Y225243D01*
X41715Y225314D01*
X42102Y225377D01*
X42491Y225430D01*
X42882Y225473D01*
X43273Y225507D01*
X43665Y225531D01*
X44057Y225545D01*
X44450Y225550D01*
X44843Y225545D01*
X45235Y225531D01*
X45627Y225507D01*
X46018Y225473D01*
X46409Y225430D01*
X46798Y225377D01*
X47185Y225314D01*
X47571Y225243D01*
X47956Y225161D01*
X48338Y225071D01*
X48717Y224970D01*
X49095Y224861D01*
X49469Y224742D01*
X49840Y224615D01*
X50208Y224478D01*
X50573Y224332D01*
X50934Y224177D01*
X51291Y224014D01*
X51644Y223842D01*
X51992Y223661D01*
X52336Y223471D01*
X52676Y223274D01*
X53010Y223068D01*
X53339Y222854D01*
X53663Y222631D01*
X53981Y222401D01*
X54294Y222164D01*
X54600Y221918D01*
X54901Y221665D01*
X55195Y221405D01*
X55483Y221138D01*
X55764Y220864D01*
X56038Y220583D01*
X56305Y220295D01*
X56565Y220001D01*
X56818Y219700D01*
X57064Y219394D01*
X57301Y219081D01*
X57531Y218763D01*
X57754Y218439D01*
X57968Y218110D01*
X58174Y217776D01*
X58371Y217436D01*
X58561Y217092D01*
X58742Y216744D01*
X58914Y216391D01*
X59077Y216034D01*
X59232Y215673D01*
X59378Y215308D01*
X59515Y214940D01*
X59642Y214569D01*
X59761Y214195D01*
X59870Y213817D01*
X59971Y213438D01*
X60061Y213056D01*
X60143Y212671D01*
X60214Y212285D01*
X60277Y211898D01*
X60330Y211509D01*
X60373Y211118D01*
X60407Y210727D01*
X60431Y210335D01*
X60445Y209943D01*
X60450Y209550D01*
X60445Y209157D01*
X60431Y208765D01*
X60407Y208373D01*
X60373Y207982D01*
X60330Y207591D01*
X60277Y207202D01*
X60214Y206815D01*
X60143Y206429D01*
X60061Y206044D01*
X59971Y205662D01*
X59870Y205283D01*
X59761Y204905D01*
X59642Y204531D01*
X59515Y204160D01*
X59378Y203792D01*
X59232Y203427D01*
X59077Y203066D01*
X58914Y202709D01*
X58742Y202356D01*
X58561Y202008D01*
X58371Y201664D01*
X58174Y201324D01*
X57968Y200990D01*
X57754Y200661D01*
X57531Y200337D01*
X57301Y200019D01*
X57064Y199706D01*
X56818Y199400D01*
X56565Y199099D01*
X56305Y198805D01*
X56038Y198517D01*
X55764Y198236D01*
X55483Y197962D01*
X55195Y197695D01*
X54901Y197435D01*
X54600Y197182D01*
X54294Y196936D01*
X53981Y196699D01*
X53663Y196469D01*
X53339Y196246D01*
X53010Y196032D01*
X52676Y195826D01*
X52336Y195629D01*
X51992Y195439D01*
X51644Y195258D01*
X51291Y195086D01*
X50934Y194923D01*
X50573Y194768D01*
X50208Y194622D01*
X49840Y194485D01*
X49469Y194358D01*
X49095Y194239D01*
X48717Y194130D01*
X48338Y194029D01*
X47956Y193939D01*
X47571Y193857D01*
X47185Y193786D01*
X46798Y193723D01*
X46409Y193670D01*
X46018Y193627D01*
X45627Y193593D01*
X45235Y193569D01*
X44843Y193555D01*
X44450Y193550D01*
X44057Y193555D01*
X43665Y193569D01*
X43273Y193593D01*
X42882Y193627D01*
X42491Y193670D01*
X42102Y193723D01*
X41715Y193786D01*
X41329Y193857D01*
X40944Y193939D01*
X40562Y194029D01*
X40183Y194130D01*
X39805Y194239D01*
X39431Y194358D01*
X39060Y194485D01*
X38692Y194622D01*
X38327Y194768D01*
X37966Y194923D01*
X37609Y195086D01*
X37256Y195258D01*
X36908Y195439D01*
X36564Y195629D01*
X36224Y195826D01*
X35890Y196032D01*
X35561Y196246D01*
X35237Y196469D01*
X34919Y196699D01*
X34606Y196936D01*
X34300Y197182D01*
X33999Y197435D01*
X33705Y197695D01*
X33417Y197962D01*
X33136Y198236D01*
X32862Y198517D01*
X32595Y198805D01*
X32335Y199099D01*
X32082Y199400D01*
X31836Y199706D01*
X31599Y200019D01*
X31369Y200337D01*
X31146Y200661D01*
X30932Y200990D01*
X30726Y201324D01*
X30529Y201664D01*
X30339Y202008D01*
X30158Y202356D01*
X29986Y202709D01*
X29823Y203066D01*
X29668Y203427D01*
X29522Y203792D01*
X29385Y204160D01*
X29258Y204531D01*
X29139Y204905D01*
X29030Y205283D01*
X28929Y205662D01*
X28839Y206044D01*
X28757Y206429D01*
X28686Y206815D01*
X28623Y207202D01*
X28570Y207591D01*
X28527Y207982D01*
X28493Y208373D01*
X28469Y208765D01*
X28455Y209157D01*
X28450Y209550D01*
X26400Y380775D02*
X26400Y463775D01*
X126400Y463775D01*
X145900Y463775D02*
X154400Y463775D01*
X154400Y434775D01*
X154400Y409275D02*
X154400Y380775D01*
X149900Y380775D01*
X130900Y380775D02*
X115900Y380775D01*
X92400Y380775D02*
X26400Y380775D01*
X25400Y393275D02*
X1400Y393275D01*
X1400Y451275D01*
X25400Y451275D01*
D16*
X122672Y467633D02*
X130461Y479317D01*
X122672Y479317D02*
X130461Y467633D01*
X141242Y476396D02*
X141240Y476503D01*
X141234Y476609D01*
X141224Y476715D01*
X141211Y476821D01*
X141193Y476927D01*
X141172Y477031D01*
X141147Y477135D01*
X141118Y477238D01*
X141086Y477339D01*
X141049Y477439D01*
X141009Y477538D01*
X140966Y477636D01*
X140919Y477732D01*
X140868Y477826D01*
X140814Y477918D01*
X140757Y478008D01*
X140697Y478096D01*
X140633Y478181D01*
X140566Y478264D01*
X140496Y478345D01*
X140424Y478423D01*
X140348Y478499D01*
X140270Y478571D01*
X140189Y478641D01*
X140106Y478708D01*
X140021Y478772D01*
X139933Y478832D01*
X139843Y478889D01*
X139751Y478943D01*
X139657Y478994D01*
X139561Y479041D01*
X139463Y479084D01*
X139364Y479124D01*
X139264Y479161D01*
X139163Y479193D01*
X139060Y479222D01*
X138956Y479247D01*
X138852Y479268D01*
X138746Y479286D01*
X138640Y479299D01*
X138534Y479309D01*
X138428Y479315D01*
X138321Y479317D01*
X138200Y479315D01*
X138079Y479309D01*
X137959Y479299D01*
X137838Y479286D01*
X137719Y479268D01*
X137599Y479247D01*
X137481Y479222D01*
X137364Y479193D01*
X137247Y479160D01*
X137132Y479124D01*
X137018Y479083D01*
X136905Y479040D01*
X136793Y478992D01*
X136684Y478941D01*
X136576Y478886D01*
X136469Y478828D01*
X136365Y478767D01*
X136263Y478702D01*
X136163Y478634D01*
X136065Y478563D01*
X135969Y478489D01*
X135876Y478412D01*
X135786Y478331D01*
X135698Y478248D01*
X135613Y478162D01*
X135530Y478073D01*
X135451Y477982D01*
X135374Y477888D01*
X135301Y477792D01*
X135231Y477694D01*
X135164Y477593D01*
X135100Y477490D01*
X135040Y477385D01*
X134983Y477278D01*
X134929Y477170D01*
X134879Y477060D01*
X134833Y476948D01*
X134790Y476835D01*
X134751Y476720D01*
X140269Y474124D02*
X140348Y474201D01*
X140424Y474282D01*
X140497Y474365D01*
X140567Y474450D01*
X140634Y474538D01*
X140698Y474628D01*
X140758Y474720D01*
X140815Y474815D01*
X140869Y474911D01*
X140920Y475009D01*
X140967Y475109D01*
X141011Y475211D01*
X141051Y475314D01*
X141087Y475418D01*
X141119Y475524D01*
X141148Y475630D01*
X141173Y475738D01*
X141195Y475846D01*
X141212Y475956D01*
X141226Y476065D01*
X141235Y476175D01*
X141241Y476286D01*
X141243Y476396D01*
X140268Y474124D02*
X134751Y467633D01*
X141242Y467633D01*
D10*
X375920Y600075D02*
X375762Y600077D01*
X375603Y600083D01*
X375445Y600093D01*
X375288Y600107D01*
X375130Y600124D01*
X374974Y600146D01*
X374817Y600171D01*
X374662Y600201D01*
X374507Y600234D01*
X374353Y600271D01*
X374200Y600312D01*
X374048Y600357D01*
X373898Y600406D01*
X373748Y600458D01*
X373600Y600514D01*
X373453Y600574D01*
X373308Y600637D01*
X373165Y600704D01*
X373023Y600774D01*
X372883Y600848D01*
X372745Y600926D01*
X372609Y601007D01*
X372475Y601091D01*
X372343Y601178D01*
X372213Y601269D01*
X372086Y601363D01*
X371961Y601460D01*
X371838Y601561D01*
X371718Y601664D01*
X371601Y601770D01*
X371486Y601879D01*
X371374Y601991D01*
X371265Y602106D01*
X371159Y602223D01*
X371056Y602343D01*
X370955Y602466D01*
X370858Y602591D01*
X370764Y602718D01*
X370673Y602848D01*
X370586Y602980D01*
X370502Y603114D01*
X370421Y603250D01*
X370343Y603388D01*
X370269Y603528D01*
X370199Y603670D01*
X370132Y603813D01*
X370069Y603958D01*
X370009Y604105D01*
X369953Y604253D01*
X369901Y604403D01*
X369852Y604553D01*
X369807Y604705D01*
X369766Y604858D01*
X369729Y605012D01*
X369696Y605167D01*
X369666Y605322D01*
X369641Y605479D01*
X369619Y605635D01*
X369602Y605793D01*
X369588Y605950D01*
X369578Y606108D01*
X369572Y606267D01*
X369570Y606425D01*
X369572Y606583D01*
X369578Y606742D01*
X369588Y606900D01*
X369602Y607057D01*
X369619Y607215D01*
X369641Y607371D01*
X369666Y607528D01*
X369696Y607683D01*
X369729Y607838D01*
X369766Y607992D01*
X369807Y608145D01*
X369852Y608297D01*
X369901Y608447D01*
X369953Y608597D01*
X370009Y608745D01*
X370069Y608892D01*
X370132Y609037D01*
X370199Y609180D01*
X370269Y609322D01*
X370343Y609462D01*
X370421Y609600D01*
X370502Y609736D01*
X370586Y609870D01*
X370673Y610002D01*
X370764Y610132D01*
X370858Y610259D01*
X370955Y610384D01*
X371056Y610507D01*
X371159Y610627D01*
X371265Y610744D01*
X371374Y610859D01*
X371486Y610971D01*
X371601Y611080D01*
X371718Y611186D01*
X371838Y611289D01*
X371961Y611390D01*
X372086Y611487D01*
X372213Y611581D01*
X372343Y611672D01*
X372475Y611759D01*
X372609Y611843D01*
X372745Y611924D01*
X372883Y612002D01*
X373023Y612076D01*
X373165Y612146D01*
X373308Y612213D01*
X373453Y612276D01*
X373600Y612336D01*
X373748Y612392D01*
X373898Y612444D01*
X374048Y612493D01*
X374200Y612538D01*
X374353Y612579D01*
X374507Y612616D01*
X374662Y612649D01*
X374817Y612679D01*
X374974Y612704D01*
X375130Y612726D01*
X375288Y612743D01*
X375445Y612757D01*
X375603Y612767D01*
X375762Y612773D01*
X375920Y612775D01*
X374650Y681355D02*
X374525Y681452D01*
X374402Y681551D01*
X374281Y681654D01*
X374163Y681760D01*
X374048Y681868D01*
X373935Y681980D01*
X373826Y682094D01*
X373719Y682211D01*
X373615Y682330D01*
X373514Y682452D01*
X373417Y682577D01*
X373322Y682704D01*
X373230Y682833D01*
X373142Y682964D01*
X373057Y683098D01*
X372976Y683234D01*
X372898Y683372D01*
X372823Y683511D01*
X372752Y683653D01*
X372684Y683796D01*
X372620Y683941D01*
X372560Y684087D01*
X372503Y684235D01*
X372450Y684384D01*
X372401Y684534D01*
X372356Y684686D01*
X372314Y684839D01*
X372276Y684993D01*
X372242Y685147D01*
X372212Y685303D01*
X372186Y685459D01*
X372163Y685615D01*
X372145Y685773D01*
X372130Y685930D01*
X372119Y686088D01*
X372113Y686246D01*
X372110Y686405D01*
X372111Y686563D01*
X372116Y686721D01*
X372126Y686879D01*
X372139Y687037D01*
X372156Y687195D01*
X372176Y687351D01*
X372201Y687508D01*
X372230Y687664D01*
X372263Y687818D01*
X372299Y687973D01*
X372339Y688126D01*
X372383Y688278D01*
X372431Y688429D01*
X372483Y688578D01*
X372538Y688727D01*
X372597Y688874D01*
X372660Y689019D01*
X372726Y689163D01*
X372796Y689305D01*
X372869Y689445D01*
X372946Y689584D01*
X373026Y689720D01*
X373109Y689855D01*
X373196Y689987D01*
X373287Y690117D01*
X373380Y690245D01*
X373477Y690370D01*
X373576Y690493D01*
X373679Y690614D01*
X373785Y690732D01*
X373893Y690847D01*
X374005Y690960D01*
X374119Y691069D01*
X374236Y691176D01*
X374355Y691280D01*
X374477Y691381D01*
X374602Y691478D01*
X374729Y691573D01*
X374858Y691665D01*
X374989Y691753D01*
X375123Y691838D01*
X375259Y691919D01*
X375397Y691997D01*
X375536Y692072D01*
X375678Y692143D01*
X375821Y692211D01*
X375966Y692275D01*
X376112Y692335D01*
X376260Y692392D01*
X376409Y692445D01*
X376559Y692494D01*
X376711Y692539D01*
X376864Y692581D01*
X377018Y692619D01*
X377172Y692653D01*
X377328Y692683D01*
X377484Y692709D01*
X377640Y692732D01*
X377798Y692750D01*
X377955Y692765D01*
X378113Y692776D01*
X378271Y692782D01*
X378430Y692785D01*
X378588Y692784D01*
X378746Y692779D01*
X378904Y692769D01*
X379062Y692756D01*
X379220Y692739D01*
X379376Y692719D01*
X379533Y692694D01*
X379689Y692665D01*
X379843Y692632D01*
X379998Y692596D01*
X380151Y692556D01*
X380303Y692512D01*
X380454Y692464D01*
X380603Y692412D01*
X380752Y692357D01*
X380899Y692298D01*
X381044Y692235D01*
X381188Y692169D01*
X381330Y692099D01*
X381470Y692026D01*
X381609Y691949D01*
X381745Y691869D01*
X381880Y691786D01*
X382012Y691699D01*
X382142Y691608D01*
X382270Y691515D01*
X377552Y649999D02*
X377387Y650024D01*
X377222Y650046D01*
X377056Y650063D01*
X376890Y650076D01*
X376723Y650086D01*
X376557Y650091D01*
X376390Y650092D01*
X376223Y650089D01*
X376056Y650082D01*
X375890Y650071D01*
X375724Y650056D01*
X375558Y650037D01*
X375393Y650013D01*
X375229Y649986D01*
X375065Y649955D01*
X374902Y649920D01*
X374740Y649881D01*
X374579Y649837D01*
X374419Y649790D01*
X374260Y649740D01*
X374102Y649685D01*
X373946Y649626D01*
X373792Y649564D01*
X373639Y649498D01*
X373487Y649428D01*
X373338Y649354D01*
X373190Y649277D01*
X373044Y649196D01*
X372900Y649112D01*
X372758Y649024D01*
X372618Y648933D01*
X372481Y648839D01*
X372346Y648741D01*
X372214Y648640D01*
X372083Y648535D01*
X371956Y648428D01*
X371831Y648317D01*
X371709Y648204D01*
X371590Y648087D01*
X371473Y647968D01*
X371360Y647846D01*
X371249Y647721D01*
X371142Y647593D01*
X371038Y647463D01*
X370937Y647330D01*
X370839Y647195D01*
X370745Y647058D01*
X370653Y646918D01*
X370566Y646776D01*
X370482Y646632D01*
X370401Y646486D01*
X370324Y646338D01*
X370251Y646189D01*
X370181Y646037D01*
X370115Y645884D01*
X370053Y645729D01*
X369994Y645573D01*
X369940Y645416D01*
X369889Y645257D01*
X369842Y645097D01*
X369799Y644936D01*
X369760Y644773D01*
X369725Y644610D01*
X369694Y644447D01*
X369667Y644282D01*
X369644Y644117D01*
X369625Y643951D01*
X369610Y643785D01*
X369599Y643619D01*
X369592Y643452D01*
X369589Y643285D01*
X369590Y643119D01*
X369596Y642952D01*
X369605Y642785D01*
X369619Y642619D01*
X369636Y642453D01*
X369658Y642288D01*
X369683Y642123D01*
X369713Y641959D01*
X369746Y641796D01*
X369784Y641633D01*
X369825Y641472D01*
X369871Y641311D01*
X369920Y641152D01*
X369973Y640994D01*
X370030Y640837D01*
X370091Y640682D01*
X370156Y640528D01*
X370224Y640376D01*
X370296Y640226D01*
X370372Y640077D01*
X370451Y639931D01*
X370534Y639786D01*
X370620Y639643D01*
X370710Y639503D01*
X370803Y639364D01*
X370900Y639228D01*
X370999Y639095D01*
X371102Y638964D01*
X371209Y638835D01*
X371318Y638709D01*
X371430Y638586D01*
X371546Y638465D01*
X371664Y638348D01*
X371785Y638233D01*
X371909Y638121D01*
X372035Y638013D01*
X372164Y637907D01*
X372296Y637805D01*
X372430Y637706D01*
X372567Y637610D01*
X372705Y637518D01*
X372846Y637428D01*
X372989Y637343D01*
X373135Y637261D01*
X373282Y637182D01*
X373431Y637107D01*
X373581Y637036D01*
X373734Y636969D01*
X373888Y636905D01*
X402590Y683895D02*
X402529Y684042D01*
X402471Y684190D01*
X402416Y684340D01*
X402366Y684491D01*
X402319Y684643D01*
X402276Y684797D01*
X402237Y684951D01*
X402202Y685106D01*
X402171Y685263D01*
X402143Y685420D01*
X402120Y685577D01*
X402101Y685735D01*
X402085Y685894D01*
X402073Y686053D01*
X402066Y686212D01*
X402062Y686371D01*
X402063Y686530D01*
X402067Y686689D01*
X402075Y686848D01*
X402088Y687007D01*
X402104Y687166D01*
X402124Y687324D01*
X402148Y687481D01*
X402177Y687638D01*
X402209Y687794D01*
X402244Y687949D01*
X402284Y688103D01*
X402328Y688256D01*
X402375Y688408D01*
X402427Y688559D01*
X402482Y688709D01*
X402540Y688857D01*
X402603Y689003D01*
X402669Y689148D01*
X402738Y689291D01*
X402811Y689433D01*
X402888Y689572D01*
X402968Y689710D01*
X403052Y689846D01*
X403139Y689979D01*
X403229Y690110D01*
X403323Y690239D01*
X403419Y690366D01*
X403519Y690490D01*
X403622Y690612D01*
X403728Y690730D01*
X403837Y690847D01*
X403948Y690960D01*
X404063Y691071D01*
X404180Y691179D01*
X404300Y691284D01*
X404423Y691385D01*
X404548Y691484D01*
X404675Y691580D01*
X404805Y691672D01*
X404937Y691761D01*
X405071Y691847D01*
X405207Y691929D01*
X405346Y692008D01*
X405486Y692083D01*
X405628Y692155D01*
X405772Y692224D01*
X405917Y692288D01*
X406065Y692349D01*
X406213Y692407D01*
X406363Y692460D01*
X406514Y692510D01*
X406667Y692556D01*
X406820Y692599D01*
X406975Y692637D01*
X407130Y692671D01*
X407287Y692702D01*
X407444Y692729D01*
X407601Y692751D01*
X407760Y692770D01*
X407918Y692785D01*
X408077Y692796D01*
X408236Y692803D01*
X408395Y692806D01*
X408555Y692805D01*
X408714Y692800D01*
X408873Y692791D01*
X409032Y692778D01*
X409190Y692761D01*
X409348Y692740D01*
X409505Y692715D01*
X409662Y692686D01*
X409818Y692654D01*
X409973Y692617D01*
X410127Y692577D01*
X410280Y692532D01*
X410432Y692484D01*
X410582Y692433D01*
X410731Y692377D01*
X410879Y692318D01*
X411026Y692255D01*
X411170Y692188D01*
X411313Y692118D01*
X411454Y692044D01*
X411594Y691967D01*
X411731Y691886D01*
X411866Y691802D01*
X411999Y691714D01*
X412130Y691624D01*
X412259Y691530D01*
X412385Y691432D01*
X412508Y691332D01*
X412630Y691229D01*
X412748Y691122D01*
X412864Y691013D01*
X412977Y690901D01*
X413087Y690786D01*
X413194Y690668D01*
X413299Y690548D01*
X413400Y690425D01*
X413498Y690299D01*
X413593Y690172D01*
X413685Y690041D01*
X413774Y689909D01*
X413859Y689774D01*
X413940Y689638D01*
X414019Y689499D01*
X414094Y689358D01*
X414165Y689216D01*
X414233Y689072D01*
X425450Y597535D02*
X375920Y600075D01*
X398526Y644271D02*
X377190Y650113D01*
X375158Y612775D02*
X416052Y617347D01*
X406908Y666369D02*
X402590Y683895D01*
X416052Y620141D02*
X416052Y617347D01*
X416052Y620141D02*
X373888Y636905D01*
X398526Y644271D02*
X399542Y646303D01*
X373634Y682371D01*
X405130Y665099D02*
X406908Y666369D01*
X405130Y665099D02*
X382270Y691515D01*
X490220Y434975D02*
X490378Y434973D01*
X490537Y434967D01*
X490695Y434957D01*
X490852Y434943D01*
X491010Y434926D01*
X491166Y434904D01*
X491323Y434879D01*
X491478Y434849D01*
X491633Y434816D01*
X491787Y434779D01*
X491940Y434738D01*
X492092Y434693D01*
X492242Y434644D01*
X492392Y434592D01*
X492540Y434536D01*
X492687Y434476D01*
X492832Y434413D01*
X492975Y434346D01*
X493117Y434276D01*
X493257Y434202D01*
X493395Y434124D01*
X493531Y434043D01*
X493665Y433959D01*
X493797Y433872D01*
X493927Y433781D01*
X494054Y433687D01*
X494179Y433590D01*
X494302Y433489D01*
X494422Y433386D01*
X494539Y433280D01*
X494654Y433171D01*
X494766Y433059D01*
X494875Y432944D01*
X494981Y432827D01*
X495084Y432707D01*
X495185Y432584D01*
X495282Y432459D01*
X495376Y432332D01*
X495467Y432202D01*
X495554Y432070D01*
X495638Y431936D01*
X495719Y431800D01*
X495797Y431662D01*
X495871Y431522D01*
X495941Y431380D01*
X496008Y431237D01*
X496071Y431092D01*
X496131Y430945D01*
X496187Y430797D01*
X496239Y430647D01*
X496288Y430497D01*
X496333Y430345D01*
X496374Y430192D01*
X496411Y430038D01*
X496444Y429883D01*
X496474Y429728D01*
X496499Y429571D01*
X496521Y429415D01*
X496538Y429257D01*
X496552Y429100D01*
X496562Y428942D01*
X496568Y428783D01*
X496570Y428625D01*
X496568Y428467D01*
X496562Y428308D01*
X496552Y428150D01*
X496538Y427993D01*
X496521Y427835D01*
X496499Y427679D01*
X496474Y427522D01*
X496444Y427367D01*
X496411Y427212D01*
X496374Y427058D01*
X496333Y426905D01*
X496288Y426753D01*
X496239Y426603D01*
X496187Y426453D01*
X496131Y426305D01*
X496071Y426158D01*
X496008Y426013D01*
X495941Y425870D01*
X495871Y425728D01*
X495797Y425588D01*
X495719Y425450D01*
X495638Y425314D01*
X495554Y425180D01*
X495467Y425048D01*
X495376Y424918D01*
X495282Y424791D01*
X495185Y424666D01*
X495084Y424543D01*
X494981Y424423D01*
X494875Y424306D01*
X494766Y424191D01*
X494654Y424079D01*
X494539Y423970D01*
X494422Y423864D01*
X494302Y423761D01*
X494179Y423660D01*
X494054Y423563D01*
X493927Y423469D01*
X493797Y423378D01*
X493665Y423291D01*
X493531Y423207D01*
X493395Y423126D01*
X493257Y423048D01*
X493117Y422974D01*
X492975Y422904D01*
X492832Y422837D01*
X492687Y422774D01*
X492540Y422714D01*
X492392Y422658D01*
X492242Y422606D01*
X492092Y422557D01*
X491940Y422512D01*
X491787Y422471D01*
X491633Y422434D01*
X491478Y422401D01*
X491323Y422371D01*
X491166Y422346D01*
X491010Y422324D01*
X490852Y422307D01*
X490695Y422293D01*
X490537Y422283D01*
X490378Y422277D01*
X490220Y422275D01*
X491490Y353695D02*
X491615Y353598D01*
X491738Y353499D01*
X491859Y353396D01*
X491977Y353290D01*
X492092Y353182D01*
X492205Y353070D01*
X492314Y352956D01*
X492421Y352839D01*
X492525Y352720D01*
X492626Y352598D01*
X492723Y352473D01*
X492818Y352346D01*
X492910Y352217D01*
X492998Y352086D01*
X493083Y351952D01*
X493164Y351816D01*
X493242Y351678D01*
X493317Y351539D01*
X493388Y351397D01*
X493456Y351254D01*
X493520Y351109D01*
X493580Y350963D01*
X493637Y350815D01*
X493690Y350666D01*
X493739Y350516D01*
X493784Y350364D01*
X493826Y350211D01*
X493864Y350057D01*
X493898Y349903D01*
X493928Y349747D01*
X493954Y349591D01*
X493977Y349435D01*
X493995Y349277D01*
X494010Y349120D01*
X494021Y348962D01*
X494027Y348804D01*
X494030Y348645D01*
X494029Y348487D01*
X494024Y348329D01*
X494014Y348171D01*
X494001Y348013D01*
X493984Y347855D01*
X493964Y347699D01*
X493939Y347542D01*
X493910Y347386D01*
X493877Y347232D01*
X493841Y347077D01*
X493801Y346924D01*
X493757Y346772D01*
X493709Y346621D01*
X493657Y346472D01*
X493602Y346323D01*
X493543Y346176D01*
X493480Y346031D01*
X493414Y345887D01*
X493344Y345745D01*
X493271Y345605D01*
X493194Y345466D01*
X493114Y345330D01*
X493031Y345195D01*
X492944Y345063D01*
X492853Y344933D01*
X492760Y344805D01*
X492663Y344680D01*
X492564Y344557D01*
X492461Y344436D01*
X492355Y344318D01*
X492247Y344203D01*
X492135Y344090D01*
X492021Y343981D01*
X491904Y343874D01*
X491785Y343770D01*
X491663Y343669D01*
X491538Y343572D01*
X491411Y343477D01*
X491282Y343385D01*
X491151Y343297D01*
X491017Y343212D01*
X490881Y343131D01*
X490743Y343053D01*
X490604Y342978D01*
X490462Y342907D01*
X490319Y342839D01*
X490174Y342775D01*
X490028Y342715D01*
X489880Y342658D01*
X489731Y342605D01*
X489581Y342556D01*
X489429Y342511D01*
X489276Y342469D01*
X489122Y342431D01*
X488968Y342397D01*
X488812Y342367D01*
X488656Y342341D01*
X488500Y342318D01*
X488342Y342300D01*
X488185Y342285D01*
X488027Y342274D01*
X487869Y342268D01*
X487710Y342265D01*
X487552Y342266D01*
X487394Y342271D01*
X487236Y342281D01*
X487078Y342294D01*
X486920Y342311D01*
X486764Y342331D01*
X486607Y342356D01*
X486451Y342385D01*
X486297Y342418D01*
X486142Y342454D01*
X485989Y342494D01*
X485837Y342538D01*
X485686Y342586D01*
X485537Y342638D01*
X485388Y342693D01*
X485241Y342752D01*
X485096Y342815D01*
X484952Y342881D01*
X484810Y342951D01*
X484670Y343024D01*
X484531Y343101D01*
X484395Y343181D01*
X484260Y343264D01*
X484128Y343351D01*
X483998Y343442D01*
X483870Y343535D01*
X488588Y385049D02*
X488753Y385024D01*
X488918Y385002D01*
X489084Y384985D01*
X489250Y384972D01*
X489417Y384962D01*
X489584Y384957D01*
X489751Y384956D01*
X489917Y384959D01*
X490084Y384966D01*
X490250Y384977D01*
X490416Y384992D01*
X490582Y385011D01*
X490747Y385035D01*
X490912Y385062D01*
X491076Y385093D01*
X491239Y385128D01*
X491401Y385168D01*
X491562Y385211D01*
X491722Y385258D01*
X491881Y385309D01*
X492038Y385363D01*
X492195Y385422D01*
X492349Y385484D01*
X492502Y385551D01*
X492654Y385620D01*
X492804Y385694D01*
X492951Y385771D01*
X493097Y385852D01*
X493241Y385936D01*
X493383Y386024D01*
X493523Y386115D01*
X493660Y386210D01*
X493795Y386308D01*
X493928Y386409D01*
X494058Y386513D01*
X494185Y386621D01*
X494310Y386731D01*
X494432Y386845D01*
X494552Y386962D01*
X494668Y387081D01*
X494782Y387203D01*
X494892Y387328D01*
X495000Y387456D01*
X495104Y387586D01*
X495205Y387719D01*
X495303Y387854D01*
X495397Y387991D01*
X495488Y388131D01*
X495576Y388273D01*
X495660Y388417D01*
X495741Y388563D01*
X495818Y388711D01*
X495891Y388861D01*
X495961Y389012D01*
X496027Y389165D01*
X496089Y389320D01*
X496148Y389476D01*
X496202Y389634D01*
X496253Y389793D01*
X496300Y389953D01*
X496343Y390114D01*
X496382Y390276D01*
X496417Y390439D01*
X496448Y390603D01*
X496475Y390768D01*
X496498Y390933D01*
X496517Y391099D01*
X496532Y391265D01*
X496543Y391431D01*
X496550Y391598D01*
X496553Y391765D01*
X496552Y391931D01*
X496546Y392098D01*
X496537Y392265D01*
X496523Y392431D01*
X496506Y392597D01*
X496484Y392762D01*
X496459Y392927D01*
X496429Y393091D01*
X496396Y393255D01*
X496358Y393417D01*
X496317Y393579D01*
X496271Y393739D01*
X496222Y393898D01*
X496169Y394057D01*
X496112Y394213D01*
X496051Y394369D01*
X495986Y394522D01*
X495918Y394675D01*
X495846Y394825D01*
X495770Y394974D01*
X495691Y395120D01*
X495608Y395265D01*
X495522Y395408D01*
X495432Y395548D01*
X495339Y395687D01*
X495242Y395823D01*
X495142Y395956D01*
X495039Y396088D01*
X494933Y396216D01*
X494824Y396342D01*
X494711Y396465D01*
X494596Y396586D01*
X494478Y396703D01*
X494357Y396818D01*
X494233Y396930D01*
X494106Y397039D01*
X493977Y397144D01*
X493845Y397247D01*
X493711Y397346D01*
X493575Y397442D01*
X493436Y397534D01*
X493295Y397623D01*
X493152Y397709D01*
X493007Y397791D01*
X492859Y397869D01*
X492710Y397944D01*
X492560Y398016D01*
X492407Y398083D01*
X492253Y398147D01*
X463548Y351154D02*
X463610Y351007D01*
X463668Y350859D01*
X463722Y350709D01*
X463772Y350558D01*
X463819Y350406D01*
X463862Y350253D01*
X463901Y350098D01*
X463936Y349943D01*
X463967Y349787D01*
X463995Y349630D01*
X464018Y349473D01*
X464037Y349314D01*
X464053Y349156D01*
X464065Y348997D01*
X464072Y348838D01*
X464076Y348679D01*
X464075Y348520D01*
X464071Y348361D01*
X464063Y348202D01*
X464050Y348043D01*
X464034Y347885D01*
X464014Y347727D01*
X463990Y347569D01*
X463961Y347413D01*
X463929Y347257D01*
X463894Y347101D01*
X463854Y346947D01*
X463810Y346794D01*
X463763Y346642D01*
X463712Y346491D01*
X463657Y346342D01*
X463598Y346194D01*
X463536Y346047D01*
X463470Y345903D01*
X463400Y345759D01*
X463327Y345618D01*
X463250Y345478D01*
X463170Y345341D01*
X463086Y345205D01*
X462999Y345072D01*
X462909Y344941D01*
X462816Y344812D01*
X462719Y344685D01*
X462619Y344561D01*
X462516Y344440D01*
X462411Y344321D01*
X462302Y344205D01*
X462190Y344091D01*
X462076Y343980D01*
X461958Y343873D01*
X461839Y343768D01*
X461716Y343666D01*
X461591Y343567D01*
X461464Y343472D01*
X461334Y343380D01*
X461202Y343291D01*
X461068Y343205D01*
X460932Y343123D01*
X460793Y343044D01*
X460653Y342968D01*
X460511Y342896D01*
X460367Y342828D01*
X460222Y342763D01*
X460075Y342702D01*
X459926Y342645D01*
X459776Y342591D01*
X459625Y342542D01*
X459472Y342496D01*
X459319Y342453D01*
X459164Y342415D01*
X459009Y342381D01*
X458853Y342350D01*
X458696Y342323D01*
X458538Y342300D01*
X458380Y342282D01*
X458222Y342267D01*
X458063Y342256D01*
X457904Y342249D01*
X457744Y342246D01*
X457585Y342247D01*
X457426Y342252D01*
X457267Y342261D01*
X457108Y342274D01*
X456950Y342291D01*
X456792Y342312D01*
X456635Y342337D01*
X456478Y342366D01*
X456323Y342398D01*
X456168Y342435D01*
X456014Y342475D01*
X455861Y342519D01*
X455709Y342568D01*
X455558Y342619D01*
X455409Y342675D01*
X455261Y342734D01*
X455115Y342797D01*
X454971Y342864D01*
X454828Y342934D01*
X454687Y343008D01*
X454547Y343085D01*
X454410Y343166D01*
X454275Y343250D01*
X454142Y343337D01*
X454011Y343428D01*
X453883Y343522D01*
X453756Y343619D01*
X453633Y343720D01*
X453512Y343823D01*
X453393Y343929D01*
X453277Y344039D01*
X453164Y344151D01*
X453054Y344266D01*
X452947Y344383D01*
X452843Y344504D01*
X452741Y344627D01*
X452643Y344752D01*
X452548Y344880D01*
X452457Y345010D01*
X452368Y345142D01*
X452283Y345277D01*
X452201Y345413D01*
X452123Y345552D01*
X452048Y345693D01*
X451977Y345835D01*
X451909Y345979D01*
X440690Y437515D02*
X490220Y434975D01*
X467614Y390779D02*
X488950Y384937D01*
X490728Y422275D02*
X450088Y417703D01*
X461772Y366141D02*
X463550Y351155D01*
X450088Y414909D02*
X450088Y417703D01*
X450088Y414909D02*
X492252Y398145D01*
X467614Y390779D02*
X466598Y388747D01*
X492506Y352679D01*
X463550Y367411D02*
X461772Y366141D01*
X463550Y367411D02*
X483870Y343535D01*
X490220Y600075D02*
X490378Y600077D01*
X490537Y600083D01*
X490695Y600093D01*
X490852Y600107D01*
X491010Y600124D01*
X491166Y600146D01*
X491323Y600171D01*
X491478Y600201D01*
X491633Y600234D01*
X491787Y600271D01*
X491940Y600312D01*
X492092Y600357D01*
X492242Y600406D01*
X492392Y600458D01*
X492540Y600514D01*
X492687Y600574D01*
X492832Y600637D01*
X492975Y600704D01*
X493117Y600774D01*
X493257Y600848D01*
X493395Y600926D01*
X493531Y601007D01*
X493665Y601091D01*
X493797Y601178D01*
X493927Y601269D01*
X494054Y601363D01*
X494179Y601460D01*
X494302Y601561D01*
X494422Y601664D01*
X494539Y601770D01*
X494654Y601879D01*
X494766Y601991D01*
X494875Y602106D01*
X494981Y602223D01*
X495084Y602343D01*
X495185Y602466D01*
X495282Y602591D01*
X495376Y602718D01*
X495467Y602848D01*
X495554Y602980D01*
X495638Y603114D01*
X495719Y603250D01*
X495797Y603388D01*
X495871Y603528D01*
X495941Y603670D01*
X496008Y603813D01*
X496071Y603958D01*
X496131Y604105D01*
X496187Y604253D01*
X496239Y604403D01*
X496288Y604553D01*
X496333Y604705D01*
X496374Y604858D01*
X496411Y605012D01*
X496444Y605167D01*
X496474Y605322D01*
X496499Y605479D01*
X496521Y605635D01*
X496538Y605793D01*
X496552Y605950D01*
X496562Y606108D01*
X496568Y606267D01*
X496570Y606425D01*
X496568Y606583D01*
X496562Y606742D01*
X496552Y606900D01*
X496538Y607057D01*
X496521Y607215D01*
X496499Y607371D01*
X496474Y607528D01*
X496444Y607683D01*
X496411Y607838D01*
X496374Y607992D01*
X496333Y608145D01*
X496288Y608297D01*
X496239Y608447D01*
X496187Y608597D01*
X496131Y608745D01*
X496071Y608892D01*
X496008Y609037D01*
X495941Y609180D01*
X495871Y609322D01*
X495797Y609462D01*
X495719Y609600D01*
X495638Y609736D01*
X495554Y609870D01*
X495467Y610002D01*
X495376Y610132D01*
X495282Y610259D01*
X495185Y610384D01*
X495084Y610507D01*
X494981Y610627D01*
X494875Y610744D01*
X494766Y610859D01*
X494654Y610971D01*
X494539Y611080D01*
X494422Y611186D01*
X494302Y611289D01*
X494179Y611390D01*
X494054Y611487D01*
X493927Y611581D01*
X493797Y611672D01*
X493665Y611759D01*
X493531Y611843D01*
X493395Y611924D01*
X493257Y612002D01*
X493117Y612076D01*
X492975Y612146D01*
X492832Y612213D01*
X492687Y612276D01*
X492540Y612336D01*
X492392Y612392D01*
X492242Y612444D01*
X492092Y612493D01*
X491940Y612538D01*
X491787Y612579D01*
X491633Y612616D01*
X491478Y612649D01*
X491323Y612679D01*
X491166Y612704D01*
X491010Y612726D01*
X490852Y612743D01*
X490695Y612757D01*
X490537Y612767D01*
X490378Y612773D01*
X490220Y612775D01*
X491490Y681355D02*
X491615Y681452D01*
X491738Y681551D01*
X491859Y681654D01*
X491977Y681760D01*
X492092Y681868D01*
X492205Y681980D01*
X492314Y682094D01*
X492421Y682211D01*
X492525Y682330D01*
X492626Y682452D01*
X492723Y682577D01*
X492818Y682704D01*
X492910Y682833D01*
X492998Y682964D01*
X493083Y683098D01*
X493164Y683234D01*
X493242Y683372D01*
X493317Y683511D01*
X493388Y683653D01*
X493456Y683796D01*
X493520Y683941D01*
X493580Y684087D01*
X493637Y684235D01*
X493690Y684384D01*
X493739Y684534D01*
X493784Y684686D01*
X493826Y684839D01*
X493864Y684993D01*
X493898Y685147D01*
X493928Y685303D01*
X493954Y685459D01*
X493977Y685615D01*
X493995Y685773D01*
X494010Y685930D01*
X494021Y686088D01*
X494027Y686246D01*
X494030Y686405D01*
X494029Y686563D01*
X494024Y686721D01*
X494014Y686879D01*
X494001Y687037D01*
X493984Y687195D01*
X493964Y687351D01*
X493939Y687508D01*
X493910Y687664D01*
X493877Y687818D01*
X493841Y687973D01*
X493801Y688126D01*
X493757Y688278D01*
X493709Y688429D01*
X493657Y688578D01*
X493602Y688727D01*
X493543Y688874D01*
X493480Y689019D01*
X493414Y689163D01*
X493344Y689305D01*
X493271Y689445D01*
X493194Y689584D01*
X493114Y689720D01*
X493031Y689855D01*
X492944Y689987D01*
X492853Y690117D01*
X492760Y690245D01*
X492663Y690370D01*
X492564Y690493D01*
X492461Y690614D01*
X492355Y690732D01*
X492247Y690847D01*
X492135Y690960D01*
X492021Y691069D01*
X491904Y691176D01*
X491785Y691280D01*
X491663Y691381D01*
X491538Y691478D01*
X491411Y691573D01*
X491282Y691665D01*
X491151Y691753D01*
X491017Y691838D01*
X490881Y691919D01*
X490743Y691997D01*
X490604Y692072D01*
X490462Y692143D01*
X490319Y692211D01*
X490174Y692275D01*
X490028Y692335D01*
X489880Y692392D01*
X489731Y692445D01*
X489581Y692494D01*
X489429Y692539D01*
X489276Y692581D01*
X489122Y692619D01*
X488968Y692653D01*
X488812Y692683D01*
X488656Y692709D01*
X488500Y692732D01*
X488342Y692750D01*
X488185Y692765D01*
X488027Y692776D01*
X487869Y692782D01*
X487710Y692785D01*
X487552Y692784D01*
X487394Y692779D01*
X487236Y692769D01*
X487078Y692756D01*
X486920Y692739D01*
X486764Y692719D01*
X486607Y692694D01*
X486451Y692665D01*
X486297Y692632D01*
X486142Y692596D01*
X485989Y692556D01*
X485837Y692512D01*
X485686Y692464D01*
X485537Y692412D01*
X485388Y692357D01*
X485241Y692298D01*
X485096Y692235D01*
X484952Y692169D01*
X484810Y692099D01*
X484670Y692026D01*
X484531Y691949D01*
X484395Y691869D01*
X484260Y691786D01*
X484128Y691699D01*
X483998Y691608D01*
X483870Y691515D01*
X488588Y649999D02*
X488753Y650024D01*
X488918Y650046D01*
X489084Y650063D01*
X489250Y650076D01*
X489417Y650086D01*
X489583Y650091D01*
X489750Y650092D01*
X489917Y650089D01*
X490084Y650082D01*
X490250Y650071D01*
X490416Y650056D01*
X490582Y650037D01*
X490747Y650013D01*
X490911Y649986D01*
X491075Y649955D01*
X491238Y649920D01*
X491400Y649881D01*
X491561Y649837D01*
X491721Y649790D01*
X491880Y649740D01*
X492038Y649685D01*
X492194Y649626D01*
X492348Y649564D01*
X492501Y649498D01*
X492653Y649428D01*
X492802Y649354D01*
X492950Y649277D01*
X493096Y649196D01*
X493240Y649112D01*
X493382Y649024D01*
X493522Y648933D01*
X493659Y648839D01*
X493794Y648741D01*
X493926Y648640D01*
X494057Y648535D01*
X494184Y648428D01*
X494309Y648317D01*
X494431Y648204D01*
X494550Y648087D01*
X494667Y647968D01*
X494780Y647846D01*
X494891Y647721D01*
X494998Y647593D01*
X495102Y647463D01*
X495203Y647330D01*
X495301Y647195D01*
X495395Y647058D01*
X495487Y646918D01*
X495574Y646776D01*
X495658Y646632D01*
X495739Y646486D01*
X495816Y646338D01*
X495889Y646189D01*
X495959Y646037D01*
X496025Y645884D01*
X496087Y645729D01*
X496146Y645573D01*
X496200Y645416D01*
X496251Y645257D01*
X496298Y645097D01*
X496341Y644936D01*
X496380Y644773D01*
X496415Y644610D01*
X496446Y644447D01*
X496473Y644282D01*
X496496Y644117D01*
X496515Y643951D01*
X496530Y643785D01*
X496541Y643619D01*
X496548Y643452D01*
X496551Y643285D01*
X496550Y643119D01*
X496544Y642952D01*
X496535Y642785D01*
X496521Y642619D01*
X496504Y642453D01*
X496482Y642288D01*
X496457Y642123D01*
X496427Y641959D01*
X496394Y641796D01*
X496356Y641633D01*
X496315Y641472D01*
X496269Y641311D01*
X496220Y641152D01*
X496167Y640994D01*
X496110Y640837D01*
X496049Y640682D01*
X495984Y640528D01*
X495916Y640376D01*
X495844Y640226D01*
X495768Y640077D01*
X495689Y639931D01*
X495606Y639786D01*
X495520Y639643D01*
X495430Y639503D01*
X495337Y639364D01*
X495240Y639228D01*
X495141Y639095D01*
X495038Y638964D01*
X494931Y638835D01*
X494822Y638709D01*
X494710Y638586D01*
X494594Y638465D01*
X494476Y638348D01*
X494355Y638233D01*
X494231Y638121D01*
X494105Y638013D01*
X493976Y637907D01*
X493844Y637805D01*
X493710Y637706D01*
X493573Y637610D01*
X493435Y637518D01*
X493294Y637428D01*
X493151Y637343D01*
X493005Y637261D01*
X492858Y637182D01*
X492709Y637107D01*
X492559Y637036D01*
X492406Y636969D01*
X492252Y636905D01*
X463550Y683895D02*
X463611Y684042D01*
X463669Y684190D01*
X463724Y684340D01*
X463774Y684491D01*
X463821Y684643D01*
X463864Y684797D01*
X463903Y684951D01*
X463938Y685106D01*
X463969Y685263D01*
X463997Y685420D01*
X464020Y685577D01*
X464039Y685735D01*
X464055Y685894D01*
X464067Y686053D01*
X464074Y686212D01*
X464078Y686371D01*
X464077Y686530D01*
X464073Y686689D01*
X464065Y686848D01*
X464052Y687007D01*
X464036Y687166D01*
X464016Y687324D01*
X463992Y687481D01*
X463963Y687638D01*
X463931Y687794D01*
X463896Y687949D01*
X463856Y688103D01*
X463812Y688256D01*
X463765Y688408D01*
X463713Y688559D01*
X463658Y688709D01*
X463600Y688857D01*
X463537Y689003D01*
X463471Y689148D01*
X463402Y689291D01*
X463329Y689433D01*
X463252Y689572D01*
X463172Y689710D01*
X463088Y689846D01*
X463001Y689979D01*
X462911Y690110D01*
X462817Y690239D01*
X462721Y690366D01*
X462621Y690490D01*
X462518Y690612D01*
X462412Y690730D01*
X462303Y690847D01*
X462192Y690960D01*
X462077Y691071D01*
X461960Y691179D01*
X461840Y691284D01*
X461717Y691385D01*
X461592Y691484D01*
X461465Y691580D01*
X461335Y691672D01*
X461203Y691761D01*
X461069Y691847D01*
X460933Y691929D01*
X460794Y692008D01*
X460654Y692083D01*
X460512Y692155D01*
X460368Y692224D01*
X460223Y692288D01*
X460075Y692349D01*
X459927Y692407D01*
X459777Y692460D01*
X459626Y692510D01*
X459473Y692556D01*
X459320Y692599D01*
X459165Y692637D01*
X459010Y692671D01*
X458853Y692702D01*
X458696Y692729D01*
X458539Y692751D01*
X458380Y692770D01*
X458222Y692785D01*
X458063Y692796D01*
X457904Y692803D01*
X457745Y692806D01*
X457585Y692805D01*
X457426Y692800D01*
X457267Y692791D01*
X457108Y692778D01*
X456950Y692761D01*
X456792Y692740D01*
X456635Y692715D01*
X456478Y692686D01*
X456322Y692654D01*
X456167Y692617D01*
X456013Y692577D01*
X455860Y692532D01*
X455708Y692484D01*
X455558Y692433D01*
X455409Y692377D01*
X455261Y692318D01*
X455114Y692255D01*
X454970Y692188D01*
X454827Y692118D01*
X454686Y692044D01*
X454546Y691967D01*
X454409Y691886D01*
X454274Y691802D01*
X454141Y691714D01*
X454010Y691624D01*
X453881Y691530D01*
X453755Y691432D01*
X453632Y691332D01*
X453510Y691229D01*
X453392Y691122D01*
X453276Y691013D01*
X453163Y690901D01*
X453053Y690786D01*
X452946Y690668D01*
X452841Y690548D01*
X452740Y690425D01*
X452642Y690299D01*
X452547Y690172D01*
X452455Y690041D01*
X452366Y689909D01*
X452281Y689774D01*
X452200Y689638D01*
X452121Y689499D01*
X452046Y689358D01*
X451975Y689216D01*
X451907Y689072D01*
X440690Y597535D02*
X490220Y600075D01*
X488950Y650113D02*
X466344Y644271D01*
X450088Y617347D02*
X490474Y612775D01*
X459232Y666369D02*
X463550Y683895D01*
X450088Y620141D02*
X450088Y617347D01*
X450088Y620141D02*
X492252Y636905D01*
X466344Y644271D02*
X465328Y646303D01*
X492506Y682371D01*
X461010Y665099D02*
X459232Y666369D01*
X461010Y665099D02*
X483870Y691515D01*
X375920Y434975D02*
X375762Y434973D01*
X375603Y434967D01*
X375445Y434957D01*
X375288Y434943D01*
X375130Y434926D01*
X374974Y434904D01*
X374817Y434879D01*
X374662Y434849D01*
X374507Y434816D01*
X374353Y434779D01*
X374200Y434738D01*
X374048Y434693D01*
X373898Y434644D01*
X373748Y434592D01*
X373600Y434536D01*
X373453Y434476D01*
X373308Y434413D01*
X373165Y434346D01*
X373023Y434276D01*
X372883Y434202D01*
X372745Y434124D01*
X372609Y434043D01*
X372475Y433959D01*
X372343Y433872D01*
X372213Y433781D01*
X372086Y433687D01*
X371961Y433590D01*
X371838Y433489D01*
X371718Y433386D01*
X371601Y433280D01*
X371486Y433171D01*
X371374Y433059D01*
X371265Y432944D01*
X371159Y432827D01*
X371056Y432707D01*
X370955Y432584D01*
X370858Y432459D01*
X370764Y432332D01*
X370673Y432202D01*
X370586Y432070D01*
X370502Y431936D01*
X370421Y431800D01*
X370343Y431662D01*
X370269Y431522D01*
X370199Y431380D01*
X370132Y431237D01*
X370069Y431092D01*
X370009Y430945D01*
X369953Y430797D01*
X369901Y430647D01*
X369852Y430497D01*
X369807Y430345D01*
X369766Y430192D01*
X369729Y430038D01*
X369696Y429883D01*
X369666Y429728D01*
X369641Y429571D01*
X369619Y429415D01*
X369602Y429257D01*
X369588Y429100D01*
X369578Y428942D01*
X369572Y428783D01*
X369570Y428625D01*
X369572Y428467D01*
X369578Y428308D01*
X369588Y428150D01*
X369602Y427993D01*
X369619Y427835D01*
X369641Y427679D01*
X369666Y427522D01*
X369696Y427367D01*
X369729Y427212D01*
X369766Y427058D01*
X369807Y426905D01*
X369852Y426753D01*
X369901Y426603D01*
X369953Y426453D01*
X370009Y426305D01*
X370069Y426158D01*
X370132Y426013D01*
X370199Y425870D01*
X370269Y425728D01*
X370343Y425588D01*
X370421Y425450D01*
X370502Y425314D01*
X370586Y425180D01*
X370673Y425048D01*
X370764Y424918D01*
X370858Y424791D01*
X370955Y424666D01*
X371056Y424543D01*
X371159Y424423D01*
X371265Y424306D01*
X371374Y424191D01*
X371486Y424079D01*
X371601Y423970D01*
X371718Y423864D01*
X371838Y423761D01*
X371961Y423660D01*
X372086Y423563D01*
X372213Y423469D01*
X372343Y423378D01*
X372475Y423291D01*
X372609Y423207D01*
X372745Y423126D01*
X372883Y423048D01*
X373023Y422974D01*
X373165Y422904D01*
X373308Y422837D01*
X373453Y422774D01*
X373600Y422714D01*
X373748Y422658D01*
X373898Y422606D01*
X374048Y422557D01*
X374200Y422512D01*
X374353Y422471D01*
X374507Y422434D01*
X374662Y422401D01*
X374817Y422371D01*
X374974Y422346D01*
X375130Y422324D01*
X375288Y422307D01*
X375445Y422293D01*
X375603Y422283D01*
X375762Y422277D01*
X375920Y422275D01*
X374650Y353695D02*
X374525Y353598D01*
X374402Y353499D01*
X374281Y353396D01*
X374163Y353290D01*
X374048Y353182D01*
X373935Y353070D01*
X373826Y352956D01*
X373719Y352839D01*
X373615Y352720D01*
X373514Y352598D01*
X373417Y352473D01*
X373322Y352346D01*
X373230Y352217D01*
X373142Y352086D01*
X373057Y351952D01*
X372976Y351816D01*
X372898Y351678D01*
X372823Y351539D01*
X372752Y351397D01*
X372684Y351254D01*
X372620Y351109D01*
X372560Y350963D01*
X372503Y350815D01*
X372450Y350666D01*
X372401Y350516D01*
X372356Y350364D01*
X372314Y350211D01*
X372276Y350057D01*
X372242Y349903D01*
X372212Y349747D01*
X372186Y349591D01*
X372163Y349435D01*
X372145Y349277D01*
X372130Y349120D01*
X372119Y348962D01*
X372113Y348804D01*
X372110Y348645D01*
X372111Y348487D01*
X372116Y348329D01*
X372126Y348171D01*
X372139Y348013D01*
X372156Y347855D01*
X372176Y347699D01*
X372201Y347542D01*
X372230Y347386D01*
X372263Y347232D01*
X372299Y347077D01*
X372339Y346924D01*
X372383Y346772D01*
X372431Y346621D01*
X372483Y346472D01*
X372538Y346323D01*
X372597Y346176D01*
X372660Y346031D01*
X372726Y345887D01*
X372796Y345745D01*
X372869Y345605D01*
X372946Y345466D01*
X373026Y345330D01*
X373109Y345195D01*
X373196Y345063D01*
X373287Y344933D01*
X373380Y344805D01*
X373477Y344680D01*
X373576Y344557D01*
X373679Y344436D01*
X373785Y344318D01*
X373893Y344203D01*
X374005Y344090D01*
X374119Y343981D01*
X374236Y343874D01*
X374355Y343770D01*
X374477Y343669D01*
X374602Y343572D01*
X374729Y343477D01*
X374858Y343385D01*
X374989Y343297D01*
X375123Y343212D01*
X375259Y343131D01*
X375397Y343053D01*
X375536Y342978D01*
X375678Y342907D01*
X375821Y342839D01*
X375966Y342775D01*
X376112Y342715D01*
X376260Y342658D01*
X376409Y342605D01*
X376559Y342556D01*
X376711Y342511D01*
X376864Y342469D01*
X377018Y342431D01*
X377172Y342397D01*
X377328Y342367D01*
X377484Y342341D01*
X377640Y342318D01*
X377798Y342300D01*
X377955Y342285D01*
X378113Y342274D01*
X378271Y342268D01*
X378430Y342265D01*
X378588Y342266D01*
X378746Y342271D01*
X378904Y342281D01*
X379062Y342294D01*
X379220Y342311D01*
X379376Y342331D01*
X379533Y342356D01*
X379689Y342385D01*
X379843Y342418D01*
X379998Y342454D01*
X380151Y342494D01*
X380303Y342538D01*
X380454Y342586D01*
X380603Y342638D01*
X380752Y342693D01*
X380899Y342752D01*
X381044Y342815D01*
X381188Y342881D01*
X381330Y342951D01*
X381470Y343024D01*
X381609Y343101D01*
X381745Y343181D01*
X381880Y343264D01*
X382012Y343351D01*
X382142Y343442D01*
X382270Y343535D01*
X377552Y385049D02*
X377387Y385024D01*
X377222Y385002D01*
X377056Y384985D01*
X376890Y384972D01*
X376723Y384962D01*
X376556Y384957D01*
X376389Y384956D01*
X376223Y384959D01*
X376056Y384966D01*
X375890Y384977D01*
X375724Y384992D01*
X375558Y385011D01*
X375393Y385035D01*
X375228Y385062D01*
X375064Y385093D01*
X374901Y385128D01*
X374739Y385168D01*
X374578Y385211D01*
X374418Y385258D01*
X374259Y385309D01*
X374102Y385363D01*
X373945Y385422D01*
X373791Y385484D01*
X373638Y385551D01*
X373486Y385620D01*
X373336Y385694D01*
X373189Y385771D01*
X373043Y385852D01*
X372899Y385936D01*
X372757Y386024D01*
X372617Y386115D01*
X372480Y386210D01*
X372345Y386308D01*
X372212Y386409D01*
X372082Y386513D01*
X371955Y386621D01*
X371830Y386731D01*
X371708Y386845D01*
X371588Y386962D01*
X371472Y387081D01*
X371358Y387203D01*
X371248Y387328D01*
X371140Y387456D01*
X371036Y387586D01*
X370935Y387719D01*
X370837Y387854D01*
X370743Y387991D01*
X370652Y388131D01*
X370564Y388273D01*
X370480Y388417D01*
X370399Y388563D01*
X370322Y388711D01*
X370249Y388861D01*
X370179Y389012D01*
X370113Y389165D01*
X370051Y389320D01*
X369992Y389476D01*
X369938Y389634D01*
X369887Y389793D01*
X369840Y389953D01*
X369797Y390114D01*
X369758Y390276D01*
X369723Y390439D01*
X369692Y390603D01*
X369665Y390768D01*
X369642Y390933D01*
X369623Y391099D01*
X369608Y391265D01*
X369597Y391431D01*
X369590Y391598D01*
X369587Y391765D01*
X369588Y391931D01*
X369594Y392098D01*
X369603Y392265D01*
X369617Y392431D01*
X369634Y392597D01*
X369656Y392762D01*
X369681Y392927D01*
X369711Y393091D01*
X369744Y393255D01*
X369782Y393417D01*
X369823Y393579D01*
X369869Y393739D01*
X369918Y393898D01*
X369971Y394057D01*
X370028Y394213D01*
X370089Y394369D01*
X370154Y394522D01*
X370222Y394675D01*
X370294Y394825D01*
X370370Y394974D01*
X370449Y395120D01*
X370532Y395265D01*
X370618Y395408D01*
X370708Y395548D01*
X370801Y395687D01*
X370898Y395823D01*
X370998Y395956D01*
X371101Y396088D01*
X371207Y396216D01*
X371316Y396342D01*
X371429Y396465D01*
X371544Y396586D01*
X371662Y396703D01*
X371783Y396818D01*
X371907Y396930D01*
X372034Y397039D01*
X372163Y397144D01*
X372295Y397247D01*
X372429Y397346D01*
X372565Y397442D01*
X372704Y397534D01*
X372845Y397623D01*
X372988Y397709D01*
X373133Y397791D01*
X373281Y397869D01*
X373430Y397944D01*
X373580Y398016D01*
X373733Y398083D01*
X373887Y398147D01*
X402592Y351154D02*
X402530Y351007D01*
X402472Y350859D01*
X402418Y350709D01*
X402368Y350558D01*
X402321Y350406D01*
X402278Y350253D01*
X402239Y350098D01*
X402204Y349943D01*
X402173Y349787D01*
X402145Y349630D01*
X402122Y349473D01*
X402103Y349314D01*
X402087Y349156D01*
X402075Y348997D01*
X402068Y348838D01*
X402064Y348679D01*
X402065Y348520D01*
X402069Y348361D01*
X402077Y348202D01*
X402090Y348043D01*
X402106Y347885D01*
X402126Y347727D01*
X402150Y347569D01*
X402179Y347413D01*
X402211Y347257D01*
X402246Y347101D01*
X402286Y346947D01*
X402330Y346794D01*
X402377Y346642D01*
X402428Y346491D01*
X402483Y346342D01*
X402542Y346194D01*
X402604Y346047D01*
X402670Y345903D01*
X402740Y345759D01*
X402813Y345618D01*
X402890Y345478D01*
X402970Y345341D01*
X403054Y345205D01*
X403141Y345072D01*
X403231Y344941D01*
X403324Y344812D01*
X403421Y344685D01*
X403521Y344561D01*
X403624Y344440D01*
X403729Y344321D01*
X403838Y344205D01*
X403950Y344091D01*
X404064Y343980D01*
X404182Y343873D01*
X404301Y343768D01*
X404424Y343666D01*
X404549Y343567D01*
X404676Y343472D01*
X404806Y343380D01*
X404938Y343291D01*
X405072Y343205D01*
X405208Y343123D01*
X405347Y343044D01*
X405487Y342968D01*
X405629Y342896D01*
X405773Y342828D01*
X405918Y342763D01*
X406065Y342702D01*
X406214Y342645D01*
X406364Y342591D01*
X406515Y342542D01*
X406668Y342496D01*
X406821Y342453D01*
X406976Y342415D01*
X407131Y342381D01*
X407287Y342350D01*
X407444Y342323D01*
X407602Y342300D01*
X407760Y342282D01*
X407918Y342267D01*
X408077Y342256D01*
X408236Y342249D01*
X408396Y342246D01*
X408555Y342247D01*
X408714Y342252D01*
X408873Y342261D01*
X409032Y342274D01*
X409190Y342291D01*
X409348Y342312D01*
X409505Y342337D01*
X409662Y342366D01*
X409817Y342398D01*
X409972Y342435D01*
X410126Y342475D01*
X410279Y342519D01*
X410431Y342568D01*
X410582Y342619D01*
X410731Y342675D01*
X410879Y342734D01*
X411025Y342797D01*
X411169Y342864D01*
X411312Y342934D01*
X411453Y343008D01*
X411593Y343085D01*
X411730Y343166D01*
X411865Y343250D01*
X411998Y343337D01*
X412129Y343428D01*
X412257Y343522D01*
X412384Y343619D01*
X412507Y343720D01*
X412628Y343823D01*
X412747Y343929D01*
X412863Y344039D01*
X412976Y344151D01*
X413086Y344266D01*
X413193Y344383D01*
X413297Y344504D01*
X413399Y344627D01*
X413497Y344752D01*
X413592Y344880D01*
X413683Y345010D01*
X413772Y345142D01*
X413857Y345277D01*
X413939Y345413D01*
X414017Y345552D01*
X414092Y345693D01*
X414163Y345835D01*
X414231Y345979D01*
X425450Y437515D02*
X375920Y434975D01*
X398526Y390779D02*
X377190Y384937D01*
X375412Y422275D02*
X416052Y417703D01*
X405638Y366141D02*
X402590Y351155D01*
X416052Y414909D02*
X416052Y417703D01*
X416052Y414909D02*
X373888Y398145D01*
X398526Y390779D02*
X399542Y388747D01*
X373634Y352679D01*
X403860Y367411D02*
X405638Y366141D01*
X403860Y367411D02*
X382270Y343535D01*
X425450Y437515D02*
X425450Y597535D01*
X440690Y597535D02*
X440690Y437515D01*
X421640Y668655D02*
X414020Y689229D01*
X444500Y668655D02*
X452120Y689483D01*
X421640Y366395D02*
X414020Y345567D01*
X444500Y366395D02*
X452120Y345567D01*
X422910Y443865D02*
X407670Y443865D01*
X419100Y441325D02*
X424180Y443865D01*
X419100Y446405D01*
X419100Y445135D02*
X424180Y443865D01*
X419100Y445135D02*
X419100Y446405D01*
X419100Y442595D02*
X419100Y441325D01*
X419100Y442595D02*
X419100Y445135D01*
X419100Y442595D02*
X422910Y443865D01*
X424180Y443865D01*
D18*
X445389Y452374D02*
X461391Y452374D01*
X455168Y452374D02*
X445389Y461264D01*
X451612Y455930D02*
X461391Y461264D01*
X461391Y468005D02*
X445389Y468005D01*
X445389Y476895D02*
X455168Y468005D01*
X451612Y471561D02*
X461391Y476895D01*
X448945Y482883D02*
X445389Y487328D01*
X461391Y487328D01*
X461391Y482883D02*
X461391Y491773D01*
D10*
X309880Y600075D02*
X302260Y600075D01*
X306070Y603885D02*
X306070Y596265D01*
X245110Y600075D02*
X245120Y600917D01*
X245151Y601758D01*
X245203Y602598D01*
X245275Y603436D01*
X245368Y604272D01*
X245481Y605106D01*
X245615Y605937D01*
X245769Y606765D01*
X245943Y607588D01*
X246138Y608407D01*
X246352Y609221D01*
X246587Y610029D01*
X246841Y610831D01*
X247114Y611627D01*
X247408Y612416D01*
X247720Y613197D01*
X248052Y613971D01*
X248402Y614736D01*
X248771Y615492D01*
X249159Y616239D01*
X249565Y616976D01*
X249988Y617704D01*
X250430Y618420D01*
X250889Y619126D01*
X251365Y619819D01*
X251858Y620502D01*
X252368Y621171D01*
X252893Y621828D01*
X253435Y622472D01*
X253993Y623103D01*
X254566Y623719D01*
X255153Y624322D01*
X255756Y624909D01*
X256372Y625482D01*
X257003Y626040D01*
X257647Y626582D01*
X258304Y627107D01*
X258973Y627617D01*
X259656Y628110D01*
X260349Y628586D01*
X261055Y629045D01*
X261771Y629487D01*
X262499Y629910D01*
X263236Y630316D01*
X263983Y630704D01*
X264739Y631073D01*
X265504Y631423D01*
X266278Y631755D01*
X267059Y632067D01*
X267848Y632361D01*
X268644Y632634D01*
X269446Y632888D01*
X270254Y633123D01*
X271068Y633337D01*
X271887Y633532D01*
X272710Y633706D01*
X273538Y633860D01*
X274369Y633994D01*
X275203Y634107D01*
X276039Y634200D01*
X276877Y634272D01*
X277717Y634324D01*
X278558Y634355D01*
X279400Y634365D01*
X280242Y634355D01*
X281083Y634324D01*
X281923Y634272D01*
X282761Y634200D01*
X283597Y634107D01*
X284431Y633994D01*
X285262Y633860D01*
X286090Y633706D01*
X286913Y633532D01*
X287732Y633337D01*
X288546Y633123D01*
X289354Y632888D01*
X290156Y632634D01*
X290952Y632361D01*
X291741Y632067D01*
X292522Y631755D01*
X293296Y631423D01*
X294061Y631073D01*
X294817Y630704D01*
X295564Y630316D01*
X296301Y629910D01*
X297029Y629487D01*
X297745Y629045D01*
X298451Y628586D01*
X299144Y628110D01*
X299827Y627617D01*
X300496Y627107D01*
X301153Y626582D01*
X301797Y626040D01*
X302428Y625482D01*
X303044Y624909D01*
X303647Y624322D01*
X304234Y623719D01*
X304807Y623103D01*
X305365Y622472D01*
X305907Y621828D01*
X306432Y621171D01*
X306942Y620502D01*
X307435Y619819D01*
X307911Y619126D01*
X308370Y618420D01*
X308812Y617704D01*
X309235Y616976D01*
X309641Y616239D01*
X310029Y615492D01*
X310398Y614736D01*
X310748Y613971D01*
X311080Y613197D01*
X311392Y612416D01*
X311686Y611627D01*
X311959Y610831D01*
X312213Y610029D01*
X312448Y609221D01*
X312662Y608407D01*
X312857Y607588D01*
X313031Y606765D01*
X313185Y605937D01*
X313319Y605106D01*
X313432Y604272D01*
X313525Y603436D01*
X313597Y602598D01*
X313649Y601758D01*
X313680Y600917D01*
X313690Y600075D01*
X313680Y599233D01*
X313649Y598392D01*
X313597Y597552D01*
X313525Y596714D01*
X313432Y595878D01*
X313319Y595044D01*
X313185Y594213D01*
X313031Y593385D01*
X312857Y592562D01*
X312662Y591743D01*
X312448Y590929D01*
X312213Y590121D01*
X311959Y589319D01*
X311686Y588523D01*
X311392Y587734D01*
X311080Y586953D01*
X310748Y586179D01*
X310398Y585414D01*
X310029Y584658D01*
X309641Y583911D01*
X309235Y583174D01*
X308812Y582446D01*
X308370Y581730D01*
X307911Y581024D01*
X307435Y580331D01*
X306942Y579648D01*
X306432Y578979D01*
X305907Y578322D01*
X305365Y577678D01*
X304807Y577047D01*
X304234Y576431D01*
X303647Y575828D01*
X303044Y575241D01*
X302428Y574668D01*
X301797Y574110D01*
X301153Y573568D01*
X300496Y573043D01*
X299827Y572533D01*
X299144Y572040D01*
X298451Y571564D01*
X297745Y571105D01*
X297029Y570663D01*
X296301Y570240D01*
X295564Y569834D01*
X294817Y569446D01*
X294061Y569077D01*
X293296Y568727D01*
X292522Y568395D01*
X291741Y568083D01*
X290952Y567789D01*
X290156Y567516D01*
X289354Y567262D01*
X288546Y567027D01*
X287732Y566813D01*
X286913Y566618D01*
X286090Y566444D01*
X285262Y566290D01*
X284431Y566156D01*
X283597Y566043D01*
X282761Y565950D01*
X281923Y565878D01*
X281083Y565826D01*
X280242Y565795D01*
X279400Y565785D01*
X278558Y565795D01*
X277717Y565826D01*
X276877Y565878D01*
X276039Y565950D01*
X275203Y566043D01*
X274369Y566156D01*
X273538Y566290D01*
X272710Y566444D01*
X271887Y566618D01*
X271068Y566813D01*
X270254Y567027D01*
X269446Y567262D01*
X268644Y567516D01*
X267848Y567789D01*
X267059Y568083D01*
X266278Y568395D01*
X265504Y568727D01*
X264739Y569077D01*
X263983Y569446D01*
X263236Y569834D01*
X262499Y570240D01*
X261771Y570663D01*
X261055Y571105D01*
X260349Y571564D01*
X259656Y572040D01*
X258973Y572533D01*
X258304Y573043D01*
X257647Y573568D01*
X257003Y574110D01*
X256372Y574668D01*
X255756Y575241D01*
X255153Y575828D01*
X254566Y576431D01*
X253993Y577047D01*
X253435Y577678D01*
X252893Y578322D01*
X252368Y578979D01*
X251858Y579648D01*
X251365Y580331D01*
X250889Y581024D01*
X250430Y581730D01*
X249988Y582446D01*
X249565Y583174D01*
X249159Y583911D01*
X248771Y584658D01*
X248402Y585414D01*
X248052Y586179D01*
X247720Y586953D01*
X247408Y587734D01*
X247114Y588523D01*
X246841Y589319D01*
X246587Y590121D01*
X246352Y590929D01*
X246138Y591743D01*
X245943Y592562D01*
X245769Y593385D01*
X245615Y594213D01*
X245481Y595044D01*
X245368Y595878D01*
X245275Y596714D01*
X245203Y597552D01*
X245151Y598392D01*
X245120Y599233D01*
X245110Y600075D01*
D12*
X304763Y631190D02*
X307303Y631190D01*
X304763Y631190D02*
X304663Y631192D01*
X304564Y631198D01*
X304464Y631208D01*
X304366Y631221D01*
X304267Y631239D01*
X304170Y631260D01*
X304074Y631285D01*
X303978Y631314D01*
X303884Y631347D01*
X303791Y631383D01*
X303700Y631423D01*
X303610Y631467D01*
X303522Y631514D01*
X303436Y631564D01*
X303352Y631618D01*
X303270Y631675D01*
X303191Y631735D01*
X303113Y631799D01*
X303039Y631865D01*
X302967Y631934D01*
X302898Y632006D01*
X302832Y632080D01*
X302768Y632158D01*
X302708Y632237D01*
X302651Y632319D01*
X302597Y632403D01*
X302547Y632489D01*
X302500Y632577D01*
X302456Y632667D01*
X302416Y632758D01*
X302380Y632851D01*
X302347Y632945D01*
X302318Y633041D01*
X302293Y633137D01*
X302272Y633234D01*
X302254Y633333D01*
X302241Y633431D01*
X302231Y633531D01*
X302225Y633630D01*
X302223Y633730D01*
X302223Y640080D01*
X302225Y640180D01*
X302231Y640279D01*
X302241Y640379D01*
X302254Y640477D01*
X302272Y640576D01*
X302293Y640673D01*
X302318Y640769D01*
X302347Y640865D01*
X302380Y640959D01*
X302416Y641052D01*
X302456Y641143D01*
X302500Y641233D01*
X302547Y641321D01*
X302597Y641407D01*
X302651Y641491D01*
X302708Y641573D01*
X302768Y641652D01*
X302832Y641730D01*
X302898Y641804D01*
X302967Y641876D01*
X303039Y641945D01*
X303113Y642011D01*
X303191Y642075D01*
X303270Y642135D01*
X303352Y642192D01*
X303436Y642246D01*
X303522Y642296D01*
X303610Y642343D01*
X303700Y642387D01*
X303791Y642427D01*
X303884Y642463D01*
X303978Y642496D01*
X304074Y642525D01*
X304170Y642550D01*
X304267Y642571D01*
X304366Y642589D01*
X304464Y642602D01*
X304564Y642612D01*
X304663Y642618D01*
X304763Y642620D01*
X307303Y642620D01*
X311785Y631190D02*
X314960Y631190D01*
X315071Y631192D01*
X315181Y631198D01*
X315292Y631207D01*
X315402Y631221D01*
X315511Y631238D01*
X315620Y631259D01*
X315728Y631284D01*
X315835Y631313D01*
X315941Y631345D01*
X316046Y631381D01*
X316149Y631421D01*
X316251Y631464D01*
X316352Y631511D01*
X316451Y631562D01*
X316548Y631615D01*
X316642Y631672D01*
X316735Y631733D01*
X316826Y631796D01*
X316915Y631863D01*
X317001Y631933D01*
X317084Y632006D01*
X317166Y632081D01*
X317244Y632159D01*
X317319Y632241D01*
X317392Y632324D01*
X317462Y632410D01*
X317529Y632499D01*
X317592Y632590D01*
X317653Y632683D01*
X317710Y632778D01*
X317763Y632874D01*
X317814Y632973D01*
X317861Y633074D01*
X317904Y633176D01*
X317944Y633279D01*
X317980Y633384D01*
X318012Y633490D01*
X318041Y633597D01*
X318066Y633705D01*
X318087Y633814D01*
X318104Y633923D01*
X318118Y634033D01*
X318127Y634144D01*
X318133Y634254D01*
X318135Y634365D01*
X318133Y634476D01*
X318127Y634586D01*
X318118Y634697D01*
X318104Y634807D01*
X318087Y634916D01*
X318066Y635025D01*
X318041Y635133D01*
X318012Y635240D01*
X317980Y635346D01*
X317944Y635451D01*
X317904Y635554D01*
X317861Y635656D01*
X317814Y635757D01*
X317763Y635856D01*
X317710Y635952D01*
X317653Y636047D01*
X317592Y636140D01*
X317529Y636231D01*
X317462Y636320D01*
X317392Y636406D01*
X317319Y636489D01*
X317244Y636571D01*
X317166Y636649D01*
X317084Y636724D01*
X317001Y636797D01*
X316915Y636867D01*
X316826Y636934D01*
X316735Y636997D01*
X316642Y637058D01*
X316548Y637115D01*
X316451Y637168D01*
X316352Y637219D01*
X316251Y637266D01*
X316149Y637309D01*
X316046Y637349D01*
X315941Y637385D01*
X315835Y637417D01*
X315728Y637446D01*
X315620Y637471D01*
X315511Y637492D01*
X315402Y637509D01*
X315292Y637523D01*
X315181Y637532D01*
X315071Y637538D01*
X314960Y637540D01*
X315595Y642620D02*
X311785Y642620D01*
X315595Y642620D02*
X315695Y642618D01*
X315794Y642612D01*
X315894Y642602D01*
X315992Y642589D01*
X316091Y642571D01*
X316188Y642550D01*
X316284Y642525D01*
X316380Y642496D01*
X316474Y642463D01*
X316567Y642427D01*
X316658Y642387D01*
X316748Y642343D01*
X316836Y642296D01*
X316922Y642246D01*
X317006Y642192D01*
X317088Y642135D01*
X317167Y642075D01*
X317245Y642011D01*
X317319Y641945D01*
X317391Y641876D01*
X317460Y641804D01*
X317526Y641730D01*
X317590Y641652D01*
X317650Y641573D01*
X317707Y641491D01*
X317761Y641407D01*
X317811Y641321D01*
X317858Y641233D01*
X317902Y641143D01*
X317942Y641052D01*
X317978Y640959D01*
X318011Y640865D01*
X318040Y640769D01*
X318065Y640673D01*
X318086Y640576D01*
X318104Y640477D01*
X318117Y640379D01*
X318127Y640279D01*
X318133Y640180D01*
X318135Y640080D01*
X318133Y639980D01*
X318127Y639881D01*
X318117Y639781D01*
X318104Y639683D01*
X318086Y639584D01*
X318065Y639487D01*
X318040Y639391D01*
X318011Y639295D01*
X317978Y639201D01*
X317942Y639108D01*
X317902Y639017D01*
X317858Y638927D01*
X317811Y638839D01*
X317761Y638753D01*
X317707Y638669D01*
X317650Y638587D01*
X317590Y638508D01*
X317526Y638430D01*
X317460Y638356D01*
X317391Y638284D01*
X317319Y638215D01*
X317245Y638149D01*
X317167Y638085D01*
X317088Y638025D01*
X317006Y637968D01*
X316922Y637914D01*
X316836Y637864D01*
X316748Y637817D01*
X316658Y637773D01*
X316567Y637733D01*
X316474Y637697D01*
X316380Y637664D01*
X316284Y637635D01*
X316188Y637610D01*
X316091Y637589D01*
X315992Y637571D01*
X315894Y637558D01*
X315794Y637548D01*
X315695Y637542D01*
X315595Y637540D01*
X313055Y637540D01*
D10*
X186055Y288925D02*
X178435Y288925D01*
X182245Y292735D02*
X182245Y285115D01*
X121285Y288925D02*
X121295Y289767D01*
X121326Y290608D01*
X121378Y291448D01*
X121450Y292286D01*
X121543Y293122D01*
X121656Y293956D01*
X121790Y294787D01*
X121944Y295615D01*
X122118Y296438D01*
X122313Y297257D01*
X122527Y298071D01*
X122762Y298879D01*
X123016Y299681D01*
X123289Y300477D01*
X123583Y301266D01*
X123895Y302047D01*
X124227Y302821D01*
X124577Y303586D01*
X124946Y304342D01*
X125334Y305089D01*
X125740Y305826D01*
X126163Y306554D01*
X126605Y307270D01*
X127064Y307976D01*
X127540Y308669D01*
X128033Y309352D01*
X128543Y310021D01*
X129068Y310678D01*
X129610Y311322D01*
X130168Y311953D01*
X130741Y312569D01*
X131328Y313172D01*
X131931Y313759D01*
X132547Y314332D01*
X133178Y314890D01*
X133822Y315432D01*
X134479Y315957D01*
X135148Y316467D01*
X135831Y316960D01*
X136524Y317436D01*
X137230Y317895D01*
X137946Y318337D01*
X138674Y318760D01*
X139411Y319166D01*
X140158Y319554D01*
X140914Y319923D01*
X141679Y320273D01*
X142453Y320605D01*
X143234Y320917D01*
X144023Y321211D01*
X144819Y321484D01*
X145621Y321738D01*
X146429Y321973D01*
X147243Y322187D01*
X148062Y322382D01*
X148885Y322556D01*
X149713Y322710D01*
X150544Y322844D01*
X151378Y322957D01*
X152214Y323050D01*
X153052Y323122D01*
X153892Y323174D01*
X154733Y323205D01*
X155575Y323215D01*
X156417Y323205D01*
X157258Y323174D01*
X158098Y323122D01*
X158936Y323050D01*
X159772Y322957D01*
X160606Y322844D01*
X161437Y322710D01*
X162265Y322556D01*
X163088Y322382D01*
X163907Y322187D01*
X164721Y321973D01*
X165529Y321738D01*
X166331Y321484D01*
X167127Y321211D01*
X167916Y320917D01*
X168697Y320605D01*
X169471Y320273D01*
X170236Y319923D01*
X170992Y319554D01*
X171739Y319166D01*
X172476Y318760D01*
X173204Y318337D01*
X173920Y317895D01*
X174626Y317436D01*
X175319Y316960D01*
X176002Y316467D01*
X176671Y315957D01*
X177328Y315432D01*
X177972Y314890D01*
X178603Y314332D01*
X179219Y313759D01*
X179822Y313172D01*
X180409Y312569D01*
X180982Y311953D01*
X181540Y311322D01*
X182082Y310678D01*
X182607Y310021D01*
X183117Y309352D01*
X183610Y308669D01*
X184086Y307976D01*
X184545Y307270D01*
X184987Y306554D01*
X185410Y305826D01*
X185816Y305089D01*
X186204Y304342D01*
X186573Y303586D01*
X186923Y302821D01*
X187255Y302047D01*
X187567Y301266D01*
X187861Y300477D01*
X188134Y299681D01*
X188388Y298879D01*
X188623Y298071D01*
X188837Y297257D01*
X189032Y296438D01*
X189206Y295615D01*
X189360Y294787D01*
X189494Y293956D01*
X189607Y293122D01*
X189700Y292286D01*
X189772Y291448D01*
X189824Y290608D01*
X189855Y289767D01*
X189865Y288925D01*
X189855Y288083D01*
X189824Y287242D01*
X189772Y286402D01*
X189700Y285564D01*
X189607Y284728D01*
X189494Y283894D01*
X189360Y283063D01*
X189206Y282235D01*
X189032Y281412D01*
X188837Y280593D01*
X188623Y279779D01*
X188388Y278971D01*
X188134Y278169D01*
X187861Y277373D01*
X187567Y276584D01*
X187255Y275803D01*
X186923Y275029D01*
X186573Y274264D01*
X186204Y273508D01*
X185816Y272761D01*
X185410Y272024D01*
X184987Y271296D01*
X184545Y270580D01*
X184086Y269874D01*
X183610Y269181D01*
X183117Y268498D01*
X182607Y267829D01*
X182082Y267172D01*
X181540Y266528D01*
X180982Y265897D01*
X180409Y265281D01*
X179822Y264678D01*
X179219Y264091D01*
X178603Y263518D01*
X177972Y262960D01*
X177328Y262418D01*
X176671Y261893D01*
X176002Y261383D01*
X175319Y260890D01*
X174626Y260414D01*
X173920Y259955D01*
X173204Y259513D01*
X172476Y259090D01*
X171739Y258684D01*
X170992Y258296D01*
X170236Y257927D01*
X169471Y257577D01*
X168697Y257245D01*
X167916Y256933D01*
X167127Y256639D01*
X166331Y256366D01*
X165529Y256112D01*
X164721Y255877D01*
X163907Y255663D01*
X163088Y255468D01*
X162265Y255294D01*
X161437Y255140D01*
X160606Y255006D01*
X159772Y254893D01*
X158936Y254800D01*
X158098Y254728D01*
X157258Y254676D01*
X156417Y254645D01*
X155575Y254635D01*
X154733Y254645D01*
X153892Y254676D01*
X153052Y254728D01*
X152214Y254800D01*
X151378Y254893D01*
X150544Y255006D01*
X149713Y255140D01*
X148885Y255294D01*
X148062Y255468D01*
X147243Y255663D01*
X146429Y255877D01*
X145621Y256112D01*
X144819Y256366D01*
X144023Y256639D01*
X143234Y256933D01*
X142453Y257245D01*
X141679Y257577D01*
X140914Y257927D01*
X140158Y258296D01*
X139411Y258684D01*
X138674Y259090D01*
X137946Y259513D01*
X137230Y259955D01*
X136524Y260414D01*
X135831Y260890D01*
X135148Y261383D01*
X134479Y261893D01*
X133822Y262418D01*
X133178Y262960D01*
X132547Y263518D01*
X131931Y264091D01*
X131328Y264678D01*
X130741Y265281D01*
X130168Y265897D01*
X129610Y266528D01*
X129068Y267172D01*
X128543Y267829D01*
X128033Y268498D01*
X127540Y269181D01*
X127064Y269874D01*
X126605Y270580D01*
X126163Y271296D01*
X125740Y272024D01*
X125334Y272761D01*
X124946Y273508D01*
X124577Y274264D01*
X124227Y275029D01*
X123895Y275803D01*
X123583Y276584D01*
X123289Y277373D01*
X123016Y278169D01*
X122762Y278971D01*
X122527Y279779D01*
X122313Y280593D01*
X122118Y281412D01*
X121944Y282235D01*
X121790Y283063D01*
X121656Y283894D01*
X121543Y284728D01*
X121450Y285564D01*
X121378Y286402D01*
X121326Y287242D01*
X121295Y288083D01*
X121285Y288925D01*
D12*
X187288Y316865D02*
X189828Y316865D01*
X187288Y316865D02*
X187188Y316867D01*
X187089Y316873D01*
X186989Y316883D01*
X186891Y316896D01*
X186792Y316914D01*
X186695Y316935D01*
X186599Y316960D01*
X186503Y316989D01*
X186409Y317022D01*
X186316Y317058D01*
X186225Y317098D01*
X186135Y317142D01*
X186047Y317189D01*
X185961Y317239D01*
X185877Y317293D01*
X185795Y317350D01*
X185716Y317410D01*
X185638Y317474D01*
X185564Y317540D01*
X185492Y317609D01*
X185423Y317681D01*
X185357Y317755D01*
X185293Y317833D01*
X185233Y317912D01*
X185176Y317994D01*
X185122Y318078D01*
X185072Y318164D01*
X185025Y318252D01*
X184981Y318342D01*
X184941Y318433D01*
X184905Y318526D01*
X184872Y318620D01*
X184843Y318716D01*
X184818Y318812D01*
X184797Y318909D01*
X184779Y319008D01*
X184766Y319106D01*
X184756Y319206D01*
X184750Y319305D01*
X184748Y319405D01*
X184748Y325755D01*
X184750Y325855D01*
X184756Y325954D01*
X184766Y326054D01*
X184779Y326152D01*
X184797Y326251D01*
X184818Y326348D01*
X184843Y326444D01*
X184872Y326540D01*
X184905Y326634D01*
X184941Y326727D01*
X184981Y326818D01*
X185025Y326908D01*
X185072Y326996D01*
X185122Y327082D01*
X185176Y327166D01*
X185233Y327248D01*
X185293Y327327D01*
X185357Y327405D01*
X185423Y327479D01*
X185492Y327551D01*
X185564Y327620D01*
X185638Y327686D01*
X185716Y327750D01*
X185795Y327810D01*
X185877Y327867D01*
X185961Y327921D01*
X186047Y327971D01*
X186135Y328018D01*
X186225Y328062D01*
X186316Y328102D01*
X186409Y328138D01*
X186503Y328171D01*
X186599Y328200D01*
X186695Y328225D01*
X186792Y328246D01*
X186891Y328264D01*
X186989Y328277D01*
X187089Y328287D01*
X187188Y328293D01*
X187288Y328295D01*
X189828Y328295D01*
X194310Y316865D02*
X198120Y316865D01*
X198220Y316867D01*
X198319Y316873D01*
X198419Y316883D01*
X198517Y316896D01*
X198616Y316914D01*
X198713Y316935D01*
X198809Y316960D01*
X198905Y316989D01*
X198999Y317022D01*
X199092Y317058D01*
X199183Y317098D01*
X199273Y317142D01*
X199361Y317189D01*
X199447Y317239D01*
X199531Y317293D01*
X199613Y317350D01*
X199692Y317410D01*
X199770Y317474D01*
X199844Y317540D01*
X199916Y317609D01*
X199985Y317681D01*
X200051Y317755D01*
X200115Y317833D01*
X200175Y317912D01*
X200232Y317994D01*
X200286Y318078D01*
X200336Y318164D01*
X200383Y318252D01*
X200427Y318342D01*
X200467Y318433D01*
X200503Y318526D01*
X200536Y318620D01*
X200565Y318716D01*
X200590Y318812D01*
X200611Y318909D01*
X200629Y319008D01*
X200642Y319106D01*
X200652Y319206D01*
X200658Y319305D01*
X200660Y319405D01*
X200660Y320675D01*
X200658Y320775D01*
X200652Y320874D01*
X200642Y320974D01*
X200629Y321072D01*
X200611Y321171D01*
X200590Y321268D01*
X200565Y321364D01*
X200536Y321460D01*
X200503Y321554D01*
X200467Y321647D01*
X200427Y321738D01*
X200383Y321828D01*
X200336Y321916D01*
X200286Y322002D01*
X200232Y322086D01*
X200175Y322168D01*
X200115Y322247D01*
X200051Y322325D01*
X199985Y322399D01*
X199916Y322471D01*
X199844Y322540D01*
X199770Y322606D01*
X199692Y322670D01*
X199613Y322730D01*
X199531Y322787D01*
X199447Y322841D01*
X199361Y322891D01*
X199273Y322938D01*
X199183Y322982D01*
X199092Y323022D01*
X198999Y323058D01*
X198905Y323091D01*
X198809Y323120D01*
X198713Y323145D01*
X198616Y323166D01*
X198517Y323184D01*
X198419Y323197D01*
X198319Y323207D01*
X198220Y323213D01*
X198120Y323215D01*
X194310Y323215D01*
X194310Y328295D01*
X200660Y328295D01*
D10*
X15240Y364215D02*
X15240Y264395D01*
X105160Y264395D02*
X107190Y264395D01*
X107190Y364215D01*
X39120Y364215D02*
X15240Y364215D01*
X39120Y364215D02*
X39120Y348215D01*
X39120Y330435D02*
X39120Y298175D01*
X39120Y280395D02*
X39120Y264395D01*
X39120Y364215D02*
X105160Y364215D01*
X39120Y264395D02*
X15240Y264395D01*
X105160Y264395D02*
X105160Y364215D01*
X107190Y364215D01*
X105160Y264395D02*
X39120Y264395D01*
X86868Y339325D02*
X86870Y339467D01*
X86876Y339610D01*
X86886Y339752D01*
X86900Y339894D01*
X86918Y340035D01*
X86940Y340176D01*
X86966Y340316D01*
X86995Y340455D01*
X87029Y340594D01*
X87067Y340731D01*
X87108Y340868D01*
X87153Y341003D01*
X87202Y341137D01*
X87255Y341269D01*
X87311Y341400D01*
X87371Y341529D01*
X87435Y341657D01*
X87502Y341782D01*
X87573Y341906D01*
X87647Y342028D01*
X87724Y342147D01*
X87805Y342265D01*
X87889Y342380D01*
X87976Y342492D01*
X88067Y342602D01*
X88160Y342710D01*
X88257Y342815D01*
X88356Y342917D01*
X88458Y343016D01*
X88563Y343113D01*
X88671Y343206D01*
X88781Y343297D01*
X88893Y343384D01*
X89008Y343468D01*
X89126Y343549D01*
X89245Y343626D01*
X89367Y343700D01*
X89491Y343771D01*
X89616Y343838D01*
X89744Y343902D01*
X89873Y343962D01*
X90004Y344018D01*
X90136Y344071D01*
X90270Y344120D01*
X90405Y344165D01*
X90542Y344206D01*
X90679Y344244D01*
X90818Y344278D01*
X90957Y344307D01*
X91097Y344333D01*
X91238Y344355D01*
X91379Y344373D01*
X91521Y344387D01*
X91663Y344397D01*
X91806Y344403D01*
X91948Y344405D01*
X92090Y344403D01*
X92233Y344397D01*
X92375Y344387D01*
X92517Y344373D01*
X92658Y344355D01*
X92799Y344333D01*
X92939Y344307D01*
X93078Y344278D01*
X93217Y344244D01*
X93354Y344206D01*
X93491Y344165D01*
X93626Y344120D01*
X93760Y344071D01*
X93892Y344018D01*
X94023Y343962D01*
X94152Y343902D01*
X94280Y343838D01*
X94405Y343771D01*
X94529Y343700D01*
X94651Y343626D01*
X94770Y343549D01*
X94888Y343468D01*
X95003Y343384D01*
X95115Y343297D01*
X95225Y343206D01*
X95333Y343113D01*
X95438Y343016D01*
X95540Y342917D01*
X95639Y342815D01*
X95736Y342710D01*
X95829Y342602D01*
X95920Y342492D01*
X96007Y342380D01*
X96091Y342265D01*
X96172Y342147D01*
X96249Y342028D01*
X96323Y341906D01*
X96394Y341782D01*
X96461Y341657D01*
X96525Y341529D01*
X96585Y341400D01*
X96641Y341269D01*
X96694Y341137D01*
X96743Y341003D01*
X96788Y340868D01*
X96829Y340731D01*
X96867Y340594D01*
X96901Y340455D01*
X96930Y340316D01*
X96956Y340176D01*
X96978Y340035D01*
X96996Y339894D01*
X97010Y339752D01*
X97020Y339610D01*
X97026Y339467D01*
X97028Y339325D01*
X97026Y339183D01*
X97020Y339040D01*
X97010Y338898D01*
X96996Y338756D01*
X96978Y338615D01*
X96956Y338474D01*
X96930Y338334D01*
X96901Y338195D01*
X96867Y338056D01*
X96829Y337919D01*
X96788Y337782D01*
X96743Y337647D01*
X96694Y337513D01*
X96641Y337381D01*
X96585Y337250D01*
X96525Y337121D01*
X96461Y336993D01*
X96394Y336868D01*
X96323Y336744D01*
X96249Y336622D01*
X96172Y336503D01*
X96091Y336385D01*
X96007Y336270D01*
X95920Y336158D01*
X95829Y336048D01*
X95736Y335940D01*
X95639Y335835D01*
X95540Y335733D01*
X95438Y335634D01*
X95333Y335537D01*
X95225Y335444D01*
X95115Y335353D01*
X95003Y335266D01*
X94888Y335182D01*
X94770Y335101D01*
X94651Y335024D01*
X94529Y334950D01*
X94405Y334879D01*
X94280Y334812D01*
X94152Y334748D01*
X94023Y334688D01*
X93892Y334632D01*
X93760Y334579D01*
X93626Y334530D01*
X93491Y334485D01*
X93354Y334444D01*
X93217Y334406D01*
X93078Y334372D01*
X92939Y334343D01*
X92799Y334317D01*
X92658Y334295D01*
X92517Y334277D01*
X92375Y334263D01*
X92233Y334253D01*
X92090Y334247D01*
X91948Y334245D01*
X91806Y334247D01*
X91663Y334253D01*
X91521Y334263D01*
X91379Y334277D01*
X91238Y334295D01*
X91097Y334317D01*
X90957Y334343D01*
X90818Y334372D01*
X90679Y334406D01*
X90542Y334444D01*
X90405Y334485D01*
X90270Y334530D01*
X90136Y334579D01*
X90004Y334632D01*
X89873Y334688D01*
X89744Y334748D01*
X89616Y334812D01*
X89491Y334879D01*
X89367Y334950D01*
X89245Y335024D01*
X89126Y335101D01*
X89008Y335182D01*
X88893Y335266D01*
X88781Y335353D01*
X88671Y335444D01*
X88563Y335537D01*
X88458Y335634D01*
X88356Y335733D01*
X88257Y335835D01*
X88160Y335940D01*
X88067Y336048D01*
X87976Y336158D01*
X87889Y336270D01*
X87805Y336385D01*
X87724Y336503D01*
X87647Y336622D01*
X87573Y336744D01*
X87502Y336868D01*
X87435Y336993D01*
X87371Y337121D01*
X87311Y337250D01*
X87255Y337381D01*
X87202Y337513D01*
X87153Y337647D01*
X87108Y337782D01*
X87067Y337919D01*
X87029Y338056D01*
X86995Y338195D01*
X86966Y338334D01*
X86940Y338474D01*
X86918Y338615D01*
X86900Y338756D01*
X86886Y338898D01*
X86876Y339040D01*
X86870Y339183D01*
X86868Y339325D01*
X86868Y289287D02*
X86870Y289429D01*
X86876Y289572D01*
X86886Y289714D01*
X86900Y289856D01*
X86918Y289997D01*
X86940Y290138D01*
X86966Y290278D01*
X86995Y290417D01*
X87029Y290556D01*
X87067Y290693D01*
X87108Y290830D01*
X87153Y290965D01*
X87202Y291099D01*
X87255Y291231D01*
X87311Y291362D01*
X87371Y291491D01*
X87435Y291619D01*
X87502Y291744D01*
X87573Y291868D01*
X87647Y291990D01*
X87724Y292109D01*
X87805Y292227D01*
X87889Y292342D01*
X87976Y292454D01*
X88067Y292564D01*
X88160Y292672D01*
X88257Y292777D01*
X88356Y292879D01*
X88458Y292978D01*
X88563Y293075D01*
X88671Y293168D01*
X88781Y293259D01*
X88893Y293346D01*
X89008Y293430D01*
X89126Y293511D01*
X89245Y293588D01*
X89367Y293662D01*
X89491Y293733D01*
X89616Y293800D01*
X89744Y293864D01*
X89873Y293924D01*
X90004Y293980D01*
X90136Y294033D01*
X90270Y294082D01*
X90405Y294127D01*
X90542Y294168D01*
X90679Y294206D01*
X90818Y294240D01*
X90957Y294269D01*
X91097Y294295D01*
X91238Y294317D01*
X91379Y294335D01*
X91521Y294349D01*
X91663Y294359D01*
X91806Y294365D01*
X91948Y294367D01*
X92090Y294365D01*
X92233Y294359D01*
X92375Y294349D01*
X92517Y294335D01*
X92658Y294317D01*
X92799Y294295D01*
X92939Y294269D01*
X93078Y294240D01*
X93217Y294206D01*
X93354Y294168D01*
X93491Y294127D01*
X93626Y294082D01*
X93760Y294033D01*
X93892Y293980D01*
X94023Y293924D01*
X94152Y293864D01*
X94280Y293800D01*
X94405Y293733D01*
X94529Y293662D01*
X94651Y293588D01*
X94770Y293511D01*
X94888Y293430D01*
X95003Y293346D01*
X95115Y293259D01*
X95225Y293168D01*
X95333Y293075D01*
X95438Y292978D01*
X95540Y292879D01*
X95639Y292777D01*
X95736Y292672D01*
X95829Y292564D01*
X95920Y292454D01*
X96007Y292342D01*
X96091Y292227D01*
X96172Y292109D01*
X96249Y291990D01*
X96323Y291868D01*
X96394Y291744D01*
X96461Y291619D01*
X96525Y291491D01*
X96585Y291362D01*
X96641Y291231D01*
X96694Y291099D01*
X96743Y290965D01*
X96788Y290830D01*
X96829Y290693D01*
X96867Y290556D01*
X96901Y290417D01*
X96930Y290278D01*
X96956Y290138D01*
X96978Y289997D01*
X96996Y289856D01*
X97010Y289714D01*
X97020Y289572D01*
X97026Y289429D01*
X97028Y289287D01*
X97026Y289145D01*
X97020Y289002D01*
X97010Y288860D01*
X96996Y288718D01*
X96978Y288577D01*
X96956Y288436D01*
X96930Y288296D01*
X96901Y288157D01*
X96867Y288018D01*
X96829Y287881D01*
X96788Y287744D01*
X96743Y287609D01*
X96694Y287475D01*
X96641Y287343D01*
X96585Y287212D01*
X96525Y287083D01*
X96461Y286955D01*
X96394Y286830D01*
X96323Y286706D01*
X96249Y286584D01*
X96172Y286465D01*
X96091Y286347D01*
X96007Y286232D01*
X95920Y286120D01*
X95829Y286010D01*
X95736Y285902D01*
X95639Y285797D01*
X95540Y285695D01*
X95438Y285596D01*
X95333Y285499D01*
X95225Y285406D01*
X95115Y285315D01*
X95003Y285228D01*
X94888Y285144D01*
X94770Y285063D01*
X94651Y284986D01*
X94529Y284912D01*
X94405Y284841D01*
X94280Y284774D01*
X94152Y284710D01*
X94023Y284650D01*
X93892Y284594D01*
X93760Y284541D01*
X93626Y284492D01*
X93491Y284447D01*
X93354Y284406D01*
X93217Y284368D01*
X93078Y284334D01*
X92939Y284305D01*
X92799Y284279D01*
X92658Y284257D01*
X92517Y284239D01*
X92375Y284225D01*
X92233Y284215D01*
X92090Y284209D01*
X91948Y284207D01*
X91806Y284209D01*
X91663Y284215D01*
X91521Y284225D01*
X91379Y284239D01*
X91238Y284257D01*
X91097Y284279D01*
X90957Y284305D01*
X90818Y284334D01*
X90679Y284368D01*
X90542Y284406D01*
X90405Y284447D01*
X90270Y284492D01*
X90136Y284541D01*
X90004Y284594D01*
X89873Y284650D01*
X89744Y284710D01*
X89616Y284774D01*
X89491Y284841D01*
X89367Y284912D01*
X89245Y284986D01*
X89126Y285063D01*
X89008Y285144D01*
X88893Y285228D01*
X88781Y285315D01*
X88671Y285406D01*
X88563Y285499D01*
X88458Y285596D01*
X88356Y285695D01*
X88257Y285797D01*
X88160Y285902D01*
X88067Y286010D01*
X87976Y286120D01*
X87889Y286232D01*
X87805Y286347D01*
X87724Y286465D01*
X87647Y286584D01*
X87573Y286706D01*
X87502Y286830D01*
X87435Y286955D01*
X87371Y287083D01*
X87311Y287212D01*
X87255Y287343D01*
X87202Y287475D01*
X87153Y287609D01*
X87108Y287744D01*
X87067Y287881D01*
X87029Y288018D01*
X86995Y288157D01*
X86966Y288296D01*
X86940Y288436D01*
X86918Y288577D01*
X86900Y288718D01*
X86886Y288860D01*
X86876Y289002D01*
X86870Y289145D01*
X86868Y289287D01*
D12*
X79375Y352660D02*
X76835Y355835D01*
X88265Y355835D01*
X88265Y352660D02*
X88265Y359010D01*
X79693Y309481D02*
X79589Y309479D01*
X79484Y309473D01*
X79380Y309464D01*
X79277Y309451D01*
X79174Y309433D01*
X79072Y309413D01*
X78970Y309388D01*
X78870Y309360D01*
X78770Y309328D01*
X78672Y309292D01*
X78575Y309253D01*
X78480Y309211D01*
X78386Y309165D01*
X78294Y309115D01*
X78204Y309063D01*
X78116Y309007D01*
X78030Y308947D01*
X77946Y308885D01*
X77865Y308820D01*
X77786Y308752D01*
X77709Y308680D01*
X77636Y308607D01*
X77564Y308530D01*
X77496Y308451D01*
X77431Y308370D01*
X77369Y308286D01*
X77309Y308200D01*
X77253Y308112D01*
X77201Y308022D01*
X77151Y307930D01*
X77105Y307836D01*
X77063Y307741D01*
X77024Y307644D01*
X76988Y307546D01*
X76956Y307446D01*
X76928Y307346D01*
X76903Y307244D01*
X76883Y307142D01*
X76865Y307039D01*
X76852Y306936D01*
X76843Y306832D01*
X76837Y306727D01*
X76835Y306623D01*
X76837Y306505D01*
X76843Y306386D01*
X76852Y306268D01*
X76865Y306151D01*
X76883Y306034D01*
X76903Y305917D01*
X76928Y305801D01*
X76956Y305686D01*
X76989Y305573D01*
X77024Y305460D01*
X77064Y305348D01*
X77106Y305238D01*
X77153Y305129D01*
X77203Y305021D01*
X77256Y304916D01*
X77313Y304812D01*
X77373Y304710D01*
X77436Y304610D01*
X77503Y304512D01*
X77572Y304416D01*
X77645Y304323D01*
X77721Y304232D01*
X77799Y304143D01*
X77881Y304057D01*
X77965Y303974D01*
X78051Y303893D01*
X78141Y303816D01*
X78232Y303741D01*
X78326Y303669D01*
X78423Y303600D01*
X78521Y303535D01*
X78622Y303472D01*
X78725Y303413D01*
X78829Y303357D01*
X78935Y303305D01*
X79043Y303256D01*
X79152Y303211D01*
X79263Y303169D01*
X79375Y303131D01*
X81915Y308528D02*
X81840Y308604D01*
X81761Y308679D01*
X81680Y308750D01*
X81596Y308819D01*
X81510Y308884D01*
X81422Y308946D01*
X81332Y309006D01*
X81240Y309062D01*
X81145Y309115D01*
X81049Y309164D01*
X80951Y309210D01*
X80852Y309253D01*
X80751Y309292D01*
X80649Y309327D01*
X80546Y309359D01*
X80442Y309387D01*
X80337Y309412D01*
X80230Y309433D01*
X80124Y309450D01*
X80017Y309463D01*
X79909Y309472D01*
X79801Y309478D01*
X79693Y309480D01*
X81915Y308528D02*
X88265Y303130D01*
X88265Y309480D01*
X112522Y350882D02*
X123952Y343262D01*
X123952Y350882D02*
X112522Y343262D01*
X115062Y355327D02*
X112522Y358502D01*
X123952Y358502D01*
X123952Y355327D02*
X123952Y361677D01*
M02*
