M48
;GenerationSoftware,Autodesk,EAGLE,9.6.1*%
;CreationDate,2021-06-18T08:03:59Z*%
FMAT,2
ICI,OFF
METRIC,TZ,0000.000
T8C0.610
T7C0.813
T6C1.000
T5C1.100
T4C1.194
T3C1.300
T2C3.200
%
G90
M71
T2
X66040Y35560
X13970Y2540
X15240Y50800
T3
X53540Y25082
X55040Y21882
X54540Y28382
X56240Y25082
X58240Y28582
T4
X61615Y17383
X61615Y12382
X61615Y7382
T5
X63040Y27582
X63040Y22582
T6
X48260Y50800
X41656Y50800
X45720Y50800
X39116Y50800
X36576Y50800
X34036Y50800
X31496Y50800
X28956Y50800
X26416Y50800
X23876Y50800
X53340Y2540
X55880Y2540
X58420Y2540
X60960Y2540
X63500Y2540
X45720Y2540
X43180Y2540
X40640Y2540
X38100Y2540
X35560Y2540
X33020Y2540
X63500Y50800
X60960Y50800
X50800Y50800
X58420Y50800
X55880Y50800
X50800Y2540
X53340Y50800
T7
X59690Y45720
X57150Y31750
X59690Y38100
X55880Y45720
X52070Y36830
X52070Y39370
X52070Y45720
X52070Y43180
X59690Y35243
X57150Y35243
X55880Y38100
X35560Y39370
X27940Y39370
X40640Y38100
X40640Y45720
X48260Y38100
X48260Y45720
X44450Y45720
X44450Y38100
X64770Y31750
T8
X30480Y43180
X33020Y45720
X35560Y43180
M30