M48
;GenerationSoftware,Autodesk,EAGLE,9.6.1*%
;CreationDate,2021-06-18T08:05:25Z*%
FMAT,2
ICI,OFF
METRIC,TZ,0000.000
T12C0.813
T11C1.000
T10C1.016
T9C1.100
T8C1.118
T7C1.194
T6C1.300
T5C1.850
T4C2.540
T3C3.000
T2C3.050
%
G90
M71
T2
X7095Y4055
X7095Y75955
X7095Y67555
X7095Y12455
T3
X46355Y4445
X46355Y75565
X4445Y59055
X4445Y20955
T4
X43307Y64452
X43307Y39053
T5
X14395Y4055
X19895Y12455
X19895Y75955
X19895Y71755
X19895Y67555
X14395Y75955
X14395Y71755
X14395Y67555
X14395Y8255
X14395Y12455
X19895Y4055
X19895Y8255
T6
X13540Y45427
X15040Y42228
X14040Y38928
X12340Y42228
X10340Y38728
T7
X5715Y28932
X5715Y33933
T8
X26035Y76835
X26035Y66675
T9
X5540Y39728
X5540Y44727
T10
X19368Y54927
X14287Y54927
T11
X39370Y54292
X39370Y51752
X39370Y49212
T12
X27622Y23812
X16828Y28892
X14287Y28892
X29210Y60007
X26670Y60007
X35243Y23812
X35243Y26352
X29845Y55562
X27622Y26352
X35243Y31432
X35243Y28892
X27622Y28892
X27622Y31432
X32702Y55562
X32702Y47942
X35243Y14922
X27622Y14922
X35243Y18415
X27622Y18415
X19685Y22225
X12065Y22225
X29845Y47942
M30