G04 EAGLE Gerber RS-274X export*
G75*
%MOMM*%
%FSLAX34Y34*%
%LPD*%
%INTop Copper*%
%IPPOS*%
%AMOC8*
5,1,8,0,0,1.08239X$1,22.5*%
G01*
%ADD10P,1.429621X8X22.500000*%
%ADD11P,1.429621X8X112.500000*%
%ADD12P,1.429621X8X292.500000*%
%ADD13P,1.429621X8X202.500000*%
%ADD14C,1.117600*%
%ADD15P,1.814519X8X22.500000*%
%ADD16C,1.950000*%
%ADD17C,1.790700*%


D10*
X361950Y352425D03*
X387350Y352425D03*
D11*
X311150Y431800D03*
X311150Y457200D03*
D12*
X311150Y393700D03*
X311150Y368300D03*
D13*
X438150Y317500D03*
X361950Y317500D03*
D11*
X349250Y381000D03*
X349250Y457200D03*
X387350Y381000D03*
X387350Y457200D03*
D13*
X146050Y393700D03*
X69850Y393700D03*
D14*
X95250Y431800D03*
X120650Y457200D03*
X146050Y431800D03*
D11*
X196850Y381000D03*
X196850Y457200D03*
X273050Y381000D03*
X273050Y457200D03*
D12*
X234950Y457200D03*
X234950Y381000D03*
D15*
X323850Y508000D03*
X298450Y25400D03*
X349250Y508000D03*
X374650Y508000D03*
X400050Y508000D03*
X425450Y508000D03*
X298450Y508000D03*
X273050Y508000D03*
X247650Y508000D03*
X207010Y508000D03*
X181610Y508000D03*
X156210Y508000D03*
X130810Y508000D03*
X105410Y508000D03*
X80010Y508000D03*
X54610Y508000D03*
X29210Y508000D03*
X323850Y25400D03*
X349250Y25400D03*
X374650Y25400D03*
X400050Y25400D03*
X425450Y25400D03*
X247650Y25400D03*
X222250Y25400D03*
X196850Y25400D03*
X171450Y25400D03*
X146050Y25400D03*
X120650Y25400D03*
D16*
X372850Y285825D03*
X352850Y250825D03*
X335850Y283825D03*
X340850Y218825D03*
X325850Y250825D03*
D17*
X397647Y73825D02*
X415554Y73825D01*
X415554Y123825D02*
X397647Y123825D01*
X397647Y173825D02*
X415554Y173825D01*
M02*
