G04 EAGLE Gerber RS-274X export*
G75*
%MOMM*%
%FSLAX34Y34*%
%LPD*%
%INBottom Copper*%
%IPPOS*%
%AMOC8*
5,1,8,0,0,1.08239X$1,22.5*%
G01*
%ADD10P,1.429621X8X22.500000*%
%ADD11P,1.429621X8X112.500000*%
%ADD12P,1.429621X8X292.500000*%
%ADD13P,1.429621X8X202.500000*%
%ADD14C,1.117600*%
%ADD15P,1.814519X8X22.500000*%
%ADD16C,1.950000*%
%ADD17C,1.790700*%
%ADD18C,1.270000*%
%ADD19C,0.889000*%

G36*
X439186Y10926D02*
X439186Y10926D01*
X439205Y10924D01*
X439307Y10946D01*
X439409Y10962D01*
X439426Y10972D01*
X439446Y10976D01*
X439535Y11029D01*
X439626Y11078D01*
X439640Y11092D01*
X439657Y11102D01*
X439724Y11181D01*
X439796Y11256D01*
X439804Y11274D01*
X439817Y11289D01*
X439856Y11385D01*
X439899Y11479D01*
X439901Y11499D01*
X439909Y11517D01*
X439927Y11684D01*
X439927Y27573D01*
X441590Y31587D01*
X465104Y55101D01*
X465157Y55175D01*
X465217Y55245D01*
X465229Y55275D01*
X465248Y55301D01*
X465275Y55388D01*
X465309Y55473D01*
X465313Y55514D01*
X465320Y55536D01*
X465319Y55568D01*
X465327Y55640D01*
X465327Y332432D01*
X465312Y332526D01*
X465303Y332621D01*
X465292Y332647D01*
X465288Y332675D01*
X465243Y332759D01*
X465205Y332846D01*
X465186Y332867D01*
X465172Y332892D01*
X465103Y332958D01*
X465039Y333028D01*
X465015Y333042D01*
X464994Y333062D01*
X464908Y333102D01*
X464824Y333148D01*
X464797Y333153D01*
X464771Y333165D01*
X464676Y333176D01*
X464583Y333193D01*
X464555Y333189D01*
X464527Y333192D01*
X464433Y333172D01*
X464339Y333159D01*
X464307Y333145D01*
X464286Y333140D01*
X464258Y333123D01*
X464185Y333091D01*
X460948Y331222D01*
X454294Y329439D01*
X447406Y329439D01*
X440752Y331222D01*
X434787Y334666D01*
X429916Y339537D01*
X426472Y345502D01*
X424689Y352156D01*
X424689Y359044D01*
X426472Y365698D01*
X429916Y371663D01*
X434787Y376534D01*
X440752Y379978D01*
X447406Y381761D01*
X454294Y381761D01*
X455065Y381554D01*
X455113Y381549D01*
X455158Y381535D01*
X455234Y381537D01*
X455310Y381530D01*
X455356Y381540D01*
X455404Y381542D01*
X455476Y381568D01*
X455549Y381585D01*
X455590Y381610D01*
X455635Y381626D01*
X455694Y381674D01*
X455759Y381713D01*
X455790Y381750D01*
X455827Y381780D01*
X455868Y381844D01*
X455917Y381902D01*
X455934Y381946D01*
X455960Y381987D01*
X455979Y382060D01*
X456006Y382131D01*
X456009Y382179D01*
X456020Y382225D01*
X456014Y382301D01*
X456018Y382377D01*
X456005Y382423D01*
X456001Y382471D01*
X455972Y382540D01*
X455951Y382613D01*
X455924Y382653D01*
X455905Y382697D01*
X455824Y382797D01*
X455812Y382816D01*
X455806Y382820D01*
X455800Y382828D01*
X444770Y393858D01*
X441590Y397038D01*
X439927Y401052D01*
X439927Y512685D01*
X439913Y512775D01*
X439905Y512866D01*
X439893Y512896D01*
X439888Y512928D01*
X439845Y513009D01*
X439809Y513093D01*
X439783Y513125D01*
X439772Y513145D01*
X439749Y513168D01*
X439704Y513224D01*
X430674Y522254D01*
X430600Y522307D01*
X430530Y522367D01*
X430500Y522379D01*
X430474Y522398D01*
X430387Y522425D01*
X430302Y522459D01*
X430261Y522463D01*
X430239Y522470D01*
X430207Y522469D01*
X430135Y522477D01*
X11684Y522477D01*
X11664Y522474D01*
X11645Y522476D01*
X11543Y522454D01*
X11441Y522438D01*
X11424Y522428D01*
X11404Y522424D01*
X11315Y522371D01*
X11224Y522322D01*
X11210Y522308D01*
X11193Y522298D01*
X11126Y522219D01*
X11054Y522144D01*
X11046Y522126D01*
X11033Y522111D01*
X10994Y522015D01*
X10951Y521921D01*
X10949Y521901D01*
X10941Y521883D01*
X10923Y521716D01*
X10923Y11684D01*
X10926Y11664D01*
X10924Y11645D01*
X10946Y11543D01*
X10962Y11441D01*
X10972Y11424D01*
X10976Y11404D01*
X11029Y11315D01*
X11078Y11224D01*
X11092Y11210D01*
X11102Y11193D01*
X11181Y11126D01*
X11256Y11054D01*
X11274Y11046D01*
X11289Y11033D01*
X11385Y10994D01*
X11479Y10951D01*
X11499Y10949D01*
X11517Y10941D01*
X11684Y10923D01*
X439166Y10923D01*
X439186Y10926D01*
G37*
%LPC*%
G36*
X115600Y13207D02*
X115600Y13207D01*
X108457Y20350D01*
X108457Y30450D01*
X115600Y37593D01*
X125700Y37593D01*
X132812Y30481D01*
X132828Y30470D01*
X132840Y30454D01*
X132928Y30398D01*
X133011Y30338D01*
X133030Y30332D01*
X133047Y30321D01*
X133148Y30296D01*
X133247Y30265D01*
X133266Y30266D01*
X133286Y30261D01*
X133389Y30269D01*
X133492Y30272D01*
X133511Y30279D01*
X133531Y30280D01*
X133626Y30321D01*
X133723Y30356D01*
X133739Y30369D01*
X133757Y30377D01*
X133888Y30481D01*
X135666Y32259D01*
X135719Y32333D01*
X135779Y32403D01*
X135791Y32433D01*
X135810Y32459D01*
X135837Y32546D01*
X135871Y32631D01*
X135875Y32672D01*
X135882Y32694D01*
X135881Y32726D01*
X135889Y32798D01*
X135889Y163751D01*
X135875Y163841D01*
X135867Y163932D01*
X135855Y163962D01*
X135850Y163994D01*
X135807Y164074D01*
X135771Y164158D01*
X135745Y164190D01*
X135734Y164211D01*
X135711Y164233D01*
X135666Y164289D01*
X99336Y200619D01*
X97789Y204354D01*
X97789Y351076D01*
X97775Y351166D01*
X97767Y351257D01*
X97755Y351287D01*
X97750Y351319D01*
X97707Y351399D01*
X97671Y351483D01*
X97645Y351515D01*
X97634Y351536D01*
X97611Y351558D01*
X97566Y351614D01*
X66118Y383062D01*
X66044Y383115D01*
X65975Y383175D01*
X65945Y383187D01*
X65919Y383206D01*
X65832Y383233D01*
X65747Y383267D01*
X65706Y383271D01*
X65683Y383278D01*
X65651Y383277D01*
X65580Y383285D01*
X65536Y383285D01*
X59435Y389386D01*
X59435Y398014D01*
X65536Y404115D01*
X74164Y404115D01*
X80265Y398014D01*
X80265Y397970D01*
X80279Y397880D01*
X80287Y397789D01*
X80299Y397759D01*
X80304Y397727D01*
X80347Y397647D01*
X80383Y397563D01*
X80409Y397531D01*
X80420Y397510D01*
X80443Y397488D01*
X80488Y397432D01*
X113599Y364321D01*
X115111Y362809D01*
X115185Y362756D01*
X115254Y362696D01*
X115284Y362684D01*
X115311Y362665D01*
X115397Y362638D01*
X115482Y362604D01*
X115523Y362600D01*
X115546Y362593D01*
X115578Y362594D01*
X115649Y362586D01*
X201851Y362586D01*
X201941Y362600D01*
X202032Y362608D01*
X202062Y362620D01*
X202094Y362625D01*
X202174Y362668D01*
X202258Y362704D01*
X202290Y362730D01*
X202311Y362741D01*
X202333Y362764D01*
X202389Y362809D01*
X224312Y384732D01*
X224365Y384806D01*
X224425Y384875D01*
X224437Y384905D01*
X224456Y384931D01*
X224483Y385018D01*
X224517Y385103D01*
X224521Y385144D01*
X224528Y385167D01*
X224527Y385199D01*
X224535Y385270D01*
X224535Y385314D01*
X230636Y391415D01*
X239264Y391415D01*
X245365Y385314D01*
X245365Y376686D01*
X239264Y370585D01*
X239220Y370585D01*
X239130Y370571D01*
X239039Y370563D01*
X239009Y370551D01*
X238977Y370546D01*
X238897Y370503D01*
X238813Y370467D01*
X238781Y370441D01*
X238760Y370430D01*
X238738Y370407D01*
X238682Y370362D01*
X212131Y343811D01*
X208396Y342264D01*
X118872Y342264D01*
X118852Y342261D01*
X118833Y342263D01*
X118731Y342241D01*
X118629Y342225D01*
X118612Y342215D01*
X118592Y342211D01*
X118503Y342158D01*
X118412Y342109D01*
X118398Y342095D01*
X118381Y342085D01*
X118314Y342006D01*
X118242Y341931D01*
X118234Y341913D01*
X118221Y341898D01*
X118182Y341802D01*
X118139Y341708D01*
X118137Y341688D01*
X118129Y341670D01*
X118111Y341503D01*
X118111Y210899D01*
X118125Y210809D01*
X118133Y210718D01*
X118145Y210688D01*
X118150Y210656D01*
X118193Y210576D01*
X118229Y210492D01*
X118255Y210460D01*
X118266Y210439D01*
X118289Y210417D01*
X118334Y210361D01*
X154664Y174031D01*
X156211Y170296D01*
X156211Y32798D01*
X156225Y32708D01*
X156233Y32617D01*
X156245Y32587D01*
X156250Y32555D01*
X156293Y32474D01*
X156329Y32390D01*
X156355Y32358D01*
X156366Y32338D01*
X156389Y32315D01*
X156434Y32259D01*
X158212Y30481D01*
X158228Y30470D01*
X158240Y30454D01*
X158328Y30398D01*
X158411Y30338D01*
X158430Y30332D01*
X158447Y30321D01*
X158548Y30296D01*
X158647Y30265D01*
X158666Y30266D01*
X158686Y30261D01*
X158789Y30269D01*
X158892Y30272D01*
X158911Y30279D01*
X158931Y30280D01*
X159026Y30321D01*
X159123Y30356D01*
X159139Y30369D01*
X159157Y30377D01*
X159288Y30481D01*
X166400Y37593D01*
X176500Y37593D01*
X183643Y30450D01*
X183643Y20350D01*
X176500Y13207D01*
X166400Y13207D01*
X159288Y20319D01*
X159272Y20330D01*
X159260Y20346D01*
X159172Y20402D01*
X159089Y20462D01*
X159070Y20468D01*
X159053Y20479D01*
X158952Y20504D01*
X158853Y20535D01*
X158834Y20534D01*
X158814Y20539D01*
X158711Y20531D01*
X158608Y20528D01*
X158589Y20521D01*
X158569Y20520D01*
X158474Y20479D01*
X158377Y20444D01*
X158361Y20431D01*
X158343Y20423D01*
X158212Y20319D01*
X151100Y13207D01*
X141000Y13207D01*
X133888Y20319D01*
X133872Y20330D01*
X133860Y20346D01*
X133772Y20402D01*
X133689Y20462D01*
X133670Y20468D01*
X133653Y20479D01*
X133552Y20504D01*
X133453Y20535D01*
X133434Y20534D01*
X133414Y20539D01*
X133311Y20531D01*
X133208Y20528D01*
X133189Y20521D01*
X133169Y20520D01*
X133074Y20479D01*
X132977Y20444D01*
X132961Y20431D01*
X132943Y20423D01*
X132812Y20319D01*
X125700Y13207D01*
X115600Y13207D01*
G37*
%LPD*%
%LPC*%
G36*
X306836Y383285D02*
X306836Y383285D01*
X304900Y385221D01*
X304826Y385274D01*
X304757Y385334D01*
X304726Y385346D01*
X304700Y385365D01*
X304613Y385392D01*
X304528Y385426D01*
X304488Y385430D01*
X304465Y385437D01*
X304433Y385436D01*
X304362Y385444D01*
X303158Y385444D01*
X300123Y386701D01*
X266051Y420773D01*
X264794Y423808D01*
X264794Y448183D01*
X264791Y448203D01*
X264793Y448222D01*
X264771Y448324D01*
X264755Y448426D01*
X264745Y448443D01*
X264741Y448463D01*
X264688Y448552D01*
X264639Y448643D01*
X264625Y448657D01*
X264615Y448674D01*
X264536Y448741D01*
X264461Y448813D01*
X264443Y448821D01*
X264428Y448834D01*
X264332Y448873D01*
X264238Y448916D01*
X264218Y448918D01*
X264200Y448926D01*
X264033Y448944D01*
X241738Y448944D01*
X241648Y448930D01*
X241557Y448922D01*
X241527Y448910D01*
X241495Y448905D01*
X241415Y448862D01*
X241331Y448826D01*
X241299Y448800D01*
X241278Y448789D01*
X241256Y448766D01*
X241200Y448721D01*
X239264Y446785D01*
X230636Y446785D01*
X224535Y452886D01*
X224535Y461514D01*
X230636Y467615D01*
X239264Y467615D01*
X241200Y465679D01*
X241274Y465626D01*
X241343Y465566D01*
X241374Y465554D01*
X241400Y465535D01*
X241487Y465508D01*
X241572Y465474D01*
X241612Y465470D01*
X241635Y465463D01*
X241667Y465464D01*
X241738Y465456D01*
X264033Y465456D01*
X264053Y465459D01*
X264072Y465457D01*
X264174Y465479D01*
X264276Y465495D01*
X264293Y465505D01*
X264313Y465509D01*
X264402Y465562D01*
X264493Y465611D01*
X264507Y465625D01*
X264524Y465635D01*
X264591Y465714D01*
X264663Y465789D01*
X264671Y465807D01*
X264684Y465822D01*
X264723Y465918D01*
X264766Y466012D01*
X264768Y466032D01*
X264776Y466050D01*
X264794Y466217D01*
X264794Y498697D01*
X264780Y498787D01*
X264772Y498878D01*
X264760Y498908D01*
X264755Y498940D01*
X264712Y499021D01*
X264676Y499105D01*
X264650Y499137D01*
X264639Y499157D01*
X264616Y499180D01*
X264571Y499236D01*
X260888Y502919D01*
X260872Y502930D01*
X260860Y502946D01*
X260772Y503002D01*
X260689Y503062D01*
X260670Y503068D01*
X260653Y503079D01*
X260552Y503104D01*
X260453Y503135D01*
X260434Y503134D01*
X260414Y503139D01*
X260311Y503131D01*
X260208Y503128D01*
X260189Y503121D01*
X260169Y503120D01*
X260074Y503079D01*
X259977Y503044D01*
X259961Y503031D01*
X259943Y503023D01*
X259812Y502919D01*
X252700Y495807D01*
X247448Y495807D01*
X247358Y495793D01*
X247267Y495785D01*
X247237Y495773D01*
X247205Y495768D01*
X247125Y495725D01*
X247041Y495689D01*
X247009Y495663D01*
X246988Y495652D01*
X246966Y495629D01*
X246910Y495584D01*
X207488Y456162D01*
X207435Y456088D01*
X207375Y456019D01*
X207363Y455989D01*
X207344Y455963D01*
X207317Y455876D01*
X207283Y455791D01*
X207279Y455750D01*
X207272Y455728D01*
X207273Y455695D01*
X207265Y455624D01*
X207265Y452886D01*
X201164Y446785D01*
X192536Y446785D01*
X190600Y448721D01*
X190526Y448774D01*
X190457Y448834D01*
X190427Y448846D01*
X190400Y448865D01*
X190313Y448892D01*
X190229Y448926D01*
X190188Y448930D01*
X190165Y448937D01*
X190133Y448936D01*
X190062Y448944D01*
X125430Y448944D01*
X125366Y448934D01*
X125300Y448933D01*
X125220Y448910D01*
X125188Y448905D01*
X125171Y448895D01*
X125139Y448886D01*
X122520Y447801D01*
X118780Y447801D01*
X115326Y449232D01*
X112682Y451876D01*
X111251Y455330D01*
X111251Y459070D01*
X112682Y462524D01*
X115326Y465168D01*
X118780Y466599D01*
X122520Y466599D01*
X125139Y465514D01*
X125203Y465499D01*
X125264Y465474D01*
X125347Y465465D01*
X125379Y465458D01*
X125398Y465459D01*
X125430Y465456D01*
X190062Y465456D01*
X190152Y465470D01*
X190243Y465478D01*
X190273Y465490D01*
X190305Y465495D01*
X190385Y465538D01*
X190469Y465574D01*
X190501Y465600D01*
X190522Y465611D01*
X190544Y465634D01*
X190600Y465679D01*
X192536Y467615D01*
X195274Y467615D01*
X195364Y467629D01*
X195455Y467637D01*
X195485Y467649D01*
X195517Y467654D01*
X195597Y467697D01*
X195681Y467733D01*
X195713Y467759D01*
X195734Y467770D01*
X195756Y467793D01*
X195812Y467838D01*
X235234Y507260D01*
X235287Y507334D01*
X235347Y507403D01*
X235359Y507433D01*
X235378Y507459D01*
X235405Y507546D01*
X235439Y507631D01*
X235443Y507672D01*
X235450Y507694D01*
X235449Y507727D01*
X235457Y507798D01*
X235457Y513050D01*
X242600Y520193D01*
X252700Y520193D01*
X259812Y513081D01*
X259828Y513070D01*
X259840Y513054D01*
X259928Y512998D01*
X260011Y512938D01*
X260030Y512932D01*
X260047Y512921D01*
X260148Y512896D01*
X260247Y512865D01*
X260266Y512866D01*
X260286Y512861D01*
X260389Y512869D01*
X260492Y512872D01*
X260511Y512879D01*
X260531Y512880D01*
X260626Y512921D01*
X260723Y512956D01*
X260739Y512969D01*
X260757Y512977D01*
X260888Y513081D01*
X268000Y520193D01*
X278100Y520193D01*
X285212Y513081D01*
X285228Y513070D01*
X285240Y513054D01*
X285328Y512998D01*
X285411Y512938D01*
X285430Y512932D01*
X285447Y512921D01*
X285548Y512896D01*
X285647Y512865D01*
X285666Y512866D01*
X285686Y512861D01*
X285789Y512869D01*
X285892Y512872D01*
X285911Y512879D01*
X285931Y512880D01*
X286026Y512921D01*
X286123Y512956D01*
X286139Y512969D01*
X286157Y512977D01*
X286288Y513081D01*
X293400Y520193D01*
X303500Y520193D01*
X310612Y513081D01*
X310628Y513070D01*
X310640Y513054D01*
X310728Y512998D01*
X310811Y512938D01*
X310830Y512932D01*
X310847Y512921D01*
X310948Y512896D01*
X311047Y512865D01*
X311066Y512866D01*
X311086Y512861D01*
X311189Y512869D01*
X311292Y512872D01*
X311311Y512879D01*
X311331Y512880D01*
X311426Y512921D01*
X311523Y512956D01*
X311539Y512969D01*
X311557Y512977D01*
X311688Y513081D01*
X318800Y520193D01*
X328900Y520193D01*
X336012Y513081D01*
X336028Y513070D01*
X336040Y513054D01*
X336128Y512998D01*
X336211Y512938D01*
X336230Y512932D01*
X336247Y512921D01*
X336348Y512896D01*
X336447Y512865D01*
X336466Y512866D01*
X336486Y512861D01*
X336589Y512869D01*
X336692Y512872D01*
X336711Y512879D01*
X336731Y512880D01*
X336826Y512921D01*
X336923Y512956D01*
X336939Y512969D01*
X336957Y512977D01*
X337088Y513081D01*
X344200Y520193D01*
X354300Y520193D01*
X361412Y513081D01*
X361428Y513070D01*
X361440Y513054D01*
X361528Y512998D01*
X361611Y512938D01*
X361630Y512932D01*
X361647Y512921D01*
X361748Y512896D01*
X361847Y512865D01*
X361866Y512866D01*
X361886Y512861D01*
X361989Y512869D01*
X362092Y512872D01*
X362111Y512879D01*
X362131Y512880D01*
X362226Y512921D01*
X362323Y512956D01*
X362339Y512969D01*
X362357Y512977D01*
X362488Y513081D01*
X369600Y520193D01*
X379700Y520193D01*
X386812Y513081D01*
X386828Y513070D01*
X386840Y513054D01*
X386928Y512998D01*
X387011Y512938D01*
X387030Y512932D01*
X387047Y512921D01*
X387148Y512896D01*
X387247Y512865D01*
X387266Y512866D01*
X387286Y512861D01*
X387389Y512869D01*
X387492Y512872D01*
X387511Y512879D01*
X387531Y512880D01*
X387626Y512921D01*
X387723Y512956D01*
X387739Y512969D01*
X387757Y512977D01*
X387888Y513081D01*
X395000Y520193D01*
X405100Y520193D01*
X412212Y513081D01*
X412228Y513070D01*
X412240Y513054D01*
X412328Y512998D01*
X412411Y512938D01*
X412430Y512932D01*
X412447Y512921D01*
X412548Y512896D01*
X412647Y512865D01*
X412666Y512866D01*
X412686Y512861D01*
X412789Y512869D01*
X412892Y512872D01*
X412911Y512879D01*
X412931Y512880D01*
X413026Y512921D01*
X413123Y512956D01*
X413139Y512969D01*
X413157Y512977D01*
X413288Y513081D01*
X420400Y520193D01*
X430500Y520193D01*
X437643Y513050D01*
X437643Y502950D01*
X430500Y495807D01*
X420400Y495807D01*
X413288Y502919D01*
X413272Y502930D01*
X413260Y502946D01*
X413172Y503002D01*
X413089Y503062D01*
X413070Y503068D01*
X413053Y503079D01*
X412952Y503104D01*
X412853Y503135D01*
X412834Y503134D01*
X412814Y503139D01*
X412711Y503131D01*
X412608Y503128D01*
X412589Y503121D01*
X412569Y503120D01*
X412474Y503079D01*
X412377Y503044D01*
X412361Y503031D01*
X412343Y503023D01*
X412212Y502919D01*
X405100Y495807D01*
X395000Y495807D01*
X387888Y502919D01*
X387872Y502930D01*
X387860Y502946D01*
X387772Y503002D01*
X387689Y503062D01*
X387670Y503068D01*
X387653Y503079D01*
X387552Y503104D01*
X387453Y503135D01*
X387434Y503134D01*
X387414Y503139D01*
X387311Y503131D01*
X387208Y503128D01*
X387189Y503121D01*
X387169Y503120D01*
X387074Y503079D01*
X386977Y503044D01*
X386961Y503031D01*
X386943Y503023D01*
X386812Y502919D01*
X379700Y495807D01*
X369600Y495807D01*
X362488Y502919D01*
X362472Y502930D01*
X362460Y502946D01*
X362372Y503002D01*
X362289Y503062D01*
X362270Y503068D01*
X362253Y503079D01*
X362152Y503104D01*
X362053Y503135D01*
X362034Y503134D01*
X362014Y503139D01*
X361911Y503131D01*
X361808Y503128D01*
X361789Y503121D01*
X361769Y503120D01*
X361674Y503079D01*
X361577Y503044D01*
X361561Y503031D01*
X361543Y503023D01*
X361412Y502919D01*
X361073Y502579D01*
X361061Y502563D01*
X361045Y502551D01*
X360989Y502463D01*
X360929Y502380D01*
X360923Y502361D01*
X360912Y502344D01*
X360887Y502243D01*
X360857Y502145D01*
X360857Y502125D01*
X360852Y502105D01*
X360860Y502002D01*
X360863Y501899D01*
X360870Y501880D01*
X360871Y501860D01*
X360912Y501765D01*
X360947Y501668D01*
X360960Y501652D01*
X360968Y501634D01*
X361073Y501503D01*
X394349Y468227D01*
X395606Y465192D01*
X395606Y463988D01*
X395620Y463898D01*
X395628Y463807D01*
X395640Y463777D01*
X395645Y463745D01*
X395688Y463665D01*
X395724Y463581D01*
X395750Y463549D01*
X395761Y463528D01*
X395784Y463506D01*
X395829Y463450D01*
X397765Y461514D01*
X397765Y452886D01*
X391664Y446785D01*
X383036Y446785D01*
X376935Y452886D01*
X376935Y461584D01*
X376945Y461599D01*
X376970Y461699D01*
X377001Y461798D01*
X377000Y461818D01*
X377005Y461837D01*
X376997Y461940D01*
X376994Y462044D01*
X376987Y462063D01*
X376986Y462083D01*
X376945Y462178D01*
X376910Y462275D01*
X376897Y462291D01*
X376890Y462309D01*
X376785Y462440D01*
X344681Y494544D01*
X342251Y496973D01*
X341756Y498169D01*
X341721Y498225D01*
X341696Y498285D01*
X341644Y498350D01*
X341626Y498378D01*
X341611Y498391D01*
X341591Y498416D01*
X337088Y502919D01*
X337072Y502930D01*
X337060Y502946D01*
X336973Y503002D01*
X336889Y503062D01*
X336869Y503068D01*
X336853Y503079D01*
X336752Y503104D01*
X336653Y503135D01*
X336634Y503134D01*
X336614Y503139D01*
X336511Y503131D01*
X336408Y503128D01*
X336389Y503121D01*
X336369Y503120D01*
X336274Y503079D01*
X336177Y503044D01*
X336161Y503031D01*
X336143Y503023D01*
X336012Y502919D01*
X328900Y495807D01*
X318800Y495807D01*
X311688Y502919D01*
X311672Y502930D01*
X311660Y502946D01*
X311572Y503002D01*
X311489Y503062D01*
X311470Y503068D01*
X311453Y503079D01*
X311352Y503104D01*
X311253Y503135D01*
X311234Y503134D01*
X311214Y503139D01*
X311111Y503131D01*
X311008Y503128D01*
X310989Y503121D01*
X310969Y503120D01*
X310874Y503079D01*
X310777Y503044D01*
X310761Y503031D01*
X310743Y503023D01*
X310612Y502919D01*
X303500Y495807D01*
X293400Y495807D01*
X286288Y502919D01*
X286272Y502930D01*
X286260Y502946D01*
X286172Y503002D01*
X286089Y503062D01*
X286070Y503068D01*
X286053Y503079D01*
X285952Y503104D01*
X285853Y503135D01*
X285834Y503134D01*
X285814Y503139D01*
X285711Y503131D01*
X285608Y503128D01*
X285589Y503121D01*
X285569Y503120D01*
X285474Y503079D01*
X285377Y503044D01*
X285361Y503031D01*
X285343Y503023D01*
X285212Y502919D01*
X281529Y499236D01*
X281476Y499162D01*
X281416Y499092D01*
X281404Y499062D01*
X281385Y499036D01*
X281358Y498949D01*
X281324Y498864D01*
X281320Y498823D01*
X281313Y498801D01*
X281314Y498769D01*
X281306Y498697D01*
X281306Y466217D01*
X281309Y466197D01*
X281307Y466178D01*
X281329Y466076D01*
X281345Y465974D01*
X281355Y465957D01*
X281359Y465937D01*
X281412Y465848D01*
X281461Y465757D01*
X281475Y465743D01*
X281485Y465726D01*
X281564Y465659D01*
X281639Y465587D01*
X281657Y465579D01*
X281672Y465566D01*
X281768Y465527D01*
X281862Y465484D01*
X281882Y465482D01*
X281900Y465474D01*
X282067Y465456D01*
X304362Y465456D01*
X304452Y465470D01*
X304543Y465478D01*
X304573Y465490D01*
X304605Y465495D01*
X304685Y465538D01*
X304769Y465574D01*
X304801Y465600D01*
X304822Y465611D01*
X304844Y465634D01*
X304900Y465679D01*
X306836Y467615D01*
X315464Y467615D01*
X321565Y461514D01*
X321565Y452886D01*
X315464Y446785D01*
X306836Y446785D01*
X304900Y448721D01*
X304826Y448774D01*
X304757Y448834D01*
X304726Y448846D01*
X304700Y448865D01*
X304613Y448892D01*
X304528Y448926D01*
X304488Y448930D01*
X304465Y448937D01*
X304433Y448936D01*
X304362Y448944D01*
X282067Y448944D01*
X282047Y448941D01*
X282028Y448943D01*
X281926Y448921D01*
X281824Y448905D01*
X281807Y448895D01*
X281787Y448891D01*
X281698Y448838D01*
X281607Y448789D01*
X281593Y448775D01*
X281576Y448765D01*
X281509Y448686D01*
X281437Y448611D01*
X281429Y448593D01*
X281416Y448578D01*
X281377Y448482D01*
X281334Y448388D01*
X281332Y448368D01*
X281324Y448350D01*
X281306Y448183D01*
X281306Y429185D01*
X281320Y429095D01*
X281328Y429004D01*
X281340Y428974D01*
X281345Y428942D01*
X281388Y428862D01*
X281424Y428778D01*
X281450Y428746D01*
X281461Y428725D01*
X281484Y428703D01*
X281529Y428647D01*
X305910Y404265D01*
X305926Y404254D01*
X305939Y404238D01*
X306026Y404182D01*
X306110Y404122D01*
X306129Y404116D01*
X306146Y404105D01*
X306246Y404080D01*
X306345Y404049D01*
X306365Y404050D01*
X306384Y404045D01*
X306487Y404053D01*
X306591Y404056D01*
X306610Y404063D01*
X306630Y404064D01*
X306725Y404105D01*
X306752Y404115D01*
X315464Y404115D01*
X321565Y398014D01*
X321565Y389386D01*
X315464Y383285D01*
X306836Y383285D01*
G37*
%LPD*%
%LPC*%
G36*
X395108Y61061D02*
X395108Y61061D01*
X390416Y63004D01*
X386826Y66595D01*
X384882Y71286D01*
X384882Y76364D01*
X386826Y81055D01*
X390416Y84646D01*
X395108Y86589D01*
X418092Y86589D01*
X422784Y84646D01*
X425126Y82304D01*
X425200Y82251D01*
X425270Y82191D01*
X425300Y82179D01*
X425326Y82160D01*
X425413Y82133D01*
X425498Y82099D01*
X425539Y82095D01*
X425561Y82088D01*
X425593Y82089D01*
X425664Y82081D01*
X428865Y82081D01*
X428955Y82095D01*
X429046Y82103D01*
X429076Y82115D01*
X429108Y82120D01*
X429188Y82163D01*
X429272Y82199D01*
X429304Y82225D01*
X429325Y82236D01*
X429347Y82259D01*
X429403Y82304D01*
X436021Y88922D01*
X436074Y88996D01*
X436134Y89065D01*
X436146Y89095D01*
X436165Y89121D01*
X436192Y89208D01*
X436226Y89293D01*
X436230Y89334D01*
X436237Y89356D01*
X436236Y89389D01*
X436244Y89460D01*
X436244Y218240D01*
X436229Y218336D01*
X436219Y218433D01*
X436209Y218457D01*
X436205Y218482D01*
X436159Y218568D01*
X436119Y218657D01*
X436102Y218677D01*
X436089Y218700D01*
X436019Y218767D01*
X435953Y218838D01*
X435930Y218851D01*
X435911Y218869D01*
X435823Y218910D01*
X435737Y218957D01*
X435712Y218962D01*
X435688Y218973D01*
X435591Y218983D01*
X435495Y219001D01*
X435469Y218997D01*
X435444Y219000D01*
X435348Y218979D01*
X435252Y218965D01*
X435229Y218953D01*
X435203Y218948D01*
X435120Y218898D01*
X435033Y218853D01*
X435014Y218835D01*
X434992Y218821D01*
X434929Y218747D01*
X434861Y218678D01*
X434845Y218649D01*
X434832Y218634D01*
X434820Y218604D01*
X434780Y218531D01*
X434127Y216954D01*
X429721Y212548D01*
X423965Y210164D01*
X417735Y210164D01*
X411979Y212548D01*
X407573Y216954D01*
X405189Y222710D01*
X405189Y228940D01*
X407573Y234696D01*
X411979Y239102D01*
X416815Y241105D01*
X416898Y241156D01*
X416984Y241202D01*
X417002Y241221D01*
X417024Y241234D01*
X417086Y241309D01*
X417153Y241380D01*
X417164Y241404D01*
X417181Y241424D01*
X417216Y241515D01*
X417257Y241603D01*
X417260Y241629D01*
X417269Y241653D01*
X417273Y241751D01*
X417284Y241847D01*
X417278Y241873D01*
X417280Y241899D01*
X417252Y241993D01*
X417232Y242088D01*
X417218Y242110D01*
X417211Y242135D01*
X417155Y242215D01*
X417106Y242299D01*
X417086Y242316D01*
X417071Y242337D01*
X416993Y242396D01*
X416919Y242459D01*
X416894Y242469D01*
X416873Y242484D01*
X416781Y242514D01*
X416690Y242551D01*
X416658Y242554D01*
X416639Y242560D01*
X416606Y242560D01*
X416524Y242569D01*
X364087Y242569D01*
X363997Y242555D01*
X363906Y242547D01*
X363877Y242535D01*
X363845Y242530D01*
X363764Y242487D01*
X363680Y242451D01*
X363648Y242425D01*
X363627Y242414D01*
X363605Y242391D01*
X363549Y242346D01*
X360532Y239329D01*
X355547Y237264D01*
X350153Y237264D01*
X345168Y239329D01*
X341354Y243143D01*
X340053Y246283D01*
X340015Y246344D01*
X339986Y246409D01*
X339951Y246448D01*
X339924Y246492D01*
X339868Y246538D01*
X339820Y246591D01*
X339774Y246616D01*
X339734Y246649D01*
X339667Y246675D01*
X339604Y246709D01*
X339553Y246718D01*
X339505Y246737D01*
X339433Y246740D01*
X339362Y246753D01*
X339311Y246745D01*
X339259Y246748D01*
X339190Y246728D01*
X339119Y246717D01*
X339073Y246693D01*
X339023Y246679D01*
X338964Y246638D01*
X338900Y246606D01*
X338863Y246568D01*
X338821Y246539D01*
X338778Y246481D01*
X338728Y246430D01*
X338693Y246367D01*
X338674Y246341D01*
X338667Y246319D01*
X338647Y246283D01*
X337346Y243143D01*
X333532Y239329D01*
X328547Y237264D01*
X323153Y237264D01*
X318168Y239329D01*
X314354Y243143D01*
X312289Y248128D01*
X312289Y253522D01*
X314354Y258507D01*
X318168Y262321D01*
X323153Y264386D01*
X328547Y264386D01*
X333532Y262321D01*
X337346Y258507D01*
X338647Y255367D01*
X338685Y255306D01*
X338714Y255241D01*
X338749Y255202D01*
X338776Y255158D01*
X338832Y255112D01*
X338880Y255059D01*
X338926Y255034D01*
X338966Y255001D01*
X339033Y254975D01*
X339096Y254941D01*
X339147Y254932D01*
X339195Y254913D01*
X339267Y254910D01*
X339338Y254897D01*
X339389Y254905D01*
X339441Y254902D01*
X339510Y254922D01*
X339581Y254933D01*
X339627Y254957D01*
X339677Y254971D01*
X339736Y255012D01*
X339800Y255044D01*
X339837Y255082D01*
X339879Y255111D01*
X339922Y255169D01*
X339972Y255220D01*
X340007Y255283D01*
X340026Y255309D01*
X340033Y255331D01*
X340053Y255367D01*
X341354Y258507D01*
X345168Y262321D01*
X350153Y264386D01*
X355547Y264386D01*
X360532Y262321D01*
X363549Y259304D01*
X363623Y259251D01*
X363693Y259191D01*
X363723Y259179D01*
X363749Y259160D01*
X363836Y259133D01*
X363921Y259099D01*
X363962Y259095D01*
X363984Y259088D01*
X364016Y259089D01*
X364087Y259081D01*
X377265Y259081D01*
X377355Y259095D01*
X377446Y259103D01*
X377476Y259115D01*
X377508Y259120D01*
X377588Y259163D01*
X377672Y259199D01*
X377704Y259225D01*
X377725Y259236D01*
X377734Y259245D01*
X377735Y259245D01*
X377749Y259261D01*
X377803Y259304D01*
X391571Y273072D01*
X391624Y273146D01*
X391684Y273215D01*
X391696Y273245D01*
X391715Y273271D01*
X391742Y273358D01*
X391776Y273443D01*
X391780Y273484D01*
X391787Y273506D01*
X391786Y273539D01*
X391794Y273610D01*
X391794Y294715D01*
X391780Y294805D01*
X391772Y294896D01*
X391760Y294926D01*
X391755Y294958D01*
X391712Y295038D01*
X391676Y295122D01*
X391650Y295154D01*
X391639Y295175D01*
X391616Y295197D01*
X391571Y295253D01*
X377803Y309021D01*
X377729Y309074D01*
X377660Y309134D01*
X377630Y309146D01*
X377604Y309165D01*
X377517Y309192D01*
X377432Y309226D01*
X377391Y309230D01*
X377369Y309237D01*
X377336Y309236D01*
X377265Y309244D01*
X368738Y309244D01*
X368648Y309230D01*
X368557Y309222D01*
X368527Y309210D01*
X368495Y309205D01*
X368415Y309162D01*
X368331Y309126D01*
X368299Y309100D01*
X368278Y309089D01*
X368256Y309066D01*
X368200Y309021D01*
X366264Y307085D01*
X357636Y307085D01*
X351535Y313186D01*
X351535Y321814D01*
X353471Y323750D01*
X353524Y323824D01*
X353584Y323893D01*
X353596Y323923D01*
X353615Y323950D01*
X353642Y324037D01*
X353676Y324121D01*
X353680Y324162D01*
X353687Y324185D01*
X353686Y324217D01*
X353694Y324288D01*
X353694Y345637D01*
X353680Y345727D01*
X353672Y345818D01*
X353660Y345848D01*
X353655Y345880D01*
X353612Y345960D01*
X353576Y346044D01*
X353550Y346076D01*
X353539Y346097D01*
X353516Y346119D01*
X353471Y346175D01*
X351535Y348111D01*
X351535Y356739D01*
X357636Y362840D01*
X366264Y362840D01*
X372365Y356739D01*
X372365Y348111D01*
X370429Y346175D01*
X370376Y346101D01*
X370316Y346032D01*
X370304Y346002D01*
X370285Y345975D01*
X370258Y345888D01*
X370224Y345804D01*
X370220Y345763D01*
X370213Y345740D01*
X370214Y345708D01*
X370206Y345637D01*
X370206Y326517D01*
X370209Y326497D01*
X370207Y326478D01*
X370229Y326376D01*
X370245Y326274D01*
X370255Y326257D01*
X370259Y326237D01*
X370312Y326148D01*
X370361Y326057D01*
X370375Y326043D01*
X370385Y326026D01*
X370464Y325959D01*
X370539Y325887D01*
X370557Y325879D01*
X370572Y325866D01*
X370668Y325827D01*
X370762Y325784D01*
X370782Y325782D01*
X370800Y325774D01*
X370967Y325756D01*
X382642Y325756D01*
X385677Y324499D01*
X407049Y303127D01*
X408306Y300092D01*
X408306Y287266D01*
X408317Y287195D01*
X408319Y287124D01*
X408337Y287075D01*
X408345Y287023D01*
X408379Y286960D01*
X408404Y286893D01*
X408436Y286852D01*
X408461Y286806D01*
X408513Y286757D01*
X408557Y286701D01*
X408601Y286673D01*
X408639Y286637D01*
X408704Y286606D01*
X408764Y286568D01*
X408815Y286555D01*
X408862Y286533D01*
X408933Y286525D01*
X409003Y286508D01*
X409055Y286512D01*
X409106Y286506D01*
X409177Y286521D01*
X409248Y286527D01*
X409296Y286547D01*
X409347Y286558D01*
X409408Y286595D01*
X409474Y286623D01*
X409530Y286668D01*
X409558Y286684D01*
X409573Y286702D01*
X409605Y286728D01*
X411979Y289102D01*
X417735Y291486D01*
X423965Y291486D01*
X429721Y289102D01*
X434127Y284696D01*
X436511Y278940D01*
X436511Y272710D01*
X434127Y266954D01*
X429721Y262548D01*
X424885Y260545D01*
X424802Y260494D01*
X424716Y260448D01*
X424698Y260429D01*
X424676Y260416D01*
X424614Y260341D01*
X424547Y260270D01*
X424536Y260246D01*
X424519Y260226D01*
X424484Y260135D01*
X424443Y260047D01*
X424440Y260021D01*
X424431Y259997D01*
X424427Y259899D01*
X424416Y259803D01*
X424422Y259777D01*
X424420Y259751D01*
X424448Y259657D01*
X424468Y259562D01*
X424482Y259540D01*
X424489Y259515D01*
X424545Y259435D01*
X424594Y259351D01*
X424614Y259334D01*
X424629Y259313D01*
X424707Y259254D01*
X424781Y259191D01*
X424806Y259181D01*
X424827Y259166D01*
X424919Y259136D01*
X425010Y259099D01*
X425042Y259096D01*
X425061Y259090D01*
X425094Y259090D01*
X425176Y259081D01*
X436617Y259081D01*
X439652Y257824D01*
X451499Y245977D01*
X452756Y242942D01*
X452756Y84083D01*
X451499Y81048D01*
X437277Y66826D01*
X434242Y65569D01*
X425664Y65569D01*
X425574Y65555D01*
X425483Y65547D01*
X425454Y65535D01*
X425422Y65530D01*
X425341Y65487D01*
X425257Y65451D01*
X425225Y65425D01*
X425204Y65414D01*
X425182Y65391D01*
X425126Y65346D01*
X422784Y63004D01*
X418092Y61061D01*
X395108Y61061D01*
G37*
%LPD*%
%LPC*%
G36*
X395108Y161061D02*
X395108Y161061D01*
X390416Y163004D01*
X388074Y165346D01*
X388000Y165399D01*
X387930Y165459D01*
X387900Y165471D01*
X387874Y165490D01*
X387787Y165517D01*
X387702Y165551D01*
X387661Y165555D01*
X387639Y165562D01*
X387607Y165561D01*
X387536Y165569D01*
X313483Y165569D01*
X310448Y166826D01*
X281926Y195348D01*
X280669Y198383D01*
X280669Y271517D01*
X281926Y274552D01*
X300123Y292749D01*
X303158Y294006D01*
X326538Y294006D01*
X326628Y294020D01*
X326719Y294028D01*
X326748Y294040D01*
X326780Y294045D01*
X326861Y294088D01*
X326945Y294124D01*
X326977Y294150D01*
X326998Y294161D01*
X327020Y294184D01*
X327076Y294229D01*
X327371Y294524D01*
X327424Y294598D01*
X327484Y294668D01*
X327496Y294698D01*
X327515Y294724D01*
X327542Y294811D01*
X327576Y294896D01*
X327580Y294937D01*
X327587Y294959D01*
X327586Y294991D01*
X327594Y295062D01*
X327594Y304940D01*
X327580Y305030D01*
X327572Y305121D01*
X327560Y305151D01*
X327555Y305183D01*
X327512Y305263D01*
X327476Y305347D01*
X327450Y305379D01*
X327439Y305400D01*
X327416Y305422D01*
X327371Y305478D01*
X304151Y328698D01*
X302894Y331733D01*
X302894Y361512D01*
X302880Y361602D01*
X302872Y361693D01*
X302860Y361723D01*
X302855Y361755D01*
X302812Y361835D01*
X302776Y361919D01*
X302750Y361951D01*
X302739Y361972D01*
X302716Y361994D01*
X302671Y362050D01*
X300735Y363986D01*
X300735Y372614D01*
X306836Y378715D01*
X315464Y378715D01*
X321565Y372614D01*
X321565Y363986D01*
X319629Y362050D01*
X319576Y361976D01*
X319516Y361907D01*
X319504Y361877D01*
X319485Y361850D01*
X319458Y361763D01*
X319424Y361679D01*
X319420Y361638D01*
X319413Y361615D01*
X319414Y361583D01*
X319406Y361512D01*
X319406Y337110D01*
X319420Y337020D01*
X319428Y336929D01*
X319440Y336899D01*
X319445Y336867D01*
X319488Y336787D01*
X319524Y336703D01*
X319550Y336671D01*
X319561Y336650D01*
X319584Y336628D01*
X319629Y336572D01*
X342849Y313352D01*
X344106Y310317D01*
X344106Y295062D01*
X344120Y294972D01*
X344128Y294881D01*
X344140Y294852D01*
X344145Y294820D01*
X344188Y294739D01*
X344224Y294655D01*
X344250Y294623D01*
X344261Y294602D01*
X344284Y294580D01*
X344329Y294524D01*
X347346Y291507D01*
X349411Y286522D01*
X349411Y281128D01*
X347346Y276143D01*
X343532Y272329D01*
X338547Y270264D01*
X333153Y270264D01*
X328168Y272329D01*
X324354Y276143D01*
X323989Y277024D01*
X323927Y277124D01*
X323867Y277224D01*
X323863Y277228D01*
X323859Y277233D01*
X323769Y277308D01*
X323680Y277384D01*
X323675Y277386D01*
X323670Y277390D01*
X323561Y277432D01*
X323452Y277476D01*
X323445Y277477D01*
X323440Y277478D01*
X323422Y277479D01*
X323286Y277494D01*
X308535Y277494D01*
X308445Y277480D01*
X308354Y277472D01*
X308324Y277460D01*
X308292Y277455D01*
X308212Y277412D01*
X308128Y277376D01*
X308096Y277350D01*
X308075Y277339D01*
X308053Y277316D01*
X307997Y277271D01*
X297404Y266678D01*
X297351Y266604D01*
X297291Y266535D01*
X297279Y266505D01*
X297260Y266479D01*
X297233Y266392D01*
X297199Y266307D01*
X297195Y266266D01*
X297188Y266244D01*
X297189Y266211D01*
X297181Y266140D01*
X297181Y203760D01*
X297195Y203670D01*
X297203Y203579D01*
X297215Y203549D01*
X297220Y203517D01*
X297263Y203437D01*
X297299Y203353D01*
X297325Y203321D01*
X297336Y203300D01*
X297359Y203278D01*
X297404Y203222D01*
X318322Y182304D01*
X318396Y182251D01*
X318465Y182191D01*
X318495Y182179D01*
X318521Y182160D01*
X318608Y182133D01*
X318693Y182099D01*
X318734Y182095D01*
X318756Y182088D01*
X318789Y182089D01*
X318860Y182081D01*
X387536Y182081D01*
X387626Y182095D01*
X387717Y182103D01*
X387746Y182115D01*
X387778Y182120D01*
X387859Y182163D01*
X387943Y182199D01*
X387975Y182225D01*
X387996Y182236D01*
X388018Y182259D01*
X388074Y182304D01*
X390416Y184646D01*
X395108Y186589D01*
X418092Y186589D01*
X422784Y184646D01*
X426374Y181055D01*
X428318Y176364D01*
X428318Y171286D01*
X426374Y166595D01*
X422784Y163004D01*
X418092Y161061D01*
X395108Y161061D01*
G37*
%LPD*%
%LPC*%
G36*
X74960Y495807D02*
X74960Y495807D01*
X67817Y502950D01*
X67817Y513050D01*
X74960Y520193D01*
X85060Y520193D01*
X92172Y513081D01*
X92188Y513070D01*
X92200Y513054D01*
X92288Y512998D01*
X92371Y512938D01*
X92390Y512932D01*
X92407Y512921D01*
X92508Y512896D01*
X92607Y512865D01*
X92626Y512866D01*
X92646Y512861D01*
X92749Y512869D01*
X92852Y512872D01*
X92871Y512879D01*
X92891Y512880D01*
X92986Y512921D01*
X93083Y512956D01*
X93099Y512969D01*
X93117Y512977D01*
X93248Y513081D01*
X100360Y520193D01*
X110460Y520193D01*
X117572Y513081D01*
X117588Y513070D01*
X117600Y513054D01*
X117688Y512998D01*
X117771Y512938D01*
X117790Y512932D01*
X117807Y512921D01*
X117908Y512896D01*
X118007Y512865D01*
X118026Y512866D01*
X118046Y512861D01*
X118149Y512869D01*
X118252Y512872D01*
X118271Y512879D01*
X118291Y512880D01*
X118386Y512921D01*
X118483Y512956D01*
X118499Y512969D01*
X118517Y512977D01*
X118648Y513081D01*
X125760Y520193D01*
X135860Y520193D01*
X142972Y513081D01*
X142988Y513070D01*
X143000Y513054D01*
X143088Y512998D01*
X143171Y512938D01*
X143190Y512932D01*
X143207Y512921D01*
X143308Y512896D01*
X143407Y512865D01*
X143426Y512866D01*
X143446Y512861D01*
X143549Y512869D01*
X143652Y512872D01*
X143671Y512879D01*
X143691Y512880D01*
X143786Y512921D01*
X143883Y512956D01*
X143899Y512969D01*
X143917Y512977D01*
X144048Y513081D01*
X151160Y520193D01*
X161260Y520193D01*
X168372Y513081D01*
X168388Y513070D01*
X168400Y513054D01*
X168488Y512998D01*
X168571Y512938D01*
X168590Y512932D01*
X168607Y512921D01*
X168708Y512896D01*
X168807Y512865D01*
X168826Y512866D01*
X168846Y512861D01*
X168949Y512869D01*
X169052Y512872D01*
X169071Y512879D01*
X169091Y512880D01*
X169186Y512921D01*
X169283Y512956D01*
X169299Y512969D01*
X169317Y512977D01*
X169448Y513081D01*
X176560Y520193D01*
X186660Y520193D01*
X193772Y513081D01*
X193788Y513070D01*
X193800Y513054D01*
X193888Y512998D01*
X193971Y512938D01*
X193990Y512932D01*
X194007Y512921D01*
X194108Y512896D01*
X194207Y512865D01*
X194226Y512866D01*
X194246Y512861D01*
X194349Y512869D01*
X194452Y512872D01*
X194471Y512879D01*
X194491Y512880D01*
X194586Y512921D01*
X194683Y512956D01*
X194699Y512969D01*
X194717Y512977D01*
X194848Y513081D01*
X201960Y520193D01*
X212060Y520193D01*
X219203Y513050D01*
X219203Y502950D01*
X212060Y495807D01*
X201960Y495807D01*
X194848Y502919D01*
X194832Y502930D01*
X194820Y502946D01*
X194732Y503002D01*
X194649Y503062D01*
X194630Y503068D01*
X194613Y503079D01*
X194512Y503104D01*
X194413Y503135D01*
X194394Y503134D01*
X194374Y503139D01*
X194271Y503131D01*
X194168Y503128D01*
X194149Y503121D01*
X194129Y503120D01*
X194034Y503079D01*
X193937Y503044D01*
X193921Y503031D01*
X193903Y503023D01*
X193772Y502919D01*
X186660Y495807D01*
X176560Y495807D01*
X169448Y502919D01*
X169432Y502930D01*
X169420Y502946D01*
X169332Y503002D01*
X169249Y503062D01*
X169230Y503068D01*
X169213Y503079D01*
X169112Y503104D01*
X169013Y503135D01*
X168994Y503134D01*
X168974Y503139D01*
X168871Y503131D01*
X168768Y503128D01*
X168749Y503121D01*
X168729Y503120D01*
X168634Y503079D01*
X168537Y503044D01*
X168521Y503031D01*
X168503Y503023D01*
X168372Y502919D01*
X161260Y495807D01*
X151160Y495807D01*
X144048Y502919D01*
X144032Y502930D01*
X144020Y502946D01*
X143932Y503002D01*
X143849Y503062D01*
X143830Y503068D01*
X143813Y503079D01*
X143712Y503104D01*
X143613Y503135D01*
X143594Y503134D01*
X143574Y503139D01*
X143471Y503131D01*
X143368Y503128D01*
X143349Y503121D01*
X143329Y503120D01*
X143234Y503079D01*
X143137Y503044D01*
X143121Y503031D01*
X143103Y503023D01*
X142972Y502919D01*
X135860Y495807D01*
X125760Y495807D01*
X118648Y502919D01*
X118632Y502930D01*
X118620Y502946D01*
X118532Y503002D01*
X118449Y503062D01*
X118430Y503068D01*
X118413Y503079D01*
X118312Y503104D01*
X118213Y503135D01*
X118194Y503134D01*
X118174Y503139D01*
X118071Y503131D01*
X117968Y503128D01*
X117949Y503121D01*
X117929Y503120D01*
X117834Y503079D01*
X117737Y503044D01*
X117721Y503031D01*
X117703Y503023D01*
X117572Y502919D01*
X110460Y495807D01*
X100360Y495807D01*
X93248Y502919D01*
X93232Y502930D01*
X93220Y502946D01*
X93132Y503002D01*
X93049Y503062D01*
X93030Y503068D01*
X93013Y503079D01*
X92912Y503104D01*
X92813Y503135D01*
X92794Y503134D01*
X92774Y503139D01*
X92671Y503131D01*
X92568Y503128D01*
X92549Y503121D01*
X92529Y503120D01*
X92434Y503079D01*
X92337Y503044D01*
X92321Y503031D01*
X92303Y503023D01*
X92172Y502919D01*
X85060Y495807D01*
X74960Y495807D01*
G37*
%LPD*%
%LPC*%
G36*
X293400Y13207D02*
X293400Y13207D01*
X286257Y20350D01*
X286257Y30450D01*
X293400Y37593D01*
X303500Y37593D01*
X310612Y30481D01*
X310628Y30470D01*
X310640Y30454D01*
X310728Y30398D01*
X310811Y30338D01*
X310830Y30332D01*
X310847Y30321D01*
X310948Y30296D01*
X311047Y30265D01*
X311066Y30266D01*
X311086Y30261D01*
X311189Y30269D01*
X311292Y30272D01*
X311311Y30279D01*
X311331Y30280D01*
X311426Y30321D01*
X311523Y30356D01*
X311539Y30369D01*
X311557Y30377D01*
X311688Y30481D01*
X318800Y37593D01*
X328900Y37593D01*
X336012Y30481D01*
X336028Y30470D01*
X336040Y30454D01*
X336128Y30398D01*
X336211Y30338D01*
X336230Y30332D01*
X336247Y30321D01*
X336348Y30296D01*
X336447Y30265D01*
X336466Y30266D01*
X336486Y30261D01*
X336589Y30269D01*
X336692Y30272D01*
X336711Y30279D01*
X336731Y30280D01*
X336826Y30321D01*
X336923Y30356D01*
X336939Y30369D01*
X336957Y30377D01*
X337088Y30481D01*
X344200Y37593D01*
X354300Y37593D01*
X361412Y30481D01*
X361428Y30470D01*
X361440Y30454D01*
X361528Y30398D01*
X361611Y30338D01*
X361630Y30332D01*
X361647Y30321D01*
X361748Y30296D01*
X361847Y30265D01*
X361866Y30266D01*
X361886Y30261D01*
X361989Y30269D01*
X362092Y30272D01*
X362111Y30279D01*
X362131Y30280D01*
X362226Y30321D01*
X362323Y30356D01*
X362339Y30369D01*
X362357Y30377D01*
X362488Y30481D01*
X369600Y37593D01*
X379700Y37593D01*
X386812Y30481D01*
X386828Y30470D01*
X386840Y30454D01*
X386928Y30398D01*
X387011Y30338D01*
X387030Y30332D01*
X387047Y30321D01*
X387148Y30296D01*
X387247Y30265D01*
X387266Y30266D01*
X387286Y30261D01*
X387389Y30269D01*
X387492Y30272D01*
X387511Y30279D01*
X387531Y30280D01*
X387626Y30321D01*
X387723Y30356D01*
X387739Y30369D01*
X387757Y30377D01*
X387888Y30481D01*
X395000Y37593D01*
X405100Y37593D01*
X412212Y30481D01*
X412228Y30470D01*
X412240Y30454D01*
X412328Y30398D01*
X412411Y30338D01*
X412430Y30332D01*
X412447Y30321D01*
X412548Y30296D01*
X412647Y30265D01*
X412666Y30266D01*
X412686Y30261D01*
X412789Y30269D01*
X412892Y30272D01*
X412911Y30279D01*
X412931Y30280D01*
X413026Y30321D01*
X413123Y30356D01*
X413139Y30369D01*
X413157Y30377D01*
X413288Y30481D01*
X420400Y37593D01*
X430500Y37593D01*
X437643Y30450D01*
X437643Y20350D01*
X430500Y13207D01*
X420400Y13207D01*
X413288Y20319D01*
X413272Y20330D01*
X413260Y20346D01*
X413172Y20402D01*
X413089Y20462D01*
X413070Y20468D01*
X413053Y20479D01*
X412952Y20504D01*
X412853Y20535D01*
X412834Y20534D01*
X412814Y20539D01*
X412711Y20531D01*
X412608Y20528D01*
X412589Y20521D01*
X412569Y20520D01*
X412474Y20479D01*
X412377Y20444D01*
X412361Y20431D01*
X412343Y20423D01*
X412212Y20319D01*
X405100Y13207D01*
X395000Y13207D01*
X387888Y20319D01*
X387872Y20330D01*
X387860Y20346D01*
X387772Y20402D01*
X387689Y20462D01*
X387670Y20468D01*
X387653Y20479D01*
X387552Y20504D01*
X387453Y20535D01*
X387434Y20534D01*
X387414Y20539D01*
X387311Y20531D01*
X387208Y20528D01*
X387189Y20521D01*
X387169Y20520D01*
X387074Y20479D01*
X386977Y20444D01*
X386961Y20431D01*
X386943Y20423D01*
X386812Y20319D01*
X379700Y13207D01*
X369600Y13207D01*
X362488Y20319D01*
X362472Y20330D01*
X362460Y20346D01*
X362372Y20402D01*
X362289Y20462D01*
X362270Y20468D01*
X362253Y20479D01*
X362152Y20504D01*
X362053Y20535D01*
X362034Y20534D01*
X362014Y20539D01*
X361911Y20531D01*
X361808Y20528D01*
X361789Y20521D01*
X361769Y20520D01*
X361674Y20479D01*
X361577Y20444D01*
X361561Y20431D01*
X361543Y20423D01*
X361412Y20319D01*
X354300Y13207D01*
X344200Y13207D01*
X337088Y20319D01*
X337072Y20330D01*
X337060Y20346D01*
X336972Y20402D01*
X336889Y20462D01*
X336870Y20468D01*
X336853Y20479D01*
X336752Y20504D01*
X336653Y20535D01*
X336634Y20534D01*
X336614Y20539D01*
X336511Y20531D01*
X336408Y20528D01*
X336389Y20521D01*
X336369Y20520D01*
X336274Y20479D01*
X336177Y20444D01*
X336161Y20431D01*
X336143Y20423D01*
X336012Y20319D01*
X328900Y13207D01*
X318800Y13207D01*
X311688Y20319D01*
X311672Y20330D01*
X311660Y20346D01*
X311572Y20402D01*
X311489Y20462D01*
X311470Y20468D01*
X311453Y20479D01*
X311352Y20504D01*
X311253Y20535D01*
X311234Y20534D01*
X311214Y20539D01*
X311111Y20531D01*
X311008Y20528D01*
X310989Y20521D01*
X310969Y20520D01*
X310874Y20479D01*
X310777Y20444D01*
X310761Y20431D01*
X310743Y20423D01*
X310612Y20319D01*
X303500Y13207D01*
X293400Y13207D01*
G37*
%LPD*%
%LPC*%
G36*
X383036Y342010D02*
X383036Y342010D01*
X376935Y348111D01*
X376935Y356739D01*
X376966Y356770D01*
X377011Y356832D01*
X377041Y356863D01*
X377046Y356875D01*
X377079Y356913D01*
X377091Y356944D01*
X377110Y356970D01*
X377137Y357057D01*
X377171Y357142D01*
X377175Y357182D01*
X377182Y357205D01*
X377181Y357237D01*
X377189Y357308D01*
X377189Y370078D01*
X377186Y370098D01*
X377188Y370117D01*
X377166Y370219D01*
X377150Y370321D01*
X377140Y370338D01*
X377136Y370358D01*
X377083Y370447D01*
X377034Y370538D01*
X377020Y370552D01*
X377010Y370569D01*
X376931Y370636D01*
X376856Y370708D01*
X376838Y370716D01*
X376823Y370729D01*
X376727Y370768D01*
X376633Y370811D01*
X376613Y370813D01*
X376595Y370821D01*
X376428Y370839D01*
X354133Y370839D01*
X354043Y370825D01*
X353952Y370817D01*
X353922Y370805D01*
X353890Y370800D01*
X353810Y370757D01*
X353726Y370721D01*
X353694Y370695D01*
X353673Y370684D01*
X353651Y370661D01*
X353595Y370616D01*
X353564Y370585D01*
X344936Y370585D01*
X338835Y376686D01*
X338835Y385314D01*
X344936Y391415D01*
X353564Y391415D01*
X353595Y391384D01*
X353669Y391331D01*
X353738Y391271D01*
X353769Y391259D01*
X353795Y391240D01*
X353882Y391213D01*
X353967Y391179D01*
X354007Y391175D01*
X354030Y391168D01*
X354062Y391169D01*
X354133Y391161D01*
X382467Y391161D01*
X382557Y391175D01*
X382648Y391183D01*
X382678Y391195D01*
X382710Y391200D01*
X382790Y391243D01*
X382874Y391279D01*
X382906Y391305D01*
X382927Y391316D01*
X382949Y391339D01*
X383005Y391384D01*
X383036Y391415D01*
X391664Y391415D01*
X397765Y385314D01*
X397765Y376686D01*
X397734Y376655D01*
X397681Y376581D01*
X397621Y376512D01*
X397609Y376481D01*
X397590Y376455D01*
X397563Y376368D01*
X397529Y376283D01*
X397525Y376243D01*
X397518Y376220D01*
X397519Y376188D01*
X397511Y376117D01*
X397511Y357308D01*
X397525Y357218D01*
X397533Y357127D01*
X397545Y357097D01*
X397550Y357065D01*
X397593Y356985D01*
X397629Y356901D01*
X397655Y356869D01*
X397666Y356848D01*
X397689Y356826D01*
X397700Y356812D01*
X397707Y356801D01*
X397714Y356794D01*
X397734Y356770D01*
X397765Y356739D01*
X397765Y348111D01*
X391664Y342010D01*
X383036Y342010D01*
G37*
%LPD*%
%LPC*%
G36*
X141736Y383285D02*
X141736Y383285D01*
X135635Y389386D01*
X135635Y398014D01*
X135666Y398045D01*
X135719Y398119D01*
X135779Y398188D01*
X135791Y398219D01*
X135810Y398245D01*
X135837Y398332D01*
X135871Y398417D01*
X135875Y398457D01*
X135882Y398480D01*
X135881Y398512D01*
X135889Y398583D01*
X135889Y433821D01*
X137436Y437556D01*
X140294Y440414D01*
X144029Y441961D01*
X148071Y441961D01*
X151806Y440414D01*
X154664Y437556D01*
X156211Y433821D01*
X156211Y398583D01*
X156225Y398493D01*
X156233Y398402D01*
X156245Y398372D01*
X156250Y398340D01*
X156293Y398260D01*
X156329Y398176D01*
X156355Y398144D01*
X156366Y398123D01*
X156389Y398101D01*
X156434Y398045D01*
X156465Y398014D01*
X156465Y389386D01*
X150364Y383285D01*
X141736Y383285D01*
G37*
%LPD*%
%LPC*%
G36*
X338153Y205264D02*
X338153Y205264D01*
X333168Y207329D01*
X329354Y211143D01*
X327289Y216128D01*
X327289Y221522D01*
X329354Y226507D01*
X333168Y230321D01*
X338153Y232386D01*
X343547Y232386D01*
X348532Y230321D01*
X352346Y226507D01*
X354411Y221522D01*
X354411Y216128D01*
X352346Y211143D01*
X348532Y207329D01*
X343547Y205264D01*
X338153Y205264D01*
G37*
%LPD*%
%LPC*%
G36*
X24160Y495807D02*
X24160Y495807D01*
X17017Y502950D01*
X17017Y513050D01*
X24160Y520193D01*
X34260Y520193D01*
X41403Y513050D01*
X41403Y502950D01*
X34260Y495807D01*
X24160Y495807D01*
G37*
%LPD*%
%LPC*%
G36*
X242600Y13207D02*
X242600Y13207D01*
X235457Y20350D01*
X235457Y30450D01*
X242600Y37593D01*
X252700Y37593D01*
X259843Y30450D01*
X259843Y20350D01*
X252700Y13207D01*
X242600Y13207D01*
G37*
%LPD*%
%LPC*%
G36*
X93380Y422401D02*
X93380Y422401D01*
X89926Y423832D01*
X87282Y426476D01*
X85851Y429930D01*
X85851Y433670D01*
X87282Y437124D01*
X89926Y439768D01*
X93380Y441199D01*
X97120Y441199D01*
X100574Y439768D01*
X103218Y437124D01*
X104649Y433670D01*
X104649Y429930D01*
X103218Y426476D01*
X100574Y423832D01*
X97120Y422401D01*
X93380Y422401D01*
G37*
%LPD*%
%LPC*%
G36*
X408123Y125348D02*
X408123Y125348D01*
X408123Y135319D01*
X416458Y135319D01*
X418245Y135036D01*
X419966Y134477D01*
X421578Y133656D01*
X423042Y132592D01*
X424321Y131313D01*
X425384Y129849D01*
X426206Y128237D01*
X426765Y126517D01*
X426950Y125348D01*
X408123Y125348D01*
G37*
%LPD*%
%LPC*%
G36*
X386250Y125348D02*
X386250Y125348D01*
X386435Y126517D01*
X386994Y128237D01*
X387816Y129849D01*
X388879Y131313D01*
X390158Y132592D01*
X391622Y133656D01*
X393234Y134477D01*
X394955Y135036D01*
X396742Y135319D01*
X405077Y135319D01*
X405077Y125348D01*
X386250Y125348D01*
G37*
%LPD*%
%LPC*%
G36*
X408123Y112331D02*
X408123Y112331D01*
X408123Y122302D01*
X426950Y122302D01*
X426765Y121133D01*
X426206Y119413D01*
X425384Y117801D01*
X424321Y116337D01*
X423042Y115058D01*
X421578Y113994D01*
X419966Y113173D01*
X418245Y112614D01*
X416458Y112331D01*
X408123Y112331D01*
G37*
%LPD*%
%LPC*%
G36*
X396742Y112331D02*
X396742Y112331D01*
X394955Y112614D01*
X393234Y113173D01*
X391622Y113994D01*
X390158Y115058D01*
X388879Y116337D01*
X387816Y117801D01*
X386994Y119413D01*
X386435Y121133D01*
X386250Y122302D01*
X405077Y122302D01*
X405077Y112331D01*
X396742Y112331D01*
G37*
%LPD*%
%LPC*%
G36*
X374373Y287348D02*
X374373Y287348D01*
X374373Y298028D01*
X375728Y297813D01*
X377568Y297215D01*
X379292Y296337D01*
X380857Y295200D01*
X382225Y293832D01*
X383362Y292267D01*
X384240Y290543D01*
X384838Y288703D01*
X385053Y287348D01*
X374373Y287348D01*
G37*
%LPD*%
%LPC*%
G36*
X374373Y284302D02*
X374373Y284302D01*
X385053Y284302D01*
X384838Y282947D01*
X384240Y281107D01*
X383362Y279383D01*
X382225Y277818D01*
X380857Y276450D01*
X379292Y275313D01*
X377568Y274435D01*
X375728Y273837D01*
X374373Y273622D01*
X374373Y284302D01*
G37*
%LPD*%
%LPC*%
G36*
X360647Y287348D02*
X360647Y287348D01*
X360862Y288703D01*
X361460Y290543D01*
X362338Y292267D01*
X363475Y293832D01*
X364843Y295200D01*
X366408Y296337D01*
X368132Y297215D01*
X369972Y297813D01*
X371327Y298028D01*
X371327Y287348D01*
X360647Y287348D01*
G37*
%LPD*%
%LPC*%
G36*
X369972Y273837D02*
X369972Y273837D01*
X368132Y274435D01*
X366408Y275313D01*
X364843Y276450D01*
X363475Y277818D01*
X362338Y279383D01*
X361460Y281107D01*
X360862Y282947D01*
X360647Y284302D01*
X371327Y284302D01*
X371327Y273622D01*
X369972Y273837D01*
G37*
%LPD*%
%LPC*%
G36*
X56133Y509523D02*
X56133Y509523D01*
X56133Y518923D01*
X59134Y518923D01*
X65533Y512524D01*
X65533Y509523D01*
X56133Y509523D01*
G37*
%LPD*%
%LPC*%
G36*
X198373Y26923D02*
X198373Y26923D01*
X198373Y36323D01*
X201374Y36323D01*
X207773Y29924D01*
X207773Y26923D01*
X198373Y26923D01*
G37*
%LPD*%
%LPC*%
G36*
X223773Y26923D02*
X223773Y26923D01*
X223773Y36323D01*
X226774Y36323D01*
X233173Y29924D01*
X233173Y26923D01*
X223773Y26923D01*
G37*
%LPD*%
%LPC*%
G36*
X43687Y509523D02*
X43687Y509523D01*
X43687Y512524D01*
X50086Y518923D01*
X53087Y518923D01*
X53087Y509523D01*
X43687Y509523D01*
G37*
%LPD*%
%LPC*%
G36*
X223773Y14477D02*
X223773Y14477D01*
X223773Y23877D01*
X233173Y23877D01*
X233173Y20876D01*
X226774Y14477D01*
X223773Y14477D01*
G37*
%LPD*%
%LPC*%
G36*
X198373Y14477D02*
X198373Y14477D01*
X198373Y23877D01*
X207773Y23877D01*
X207773Y20876D01*
X201374Y14477D01*
X198373Y14477D01*
G37*
%LPD*%
%LPC*%
G36*
X185927Y26923D02*
X185927Y26923D01*
X185927Y29924D01*
X192326Y36323D01*
X195327Y36323D01*
X195327Y26923D01*
X185927Y26923D01*
G37*
%LPD*%
%LPC*%
G36*
X56133Y497077D02*
X56133Y497077D01*
X56133Y506477D01*
X65533Y506477D01*
X65533Y503476D01*
X59134Y497077D01*
X56133Y497077D01*
G37*
%LPD*%
%LPC*%
G36*
X211327Y26923D02*
X211327Y26923D01*
X211327Y29924D01*
X217726Y36323D01*
X220727Y36323D01*
X220727Y26923D01*
X211327Y26923D01*
G37*
%LPD*%
%LPC*%
G36*
X50086Y497077D02*
X50086Y497077D01*
X43687Y503476D01*
X43687Y506477D01*
X53087Y506477D01*
X53087Y497077D01*
X50086Y497077D01*
G37*
%LPD*%
%LPC*%
G36*
X217726Y14477D02*
X217726Y14477D01*
X211327Y20876D01*
X211327Y23877D01*
X220727Y23877D01*
X220727Y14477D01*
X217726Y14477D01*
G37*
%LPD*%
%LPC*%
G36*
X192326Y14477D02*
X192326Y14477D01*
X185927Y20876D01*
X185927Y23877D01*
X195327Y23877D01*
X195327Y14477D01*
X192326Y14477D01*
G37*
%LPD*%
%LPC*%
G36*
X439673Y319023D02*
X439673Y319023D01*
X439673Y326645D01*
X441938Y326645D01*
X447295Y321288D01*
X447295Y319023D01*
X439673Y319023D01*
G37*
%LPD*%
%LPC*%
G36*
X274573Y382523D02*
X274573Y382523D01*
X274573Y390145D01*
X276838Y390145D01*
X282195Y384788D01*
X282195Y382523D01*
X274573Y382523D01*
G37*
%LPD*%
%LPC*%
G36*
X198373Y382523D02*
X198373Y382523D01*
X198373Y390145D01*
X200638Y390145D01*
X205995Y384788D01*
X205995Y382523D01*
X198373Y382523D01*
G37*
%LPD*%
%LPC*%
G36*
X312673Y433323D02*
X312673Y433323D01*
X312673Y440945D01*
X314938Y440945D01*
X320295Y435588D01*
X320295Y433323D01*
X312673Y433323D01*
G37*
%LPD*%
%LPC*%
G36*
X350773Y458723D02*
X350773Y458723D01*
X350773Y466345D01*
X353038Y466345D01*
X358395Y460988D01*
X358395Y458723D01*
X350773Y458723D01*
G37*
%LPD*%
%LPC*%
G36*
X429005Y319023D02*
X429005Y319023D01*
X429005Y321288D01*
X434362Y326645D01*
X436627Y326645D01*
X436627Y319023D01*
X429005Y319023D01*
G37*
%LPD*%
%LPC*%
G36*
X198373Y371855D02*
X198373Y371855D01*
X198373Y379477D01*
X205995Y379477D01*
X205995Y377212D01*
X200638Y371855D01*
X198373Y371855D01*
G37*
%LPD*%
%LPC*%
G36*
X439673Y308355D02*
X439673Y308355D01*
X439673Y315977D01*
X447295Y315977D01*
X447295Y313712D01*
X441938Y308355D01*
X439673Y308355D01*
G37*
%LPD*%
%LPC*%
G36*
X263905Y382523D02*
X263905Y382523D01*
X263905Y384788D01*
X269262Y390145D01*
X271527Y390145D01*
X271527Y382523D01*
X263905Y382523D01*
G37*
%LPD*%
%LPC*%
G36*
X187705Y382523D02*
X187705Y382523D01*
X187705Y384788D01*
X193062Y390145D01*
X195327Y390145D01*
X195327Y382523D01*
X187705Y382523D01*
G37*
%LPD*%
%LPC*%
G36*
X312673Y422655D02*
X312673Y422655D01*
X312673Y430277D01*
X320295Y430277D01*
X320295Y428012D01*
X314938Y422655D01*
X312673Y422655D01*
G37*
%LPD*%
%LPC*%
G36*
X302005Y433323D02*
X302005Y433323D01*
X302005Y435588D01*
X307362Y440945D01*
X309627Y440945D01*
X309627Y433323D01*
X302005Y433323D01*
G37*
%LPD*%
%LPC*%
G36*
X350773Y448055D02*
X350773Y448055D01*
X350773Y455677D01*
X358395Y455677D01*
X358395Y453412D01*
X353038Y448055D01*
X350773Y448055D01*
G37*
%LPD*%
%LPC*%
G36*
X274573Y371855D02*
X274573Y371855D01*
X274573Y379477D01*
X282195Y379477D01*
X282195Y377212D01*
X276838Y371855D01*
X274573Y371855D01*
G37*
%LPD*%
%LPC*%
G36*
X340105Y458723D02*
X340105Y458723D01*
X340105Y460988D01*
X345462Y466345D01*
X347727Y466345D01*
X347727Y458723D01*
X340105Y458723D01*
G37*
%LPD*%
%LPC*%
G36*
X269262Y371855D02*
X269262Y371855D01*
X263905Y377212D01*
X263905Y379477D01*
X271527Y379477D01*
X271527Y371855D01*
X269262Y371855D01*
G37*
%LPD*%
%LPC*%
G36*
X307362Y422655D02*
X307362Y422655D01*
X302005Y428012D01*
X302005Y430277D01*
X309627Y430277D01*
X309627Y422655D01*
X307362Y422655D01*
G37*
%LPD*%
%LPC*%
G36*
X345462Y448055D02*
X345462Y448055D01*
X340105Y453412D01*
X340105Y455677D01*
X347727Y455677D01*
X347727Y448055D01*
X345462Y448055D01*
G37*
%LPD*%
%LPC*%
G36*
X193062Y371855D02*
X193062Y371855D01*
X187705Y377212D01*
X187705Y379477D01*
X195327Y379477D01*
X195327Y371855D01*
X193062Y371855D01*
G37*
%LPD*%
%LPC*%
G36*
X434362Y308355D02*
X434362Y308355D01*
X429005Y313712D01*
X429005Y315977D01*
X436627Y315977D01*
X436627Y308355D01*
X434362Y308355D01*
G37*
%LPD*%
%LPC*%
G36*
X438149Y317499D02*
X438149Y317499D01*
X438149Y317501D01*
X438151Y317501D01*
X438151Y317499D01*
X438149Y317499D01*
G37*
%LPD*%
%LPC*%
G36*
X273049Y380999D02*
X273049Y380999D01*
X273049Y381001D01*
X273051Y381001D01*
X273051Y380999D01*
X273049Y380999D01*
G37*
%LPD*%
%LPC*%
G36*
X196849Y380999D02*
X196849Y380999D01*
X196849Y381001D01*
X196851Y381001D01*
X196851Y380999D01*
X196849Y380999D01*
G37*
%LPD*%
%LPC*%
G36*
X372849Y285824D02*
X372849Y285824D01*
X372849Y285826D01*
X372851Y285826D01*
X372851Y285824D01*
X372849Y285824D01*
G37*
%LPD*%
%LPC*%
G36*
X311149Y431799D02*
X311149Y431799D01*
X311149Y431801D01*
X311151Y431801D01*
X311151Y431799D01*
X311149Y431799D01*
G37*
%LPD*%
%LPC*%
G36*
X349249Y457199D02*
X349249Y457199D01*
X349249Y457201D01*
X349251Y457201D01*
X349251Y457199D01*
X349249Y457199D01*
G37*
%LPD*%
%LPC*%
G36*
X222249Y25399D02*
X222249Y25399D01*
X222249Y25401D01*
X222251Y25401D01*
X222251Y25399D01*
X222249Y25399D01*
G37*
%LPD*%
%LPC*%
G36*
X196849Y25399D02*
X196849Y25399D01*
X196849Y25401D01*
X196851Y25401D01*
X196851Y25399D01*
X196849Y25399D01*
G37*
%LPD*%
%LPC*%
G36*
X54609Y507999D02*
X54609Y507999D01*
X54609Y508001D01*
X54611Y508001D01*
X54611Y507999D01*
X54609Y507999D01*
G37*
%LPD*%
%LPC*%
G36*
X406599Y123824D02*
X406599Y123824D01*
X406599Y123826D01*
X406601Y123826D01*
X406601Y123824D01*
X406599Y123824D01*
G37*
%LPD*%
D10*
X361950Y352425D03*
X387350Y352425D03*
D11*
X311150Y431800D03*
X311150Y457200D03*
D12*
X311150Y393700D03*
X311150Y368300D03*
D13*
X438150Y317500D03*
X361950Y317500D03*
D11*
X349250Y381000D03*
X349250Y457200D03*
X387350Y381000D03*
X387350Y457200D03*
D13*
X146050Y393700D03*
X69850Y393700D03*
D14*
X95250Y431800D03*
X120650Y457200D03*
X146050Y431800D03*
D11*
X196850Y381000D03*
X196850Y457200D03*
X273050Y381000D03*
X273050Y457200D03*
D12*
X234950Y457200D03*
X234950Y381000D03*
D15*
X323850Y508000D03*
X298450Y25400D03*
X349250Y508000D03*
X374650Y508000D03*
X400050Y508000D03*
X425450Y508000D03*
X298450Y508000D03*
X273050Y508000D03*
X247650Y508000D03*
X207010Y508000D03*
X181610Y508000D03*
X156210Y508000D03*
X130810Y508000D03*
X105410Y508000D03*
X80010Y508000D03*
X54610Y508000D03*
X29210Y508000D03*
X323850Y25400D03*
X349250Y25400D03*
X374650Y25400D03*
X400050Y25400D03*
X425450Y25400D03*
X247650Y25400D03*
X222250Y25400D03*
X196850Y25400D03*
X171450Y25400D03*
X146050Y25400D03*
X120650Y25400D03*
D16*
X372850Y285825D03*
X352850Y250825D03*
X335850Y283825D03*
X340850Y218825D03*
X325850Y250825D03*
D17*
X397647Y73825D02*
X415554Y73825D01*
X415554Y123825D02*
X397647Y123825D01*
X397647Y173825D02*
X415554Y173825D01*
D18*
X387350Y381000D02*
X349250Y381000D01*
X387350Y381000D02*
X387350Y352425D01*
X107950Y355600D02*
X69850Y393700D01*
X107950Y352425D02*
X206375Y352425D01*
X234950Y381000D01*
X146050Y168275D02*
X146050Y25400D01*
X146050Y168275D02*
X107950Y206375D01*
X107950Y352425D01*
X107950Y355600D01*
D19*
X234950Y457200D02*
X273050Y457200D01*
X311150Y457200D01*
X273050Y457200D02*
X273050Y508000D01*
X304800Y393700D02*
X311150Y393700D01*
X304800Y393700D02*
X273050Y425450D01*
X273050Y457200D01*
X196850Y457200D02*
X120650Y457200D01*
X196850Y457200D02*
X247650Y508000D01*
X335850Y308675D02*
X335850Y283825D01*
X335850Y308675D02*
X311150Y333375D01*
X311150Y368300D01*
X315125Y173825D02*
X406600Y173825D01*
X315125Y173825D02*
X288925Y200025D01*
X288925Y269875D01*
X304800Y285750D01*
X333925Y285750D01*
X335850Y283825D01*
X387350Y463550D02*
X349250Y501650D01*
X349250Y508000D01*
X387350Y463550D02*
X387350Y457200D01*
X361950Y352425D02*
X361950Y317500D01*
X381000Y317500D02*
X400050Y298450D01*
X381000Y317500D02*
X361950Y317500D01*
X352850Y250825D02*
X381000Y250825D01*
X400050Y269875D01*
X400050Y298450D01*
X406600Y73825D02*
X432600Y73825D01*
X444500Y85725D01*
X444500Y241300D01*
X434975Y250825D01*
X381000Y250825D01*
D18*
X146050Y393700D02*
X146050Y431800D01*
M02*
